<?xml version="1.0" standalone="no"?>
<!DOCTYPE svg PUBLIC "-//W3C//DTD SVG 1.1//EN" "http://www.w3.org/Graphics/SVG/1.1/DTD/svg11.dtd" >
<svg xmlns="http://www.w3.org/2000/svg" xmlns:xlink="http://www.w3.org/1999/xlink" version="1.1">
<metadata>
Created by FontForge 20190801 at Mon May 23 14:38:23 2011
 By Jimmy Wärting
Copyright (c) Latin (by ITF) cyr code page by A.Gophman on base 'Art and Letters 1912', 2011. All rights reserved.
</metadata>
<defs>
<font id="ConstaciaModern" horiz-adv-x="1084" >
  <font-face 
    font-family="Constacia Modern"
    font-weight="300"
    font-stretch="normal"
    units-per-em="2048"
    panose-1="2 0 5 6 9 0 0 2 0 3"
    ascent="1638"
    descent="-410"
    x-height="1057"
    cap-height="1568"
    bbox="-108 -571 2270 2148"
    underline-thickness="102"
    underline-position="-204"
    unicode-range="U+0020-2122"
  />
<missing-glyph horiz-adv-x="987" 
d="M186 1360v-1438h614v1438h-614zM51 -212v1705h885v-1705h-885z" />
    <glyph glyph-name=".notdef" horiz-adv-x="987" 
d="M186 1360v-1438h614v1438h-614zM51 -212v1705h885v-1705h-885z" />
    <glyph glyph-name="space" unicode=" " horiz-adv-x="450" 
 />
    <glyph glyph-name="exclam" unicode="!" horiz-adv-x="548" 
d="M160 22q-43 43 -43 105t44 104h-1q42 42 103 42q63 0 105 -42h-1q44 -42 44 -104q0 -61 -44 -105q-44 -41 -104 -41q-29 0 -54.5 10t-47.5 31h-1zM355 300q-30 29 -37.5 39t-8.5 14q-1 2 -2 4.5t-12 17.5q-5 8 -10 14t-11 11q-13 12 -39.5 20.5t-63.5 8.5l-23 903
q-4 66 -29.5 124.5t-75.5 107.5h457q-26 -20 -45.5 -36.5t-24.5 -22.5q-4 -5 -11 -21t-17 -40l1 1q-19 -54 -20 -113z" />
    <glyph glyph-name="quotedbl" unicode="&#x22;" horiz-adv-x="665" 
d="M410 1564h244l-110 -521q-94 -51 -129 -158l-46 10zM87 1564h245l-109 -521q-96 -53 -131 -158l-45 10z" />
    <glyph glyph-name="numbersign" unicode="#" horiz-adv-x="1013" 
d="M454 1106q-8 -29 -14.5 -54t-13 -49.5t-13 -50.5t-15.5 -56h139q8 29 14.5 54t13 49.5t13 50.5t15.5 56h-139zM414 438l69 257h-140q-16 -62 -33 -129.5t-33 -127.5h-192l70 257h-169l52 201h170q8 29 14.5 54t13 49.5t13.5 50.5t15 56h-169l54 201h170q17 63 35 129
t34 128h189l-69 -257h140q17 63 34.5 129t33.5 128h190l-70 -257h171l-54 -201h-170q-8 -29 -14.5 -54t-13 -49.5t-13.5 -50.5t-15 -56h172l-54 -201h-173q-16 -62 -33.5 -129.5t-33.5 -127.5h-191z" />
    <glyph glyph-name="dollar" unicode="$" horiz-adv-x="1368" 
d="M548 1604h11h4h2h4v108l210 77v-227q28 -7 58 -10t62 -4q37 0 72 16t53 32l-1 -1l11 11t19 18.5t19 18t11 10.5q2 -178 74 -231l23 -21q-118 -88 -266 -87q-88 0 -206 37q-114 35 -160 35q-151 0 -153 -121q0 -52 47 -92t122 -69q32 -12 66 -23t71 -24q23 -8 54 -18.5
t64 -22.5t65 -24t57 -23q50 -22 96 -48t88 -55q86 -61 140 -165v1q55 -104 55 -236q0 -210 -156 -352q-146 -132 -385 -161v-195l-210 -80v271q-229 20 -375 134q-156 124 -156 321q0 171 108 270q106 99 261 99q183 0 307 -142l47 -57h-6.5t-15 -0.5t-16.5 -0.5h-12
q-5 -1 -11.5 -2.5t-15 -5.5t-19.5 -12t-26 -22q-16 -14 -29.5 -43t-25.5 -71q-22 22 -28.5 32t-8.5 15q0 2 -3 6t-14 18q-7 11 -13.5 18.5t-12.5 13.5q-14 12 -40 22t-57 10q-67 0 -100 -41q-35 -43 -35 -107q0 -57 25.5 -101.5t73.5 -76.5q51 -30 123.5 -47.5t159.5 -17.5
q202 0 319 84q114 84 114 221q0 103 -64 177q-64 75 -162 113q-52 20 -107 40t-117 41q-61 21 -117.5 42.5t-108.5 41.5q-109 42 -181 129q-75 90 -75 215q0 153 110 246q111 93 283 93z" />
    <glyph glyph-name="percent" unicode="%" horiz-adv-x="1284" 
d="M970 128q110 0 110 282q0 283 -110 283q-111 0 -111 -283q0 -282 111 -282zM314 1391q-110 0 -110 -283q0 -282 110 -282q111 0 111 282q0 283 -111 283zM147 0l822 1519h168l-822 -1519h-168zM771 96q-69 113 -69 314q0 200 69 314q38 59 87 88.5t112 29.5
q123 0 197 -118q70 -112 70 -314t-70 -314q-73 -118 -197 -118t-199 118zM512 1422q70 -110 70 -314q0 -201 -70 -314q-74 -118 -198 -118q-122 0 -198 118q-69 114 -69 314q0 201 69 314q75 118 198 118q125 0 198 -118z" />
    <glyph glyph-name="ampersand" unicode="&#x26;" horiz-adv-x="1503" 
d="M419 625q14 19 30 35.5t36 30.5q19 14 47.5 27.5t63 24t74 17t81.5 6.5q34 0 87 -3q54 -3 73 -3q96 0 161 35q58 31 58 104q0 48 -37 78q-38 32 -92 32l-9 42q8 4 22 20.5t29 54.5q9 20 16 51t15 70q19 -5 46 -13.5t68 -31.5h-1q23 -11 42.5 -26.5t36.5 -32.5v1
q17 -17 34 -41.5t30 -54.5t21 -65.5t8 -74.5t-8 -75t-21.5 -67t-31 -56t-36.5 -43q-20 -18 -40.5 -33.5t-42.5 -26.5q-22 -12 -38.5 -19t-28.5 -12q55 -79 55 -202q0 -183 114 -181q21 0 40.5 13t28.5 26q4 7 11.5 21t14.5 28t13 25t7 13q5 -39 8.5 -71t5.5 -43
q3 -16 25 -55q22 -35 83 -54q-16 -22 -26.5 -35.5t-18.5 -20.5v1q-8 -10 -27 -21t-45 -25q-27 -14 -58.5 -21.5t-63.5 -7.5q-160 0 -245 125q-143 -131 -384 -131q-247 0 -418 142q-171 146 -171 375q0 104 37 193q17 42 38.5 75.5t43.5 56.5q22 22 51 44t55 37q23 14 41 23
t32 14q-121 77 -121 232q0 69 26 122t77 92q48 38 117 66t160 50q62 15 90.5 34.5t39.5 36.5q6 11 8 18t2 14l45 6q2 -6 5 -12.5t9 -15t17 -19t29 -24.5q40 -31 117 -62q-19 -57 -50 -94t-81 -57q-23 -8 -40 -13.5t-31 -8.5q-14 -4 -32.5 -7.5t-38.5 -6.5q-39 -7 -70.5 -14
t-52.5 -12q-42 -12 -79 -43q-33 -27 -33 -70q0 -122 258 -122q-4 -38 -1.5 -65t10.5 -44q15 -37 27 -47h-1q8 -6 16 -11t14 -9l-12 -40q-15 1 -34.5 2t-33.5 1q-209 0 -307 -85q-56 -48 -84 -104t-28 -123q0 -145 102 -224q103 -82 252 -82q142 0 213 59q72 57 72 136
q0 86 -53 127q-56 45 -143 45q-138 0 -183 -102q-1 -4 -4.5 -15.5t-7.5 -25t-7.5 -24.5t-4.5 -14q-62 118 -143 154z" />
    <glyph glyph-name="quotesingle" unicode="'" horiz-adv-x="331" 
d="M82 1564h244l-108 -521q-49 -26 -81.5 -65.5t-50.5 -92.5l-45 10z" />
    <glyph glyph-name="parenleft" unicode="(" horiz-adv-x="489" 
d="M55 691q0 125 16.5 245.5t48 232.5t76 213.5t100.5 190.5q24 36 47.5 66.5t49.5 53.5h126q-2 -5 -6.5 -15.5t-10 -23l-11 -25t-9.5 -19.5q-9 -19 -22 -52t-30 -81q-18 -49 -34 -100.5t-32 -107.5q-14 -51 -26.5 -118t-25.5 -147q-10 -76 -16.5 -158t-6.5 -155
q0 -78 5.5 -155.5t16.5 -156.5v1q12 -81 25.5 -147.5t28.5 -122.5q33 -116 63.5 -206t53.5 -135l37 -80h-127l-20 20t-24 26q-23 28 -80 119q-29 46 -53.5 95t-46.5 101q-23 55 -42.5 124t-36.5 155t-25.5 175.5t-8.5 186.5z" />
    <glyph glyph-name="parenright" unicode=")" horiz-adv-x="489" 
d="M435 691q0 -125 -17.5 -245.5t-49 -233t-76 -214.5t-99.5 -189q-24 -38 -48 -67.5t-47 -52.5h-128q2 4 6.5 14.5t10 23.5t11 25t9.5 20q9 18 22 51t31 81q19 51 35 102.5t30 105.5q27 105 51 266q24 160 24 313q0 76 -6 154t-17 157q-11 80 -24.5 147t-28.5 123
q-32 114 -63 204q-31 89 -51 136q-3 6 -9.5 17t-13 23.5t-12.5 23.5t-9 17h132l20 -20t23 -26q12 -14 32 -44t47 -75q29 -45 54.5 -95.5t46.5 -101.5q21 -53 41 -121.5t37 -156.5q36 -176 36 -362z" />
    <glyph glyph-name="asterisk" unicode="*" horiz-adv-x="737" 
d="M489 825q-74 27 -112 27q-21 0 -53.5 -5.5t-74.5 -16.5q15 61 24.5 119.5t14.5 112.5q-15 -11 -31 -22.5t-30 -22.5q-26 -20 -43 -34t-27 -23h1l-56 -56q-8 60 -37.5 114t-79.5 102q59 17 117 38t106 43q-55 25 -111 46t-116 37q89 76 127 210q44 -44 89 -82.5t90 -70.5
q-2 19 -4 37t-4 38q-4 30 -7.5 52t-5.5 37q-1 4 -3 14t-5 20.5t-5 20t-3 13.5q45 -11 77 -15.5t53 -4.5q32 0 49 5l60 17q-15 -59 -25 -117.5t-16 -117.5q32 23 61 47q26 20 43.5 33.5t28.5 23.5l-2 -1l52 52q37 -136 124 -211q-63 -18 -119.5 -38.5t-108.5 -44.5
q17 -8 35 -15.5t34 -14.5l-1 1q11 -4 20.5 -8t17.5 -6q16 -6 27.5 -10.5t22.5 -8.5l-3 1q4 -1 15 -3t23 -5t23 -5t14 -3q-103 -104 -119 -219q-45 45 -95.5 87t-92.5 71q3 -38 9 -75q5 -32 8.5 -55t5.5 -34z" />
    <glyph glyph-name="plus" unicode="+" horiz-adv-x="798" 
d="M740 499h-249v-254h-183v254h-249v178h249v252h183v-252h249v-178z" />
    <glyph glyph-name="comma" unicode="," horiz-adv-x="397" 
d="M195 273q33 0 60.5 -11.5t48 -32t31.5 -49.5t11 -65q0 -52 -18 -101.5t-51 -94.5t-79.5 -81t-104.5 -64l-29 68l13 13q10 6 24.5 19t37.5 50q9 14 14.5 29.5t7.5 31.5q-47 14 -78 52t-31 88q0 60 41 104t102 44z" />
    <glyph glyph-name="hyphen" unicode="-" horiz-adv-x="561" 
d="M530 501h-551l54 206h549z" />
    <glyph glyph-name="period" unicode="." horiz-adv-x="397" 
d="M95 22q-43 43 -43 105t44 104h-1q42 42 103 42q62 0 104 -42h-1q45 -43 45 -104q0 -60 -45 -105q-44 -41 -103 -41q-60 0 -102 41h-1z" />
    <glyph glyph-name="slash" unicode="/" horiz-adv-x="872" 
d="M207 -40h-229l687 1644h229z" />
    <glyph glyph-name="zero" unicode="0" horiz-adv-x="1093" 
d="M547 179q259 0 259 603q0 604 -259 604t-259 -604q0 -603 259 -603zM178 186q-125 218 -125 596t125 596q129 226 368 226q240 0 369 -226q125 -218 125 -596t-125 -596q-129 -226 -369 -226q-239 0 -368 226z" />
    <glyph glyph-name="one" unicode="1" horiz-adv-x="485" 
d="M355 211q0 -48 16 -90q8 -19 16.5 -34.5t16.5 -25.5q4 -4 14.5 -13t21.5 -19t20.5 -18.5t12.5 -10.5h-468q115 107 115 211v1024q0 53 -15 94t-32 58q-3 2 -12 8.5t-19.5 14t-19 14t-11.5 8.5q23 6 49.5 12.5t45.5 13.5q28 9 95 48h-1q35 20 73 54.5t82 83.5v-1433z" />
    <glyph glyph-name="two" unicode="2" horiz-adv-x="1064" 
d="M852 334l44 -5q5 -64 22 -116t36 -82v1q19 -29 35 -50.5t27 -29.5h-2l22 -11l-10 -41h-986v103q0 73 18 143.5t53 136.5q35 65 77 123.5t90 106.5l193 186q46 45 85.5 92t73.5 98q64 99 64 195q0 82 -56 143q-51 59 -151 59q-84 0 -142 -52q-56 -47 -56 -130
q0 -64 36 -104q40 -45 72 -52l82 -23q-13 -13 -30 -34t-30 -56q-13 -38 -5 -108q-22 4 -54.5 12.5t-87.5 35.5q-26 14 -50.5 29.5t-44.5 32.5q-42 35 -79 107q-35 67 -35 151q0 173 118 291q121 118 310 118q199 0 319 -127q118 -127 118 -299q0 -123 -68 -247
q-35 -63 -75.5 -118t-88.5 -105l-188 -188q-46 -44 -85 -88t-72 -89q-27 -35 -42.5 -65.5t-19.5 -59.5h319q192 0 236 90l-1 -4z" />
    <glyph glyph-name="three" unicode="3" horiz-adv-x="1060" 
d="M120 1467q62 26 103 59q36 30 41 43l33 13q-2 -2 14 -11t40 -36q14 -13 45.5 -27.5t73.5 -25.5q91 -22 159 -49.5t114 -63.5q100 -73 100 -210q0 -84 -46 -151q-41 -58 -84 -82l31.5 -18t40.5 -25h-1q61 -38 109 -89q24 -26 46 -60t41 -78q19 -45 29 -92t10 -98
q0 -192 -135 -348q-135 -158 -380 -158q-180 0 -325 104q-145 106 -145 285q0 135 84 234q86 100 227 100q66 0 121 -16.5t86 -42.5h-1q31 -24 52 -49t28 -44q1 -2 4 -9t6 -15t5.5 -14.5t3.5 -8.5q-42 -1 -70.5 -8t-44.5 -18q-17 -11 -27.5 -22.5t-16.5 -22.5q-3 -8 -7 -18
t-7 -15l-43 8q0 1 -0.5 4.5t-0.5 6.5q-1 8 -6 18t-25 28q-20 20 -50 20q-38 0 -62.5 -31.5t-24.5 -78.5q0 -77 70 -126q37 -24 80 -37t91 -13q116 0 198 74q81 73 81 213q0 130 -113 229q-114 100 -453 100q32 20 58 35.5t31 19.5l3 3q5 5 12.5 16.5t15.5 30.5q18 37 12 110
q257 0 257 122q0 44 -33 70q-37 31 -79 43q-20 5 -51.5 11.5t-71.5 14.5q-22 3 -40.5 7t-30.5 7q-13 3 -30 8.5t-40 13.5q-95 38 -125 130z" />
    <glyph glyph-name="four" unicode="4" horiz-adv-x="1141" 
d="M627 423h-667l60 82q10 15 27 44t39 68q23 39 46.5 87t40.5 88q18 45 36 100t32 114q15 62 23 121.5t8 118.5q0 46 -4 86.5t-12 75.5q-7 33 -14 56t-15 36l-45 83q64 -21 106 -31t66 -10q43 0 68 13l58 22q14 -83 21.5 -157.5t7.5 -141.5q0 -168 -45 -337
q-22 -83 -45 -146.5t-45 -105.5q-5 -9 -7 -13.5l-4 -9t-5 -9.5t-8 -15h277v620q88 -95 147 -128q57 -31 85 -32q5 -1 21.5 -2.5t34.5 -3.5t34 -4t20 -2q-109 -63 -109 -133v-315h16q54 0 99 12.5t65 26.5l52 30l2 -353q-63 29 -121 46t-113 19v-155q0 -154 114 -268h-480
q43 31 58.5 43.5t20.5 19.5q5 6 12.5 23.5t18.5 46.5q23 61 23 135v155z" />
    <glyph glyph-name="five" unicode="5" horiz-adv-x="1064" 
d="M264 676q34 9 75 9q180 0 251 -168l26 -73q-131 -3 -213 -132q0 17 -0.5 37t-3 39t-7 35.5t-12.5 25.5q-15 18 -38 18q-27 0 -44.5 -23t-17.5 -63q0 -50 17.5 -88.5t49.5 -63.5q73 -50 160 -50q142 0 207 88q69 91 69 226q0 144 -77 236q-75 90 -211 90q-144 0 -219 -120
l1 1zM129 598q41 44 98 67q-26 51 -52 71q-16 14 -28.5 21.5t-23.5 11.5h3l-61 14q74 115 76 325q0 59 -5 115.5t-15 110.5q-9 53 -17 89.5t-16 58.5q-8 23 -22 56t-27 63q195 -98 379 -98q195 0 293 81l-2 -1l7 7l13.5 13.5t13.5 14t7 7.5q5 -34 8 -51t5 -23q2 -8 12.5 -20
t28.5 -31q18 -18 50 -36.5t83 -38.5q-5 -3 -16.5 -10t-25.5 -16t-27.5 -17.5t-21.5 -13.5q-17 -8 -54 -21t-93 -29q-114 -32 -234 -32q-28 0 -54 1.5t-52 3.5q6 -110 6 -206q0 -20 -1 -41t-3 -40q37 15 75 21.5t86 6.5q224 0 361 -155q135 -155 135 -384q0 -214 -129 -373
q-66 -80 -157.5 -120t-213.5 -40q-197 0 -333 116q-136 120 -136 303q0 135 80 219z" />
    <glyph glyph-name="six" unicode="6" horiz-adv-x="1103" 
d="M815 1643q1 2 2 -5t3 -28q3 -22 13 -43h-1q11 -22 54 -61.5t130 -87.5q-186 -3 -328 -58t-234 -153q-88 -102 -136 -234.5t-48 -287.5q0 -261 87 -385q84 -121 213 -121q117 0 180 95q66 102 66 241q0 170 -53 241q-50 67 -120 67q-50 0 -84 -33q-34 -32 -43 -68
l-29 -101q-12 23 -22 43t-11 24l-11 33v-1q-5 9 -9.5 17.5t-11.5 15.5q-11 14 -40 28.5t-71 19.5l23 52q9 17 37 52q26 35 62 63q18 14 41.5 27t51 23.5t57.5 17t60 6.5q90 0 164.5 -37.5t131.5 -109.5q55 -72 83.5 -167.5t28.5 -214.5q0 -222 -123 -385
q-125 -168 -352 -168q-229 0 -387 191q-154 188 -154 528q0 363 199 629q198 271 554 370z" />
    <glyph glyph-name="seven" unicode="7" horiz-adv-x="877" 
d="M734 734h-229q-5 -8 -9.5 -18.5t-8.5 -18.5q-98 -202 -98 -309q0 -30 7 -57.5t19 -50.5t27 -42t31 -32v1q17 -14 36 -25.5t41 -22.5h-1q44 -19 85.5 -27.5t79.5 -14.5q-29 -17 -53 -31.5t-31 -19.5q-13 -10 -34 -50q-12 -20 -17.5 -52t-6.5 -74q-4 1 -13.5 3.5t-20.5 5.5
t-21.5 6.5l-16.5 5.5q-14 5 -37.5 17t-56.5 30q-30 19 -59.5 40.5t-55.5 45.5q-54 50 -95 134q-20 43 -31 88.5t-11 95.5q0 69 26.5 160.5t82.5 211.5h-242l90 211h255q26 53 49 100.5t46 93.5t46.5 94t49.5 102q-128 -21 -250 -21q-187 0 -353 71q9 4 22.5 11t27.5 18
t27 26t22 35q10 20 15 52t5 79q125 -73 325 -73q107 0 242.5 24.5t303.5 75.5l-337 -688h216z" />
    <glyph glyph-name="eight" unicode="8" horiz-adv-x="1028" 
d="M711 1132q0 54 -26.5 89.5t-68.5 58.5h1q-23 12 -47 24.5t-47 24.5q-55 28 -99 67q-6 5 -11 11l-10 12q10 -20 23 -37.5t29 -34.5q-16 -16 -22 -20t-12 -4q-10 -5 -31 -19q-10 -7 -19 -15t-16 -17q-15 -18 -26.5 -51t-11.5 -75q0 -43 15 -77.5t43 -60.5
q29 -26 64.5 -38.5t74.5 -12.5q42 0 77 12t64 34q56 47 56 129zM255 464q0 -142 76 -214q79 -71 183 -71t183 71q76 72 76 214q0 122 -71 202q-69 80 -188 80t-188 -80q-71 -80 -71 -202zM82 1140q0 226 200 336l76 32q-2 7 -3.5 14t-3.5 14q82 8 124 28h-1q22 12 36.5 23
t20.5 22l55 74q5 -44 21.5 -78t39 -60.5t48.5 -46.5t49 -35q17 -11 37 -24t36 -24q26 -20 49.5 -48t41 -62.5t28 -76t10.5 -88.5q0 -29 -5.5 -57.5t-14.5 -55t-21.5 -49.5t-25.5 -41q-20 -24 -41 -44.5t-39 -34.5q16 -12 48 -41q20 -19 38.5 -39.5t34.5 -43.5
q34 -49 59 -123q26 -80 26 -167q0 -199 -135 -341q-138 -143 -356 -143t-356 143q-135 144 -135 341q0 257 190 401l20 12q-7 5 -14.5 10.5t-16.5 13.5q-16 14 -30.5 28.5t-25.5 29.5q-11 16 -22.5 38.5t-20.5 48.5t-15 55t-6 59z" />
    <glyph glyph-name="nine" unicode="9" horiz-adv-x="1103" 
d="M280 -78q-1 -2 -2 5t-3 28q-2 11 -5 21.5t-8 19.5q-11 22 -40 53.5t-77 57.5l11 40q302 5 484 210q185 206 185 522q0 260 -87 385q-86 122 -213 122q-58 0 -103.5 -24.5t-77.5 -72.5q-31 -51 -48 -111t-17 -129q0 -172 52 -240q50 -68 121 -68q26 0 46.5 8.5t37.5 24.5
q34 32 45 69v-2q1 5 4.5 20.5t7.5 33t7.5 33.5t4.5 21l10 -20l11.5 -23l10 -20t5.5 -12q2 -5 3.5 -12t6.5 -19v1q11 -22 21 -35q14 -14 44 -28t71 -21l-29 -50q-5 -8 -14 -21t-22 -30v1q-14 -20 -29.5 -36t-32.5 -30q-17 -13 -40 -26t-50 -23t-57.5 -16t-61.5 -6
q-91 0 -165 36t-131 110q-112 140 -112 382q0 222 123 386q125 167 352 167q229 0 387 -191q154 -188 154 -528q0 -361 -199 -630q-100 -136 -238 -227t-316 -142z" />
    <glyph glyph-name="colon" unicode=":" horiz-adv-x="397" 
d="M95 22q-43 43 -43 105t44 104h-1q42 42 103 42q62 0 104 -42h-1q45 -43 45 -104q0 -60 -45 -105q-44 -41 -103 -41q-60 0 -102 41h-1zM95 636q-43 43 -43 104q0 63 44 105h-1q42 42 103 42q62 0 104 -42h-1q45 -43 45 -105q0 -60 -44 -104q-43 -43 -104 -43
q-60 0 -103 43z" />
    <glyph glyph-name="semicolon" unicode=";" horiz-adv-x="397" 
d="M95 636q-43 43 -43 104q0 63 44 105h-1q42 42 103 42q62 0 104 -42h-1q45 -43 45 -105q0 -60 -44 -104q-43 -43 -104 -43q-60 0 -103 43zM195 273q33 0 60.5 -11.5t48 -32t31.5 -49.5t11 -65q0 -52 -18 -101.5t-51 -94.5t-79.5 -81t-104.5 -64l-29 68l13 13q10 6 24.5 19
t37.5 50q9 14 14.5 29.5t7.5 31.5q-47 14 -78 52t-31 88q0 60 41 104t102 44z" />
    <glyph glyph-name="less" unicode="&#x3c;" horiz-adv-x="985" 
d="M72 830l841 420v-229l-597 -292q149 -73 299 -146.5t298 -145.5v-230l-841 420v203z" />
    <glyph glyph-name="equal" unicode="=" horiz-adv-x="800" 
d="M742 364h-683v179h683v-179zM742 633h-683v180h683v-180z" />
    <glyph glyph-name="greater" unicode="&#x3e;" horiz-adv-x="985" 
d="M72 437l597 292q-148 72 -299.5 146t-297.5 146v229l841 -420v-203l-841 -420v230z" />
    <glyph glyph-name="question" unicode="?" horiz-adv-x="962" 
d="M495 1173v-2v2zM311 23q-42 43 -42 104q0 62 42 104t104 42q64 0 106 -42h-1q43 -42 43 -104t-43 -105q-44 -41 -105 -41t-103 41zM931 1154q0 -103 -48 -193q-23 -43 -50.5 -81t-60.5 -72l-126 -124q-31 -29 -56.5 -61.5t-47.5 -67.5q-41 -68 -41 -143v-3.5t1 -6.5v-9.5
t0.5 -15t0.5 -14v-7.5q-27 5 -37.5 5.5t-17.5 0.5q-28 0 -49 -7.5t-36.5 -18.5t-26 -23t-16.5 -21q-2 -8 -4 -15l-47 6v17q-1 14 -1.5 27t-0.5 24q0 132 47 240q23 54 50.5 97.5t60.5 77.5q32 33 63.5 64.5t63.5 60.5v-1q30 27 56 57t45.5 62.5t31 67t11.5 71.5q0 53 -16 94
t-49 70q-65 61 -164 61q-85 0 -146 -45q-61 -43 -61 -124q0 -42 25.5 -69.5t65.5 -27.5q35 0 58 17.5t29 34.5v-1q2 2 2.5 4t1.5 4t1 3l44 19q2 -4 2.5 -7t2.5 -5q1 -3 3 -5q1 -5 2.5 -8t3.5 -5q5 -5 14.5 -12.5t20.5 -13.5q14 -8 40.5 -12t64.5 0q-5 -22 -13.5 -45.5
t-31.5 -55.5t-51 -57q-15 -12 -36 -23.5t-47.5 -21t-56.5 -15t-62 -5.5q-122 0 -216 84q-95 86 -95 223q0 175 124 281q122 106 311 106q192 0 326 -118q138 -120 138 -319z" />
    <glyph glyph-name="at" unicode="@" horiz-adv-x="1605" 
d="M773 500q30 0 58 13t56 39v330q-115 -2 -190 -60q-76 -55 -76 -165q0 -73 40 -115t112 -42zM839 -51q-333 0 -555 216t-222 537q0 323 212 541q213 218 544 218q300 0 513 -189q212 -191 212 -506q0 -251 -112 -386q-113 -135 -262 -135q-153 0 -231 113
q-82 -47 -175 -47q-144 0 -242 94q-99 94 -99 252q0 182 131 299q130 114 347 114h287q-51 -52 -76 -101t-25 -94v-348q0 -38 24 -66.5t65 -28.5q73 0 121 86q53 93 53 248q0 223 -146 366q-73 71 -168.5 107t-216.5 36q-247 0 -404 -160q-157 -158 -157 -413
q0 -250 164 -408q165 -159 418 -159q93 0 173 17h-1q39 9 68.5 17t46.5 16q10 4 29 13.5l29 14.5l77 -149q-14 -11 -31.5 -21.5t-36.5 -20.5q-18 -8 -52 -19t-85 -25q-53 -15 -107 -22t-110 -7z" />
    <glyph glyph-name="A" unicode="A" horiz-adv-x="1442" 
d="M546 693q193 -96 438 -107q-15 97 -29 191t-28.5 188t-29 188.5t-29.5 192.5q-97 -5 -143 -49q-53 -51 -77 -159zM1017 374q-147 2 -275.5 28t-243.5 76q-26 -113 -50.5 -226.5t-50.5 -226.5q-8 -38 -13 -100t-6 -143q-2 3 -11.5 13t-21 22.5t-22 24t-14.5 16.5
q-9 9 -26.5 20.5t-43.5 25.5q-51 28 -151 31q77 81 104 201l102 458q-45 32 -83 67.5t-73 75.5q-36 42 -59.5 75.5t-37.5 60.5l-40 82q60 0 87 34q32 38 38 97l42 5q3 -8 9 -23.5t13 -29.5v1q8 -17 24 -42t41 -60v1q41 -57 91 -107q21 87 41.5 174.5t40.5 174.5
q50 210 166 297q118 87 335 87h248q-16 -19 -30.5 -37.5t-16.5 -21.5q-5 -5 -10 -21t-10 -37q-3 -12 -5 -27t-2 -30q0 -16 3 -34l166 -1090q5 -38 14.5 -72.5t20.5 -61.5q24 -55 40 -72v1l60 -61h-443q11 8 22.5 16.5t21 16t16 12.5t7.5 7q2 3 6 14.5t9 28.5q7 20 5 40
q0 15 -3 39v-1z" />
    <glyph glyph-name="B" unicode="B" horiz-adv-x="1320" 
d="M379 1346v-466q2 0 6 0.5t7 0.5q11 1 26.5 3t39.5 6q5 1 10.5 2t11.5 2q66 11 130 25.5t131 40.5q64 26 120 63.5t91 83.5q33 53 33 109q0 130 -185 130h-421zM988 860q12 -6 27.5 -13.5t34.5 -18.5q30 -17 57 -36t48 -40q22 -23 43 -55t39 -74q36 -84 36 -183
q0 -123 -46 -211t-124 -138q-72 -47 -160 -80t-176 -56q-61 -17 -118.5 -35.5t-104 -48t-79 -72.5t-42.5 -107q-31 38 -56 64.5t-45 39.5q-19 14 -33 22.5t-23 10.5q-5 1 -12 3t-14.5 4t-14 4t-9.5 2q15 60 41 105.5t65 77.5q38 30 80 51.5t90 33.5l188 49h-1q51 14 95 27.5
t86 27.5q35 12 69 35t57 52q49 63 49 157q0 112 -85 181q-87 71 -250 71q-44 0 -85.5 -5t-82.5 -13q-41 -9 -72 -18t-53 -19l-28 -12v-396q0 -38 14 -60t28 -27l29 -9l-2 -42q-88 -16 -148.5 -59t-94.5 -112q-3 -8 -8.5 -21t-8.5 -20l-43 7v1450q0 95 -109 210h758
q436 0 436 -348q0 -205 -227 -348z" />
    <glyph glyph-name="C" unicode="C" horiz-adv-x="1396" 
d="M1328 1148q0 -168 -109 -280q-108 -112 -279 -112q-193 0 -305 118l-38 49q21 0 45 1.5t41 6.5q8 2 17.5 6.5t14.5 8.5q14 10 24.5 36t12.5 61l42 6q4 -10 14.5 -22.5t46.5 -32.5q38 -20 83 -20q68 0 112 44q44 47 44 124q0 112 -85 177q-90 67 -226 67q-202 0 -335 -169
q-69 -86 -102 -198.5t-33 -252.5q0 -141 32 -249.5t95 -186.5q63 -72 144.5 -111.5t177.5 -39.5q229 0 325 194l-1 -1q10 23 17.5 45.5t12.5 48.5l41 1q12 -38 26 -67.5t31 -49.5q14 -16 28 -28t22 -16q4 -1 11.5 -3t16 -4t16 -4t10.5 -3q-10 -19 -19 -36.5t-14 -25.5v1
q-8 -12 -22 -30.5t-35 -42.5q-42 -48 -103 -91q-29 -20 -66.5 -39t-83.5 -35q-92 -33 -203 -33q-311 0 -504 226q-189 223 -189 580q0 99 15.5 190t45.5 172t70.5 148.5t90.5 116.5q101 103 223 157t255 54q259 0 402 -133v1q147 -134 147 -324z" />
    <glyph glyph-name="D" unicode="D" horiz-adv-x="1337" 
d="M65 1647q50 13 89 46q37 30 50 56l37 71q31 -69 65 -121t72 -87q38 -36 79.5 -65t86.5 -53h-1q34 -17 70 -34t73 -34q60 -28 122 -58t125 -68v1q47 -27 89.5 -60.5t83.5 -72.5q80 -77 127 -201q46 -122 46 -286q0 -161 -48 -285.5t-148 -215.5q-194 -180 -528 -180h-521
q115 107 115 211v1257q69 -74 161 -130.5t208 -99.5q-26 -14 -46 -24.5t-28 -15.5q-5 -5 -14.5 -19t-21.5 -39q-25 -49 -25 -117v-805h172q234 0 361.5 117.5t127.5 345.5q0 128 -37.5 219.5t-101.5 146.5q-66 58 -149 98.5t-177 79.5q-97 39 -190 83q-46 22 -91.5 52.5
t-93.5 69.5q-46 38 -83.5 83.5t-69.5 97.5z" />
    <glyph glyph-name="E" unicode="E" horiz-adv-x="1208" 
d="M144 1354q0 46 -18 88q-9 22 -18.5 36.5t-17.5 25.5l-51 60h1149l-12.5 -12.5l-21 -21t-22 -22.5t-15.5 -16q-9 -11 -21 -30.5t-28 -50.5q-17 -29 -26.5 -77t-14.5 -113q-16 26 -30.5 50t-19.5 29t-17 12.5t-34 15.5q-44 18 -102 18h-367q-42 0 -60.5 -17t-18.5 -64v-330
h338q158 0 253 87q-15 -122 -15 -195q1 -17 2 -44t2.5 -55.5t3 -55t2.5 -43.5q-84 87 -270 87h-316v-416q0 -45 18 -63.5t61 -18.5h407q56 0 96.5 14.5t54.5 28.5q1 2 8.5 13.5t16.5 24t16.5 23.5t9.5 13q11 -103 46.5 -174t89.5 -106q5 -2 13.5 -7t13.5 -7l-10 -41h-1190
q115 107 115 211v1143z" />
    <glyph glyph-name="F" unicode="F" horiz-adv-x="1116" 
d="M377 716v-505q0 -45 17 -90v1q10 -22 19 -37.5t17 -24.5v1l11 -11t18.5 -19.5t18.5 -19.5l11 -11h-461q115 106 115 211v1143q0 46 -18 88q-9 22 -18 36.5t-18 25.5l-51 60h1150q-3 -3 -13 -12.5t-21.5 -21t-22 -22.5t-15.5 -16q-8 -11 -20.5 -30.5t-28.5 -50.5
q-16 -29 -26 -77t-15 -113q-16 26 -30.5 50t-19.5 29t-17 12.5t-34 15.5q-44 18 -102 18h-367q-42 0 -60.5 -17t-18.5 -64v-330h338q160 0 253 87q-7 -61 -11 -110.5t-4 -84.5q1 -17 2.5 -44t3 -55.5t3 -55t2.5 -43.5q-84 87 -271 87h-316z" />
    <glyph glyph-name="G" unicode="G" horiz-adv-x="1335" 
d="M702 1386q-178 0 -283 -144q-107 -146 -107 -425q0 -288 135 -444q134 -155 392 -155h128v568q-52 -2 -91.5 -13t-68.5 -25.5t-47.5 -30t-27.5 -25.5q-3 -5 -9 -17t-12.5 -24.5t-11.5 -23t-6 -11.5q-11 66 -24.5 116.5t-27.5 81.5q-15 33 -28 57.5t-24 41.5l1 -1
q-3 4 -10.5 14.5t-16 22t-16 22t-10.5 14.5h779q-115 -107 -115 -211v-563q0 -49 17 -90q8 -19 16.5 -34.5t16.5 -25.5q4 -4 14 -13t21.5 -19t21 -18.5t11.5 -10.5h-480q-352 0 -556 223q-204 222 -204 594q0 357 168 570v-1q170 218 453 218q260 0 448 -173l66 -65
q-2 0 -11 -1.5t-20 -3.5t-20.5 -3.5t-12.5 -2.5l-6 -2t-7 -2v1q-8 -2 -21.5 -10.5t-33.5 -23.5q-41 -30 -75 -107q-11 10 -20 20t-12 16q-2 4 -8 12.5t-27 31.5q-12 13 -24.5 24t-26.5 19q-14 10 -34 19.5t-44.5 16.5t-52.5 11.5t-56 4.5z" />
    <glyph glyph-name="H" unicode="H" horiz-adv-x="1355" 
d="M1211 211q0 -49 17 -90v1q20 -44 36 -62v1l11 -11t18.5 -19.5t18.5 -19.5l11 -11h-461q115 107 115 211v406q-77 17 -151 33.5t-147 32t-147 32t-152 33.5v-537q0 -101 -24 -185q-11 -41 -21.5 -69t-20.5 -43l-46 -60q-11 20 -20.5 34t-14.5 22q-10 13 -52 46
q-20 15 -53 28.5t-78 26.5q96 112 96 219v1063q0 47 -19 88q-8 21 -17 35.5t-18 24.5l-50 59q60 3 110.5 11.5t92.5 23.5q42 16 72.5 28t45.5 20q16 8 31.5 18t26.5 18l30 -38q-6 -6 -20.5 -33t-33.5 -84q-9 -29 -13 -56.5t-4 -55.5v-376q77 -17 150.5 -33.5t146.5 -33
t147.5 -33t152.5 -33.5v511q0 47 -19 88q-8 22 -17.5 36.5t-17.5 25.5l-52 60h455q-115 -105 -115 -210v-1143z" />
    <glyph glyph-name="I" unicode="I" horiz-adv-x="495" 
d="M365 211q0 -45 17 -90v1q20 -44 36 -62v1l11 -11t18.5 -19.5t18.5 -19.5l11 -11h-461q115 107 115 211v1143q0 46 -18 88q-9 22 -18 36.5t-18 25.5l-51 60h454q-115 -106 -115 -210v-1143z" />
    <glyph glyph-name="J" unicode="J" horiz-adv-x="892" 
d="M530 1354q0 46 -17 89q-18 43 -34 62l1 -2l-62 61h461q-57 -52 -86 -105t-28 -105v-956q0 -203 -102 -321q-103 -117 -290 -117q-66 0 -127.5 17.5t-120.5 52.5q-117 72 -164 220q107 0 145 91q1 3 2.5 9t2.5 8l46 -5q0 -2 0.5 -4t0.5 -4q2 -7 6.5 -19t15.5 -34
q8 -15 17.5 -28.5t20.5 -25.5h-1q21 -23 59 -41t86 -18q168 0 168 219v956z" />
    <glyph glyph-name="K" unicode="K" horiz-adv-x="1220" 
d="M379 956q103 118 204 235.5t204 235.5q22 23 23 47q-4 9 -9 21t-10.5 25t-10.5 24.5t-8 19.5h421l6 -46q-4 -1 -9.5 -5t-13.5 -10l1 1q-10 -8 -28.5 -25t-44.5 -43q-52 -52 -116 -122q-93 -105 -184.5 -207t-185.5 -208q38 -25 70 -65t62 -97q82 -159 142 -270t100 -178
q39 -66 70.5 -111t56.5 -71v1q47 -47 165 -84q-49 -25 -80 -48t-47 -44q-16 -20 -24 -37t-10 -31l-12 -68q-144 77 -237 223q-90 140 -341 626v-1q-32 59 -68 82q-22 -24 -42.5 -47.5t-43.5 -49.5v-418q0 -45 17 -90v1q20 -44 36 -62v1l11 -11t18.5 -19.5t18.5 -19.5l11 -11
h-461q115 107 115 211v1143q0 46 -18 88q-9 22 -18.5 36.5t-17.5 25.5l-51 60h454q-115 -105 -115 -210v-398z" />
    <glyph glyph-name="L" unicode="L" horiz-adv-x="1165" 
d="M378 218h450q-2 2 -2 4t-2 4q-6 14 -15.5 44.5t-23.5 80.5q-24 96 -24 198q0 130 21 249q21 117 44 179q5 14 11.5 31.5t11.5 31.5l44 -8q0 -4 1 -8q2 -5 4 -12.5t6 -15.5v1q5 -10 16 -26.5t29 -36.5q17 -20 41 -36.5t57 -30.5q-60 -156 -60 -320q0 -231 238 -547h-1196
q115 107 115 211v1143q0 47 -19 88q-8 22 -17.5 36.5t-17.5 25.5l-51 60h454q-115 -105 -115 -210v-1136z" />
    <glyph glyph-name="M" unicode="M" horiz-adv-x="1478" 
d="M848 338h-210l-218 640q-45 -300 -89.5 -601.5t-89.5 -601.5l-40 -4q-3 8 -8.5 18t-25.5 35q-8 11 -19.5 22.5t-22.5 21.5q-23 20 -76.5 44t-131.5 44q22 11 36 18.5t22 13t11.5 8.5t5.5 5q12 17 38 75q14 31 24.5 69.5t17.5 78.5q38 263 79 536.5t80 536.5q2 14 3 27
t1 24q0 98 -62 171l1 -2l-48 47h341l276 -825q69 205 139 413.5t139 411.5h339q-10 -10 -20.5 -21t-19.5 -20.5t-15.5 -16.5t-8.5 -10q-6 -8 -14 -27.5t-16 -49.5q-6 -20 -9.5 -40.5t-3.5 -40.5t3 -42v1l151 -1012q6 -41 16.5 -79t22.5 -67q14 -29 24.5 -49t20.5 -29l-2 1
q3 -2 13 -11.5t22 -20t22 -19.5t12 -11h-436q13 17 20.5 27t12 15.5t6 8.5l2.5 5q4 8 9 24.5t10 37.5q5 20 5 44q0 26 -7 57l-114 759z" />
    <glyph glyph-name="N" unicode="N" horiz-adv-x="1333" 
d="M1187 0h-348q115 107 115 211v195q-72 94 -138.5 181t-132 172.5t-132 172.5t-138.5 182l-117 -909q-1 -8 -1.5 -14t-0.5 -11q0 -31 9 -61q6 -21 12.5 -36t14.5 -24l-1 2l11 -11t18.5 -19.5t18.5 -19.5l11 -11h-462q125 110 138 214l148 1143q1 6 1.5 13.5t1.5 14.5
q0 14 -3.5 28.5t-9.5 29.5q-8 21 -17.5 35.5t-18.5 24.5l2 -1q-3 2 -13.5 11t-23 19.5t-23 20t-13.5 11.5h463q-33 -32 -50.5 -59t-17.5 -50q0 -57 49 -121l415 -543v563q0 46 -18 88q-9 23 -18 38t-17 25l-52 59h453q-115 -106 -115 -210v-1354z" />
    <glyph glyph-name="O" unicode="O" horiz-adv-x="1421" 
d="M999 333q54 81 81.5 192t27.5 257q0 289 -109 449q-107 155 -289 155q-181 0 -288 -155q-109 -160 -109 -449q0 -146 27.5 -257t81.5 -192q106 -154 288 -154q183 0 289 154zM79 782q0 378 177 599h-1q178 223 455 223q278 0 456 -223h-1q177 -221 177 -599
q0 -380 -173 -599q-175 -223 -459 -223q-283 0 -458 223q-173 220 -173 599z" />
    <glyph glyph-name="P" unicode="P" horiz-adv-x="1294" 
d="M378 1356v-257q0 -190 95 -316q92 -125 257 -125q133 0 202 82q70 83 70 215q0 166 -113 284q-111 117 -347 117h-164zM39 1564h503q312 0 503 -168q192 -169 192 -441q0 -208 -133 -358q-136 -148 -356 -148q-228 0 -370 153v-391q0 -45 17 -90v1q20 -44 36 -62v1
l11 -11t18.5 -19.5t18.5 -19.5l11 -11h-461q115 107 115 211v1143q0 46 -18 88q-9 22 -18 36.5t-18 25.5z" />
    <glyph glyph-name="Q" unicode="Q" horiz-adv-x="1421" 
d="M1108 782q0 288 -109 448q-107 156 -289 156q-181 0 -288 -155q-109 -160 -109 -449q0 -146 27.5 -257t81.5 -192q106 -154 289 -154q2 0 4 -0.5t6 0.5q-11 32 -19 68t-16 77q113 9 196 60q8 -42 16.5 -74t22.5 -61q95 72 141 204.5t46 328.5zM79 782q0 368 177 593
q180 229 454 229q275 0 455 -229q177 -225 177 -593q0 -125 -22.5 -238t-63.5 -208q-40 -87 -94.5 -156.5t-121.5 -116.5q42 -39 101 -78t128 -70q-23 -10 -50 -21t-50 -29l1 1q-23 -19 -39.5 -39.5t-29.5 -54.5q-10 -26 -10 -60v-54q-29 19 -49.5 33t-31.5 24
q-12 10 -34 34.5t-57 65.5q-32 38 -58.5 75t-49.5 79q-26 -5 -50 -7t-50 -2q-281 0 -458 227q-174 225 -174 595z" />
    <glyph glyph-name="R" unicode="R" horiz-adv-x="1282" 
d="M378 1358v-590q171 76 285.5 135t185.5 106q64 45 99 95.5t35 103.5q0 150 -193 150h-412zM39 1564h749q228 0 329 -102q100 -101 100 -246t-91 -252q-40 -46 -109 -97t-163 -105q83 -55 145 -160t101 -259q19 -75 42.5 -132.5t40.5 -89.5v1q17 -32 34 -50q15 -16 25 -21
t18 -8l-9 -43h-351q0 83 -7 159t-19 140q-13 63 -35.5 120t-53.5 107q-60 95 -144 123q-36 -18 -99 -47.5t-164 -75.5v-315q0 -47 18 -90v1q9 -22 18 -37.5t17 -24.5v1l11 -11t19 -19.5t18.5 -19.5t10.5 -11h-461q115 106 115 211v1143q0 23 -4 45t-14 43q-9 22 -18 36.5
t-18 25.5z" />
    <glyph glyph-name="S" unicode="S" horiz-adv-x="1357" 
d="M548 1604q43 0 89 -7.5t97 -21.5q48 -13 89 -20t76 -7q37 0 72 16t53 32l-1 -1l11 11t19 18.5t19 18t11 10.5q2 -178 74 -231l23 -21q-118 -88 -266 -87q-88 0 -206 37q-114 35 -160 35q-151 0 -153 -121q0 -52 47 -92t122 -69q32 -12 66 -23t71 -24q23 -8 54 -18.5
t64 -22.5t65 -24t57 -23q50 -22 96 -48t88 -55q86 -61 140 -165v1q55 -104 55 -236q0 -232 -188 -378q-184 -143 -478 -143q-266 0 -440 123q-176 125 -176 336q0 171 108 270q106 99 261 99q183 0 307 -142l47 -57h-6.5t-15 -0.5t-16.5 -0.5h-12q-5 -1 -11.5 -2.5t-15 -5.5
t-19.5 -12t-26 -22q-16 -14 -29.5 -43t-25.5 -71q-22 22 -28.5 32t-8.5 15q0 2 -3 6t-14 18q-7 11 -13.5 18.5t-12.5 13.5q-14 12 -40 22t-57 10q-67 0 -100 -41q-35 -43 -35 -107q0 -57 25.5 -101.5t73.5 -76.5q51 -30 123.5 -47.5t159.5 -17.5q202 0 319 84
q114 84 114 221q0 103 -64 177q-64 75 -162 113q-52 20 -107 40t-117 41q-61 21 -117.5 42.5t-108.5 41.5q-109 42 -181 129q-75 90 -75 215q0 153 110 246q111 93 283 93z" />
    <glyph glyph-name="T" unicode="T" horiz-adv-x="1069" 
d="M646 1346v-1135q0 -49 17 -90q16 -40 33 -60q4 -4 14 -13t21 -19t20.5 -18.5t12.5 -10.5h-468q115 106 115 211v1135h-206q-29 0 -58 -5t-58 -14q-60 -19 -86 -37l-89 -52l153 425q90 -99 197 -99h611q29 0 58 5t57 14h-1q29 9 51.5 18.5t37.5 18.5v-1q4 2 16.5 10
t27.5 17t27.5 17t16.5 10l-155 -425q-90 98 -196 98h-169z" />
    <glyph glyph-name="U" unicode="U" horiz-adv-x="1339" 
d="M1204 507q0 -232 -138 -390q-140 -157 -397 -157q-255 0 -397 156q-138 156 -138 391v847q0 46 -17 89q-9 22 -17.5 36.5t-16.5 25.5l1 -2l-62 61h462q-115 -106 -115 -210v-847q0 -155 73.5 -241.5t226.5 -86.5q77 0 133.5 22.5t94 64.5t55.5 103t18 138v786
q0 46 -17 89q-16 39 -35 59l-53 62q55 0 102.5 7t88.5 22q42 15 76.5 29t59.5 28q14 7 31.5 17t30.5 17l28 -31q-78 -110 -78 -240v-845z" />
    <glyph glyph-name="V" unicode="V" horiz-adv-x="1263" 
d="M810 0h-412q68 72 66 132q0 24 -3.5 47t-9.5 46v-1l-368 1137q-20 54 -58 106t-94 97h425q-19 -32 -28 -56t-9 -39q0 -13 2 -29.5t5 -34.5t7 -35t8 -32q36 -113 71 -222t69.5 -217t69.5 -217.5t71 -223.5q74 141 147 279t147 279q65 118 65 211q0 69 -39.5 108.5
t-104.5 39.5q-30 0 -56 -10.5t-40 -20.5l-50 -50q-8 125 -105 203q103 95 260 94q160 0 263 -91q106 -94 106 -271q0 -128 -84 -288l-297 -562q-92 -172 -92 -246q0 -28 8 -48.5t16 -28.5z" />
    <glyph glyph-name="W" unicode="W" horiz-adv-x="1681" 
d="M720 1166h184l167 -652q23 57 62 139t96 189q163 304 163 387q0 65 -38 105.5t-110 40.5q-24 0 -49.5 -10.5t-38.5 -20.5l-48 -48q-12 119 -107 209q110 87 266 86q142 0 249 -87q110 -90 110 -275q0 -51 -18 -117t-51 -141q-32 -73 -69.5 -144.5t-78.5 -139.5
q-38 -63 -74.5 -134.5t-70.5 -147.5q-29 -71 -46 -136t-17 -114q0 -32 7 -60t17 -43l32 -52h-397q68 72 66 132q0 20 -3.5 43.5t-8.5 51.5v-1q-16 60 -28.5 107t-24 91t-24 90.5t-28.5 106.5q-28 -100 -55 -198t-55 -198q-7 -22 -10 -45t-4 -48q0 -27 7.5 -49t14.5 -33
q1 -2 7 -9.5t12.5 -16t12 -16t6.5 -8.5h-411q66 72 66 133q0 19 -3 42.5t-10 50.5q-72 278 -146 568t-145 568q-29 112 -151 202h426q-50 -63 -49 -93q0 -13 6.5 -45.5t17.5 -83.5q27 -107 52 -206.5t49.5 -198.5t50 -200t52.5 -209z" />
    <glyph glyph-name="X" unicode="X" horiz-adv-x="1341" 
d="M1147 1338h1q-87 -134 -169.5 -262t-169.5 -262q95 -148 189.5 -295t188.5 -294q15 -24 35.5 -50.5t41.5 -49.5q43 -48 59 -62q12 -8 37.5 -24t63.5 -39h-482q23 23 33.5 40.5t10.5 31.5q0 34 -62 129l-254 397q-65 -101 -127.5 -198.5t-127.5 -198.5q-30 -47 -46 -79
t-16 -50q0 -14 12 -32t34 -40h-468q7 5 23 16.5t37 28t44 36.5t44 43q20 23 39 48t39 54q97 150 188.5 293.5t188.5 293.5q-85 133 -168.5 263t-168.5 263v-1q-37 56 -92 112t-131 114h468q-26 -26 -35 -42t-10 -30q0 -36 62 -130l213 -335q55 85 109 168t109 168
q61 95 60 129q0 14 -10.5 31.5t-33.5 40.5h402l10 -40l-9 -5l-6.5 -6.5t-11.5 -8.5q-5 -5 -10.5 -9t-10.5 -8q-20 -16 -42.5 -39.5t-45.5 -58.5z" />
    <glyph glyph-name="Y" unicode="Y" horiz-adv-x="1204" 
d="M624 1023q66 106 130 207.5t130 207.5q29 50 45.5 108t17.5 121l43 10q6 -15 9.5 -21.5t5 -9t2.5 -3.5t3 -4v1l6 -9h-1q8 -10 27 -29.5t51 -46.5q31 -27 68 -49t82 -40l-8 -42q-92 -8 -140 -85l-354 -555v-573q0 -49 17 -90v1q19 -44 36 -63l-1 2l11 -11t19 -19.5
t19 -19.5l11 -11h-461q57 53 86 105.5t28 105.5v569q-89 141 -177 279.5t-177 279.5q-68 109 -224 225h468q-22 -22 -34 -40t-12 -31q0 -14 18 -50.5t44 -80.5z" />
    <glyph glyph-name="Z" unicode="Z" horiz-adv-x="1148" 
d="M882 673h-255q-32 -62 -62 -119.5t-59 -113.5t-59 -113.5t-63 -119.5h295q72 0 131 14t94 34l-1 -1q34 21 59 40.5t35 35.5l47 62q0 -5 1.5 -21t3.5 -35t4 -37l3 -27q8 -38 36 -113q15 -38 43.5 -77.5t74.5 -81.5h-1207l357 673h-234l109 214h239q28 54 54.5 104l53 100
t53.5 100.5t56 106.5q-38 -5 -99.5 -7t-146.5 -3q-257 0 -488 77q9 5 23 14t29 22.5t29 31t23 39.5q7 18 11 39.5t4 42.5v4.5t-1 8.5t-2 16.5t-4 28.5q2 -1 10 -4.5t17.5 -7t18 -7t11.5 -4.5h-1q15 -6 36 -15h-1q27 -11 149 -34q117 -21 243 -21q279 0 548 55l-359 -687h250
z" />
    <glyph glyph-name="bracketleft" unicode="[" horiz-adv-x="518" 
d="M74 -313v2008h421v-173h-188v-1662h188v-173h-421z" />
    <glyph glyph-name="backslash" unicode="\" horiz-adv-x="872" 
d="M894 -40h-229l-687 1644h229z" />
    <glyph glyph-name="bracketright" unicode="]" horiz-adv-x="518" 
d="M444 1695v-2008h-421v173h189v1662h-189v173h421z" />
    <glyph glyph-name="asciicircum" unicode="^" horiz-adv-x="1374" 
d="M844 1564l489 -848h-280l-367 644q-91 -160 -182.5 -322.5t-182.5 -321.5h-281l491 848h313z" />
    <glyph glyph-name="underscore" unicode="_" horiz-adv-x="890" 
d="M-9 -362v197h909v-197h-909z" />
    <glyph glyph-name="grave" unicode="`" horiz-adv-x="598" 
d="M581 1227l-98 -129l-468 308l142 183z" />
    <glyph glyph-name="a" unicode="a" horiz-adv-x="1113" 
d="M536 179q64 0 115 22q26 11 44 22t27 19h-1q11 11 16.5 15t10.5 14v572h-31q-193 0 -325 -102q-128 -99 -128 -281q0 -130 73 -206q72 -75 199 -75zM748 0v23q-51 -29 -108.5 -44t-120.5 -15q-206 0 -345 135q-140 135 -140 361q0 130 50 240t141 192q94 78 221.5 121.5
t282.5 43.5h320q-70 -94 -70 -198v-597q2 -150 99 -262h-330z" />
    <glyph glyph-name="b" unicode="b" horiz-adv-x="1083" 
d="M546 878q-126 0 -209 -68v-595h51q205 0 318 94q111 94 111 278q0 149 -78 220q-80 71 -193 71zM337 1564v-519q51 23 107.5 36t119.5 12q202 0 344 -137q141 -139 141 -369q0 -128 -44.5 -235t-125.5 -189q-84 -73 -210 -118t-281 -45h-388q26 26 40 41t19 22
q12 15 28 71q20 62 20 128v1044q0 33 -5 63t-14 57q-17 56 -33 75l-46 63h328z" />
    <glyph glyph-name="c" unicode="c" horiz-adv-x="1101" 
d="M884 708l-41 10q-1 1 -1 3v6q-3 5 -10 15t-24 31q-11 15 -23.5 28t-24.5 21q-28 21 -74 38.5t-100 17.5q-136 0 -221 -103q-87 -105 -87 -260q0 -148 86 -243h-1q85 -93 235 -93q47 0 88.5 13t67.5 30q26 19 44 38t26 32q1 2 4.5 8t8 12.5t8 12t4.5 7.5q39 -40 91.5 -64
t121.5 -31l-4.5 -9t-8 -15t-8.5 -15.5t-5 -9.5q-6 -6 -8 -10q-14 -22 -50 -58v1q-20 -21 -43 -40t-45 -34q-24 -16 -56 -29.5t-70 -27.5q-38 -12 -80.5 -19t-85.5 -7q-244 0 -399 161q-151 158 -151 404q0 245 154 403q158 161 395 161q87 0 159 -25h-1q39 -13 71 -28.5
t57 -32.5h-1q48 -35 85.5 -71.5t55.5 -61.5l34 -56q-79 -10 -114 -34q-17 -13 -27 -23t-15 -20z" />
    <glyph glyph-name="d" unicode="d" horiz-adv-x="1125" 
d="M748 215v588q-34 39 -86.5 57t-125.5 18q-130 0 -199 -87q-71 -87 -71 -227q0 -179 113 -263q114 -86 318 -86h51zM527 1093q65 0 117.5 -11.5t103.5 -38.5v263q0 33 -5 63t-13 57q-10 29 -17 47.5t-15 28.5l-46 62h327v-1302q2 -149 98 -262h-388q-321 0 -488 158
t-167 406q0 237 134 383q132 146 359 146z" />
    <glyph glyph-name="e" unicode="e" horiz-adv-x="1137" 
d="M362 780q-80 -97 -83 -239q69 25 135.5 48.5t132.5 47t133 47t138 47.5q-32 65 -94 106t-146 41q-133 0 -216 -98zM325 340q42 -77 115 -119t168 -42q98 0 175.5 50.5t131.5 142.5q8 18 17.5 40t17.5 40l43 -8q0 -9 0.5 -22.5t5.5 -36.5q2 -12 6 -23t9 -23q8 -20 31 -43
t60 -39l-29 -51q-6 -10 -20 -27t-35 -40q-20 -22 -44 -43.5t-50 -38.5t-60 -33.5t-76 -30.5q-87 -29 -181 -29q-244 0 -402 155q-159 156 -159 411q0 120 36 219t108 181q148 163 377 163q211 0 348 -134q136 -134 173 -354z" />
    <glyph glyph-name="f" unicode="f" horiz-adv-x="708" 
d="M581 1559q18 0 34.5 4.5t24.5 11.5l92 45q-74 -118 -125 -228.5t-81 -214.5q-62 211 -145 211q-30 0 -47.5 -21.5t-17.5 -50.5q0 -17 18 -46t52 -67q32 -38 53.5 -75t29.5 -71h252q-93 -93 -93 -214h-153v-979q0 -36 14 -59t26 -31q3 -3 6 -3l69 -35q-27 -7 -90 -28.5
t-144 -67.5q-41 -23 -78.5 -50t-72.5 -56l-34 30q4 6 10 16.5t14 27.5q8 14 15.5 38t16.5 58q8 36 13 73t5 75v991h-265q96 90 96 214h143q-5 8 -12 16t-15 17q-22 25 -40 51t-34 54q-16 32 -24 65t-8 71q0 122 78 197q77 74 204 74q56 0 125 -23q32 -11 53.5 -15.5
t34.5 -4.5z" />
    <glyph glyph-name="g" unicode="g" horiz-adv-x="1121" 
d="M348 587q66 -54 211 -54q146 0 212 54q63 51 63 122q0 36 -15.5 66t-47.5 56q-65 53 -212 53q-146 0 -211 -53q-63 -53 -63 -122q0 -71 63 -122zM560 325q-63 0 -122.5 9t-110.5 26q-9 -5 -9 -15t18 -18.5t47 -16.5q42 -9 91.5 -18t107.5 -19q26 -4 56.5 -9.5t62 -12
t62.5 -14t58 -15.5q124 -35 212 -122q89 -89 89 -230q0 -195 -155 -300q-75 -52 -176.5 -77t-232.5 -25q-283 0 -420 91q-142 96 -142 242q0 104 58 172q57 67 118 82l82 18q0 -20 3 -47.5t22 -66.5q10 -20 38.5 -47t73.5 -63q-107 0 -139 -17l1 1q-25 -16 -25 -45
q0 -44 80 -77h-1q90 -37 251 -37q151 0 246 52q86 45 86 145q0 61 -52 101q-53 42 -141 61l1 -1q-49 8 -98 18t-98 19l-196 36q-48 10 -88 26.5t-74 42.5q-70 54 -70 139q0 54 29 97q12 18 25.5 31t26.5 21q-100 101 -100 247q0 162 134 274q134 110 371 110q45 0 89.5 -5
t81.5 -13q5 11 9.5 20.5t9.5 19.5q10 16 27 36t43 45q52 49 184 93q-15 -24 -24 -45t-7 -38q1 -8 3.5 -17t5.5 -17q11 -16 45 -40.5t97 -49.5q-79 -24 -128.5 -46t-75.5 -47q144 -105 144 -280q0 -164 -133 -275q-130 -109 -371 -109z" />
    <glyph glyph-name="h" unicode="h" horiz-adv-x="1114" 
d="M15 0q26 26 40 41t19 22t12 24.5t16 46.5q9 30 14 62t5 66v1044q0 33 -5 63t-13 57q-18 56 -33 75l-47 63h328v-593l10 10t11 9q20 18 50 36.5t65 32.5q38 16 80.5 25t85.5 9q101 0 179 -33t136 -99q115 -130 115 -333q0 -126 -37 -249q-18 -63 -39 -114.5t-42 -92.5
q-21 -38 -39.5 -83t-32.5 -96q-23 -80 -23 -150q0 -9 1 -23t2 -24l-42 -11q-12 20 -24 33q-1 2 -3 4.5t-3 4.5l2 -4q-8 10 -25.5 26t-45.5 39t-64.5 45t-84.5 45l48 58h-1q11 13 25.5 35t34.5 54t39 67t36 72q18 36 32.5 78.5t27.5 90.5q27 100 27 195q0 112 -58 182
q-54 68 -160 68q-54 0 -103.5 -21.5t-81.5 -52.5t-55.5 -61t-34.5 -53l-4 -10t-4 -8v-410q1 -148 99 -262h-435z" />
    <glyph glyph-name="i" unicode="i" horiz-adv-x="479" 
d="M137 1260q-41 41 -41 101q0 61 42 102h-1q42 42 102 42q59 0 101 -42h-1q43 -41 43 -102q0 -58 -43 -101q-21 -20 -46 -30.5t-54 -10.5q-30 0 -55 10.5t-46 30.5h-1zM124 859q0 104 -70 198h369q-69 -95 -69 -198v-597q1 -148 99 -262h-435q26 26 40 41t19 22t12 24.5
t16 46.5q9 30 14 62t5 66v597z" />
    <glyph glyph-name="j" unicode="j" horiz-adv-x="475" 
d="M133 1260q-42 42 -42 101q0 61 43 102h-1q42 42 101 42q60 0 102 -42h-1q42 -41 42 -102q0 -59 -42 -101q-21 -20 -46 -30.5t-55 -10.5q-29 0 -54 10.5t-46 30.5h-1zM349 169q0 -43 17.5 -93.5t48.5 -104.5q74 -122 74 -210q0 -140 -90 -217q-89 -76 -210 -76
q-142 0 -245 79q20 18 35 36.5t25 36.5t16 33.5t8 26.5q0 7 0.5 20.5t0.5 26.5t0.5 23.5t0.5 13.5q77 -82 144 -82q42 0 63.5 26.5t21.5 62.5q0 34 -31 83q-35 51 -72 126q-37 76 -37 155v724q0 103 -69 198h369q-34 -47 -52 -96t-18 -102v-690z" />
    <glyph glyph-name="k" unicode="k" horiz-adv-x="983" 
d="M29 0q26 26 40 41t19 22q12 15 28 71q19 58 19 128v1044q0 66 -18 120q-9 28 -16.5 46t-16.5 29l-46 63h327v-839q37 42 72 83t70 83q40 46 40 77q0 19 -14.5 29.5t-25.5 13.5l6 46h433l10 -40l-19 -10q-3 -2 -10 -6t-16 -11q-5 -4 -12 -9t-13 -10t-13 -10t-15 -13h1
q-8 -9 -17.5 -17.5t-18.5 -17.5q-11 -11 -21 -21.5t-17 -19.5l-211 -240q40 -40 76.5 -77.5t76.5 -78.5q51 -53 87.5 -98.5t58.5 -83.5l-1 1q25 -40 36.5 -87t11.5 -101q0 -68 -25.5 -130t-59.5 -105q-16 -20 -33.5 -38.5t-36.5 -33.5q-43 -37 -79 -45.5t-45 1.5
q5 20 7.5 38t2.5 34q0 90 -122 165q13 4 29.5 8.5t33 11.5t33 18.5t31.5 28.5q27 30 27 73q0 39 -22 70q-25 37 -80 91l-161 159q-13 -14 -27 -29.5t-28 -32.5v-129q1 -148 100 -262h-436z" />
    <glyph glyph-name="l" unicode="l" horiz-adv-x="512" 
d="M40 0q34 25 51.5 54t26 62t11 69.5t6.5 76.5v1044q0 33 -5 63t-13 57q-18 56 -33 75l-47 63h372q-44 -72 -44 -235v-1067q1 -75 20.5 -140t67.5 -122h-413z" />
    <glyph glyph-name="m" unicode="m" horiz-adv-x="1587" 
d="M130 859q0 104 -70 198h300v-76q24 27 53 49q32 25 82.5 44t109.5 19q50 0 90.5 -13t71.5 -33.5t52.5 -45.5t34.5 -49l-1 1q4 -7 7 -13.5t6 -12.5q5 6 10 13t11 15q14 17 29.5 32.5t32.5 29.5q18 14 42 27.5t52 24.5t59 17.5t63 6.5q90 0 161 -32.5t123 -95.5
q49 -62 75.5 -147.5t26.5 -189.5q0 -121 -37 -242q-19 -61 -39.5 -113t-42.5 -97q-20 -41 -38 -87t-33 -100q-22 -73 -22 -141q0 -10 1 -22.5t3 -26.5l-42 -14q-9 16 -24 33q-1 2 -3 4.5t-3 4.5l2 -4q-8 10 -25.5 26t-45.5 39q-27 22 -64 44.5t-86 45.5q13 14 24.5 28.5
t20.5 29.5q12 14 27 36.5t35 54.5q44 69 75 139q34 72 60 171q27 99 27 195q0 110 -49 180q-47 66 -137 66q-109 0 -162 -98q-58 -106 -58 -229v-289q2 -150 97 -262h-328v674q0 206 -137 204q-71 0 -128 -69q-59 -69 -59 -229v-318q1 -148 99 -262h-435q26 26 40 41t19 22
t12 24.5t16 46.5q9 30 14 62t5 66v597z" />
    <glyph glyph-name="n" unicode="n" horiz-adv-x="1153" 
d="M41 1057h431q-5 -6 -9.5 -11.5t-9.5 -10.5q97 58 218 58q101 0 179 -33t136 -99q115 -130 115 -333q0 -126 -37 -249q-18 -63 -39 -114.5t-42 -92.5q-21 -38 -39.5 -83t-32.5 -96q-23 -80 -23 -150q0 -9 1 -23t2 -24l-42 -11q-12 20 -24 33q-1 2 -3 4.5t-3 4.5l2 -4
q-8 10 -25.5 26t-45.5 39t-64.5 45t-84.5 45l48 58h-1q11 13 25.5 35t34.5 54t39 67t36 72q18 36 32.5 78.5t27.5 90.5q27 100 27 195q0 112 -58 182q-54 68 -160 68q-54 0 -103.5 -21.5t-81.5 -52.5t-55.5 -61t-34.5 -53l-4 -10t-4 -8v-410q1 -148 99 -262h-435
q26 26 40 41t19 22t12 24.5t16 46.5q9 30 14 62t5 66v538q0 33 -5 63t-13 57q-18 55 -33 75z" />
    <glyph glyph-name="o" unicode="o" horiz-adv-x="1200" 
d="M841 275q93 101 93 254t-93 252q-93 97 -241 97q-149 0 -242 -97q-92 -98 -92 -252t92 -254q93 -96 242 -96q148 0 241 96zM195 125q-159 162 -159 404q0 244 159 403q160 161 405 161q246 0 404 -161q160 -158 160 -403q0 -244 -160 -404q-158 -161 -404 -161
q-245 0 -405 161z" />
    <glyph glyph-name="p" unicode="p" horiz-adv-x="1105" 
d="M118 1008q0 104 -70 198h369q-69 -95 -69 -198v-24q2 2 5.5 4.5t5.5 4.5q17 14 33.5 25.5t33.5 21.5l-1 -1q35 21 92 37.5t120 16.5q182 0 306 -121q126 -121 126 -332q0 -383 -375 -584q-74 -38 -153.5 -65.5t-168.5 -42.5q26 74 27 122q0 54 -23 114q3 1 11 2.5t18 3.5
t19 4t15 4q2 1 5.5 1.5t6.5 1.5q14 5 40 15.5t64 27.5q80 38 134 80q54 43 102 126q47 85 47 184q0 112 -64 179q-63 65 -173 65q-146 0 -239 -145v1q-5 -7 -7 -10.5t-7 -11.5v-947q2 -148 99 -262h-436q22 22 36.5 38t19.5 23q14 17 31 75q20 60 20 126v1243z" />
    <glyph glyph-name="q" unicode="q" horiz-adv-x="1105" 
d="M986 -235q1 -147 100 -262h-436q46 46 58 63q10 14 28 73q9 29 14 61t5 65v1078q-191 -6 -338 -118q-152 -117 -152 -307q0 -54 14.5 -97.5t40.5 -76.5q57 -65 161 -65q21 0 41 4.5t37.5 12t31 16t21.5 16.5l56 58q7 -136 85 -209q-15 -15 -26.5 -25t-23.5 -19
q-11 -8 -33 -18t-57 -24q-33 -12 -70 -19.5t-74 -7.5q-188 0 -311 123t-123 319q0 293 221 472q220 179 548 179h251q-69 -95 -69 -200v-1092z" />
    <glyph glyph-name="r" unicode="r" horiz-adv-x="788" 
d="M351 262q1 -148 100 -262h-436q26 26 40 41t19 22q9 12 28 71q19 58 19 128v597q0 103 -69 198h299v-76q12 13 25 25.5t28 23.5q16 12 38.5 23.5t49.5 20.5t57 14t61 5t61 -4.5t46 -8.5q1 0 8 -2t15.5 -4t15 -4t8.5 -2q-60 -81 -60 -139q0 -36 17 -79l2 -76
q-89 105 -178 104q-79 0 -136 -72q-58 -75 -58 -223v-321z" />
    <glyph glyph-name="s" unicode="s" horiz-adv-x="1023" 
d="M449 1057q25 0 52.5 -1t56.5 -3q28 -2 47 -3t27 -1q131 0 182 137q44 -91 81 -122q17 -15 30 -24.5t21 -11.5l48 -18q-5 -14 -14 -33t-35 -45q-15 -14 -29.5 -25.5t-30.5 -20.5q-34 -20 -97 -35.5t-141 -15.5q-12 0 -39.5 1t-69.5 3t-67.5 3t-36.5 1q-83 0 -83 -61
q0 -14 6 -24.5t16 -19.5h-1q6 -5 20.5 -12t25.5 -12h-1q14 -5 36 -11.5t39 -9.5q10 -2 25.5 -6t32.5 -9q13 -3 25 -6.5t23 -6.5q179 -50 270 -127q98 -81 98 -229q0 -71 -24.5 -132t-75.5 -112q-101 -101 -298 -101q-50 0 -99 7t-93 20t-82.5 29.5t-67.5 36.5
q-57 38 -101 76.5t-64 67.5q-3 4 -8.5 11.5t-11.5 15t-10.5 14t-6.5 9.5q35 13 62.5 25.5t43.5 26.5q33 28 49 49q2 3 7.5 11t11.5 17t11.5 16.5t7.5 10.5q9 -20 23 -45.5t43 -59.5q14 -16 30 -30t34 -28h-1q18 -12 42 -23.5t53 -21t61.5 -15t65.5 -5.5q81 0 124.5 32.5
t43.5 86.5q0 59 -44 88q-25 17 -68.5 34.5t-99.5 31.5q-98 26 -178.5 57t-124.5 62q-100 70 -100 207q0 131 90 206q89 73 238 73z" />
    <glyph glyph-name="t" unicode="t" horiz-adv-x="666" 
d="M196 843h-200q67 84 67 214h132q-3 39 -14.5 65t-22.5 34l-50 38q208 71 361 224l37 -28q-7 -12 -23.5 -60.5t-34.5 -132.5q-16 -73 -18 -140h225q-65 -81 -66 -214h-159v-605q0 -59 46 -59q9 0 19.5 5.5t15.5 11.5l48 48q0 -65 14 -106.5t27 -55.5q6 -5 18 -13.5
t15 -11.5q-62 -93 -179 -93q-110 0 -184 65t-74 195v619z" />
    <glyph glyph-name="u" unicode="u" horiz-adv-x="1113" 
d="M732 859q0 104 -70 198h300v-795q1 -148 99 -262h-329v67l-3 -3q-13 -13 -28 -24t-31 -22q-16 -10 -38 -19.5t-48.5 -17t-55.5 -12.5t-59 -5q-191 0 -304 119q-57 60 -84.5 138t-27.5 177q0 60 12 130t34 143q20 67 32 117t12 73q0 19 -3.5 39.5t-9.5 38.5t-13 33.5
t-14 26.5l-34 58h270q35 -70 35 -196q0 -37 -11.5 -95t-34.5 -136q-22 -75 -33 -132t-11 -98q0 -108 57 -165q56 -56 147 -56q118 0 180 77h-1q65 80 65 206v397z" />
    <glyph glyph-name="v" unicode="v" horiz-adv-x="1096" 
d="M935 1198q7 -5 17 -13.5t24 -21.5v1q14 -13 27 -28t24 -32h-1q12 -16 22.5 -38.5t18.5 -48.5t13 -55.5t5 -60.5q0 -84 -54 -202q-54 -119 -116 -216v1q-30 -49 -58 -97.5t-55 -101.5q-49 -98 -49 -150q0 -65 107 -135h-532q110 70 110 141q0 43 -19 85l-259 648
q-36 94 -154 183h471l-7 -7t-15 -15.5t-15 -15.5l-7 -7q-2 -2 -5 -6.5t-9 -16.5q-4 -9 -7 -17.5t-5 -16.5h1q-2 -8 -3 -15.5t-1 -13.5q0 -17 3.5 -35.5t9.5 -37.5l-1 1q26 -68 48 -126t43.5 -114t43.5 -114.5t48 -125.5q17 37 46.5 90.5t70.5 122.5q126 211 126 298
q0 103 -140 188q29 5 64.5 17.5t66.5 39.5q31 28 63 95z" />
    <glyph glyph-name="w" unicode="w" horiz-adv-x="1620" 
d="M450 1057q-79 -79 -79 -122q0 -18 8 -42q22 -64 42 -120.5t39.5 -111.5t39.5 -112t43 -122q38 118 75.5 235t75.5 234q8 15 8 32q0 5 -1 11.5t-4 12.5q-14 33 -39 58t-51 47h491q-28 -21 -53.5 -44.5t-38.5 -55.5q-6 -15 -6 -28q0 -18 7 -32l143 -463q16 33 39.5 78.5
t56.5 108.5q101 194 101 280q0 46 -19 82t-29 43q-4 3 -9.5 6.5t-15.5 8.5t-25 13t-38 20q35 6 71.5 17.5t64.5 37.5q13 12 27 34.5t28 52.5q14 -6 34 -16.5t43 -27.5q31 -22 53 -53l-1 1q23 -29 40 -79.5t17 -109.5q0 -112 -77 -272l-147 -299q-70 -136 -69 -211
q0 -71 92 -149h-431l-9 43q8 3 19.5 18t21.5 48q5 17 5 29q0 11 -2.5 23.5t-6.5 26.5l-139 454q-37 -113 -74 -227t-73 -227q-9 -26 -9 -47q0 -53 88 -141h-417l-8 43q8 3 20.5 19t23.5 50q5 14 4 23q0 27 -11 52l-204 557q-24 66 -49.5 115.5t-44.5 75.5q-9 14 -17.5 26.5
t-16.5 20.5q-16 17 -24 23t-16 9l8 43h425z" />
    <glyph glyph-name="x" unicode="x" horiz-adv-x="1230" 
d="M469 538q-56 80 -111 159t-111 158l1 -1q-18 26 -36 48.5t-36 41.5q-36 39 -54 51q-5 3 -20.5 13t-32.5 20.5t-31 19t-16 9.5h499l-43 -42q-2 -4 -4.5 -13.5t-7.5 -30.5q-1 -5 -1 -8q0 -13 16 -32l132 -190l136 191l-1 -1q15 25 15 48q0 17 -7 25l-32 53l463 -1
q-9 -6 -26.5 -17.5t-37.5 -26.5t-41 -32t-37 -34q-18 -19 -37 -43t-36 -49l-222 -310l114 -162t114 -163v1q20 -27 42.5 -52t48.5 -47q50 -44 74 -57q29 -14 46 -21l-8 -43h-478q33 21 57 38.5t30 33.5l-1 -1q3 8 -3 16l-180 254q-45 -63 -88 -124.5t-88 -124.5l2 2
q-8 -13 -8 -24q0 -9 8 -17l53 -53h-445l-8 43q8 3 18 7t24 12q12 7 31 21t45 36q27 23 50 48t43 52z" />
    <glyph glyph-name="y" unicode="y" horiz-adv-x="1206" 
d="M779 1195q74 -51 131.5 -85.5t99.5 -51.5q76 -30 118 -36q10 0 25 -1t23 -1l7 -43q-8 -3 -18 -7.5t-19 -9.5q-8 -4 -22 -18.5t-36 -39.5t-40 -53.5t-30 -60.5q-72 -189 -144.5 -379t-144.5 -378q-82 -215 -176 -336q-96 -124 -310 -180q2 15 3.5 24t2 14.5t0.5 8v4.5
q0 79 -99 174q139 17 226 83q84 65 116 188q-81 197 -160.5 392.5t-160.5 393.5q-60 145 -175 260h412l9 -42q-9 -5 -18.5 -13.5t-23.5 -33.5v1q-1 -5 -3 -9t-2 -9t1.5 -10.5t4.5 -10.5l235 -592q53 147 105 294t105 293v-1q8 25 11 47t3 41q0 3 -1 7q-2 48 -12 72z" />
    <glyph glyph-name="z" unicode="z" horiz-adv-x="1101" 
d="M655 491q-26 -39 -49.5 -72t-46.5 -65.5t-46.5 -66t-50.5 -72.5h254q62 2 98.5 21.5t51.5 44.5q13 20 18 30.5t8 19.5l46 -5q0 -11 1 -23.5t2 -25.5q2 -14 10 -40.5t22 -60.5q16 -35 44.5 -80t67.5 -96h-1063l352 491h-178l-7 43q9 4 28 15.5t46 46.5q14 17 26 42.5
t22 59.5h211q15 21 27.5 38t24 33t24 33.5t28.5 40.5h-184q-64 0 -118.5 12.5t-88.5 29.5q-31 17 -54 36.5t-34 33.5q-2 2 -7.5 9.5t-11.5 15.5t-11.5 15t-6.5 9q20 0 47 1t60 8v-1q12 3 26 7.5t28 11.5q26 11 57.5 46t57.5 92q11 -20 21.5 -36t16.5 -23q13 -12 57 -32
q45 -21 106 -21h462l-252 -359h156l10 -41q-91 -45 -124 -166h-184z" />
    <glyph glyph-name="braceleft" unicode="{" horiz-adv-x="616" 
d="M-13 661v59l37 11q10 2 36.5 15.5t48.5 33.5v-1q21 20 37.5 56.5t16.5 85.5v480q0 150 90 222q88 72 231 72h197q-11 -7 -26 -16.5t-29.5 -20.5t-26 -24t-16.5 -26v1q-5 -18 -5 -33q0 -6 2 -19t6 -35h-110q-84 0 -82 -103v-496q0 -156 -85 -232q3 -4 6.5 -7.5t7.5 -8.5
q18 -20 33 -46q14 -26 26 -71.5t12 -97.5v-497q0 -101 82 -103h111q-6 -24 -7.5 -38t-1.5 -22q0 -21 22 -49.5t68 -63.5h-184q-142 0 -231 71q-90 74 -90 223v481q0 75 -39 122q-40 47 -76 59z" />
    <glyph glyph-name="bar" unicode="|" horiz-adv-x="342" 
d="M61 1733h220v-2010h-220v2010z" />
    <glyph glyph-name="braceright" unicode="}" horiz-adv-x="616" 
d="M629 723v-65l-40 -8l2 1q-10 -2 -36 -15.5t-49 -34.5q-20 -18 -36.5 -54.5t-16.5 -84.5v-481q0 -150 -90 -223q-89 -71 -231 -71l-196 1q11 7 26 17t29.5 21t26 23.5t15.5 24.5v-1q5 18 5 33q0 10 -9 54h111q83 0 83 103v497q0 156 83 230l-6.5 6.5t-6.5 7.5
q-8 11 -16.5 22.5t-16.5 26.5q-14 26 -25.5 71.5t-11.5 98.5v496q0 103 -83 103h-111q6 24 7.5 38t1.5 22q0 44 -90 113h184q142 0 231 -72q90 -72 90 -222v-480q0 -48 15 -84.5t38 -56.5h-1q24 -19 48.5 -32.5t39.5 -16.5z" />
    <glyph glyph-name="asciitilde" unicode="~" horiz-adv-x="1310" 
d="M294 552h-237v48q0 414 339 414q44 0 85 -10t82 -29q39 -19 72.5 -39.5t61.5 -43.5q23 -20 51 -39.5t60 -37.5h-1q58 -34 106 -34q104 0 104 146v77h236v-47q0 -414 -338 -415q-44 0 -85 10t-82 29q-78 37 -135 84q-45 40 -112 77q-59 34 -103 34q-104 0 -104 -146v-78z
" />
    <glyph glyph-name="currency" unicode="&#xa4;" horiz-adv-x="1048" 
d="M365 904q-68 -66 -68 -160q0 -93 68 -159q66 -68 159 -68t159 68q68 66 68 159q0 94 -68 160q-66 68 -159 68t-159 -68zM190 1187l127 -130q48 32 100 47t107 15q114 0 205 -62l129 130l109 -108l-130 -129q62 -92 62 -206q0 -56 -15 -107.5t-47 -99.5q31 -30 66 -64.5
t64 -62.5l-109 -108l-129 128q-89 -60 -205 -60t-207 60l-127 -128l-109 108l128 127q-60 91 -60 207q2 116 60 206q-31 30 -65 65.5t-63 63.5z" />
    <glyph glyph-name="brokenbar" unicode="&#xa6;" horiz-adv-x="342" 
d="M61 668h220v-945h-220v945zM61 1733h220v-945h-220v945z" />
    <glyph glyph-name="section" unicode="&#xa7;" horiz-adv-x="985" 
d="M294 725q0 -38 18 -68.5t56 -59.5h-1q22 -15 41.5 -28t37.5 -24t43 -24.5t60 -30.5q34 -17 55.5 -28t39.5 -21q67 32 67 119q0 30 -15.5 57.5t-56.5 59.5q-44 35 -75 56q-31 23 -101 67l-87 55q-82 -52 -82 -130zM66 1253q0 160 110 252q54 46 121 68.5t145 22.5
q36 0 84 -5.5t110 -19.5q57 -11 89.5 -17t43.5 -6q22 0 46 7t53 21l27 -32q-28 -37 -48 -69.5t-35 -61.5q-14 -29 -22 -50t-10 -36q-1 -5 -3 -16t-4 -23t-4 -22.5t-3 -14.5q-23 20 -39.5 33.5t-30.5 22.5q-29 19 -102 48q-78 29 -154 29q-33 0 -59.5 -9t-45.5 -24.5t-29 -37
t-10 -46.5q0 -58 58 -114q31 -29 71.5 -58t85.5 -55q47 -26 96.5 -56.5t95.5 -59.5h-1q49 -31 92 -70.5t76 -84.5q72 -95 72 -209q0 -148 -117 -245q57 -59 87 -130t30 -149q0 -179 -130 -295q-129 -115 -319 -115q-98 0 -200 29h1q-42 11 -83 22.5t-82 22.5
q-16 4 -30.5 6.5t-28.5 2.5q-10 0 -38 -8t-70 -24q83 122 147 330q26 -26 43 -41.5t29 -26.5q14 -11 43 -26.5t76 -35.5q45 -20 90 -29t90 -9q112 0 173 55q61 51 61 134q0 72 -59 127q-65 60 -156 106q-47 23 -95 47.5t-97 50.5q-99 55 -170 147q-35 47 -53 101.5
t-18 117.5q0 40 9.5 76.5t26.5 68.5q17 30 35.5 55t33.5 36v-1q14 14 31 25q-136 126 -136 268z" />
    <glyph glyph-name="copyright" unicode="&#xa9;" horiz-adv-x="1822" 
d="M1258 974q0 -103 -69 -171v1q-68 -70 -171 -70q-126 0 -204 99l2 -3l-45 45q57 0 92.5 17t43.5 34q2 7 6 20.5t8.5 27.5t7.5 25t4 13q41 -109 85 -109q26 0 43.5 19t17.5 50q0 51 -40.5 79.5t-105.5 28.5q-98 0 -167 -84q-32 -44 -50 -102.5t-18 -129.5q0 -69 17.5 -126
t46.5 -96q65 -76 160 -76q121 0 163 115l-2 -4q1 4 4 18.5t6.5 31t6.5 31t4 17.5q34 -66 65 -100t46 -40q3 -1 11.5 -2t17 -2.5t16 -3t9.5 -1.5q0 -1 -4 -7t-8.5 -13.5t-8.5 -13.5t-5 -7l1 3l-6 -14q-5 -6 -13.5 -18t-22.5 -29q-14 -18 -30 -33t-33 -29q-17 -13 -40.5 -25.5
t-51 -22t-58.5 -15t-62 -5.5q-183 0 -295 132q-111 129 -111 335q0 225 124 355t286 130q151 0 238 -80v1q89 -80 89 -196zM419 1273q-204 -206 -204 -493q0 -288 204 -492t492 -204q289 0 493 204t204 492q0 287 -204 493q-203 203 -493 203q-289 0 -492 -203zM333 202
q-118 120 -178 263.5t-60 314.5t60 314t178 264q239 238 578 238t578 -238q239 -241 239 -578q0 -339 -239 -578q-241 -238 -578 -238t-578 238z" />
    <glyph glyph-name="guillemotleft" unicode="&#xab;" horiz-adv-x="899" 
d="M627 557q60 -102 125 -210.5t125 -209.5l-135 -89l-371 509l370 506l135 -87zM281 557q60 -102 125 -210.5t125 -209.5l-136 -89l-370 509l369 506l136 -87z" />
    <glyph glyph-name="logicalnot" unicode="&#xac;" horiz-adv-x="1214" 
d="M964 667h-869v157h1024v-586h-155v429z" />
    <glyph glyph-name="uni00AD" unicode="&#xad;" horiz-adv-x="561" 
d="M530 501h-551l54 206h549z" />
    <glyph glyph-name="registered" unicode="&#xae;" horiz-adv-x="1245" 
d="M566 1207v-139q42 19 71.5 35t47.5 29q37 28 37 50q0 25 -40 25h-116zM566 927v-93q0 -42 35 -62l-10 -40h-184l23 30q-1 17 -1 31q-1 12 -1 24v17v395q0 33 -101 102h353q47 0 81 -11t55.5 -30.5t32 -46t10.5 -57.5q0 -50 -27.5 -89t-88.5 -79q23 -23 42.5 -58.5
t32.5 -80.5q11 -40 22 -66t16 -31l47 -50h-211q0 95 -18.5 149.5t-53.5 70.5zM307 1344q-131 -131 -131 -315q0 -182 131 -315q133 -131 315 -131q184 0 315 131q132 132 132 315t-132 315t-315 132t-315 -132zM222 629q-166 166 -166 400q0 235 166 401t400 166
q235 0 401 -166t166 -401q0 -234 -166 -400t-401 -166q-234 0 -400 166z" />
    <glyph glyph-name="degree" unicode="&#xb0;" horiz-adv-x="741" 
d="M271 1364q-40 -40 -40 -99q0 -60 40 -100t99 -40t100 40q41 41 41 100q0 58 -41 99q-21 20 -45.5 30.5t-54.5 10.5q-58 0 -99 -41zM134 1029q-96 96 -96 236t96 236q98 97 237 97q140 0 236 -97q96 -98 96 -236q0 -139 -96 -236q-97 -97 -236 -97t-237 97z" />
    <glyph glyph-name="plusminus" unicode="&#xb1;" horiz-adv-x="798" 
d="M740 0h-681v179h681v-179zM740 499h-249v-254h-183v254h-249v178h249v252h183v-252h249v-178z" />
    <glyph glyph-name="mu" unicode="&#xb5;" horiz-adv-x="1171" 
d="M681 994h173v-809q0 -71 44 -71q65 0 65 122v75h114v-89q0 -103 -49 -175q-52 -71 -143 -71q-70 0 -117 38t-62 106q-53 -67 -124 -102t-151 -35q-60 0 -107.5 16.5t-82.5 47.5q5 -28 13 -55.5t19 -56.5q42 -110 42 -149q0 -58 -30.5 -93t-78.5 -35q-25 0 -45.5 10
t-35.5 28t-23 42.5t-8 53.5q0 18 3.5 57t10.5 98t10.5 113t3.5 104v830h173v-679q0 -49 11 -84t31.5 -57.5t48.5 -33.5t61 -11q50 0 92.5 22.5t74.5 65.5q32 45 49.5 103.5t17.5 126.5v547z" />
    <glyph glyph-name="mu" unicode="&#x3bc;" horiz-adv-x="1171" 
d="M681 994h173v-809q0 -71 44 -71q65 0 65 122v75h114v-89q0 -103 -49 -175q-52 -71 -143 -71q-70 0 -117 38t-62 106q-53 -67 -124 -102t-151 -35q-60 0 -107.5 16.5t-82.5 47.5q5 -28 13 -55.5t19 -56.5q42 -110 42 -149q0 -58 -30.5 -93t-78.5 -35q-25 0 -45.5 10
t-35.5 28t-23 42.5t-8 53.5q0 18 3.5 57t10.5 98t10.5 113t3.5 104v830h173v-679q0 -49 11 -84t31.5 -57.5t48.5 -33.5t61 -11q50 0 92.5 22.5t74.5 65.5q32 45 49.5 103.5t17.5 126.5v547z" />
    <glyph glyph-name="paragraph" unicode="&#xb6;" horiz-adv-x="1136" 
d="M518 1349q-57 -4 -103 -20.5t-76 -46.5q-66 -66 -66 -172q0 -103 66 -171q30 -29 76 -46t103 -20v476zM736 -311h-218v968q-98 4 -178 34.5t-146 87.5q-140 121 -140 331q0 212 142 335q141 119 354 119h541q-45 -74 -45 -235v-1640h-218v1661h-92v-1661z" />
    <glyph glyph-name="periodcentered" unicode="&#xb7;" horiz-adv-x="397" 
d="M95 675q-43 43 -43 105t44 104h-1q43 43 103 43q61 0 104 -43h-1q45 -43 45 -104t-44 -105q-42 -42 -104 -42q-61 0 -103 42z" />
    <glyph glyph-name="guillemotright" unicode="&#xbb;" horiz-adv-x="899" 
d="M272 557q-60 101 -125 210t-125 209l136 87l370 -506l-371 -509l-135 89zM618 557q-60 101 -125 210t-125 209l137 87l369 -506l-370 -509l-136 89z" />
    <glyph glyph-name="endash" unicode="&#x2013;" horiz-adv-x="948" 
d="M893 502h-889l53 203h887z" />
    <glyph glyph-name="emdash" unicode="&#x2014;" horiz-adv-x="1415" 
d="M1352 502h-1340l52 203h1339z" />
    <glyph glyph-name="quoteleft" unicode="&#x2018;" horiz-adv-x="397" 
d="M203 1112q-33 0 -60.5 12t-48 33t-31.5 50t-11 64q0 102 68 196q68 90 184 146l29 -70q-1 -1 -6.5 -6t-6.5 -6q-10 -6 -25 -19.5t-38 -49.5q-8 -13 -13.5 -29t-7.5 -31q54 -10 82 -48.5t28 -92.5q0 -60 -41 -104q-42 -45 -102 -45z" />
    <glyph glyph-name="quoteright" unicode="&#x2019;" horiz-adv-x="397" 
d="M195 1584q33 0 60.5 -12t48 -33t31.5 -50t11 -64q0 -51 -18 -101t-51 -95t-79.5 -81.5t-104.5 -64.5l-29 70q1 1 6.5 6t6.5 6q10 6 24.5 19.5t37.5 49.5q9 14 14.5 29.5t7.5 30.5q-51 12 -80 50.5t-29 90.5q0 60 41 104q42 45 102 45z" />
    <glyph glyph-name="quotesinglbase" unicode="&#x201a;" horiz-adv-x="397" 
d="M195 273q33 0 60.5 -11.5t48 -32t31.5 -49.5t11 -65q0 -52 -18 -101.5t-51 -94.5t-79.5 -81t-104.5 -64l-29 68l13 13q10 6 24.5 19t37.5 50q9 14 14.5 29.5t7.5 31.5q-47 14 -78 52t-31 88q0 60 41 104t102 44z" />
    <glyph glyph-name="quotedblleft" unicode="&#x201c;" horiz-adv-x="768" 
d="M567 1112q-33 0 -60.5 12t-48 33t-31.5 50t-11 64q0 102 68 196q66 90 185 146l29 -70q-1 -1 -7 -6t-6 -6q-10 -6 -25.5 -20t-37.5 -49q-8 -14 -14 -28.5t-8 -31.5q51 -12 80.5 -50.5t29.5 -90.5q0 -60 -41 -104q-42 -45 -102 -45zM209 1112q-33 0 -60.5 12t-48 33
t-31.5 50t-11 64q0 52 17.5 100.5t50.5 95.5q68 90 185 146l29 -70q-1 -1 -7 -6t-7 -6q-10 -6 -25 -19.5t-38 -49.5q-8 -13 -13.5 -29t-7.5 -31q54 -10 82 -48.5t28 -92.5q0 -61 -40 -104q-43 -45 -103 -45z" />
    <glyph glyph-name="quotedblright" unicode="&#x201d;" horiz-adv-x="768" 
d="M201 1584q33 0 60.5 -12t48 -33t31.5 -50t11 -64q0 -51 -18 -101t-50 -95q-34 -45 -80.5 -81.5t-104.5 -64.5l-29 70q1 1 7 6t6 6q10 6 24.5 19.5t37.5 49.5q9 14 15 29.5t8 30.5q-51 12 -80.5 50.5t-29.5 90.5q0 60 41 104q42 45 102 45zM559 1584q33 0 60.5 -12t48 -33
t31.5 -50t11 -64q0 -51 -18 -101t-51 -95q-67 -90 -184 -146l-29 70q1 1 7 6t7 6q10 6 24.5 19.5t37.5 49.5q17 28 22 60q-54 10 -82 48.5t-28 92.5q0 61 40 104q43 45 103 45z" />
    <glyph glyph-name="quotedblbase" unicode="&#x201e;" horiz-adv-x="768" 
d="M201 273q33 0 60.5 -11.5t48 -32t31.5 -49.5t11 -65q0 -52 -18 -101.5t-50 -94.5q-34 -45 -80.5 -81t-104.5 -64l-29 68q1 1 7 6.5t6 6.5q10 6 24.5 19t37.5 50q18 27 23 61q-48 14 -79 52t-31 88q0 60 41 104t102 44zM559 273q33 0 60.5 -11.5t48 -32t31.5 -49.5t11 -65
q0 -52 -18 -101.5t-51 -94.5t-79.5 -81t-104.5 -64l-29 68q1 1 7 6.5t7 6.5q10 6 24.5 19t37.5 50q17 28 22 61q-54 9 -82 47t-28 93q0 61 40 104q42 44 103 44z" />
    <glyph glyph-name="dagger" unicode="&#x2020;" horiz-adv-x="935" 
d="M875 931h-293q-5 -318 -10 -642t-9 -642h-190l-19 1284h-293v220h288q-1 49 -1.5 101.5t-1 105.5t-1 105.5t-1.5 100.5h248l-5 -413h288v-220z" />
    <glyph glyph-name="daggerdbl" unicode="&#x2021;" horiz-adv-x="935" 
d="M875 564h-299q-2 -108 -3.5 -225t-3 -235t-3.5 -234t-3 -223h-190l-13 917h-299v221h295q0 39 -1 71t-1 75h-293v220h288q-1 49 -1.5 101.5t-1 105.5t-1 105.5t-1.5 100.5h248l-5 -413h288v-220h-293q0 -40 -1 -72t-1 -74h295v-221z" />
    <glyph glyph-name="bullet" unicode="&#x2022;" horiz-adv-x="567" 
d="M141 650q-57 57 -57 141q0 86 57 142v-1q57 60 141 60q82 0 141 -59q60 -57 60 -142q0 -83 -60 -141h1q-59 -57 -142 -57t-141 57z" />
    <glyph glyph-name="ellipsis" unicode="&#x2026;" horiz-adv-x="1155" 
d="M829 22q-42 42 -42 105q0 62 43 104h-1q42 42 105 42q62 0 104 -42h-1q43 -42 43 -104t-43 -105q-44 -41 -103 -41q-62 0 -104 41h-1zM117 22q-42 42 -42 105q0 62 43 104h-1q42 42 104 42q63 0 105 -42h-1q43 -42 43 -104t-43 -105q-44 -41 -104 -41q-61 0 -103 41h-1z
M473 23q-42 43 -42 104q0 62 42 104t104 42q63 0 105 -42h-1q44 -42 44 -104q0 -61 -44 -105q-22 -20 -47 -30.5t-57 -10.5q-61 0 -103 41z" />
    <glyph glyph-name="perthousand" unicode="&#x2030;" horiz-adv-x="1863" 
d="M324 1391q-110 0 -110 -283q0 -282 110 -282t110 282q0 283 -110 283zM979 128q110 0 110 282q0 283 -110 283t-110 -283q0 -282 110 -282zM1539 128q111 0 111 282q0 283 -111 283q-110 0 -110 -283q0 -282 110 -282zM157 0l821 1519h168l-821 -1519h-168zM1342 96
q-70 112 -70 314q0 201 70 314q74 118 197 118q124 0 197 -118q70 -112 70 -314t-70 -314q-72 -118 -197 -118q-124 0 -197 118zM781 96q-69 113 -69 314q0 200 69 314q76 118 198 118q124 0 197 -118q71 -111 71 -314t-71 -314q-72 -118 -197 -118q-123 0 -198 118z
M521 1422q71 -109 71 -314q0 -202 -71 -314q-73 -118 -197 -118t-198 118q-69 114 -69 314q0 201 69 314q73 118 198 118t197 -118z" />
    <glyph glyph-name="guilsinglleft" unicode="&#x2039;" horiz-adv-x="561" 
d="M389 48l-370 509l370 507l156 -102l-252 -405q60 -98 126 -203.5t126 -202.5z" />
    <glyph glyph-name="guilsinglright" unicode="&#x203a;" horiz-adv-x="561" 
d="M542 557l-370 -509l-156 103l252 406q-30 48 -62 99.5t-64 103.5t-64 103t-62 99l156 102z" />
    <glyph glyph-name="Euro" unicode="&#x20ac;" horiz-adv-x="1083" 
d="M-31 702h78v46h-155l77 207h85q15 159 57 280t109.5 203t158.5 124t205 42q48 0 93 -9.5t84.5 -26.5t73 -40t58.5 -49q48 -51 82 -101.5t49 -85.5l19 -55q-95 -44 -152 -190q-8 21 -13.5 36t-9 25.5t-5.5 18t-4 14.5q-4 18 -31 67q-13 25 -26.5 46.5t-28.5 39.5
q-27 32 -83 66q-53 30 -106 30q-256 0 -301 -435h482l-78 -207h-409v-25t1 -21h391l-77 -207h-291q63 -320 282 -320q55 0 106 28q25 14 45 30t34 32q29 35 56 84q26 50 32 68q2 6 6.5 20t9 30t8 29.5t4.5 17.5q72 -140 160 -189q-3 -5 -5 -9l-4 -8l-4 -8q-2 -6 -4 -14
t-5 -16v1q-11 -26 -47 -84q-38 -59 -84 -105q-50 -49 -128 -84q-42 -19 -86 -28.5t-94 -9.5q-205 0 -337 136t-178 399h-177z" />
    <glyph glyph-name="trademark" unicode="&#x2122;" horiz-adv-x="1136" 
d="M189 1014h51q-9 -19 -23 -29q-2 -2 -4.5 -5t-3.5 -5zM294 1065q0 -13 3 -26t11 -25h-68q8 12 12.5 25.5t4.5 25.5v424h-102q-15 0 -27.5 -3t-23.5 -8v38h342v-37q-10 4 -23 7t-28 3h-101v-424zM874 1242q-14 -41 -28 -81t-28 -77h-94l-54 155q-5 -44 -11 -88.5t-12 -88.5
q1 -17 14.5 -42.5t40.5 -54.5h-306q111 74 120 130q13 88 26.5 177t26.5 176q7 51 -42 76l10 40h157l80 -231q21 58 42.5 117.5t41.5 113.5h141v-48l-4 -2l12 3q-8 -5 -19 -21t-8 -49q12 -87 25 -176t26 -177v1q5 -28 33 -60t85 -70h-253v49q1 0 2.5 13t-0.5 36v-1z" />
    <glyph glyph-name="afii10017" unicode="&#x410;" horiz-adv-x="1433" 
d="M540 693q193 -96 438 -107q-15 97 -29 191t-28.5 188t-29 188.5t-29.5 192.5q-97 -5 -143 -49q-53 -51 -77 -159zM1011 374q-147 2 -275.5 28t-243.5 76q-26 -113 -50.5 -226.5t-50.5 -226.5q-8 -38 -13 -100t-6 -143q-2 3 -11.5 13t-21 22.5t-22 24t-14.5 16.5
q-9 9 -26.5 20.5t-43.5 25.5q-51 28 -151 31q77 81 104 201l102 458q-45 32 -83 67.5t-73 75.5q-36 42 -59.5 75.5t-37.5 60.5l-40 82q60 0 87 34q32 38 38 97l42 5q3 -8 9 -23.5t13 -29.5v1q8 -17 24 -42t41 -60v1q41 -57 91 -107q21 87 41.5 174.5t40.5 174.5
q50 210 166 297q118 87 335 87h248q-16 -19 -30.5 -37.5t-16.5 -21.5q-5 -5 -10 -21t-10 -37q-3 -12 -5 -27t-2 -30q0 -16 3 -34l166 -1090q5 -38 14.5 -72.5t20.5 -61.5q24 -55 40 -72v1l60 -61h-443q11 8 22.5 16.5t21 16t16 12.5t7.5 7q2 3 6 14.5t9 28.5q7 20 5 40
q0 15 -3 39v-1z" />
    <glyph glyph-name="afii10019" unicode="&#x412;" horiz-adv-x="1320" 
d="M379 1346v-466q12 0 52 5.5t93 16t111 25.5t106 33q49 19 93 45t77.5 58t53.5 70.5t20 82.5q0 130 -185 130h-421zM988 860q35 -17 69.5 -36t66.5 -45.5t61 -64t52 -91.5q36 -84 36 -183q0 -61 -12 -118.5t-34.5 -106.5t-53.5 -88t-70 -64q-54 -35 -119.5 -58.5
t-135 -44.5t-137.5 -44t-125.5 -56t-100.5 -80t-62 -116q-32 38 -56.5 63.5t-44 41t-33.5 23t-23 9.5q-5 1 -12 3t-14.5 4t-14 4t-9.5 2q25 75 73 127t110.5 89t133.5 62.5t142 47.5t136 45.5t114.5 55.5t79.5 77.5t30 111.5q0 57 -22.5 108t-65.5 89.5t-105.5 60.5
t-141.5 22q-42 0 -85.5 -5t-82.5 -13.5t-71.5 -18t-53.5 -18.5l-28 -12v-396q0 -38 14 -60t28 -27l29 -9l-2 -42q-88 -16 -148.5 -59.5t-94.5 -112.5q-3 -8 -8.5 -21t-8.5 -20l-43 8v1450q0 95 -109 210h758q436 0 436 -348q0 -205 -227 -348z" />
    <glyph glyph-name="afii10020" unicode="&#x413;" horiz-adv-x="1214" 
d="M377 716v-505q0 -45 17 -90v1q10 -22 19 -37.5t17 -24.5v1l11 -11t18.5 -19.5t18.5 -19.5l11 -11h-461q115 106 115 211v1143q0 46 -18 88q-9 22 -18 36.5t-18 25.5l-51 60h838h312q-3 -3 -13 -12.5t-21.5 -21t-22 -22.5t-15.5 -16q-8 -11 -20.5 -30.5t-28.5 -50.5
q-16 -29 -26 -77t-15 -113q-16 26 -30.5 50t-19.5 29t-17 12.5t-34 15.5q-44 18 -102 18h-367q-42 0 -60.5 -17t-18.5 -64v-549z" />
    <glyph glyph-name="afii10022" unicode="&#x415;" horiz-adv-x="1267" 
d="M144 1354q0 46 -18 88q-9 22 -18.5 36.5t-17.5 25.5l-51 60h1149l-12.5 -12.5l-21 -21t-22 -22.5t-15.5 -16q-9 -11 -21 -30.5t-28 -50.5q-17 -29 -26.5 -77t-14.5 -113q-16 26 -30.5 50t-19.5 29t-17 12.5t-34 15.5q-44 18 -102 18h-367q-42 0 -60.5 -17t-18.5 -64v-330
h338q158 0 253 87q-15 -122 -15 -195q1 -17 2 -44t2.5 -55.5t3 -55t2.5 -43.5q-84 87 -270 87h-316v-416q0 -45 18 -63.5t61 -18.5h407q56 0 96.5 14.5t54.5 28.5q1 2 8.5 13.5t16.5 24t16.5 23.5t9.5 13q11 -103 46.5 -174t89.5 -106q5 -2 13.5 -7t13.5 -7l-10 -41h-1190
q115 107 115 211v1143z" />
    <glyph glyph-name="afii10018" unicode="&#x411;" horiz-adv-x="1320" 
d="M379 880q75 40 170 57t194.5 9t194.5 -41.5t169.5 -95t120 -151.5t45.5 -210q0 -61 -12 -121.5t-34.5 -113t-53.5 -94.5t-70 -67q-54 -35 -119.5 -58.5t-135 -44.5t-137.5 -44t-125.5 -56t-100.5 -80t-62 -116q-32 38 -56.5 63.5t-44 41t-33.5 23t-23 9.5q-5 1 -12 3
t-14.5 4t-14 4t-9.5 2q15 59 41.5 103.5t62 77t79.5 53.5t93 34q135 36 237 71t170 78t102 100t34 138q0 72 -34.5 126.5t-90 91t-126 54.5t-143.5 16.5t-142 -22.5t-120 -63v-414q0 -38 14 -60t28 -27l29 -9l-2 -42q-88 -16 -148.5 -59t-94.5 -112q-3 -8 -8.5 -21t-8.5 -20
l-43 7v1450q0 23 -3.5 45t-12.5 43q-9 22 -18 36.5t-18 25.5l-51 60h1171q-3 -3 -13 -12.5t-21.5 -21t-22 -22.5t-15.5 -16q-8 -11 -20.5 -30.5t-28.5 -50.5q-16 -29 -26 -77t-15 -113q-16 26 -30.5 50t-19.5 29t-17 12.5t-34 15.5q-44 18 -102 18h-388q-42 0 -61.5 -17
t-19.5 -64v-385z" />
    <glyph glyph-name="afii10021" unicode="&#x414;" horiz-adv-x="1616" 
d="M1061 1352l-473 -1q10 -40 14 -112t1 -165t-13 -201t-28 -220t-44.5 -223t-60.5 -209l604 -1v1132zM1296 589q2 -100 4 -178.5t10.5 -139t26.5 -104.5t50.5 -76t83.5 -53t126 -35q-21 -13 -44 -40t-46 -61t-44.5 -73t-39.5 -77t-31.5 -72t-19.5 -58q-19 91 -44 154
t-58.5 105t-79 66t-106 36t-138 15.5t-175.5 4.5q-87 1 -162 0t-138 -11t-114 -33t-89.5 -65.5t-65 -108t-39.5 -161.5q-6 24 -20 58t-32.5 72t-40.5 77t-45.5 73t-47 60.5t-44.5 40.5q42 -5 85 7t82.5 41.5t72.5 75.5t56 109q34 95 63 215t49.5 248t31 255.5t7 238t-22 196
t-55.5 128.5l1 -2l-48 47l701 -2h454q-115 -106 -115 -210z" />
    <glyph glyph-name="afii10069" unicode="&#x434;" horiz-adv-x="1271" 
d="M418 2q-67 0 -115 -31t-81 -76t-53.5 -95t-33.5 -88q-12 50 -25 102t-31.5 97t-44.5 80t-62 52q56 14 99.5 51t75.5 89t54 115.5t36.5 130.5t23 134.5t12 127t4.5 107t1 76.5q-1 20 -7 45t-19 50.5t-34.5 48.5t-53.5 39h1001q-115 -106 -115 -210v-565q21 -102 75 -157
t133 -80q-36 -17 -62 -52t-44.5 -80t-31.5 -97t-25 -102q-9 25 -20 56.5t-27 63.5t-36.5 62t-48.5 53.5t-63 38t-80 14.5h-402zM394 223l422 -1v625h-330q0 -90 -4.5 -176.5t-15 -166t-28.5 -150.5t-44 -131z" />
    <glyph glyph-name="afii10024" unicode="&#x416;" horiz-adv-x="2010" 
d="M1672 2q-15 66 -32 136.5t-41 141.5t-56.5 139.5t-78.5 130.5t-107.5 114.5t-142.5 91.5q-11 -12 -24.5 -28.5t-27.5 -33.5t-28 -33.5t-25 -29.5v-418q0 -45 17 -90v1q20 -44 36 -62v1l11 -11t18.5 -19.5t18.5 -19.5l11 -11h-454q2 2 11.5 11t21 19.5t21 19.5t11.5 11v-1
q16 18 36 62v-1q17 45 17 90v418q-11 13 -23.5 29.5t-25.5 33.5t-25 33t-23 28q-79 -16 -136.5 -53.5t-99.5 -91t-71.5 -120t-53 -139.5t-44 -150t-44.5 -152t-54.5 -144.5t-74.5 -128.5q-31 47 -59.5 73t-58 39.5t-61.5 19t-69 10.5q56 60 93.5 125.5t65 134t49.5 138.5
t47 138.5t57.5 133.5t81 124t118 110t168.5 91q-94 105 -184 202t-182 201q-65 70 -116 122q-26 26 -44.5 43t-28.5 25l1 -1q-8 6 -13.5 10t-9.5 5l6 46h421q-3 -8 -8 -19.5t-10.5 -24.5t-10.5 -25t-9 -21q1 -24 23 -47q103 -118 204 -235.5t204 -235.5v398q0 105 -115 210
h454q-115 -105 -115 -210v-398q103 118 204 235.5t204 235.5q22 23 23 47q-4 9 -9 21t-10.5 25t-10.5 24.5t-8 19.5h421l6 -46q-4 -1 -9.5 -5t-13.5 -10l1 1q-10 -8 -28.5 -25t-44.5 -43q-52 -52 -116 -122q-46 -52 -90 -100t-87.5 -95.5t-87.5 -96t-91 -100.5
q114 -66 189.5 -129t125.5 -126t80 -127t53 -130.5t44 -136.5t53 -146l-3 -5q17 -32 34 -50q15 -16 25 -21t18 -8l-9 -43h-300z" />
    <glyph glyph-name="afii10025" unicode="&#x417;" horiz-adv-x="1357" 
d="M591 854q-1 36 -6 68t-10 56q-6 28 -14 52q38 -6 82 -1t87.5 18.5t83.5 35.5t70.5 49.5t47.5 61t15 71.5q-1 60 -36.5 90.5t-111.5 30.5q-46 0 -160 -35q-118 -37 -206 -37q-148 -1 -266 87l23 21q72 53 74 231q2 -2 11 -10.5t19 -18t19 -18.5l11 -11l-1 1q18 -16 53 -32
t72 -16q35 0 76 7t89 20q51 14 97 21.5t89 7.5q172 0 283 -93q110 -93 110 -246q0 -61 -18.5 -108.5t-52 -84.5t-79.5 -64.5t-101 -48.5q82 -30 152 -76t120 -108.5t78.5 -140t28.5 -168.5q0 -232 -188 -378q-184 -143 -478 -143q-266 0 -440 123q-176 125 -176 336
q0 171 108 270q74 68 170 89q49 10 95.5 4.5t88.5 -24t79.5 -47.5t68.5 -65l47 -57h-6.5t-15 -0.5t-16.5 -0.5h-12q-5 -1 -11.5 -2.5t-15 -5.5t-19.5 -12t-26 -22q-16 -14 -29.5 -43t-25.5 -71q-3 16 -14 35t-27 36t-36.5 30t-43 18t-45.5 0t-45 -25q-20 -18 -27.5 -46.5
t-7.5 -60.5q0 -57 25.5 -101.5t73.5 -76.5q51 -30 123.5 -47.5t159.5 -17.5q202 0 319 84q114 84 114 221q0 52 -15.5 104.5t-48.5 99.5t-84 85t-122 62q-21 7 -48.5 13.5t-57.5 11t-61 8t-59 4.5z" />
    <glyph glyph-name="afii10026" unicode="&#x418;" horiz-adv-x="1355" 
d="M972 1360q0 23 -5 42t-15 40q-8 22 -17.5 36.5t-17.5 25.5l-52 60h455q-115 -105 -115 -210v-1143q0 -49 17 -90v1q20 -44 36 -62v1l11 -11t18.5 -19.5t18.5 -19.5l11 -11h-461q115 107 115 211l1 796l-598 -796q0 -101 -24 -185q-11 -41 -21.5 -69t-20.5 -43l-46 -60
q-11 20 -20.5 34t-14.5 22q-10 13 -52 46q-20 15 -53 28.5t-78 26.5q96 112 96 219v1063q0 47 -19 88q-8 21 -17 35.5t-18 24.5l-50 59q60 3 110.5 11.5t92.5 23.5q42 16 72.5 28t45.5 20q16 8 31.5 18t26.5 18l30 -38q-6 -6 -20.5 -33t-33.5 -84q-9 -29 -13 -56.5t-4 -55.5
v-786l599 776z" />
    <glyph glyph-name="afii10027" unicode="&#x419;" horiz-adv-x="1355" 
d="M972 1360q0 23 -5 42t-15 40q-8 22 -17.5 36.5t-17.5 25.5l-52 60h455q-115 -105 -115 -210v-1143q0 -49 17 -90v1q20 -44 36 -62v1l11 -11t18.5 -19.5t18.5 -19.5l11 -11h-461q115 107 115 211l1 796l-598 -796q0 -101 -24 -185q-11 -41 -21.5 -69t-20.5 -43l-46 -60
q-11 20 -20.5 34t-14.5 22q-10 13 -52 46q-20 15 -53 28.5t-78 26.5q96 112 96 219v1063q0 47 -19 88q-8 21 -17 35.5t-18 24.5l-50 59q60 3 110.5 11.5t92.5 23.5q42 16 72.5 28t45.5 20q16 8 31.5 18t26.5 18l30 -38q-6 -6 -20.5 -33t-33.5 -84q-9 -29 -13 -56.5t-4 -55.5
v-786l599 776zM894 2039q1 -2 2.5 -8t2.5 -9q19 -45 52.5 -61t87.5 -16q-13 -62 -47.5 -109.5t-83 -79.5t-106.5 -48.5t-119 -17.5t-120.5 14t-111 45.5t-90 77.5t-57.5 111q54 0 87 16t52 61q1 3 2.5 9t2.5 8l46 -5q0 -2 0.5 -4t0.5 -4q2 -7 6.5 -19t15.5 -34
q25 -50 67 -73t88 -21t87.5 28t65.5 73q11 22 15.5 34t6.5 19q0 2 0.5 4t0.5 4z" />
    <glyph glyph-name="afii10028" unicode="&#x41a;" horiz-adv-x="1235" 
d="M153 631v725q0 105 -115 210h454q-115 -105 -115 -210v-398q103 118 204 235.5t204 235.5q22 23 23 47q-4 9 -9 21t-10.5 25t-10.5 24.5t-8 19.5h421l6 -46q-4 -1 -9.5 -5t-13.5 -10l1 1q-10 -8 -28.5 -25t-44.5 -43q-52 -52 -116 -122q-92 -104 -182 -201t-184 -202
q99 -40 168.5 -91t118 -110t81 -124t57.5 -133.5t47 -138.5t49.5 -138.5t65 -134t93.5 -125.5q-38 -5 -69.5 -10.5t-61 -19t-58 -39.5t-59.5 -73q-44 59 -74.5 128.5t-54.5 144.5t-44.5 152t-44 150t-53 139.5t-71.5 120t-99.5 91t-136.5 53.5q-11 -12 -23 -28t-25 -33
t-25.5 -33.5t-23.5 -29.5v-418q0 -45 17 -90v1q20 -44 36 -62v1q2 -2 11.5 -11t21 -19.5t21 -19.5t11.5 -11h-454l11 11t18.5 19.5t18.5 19.5l11 11v-1q16 18 36 62v-1q17 45 17 90v418z" />
    <glyph glyph-name="afii10029" unicode="&#x41b;" horiz-adv-x="1239" 
d="M876 1356q-90 -2 -155 -45.5t-112.5 -118t-81 -175.5t-61 -219t-52.5 -248.5t-55.5 -263.5t-70.5 -263.5t-97 -249.5q-4 21 -20.5 53t-45 64t-68.5 57t-91 33q55 60 94 141t67 176.5t49.5 200.5t42 212t44 212t56 200t77.5 176.5t109 141t150 93t201 33.5h369
q-115 -106 -115 -210v-1143q0 -45 17 -90v1q20 -44 36 -62v1l11 -11t18.5 -19.5t18.5 -19.5l11 -11h-461q115 107 115 211v1143z" />
    <glyph glyph-name="afii10030" unicode="&#x41c;" horiz-adv-x="1584" 
d="M881 338h-210l-218 640q-45 -300 -89.5 -601.5t-89.5 -601.5l-40 -4q-3 8 -8.5 18t-25.5 35q-8 11 -19.5 22.5t-22.5 21.5q-23 20 -76.5 44t-131.5 44q22 11 36 18.5t22 13t11.5 8.5t5.5 5q12 17 38 75q14 31 24.5 69.5t17.5 78.5q38 263 79 536.5t80 536.5q2 14 3 27
t1 24q0 98 -62 171l1 -2l-48 47h341l276 -825q69 205 139 413.5t139 411.5h339q-10 -10 -20.5 -21t-19.5 -20.5t-15.5 -16.5t-8.5 -10q-6 -8 -14 -27.5t-16 -49.5q-6 -20 -9.5 -40.5t-3.5 -40.5t3 -42v1l151 -1012q6 -41 16.5 -79t22.5 -67q14 -29 24.5 -49t20.5 -29l-2 1
q3 -2 13 -11.5t22 -20t22 -19.5t12 -11h-436q13 17 20.5 27t12 15.5t6 8.5l2.5 5q4 8 9 24.5t10 37.5q5 20 5 44q0 26 -7 57l-114 759z" />
    <glyph glyph-name="afii10031" unicode="&#x41d;" horiz-adv-x="1355" 
d="M1211 211q0 -49 17 -90v1q20 -44 36 -62v1l11 -11t18.5 -19.5t18.5 -19.5l11 -11h-461q115 107 115 211v406q-77 17 -151 33.5t-147 32t-147 32t-152 33.5v-537q0 -101 -24 -185q-11 -41 -21.5 -69t-20.5 -43l-46 -60q-11 20 -20.5 34t-14.5 22q-10 13 -52 46
q-20 15 -53 28.5t-78 26.5q96 112 96 219v1063q0 47 -19 88q-8 21 -17 35.5t-18 24.5l-50 59q60 3 110.5 11.5t92.5 23.5q42 16 72.5 28t45.5 20q16 8 31.5 18t26.5 18l30 -38q-6 -6 -20.5 -33t-33.5 -84q-9 -29 -13 -56.5t-4 -55.5v-376q77 -17 150.5 -33.5t146.5 -33
t147.5 -33t152.5 -33.5v511q0 47 -19 88q-8 22 -17.5 36.5t-17.5 25.5l-52 60h455q-115 -105 -115 -210v-1143z" />
    <glyph glyph-name="afii10032" unicode="&#x41e;" horiz-adv-x="1421" 
d="M999 333q54 81 81.5 192t27.5 257q0 289 -109 449q-107 155 -289 155q-181 0 -288 -155q-109 -160 -109 -449q0 -146 27.5 -257t81.5 -192q106 -154 288 -154q183 0 289 154zM79 782q0 378 177 599h-1q178 223 455 223q278 0 456 -223h-1q177 -221 177 -599
q0 -380 -173 -599q-175 -223 -459 -223q-283 0 -458 223q-173 220 -173 599z" />
    <glyph glyph-name="afii10033" unicode="&#x41f;" horiz-adv-x="1355" 
d="M382 1353l-2 -1142q0 -101 -24 -185q-11 -41 -21.5 -69t-20.5 -43l-46 -60q-11 20 -20.5 34t-14.5 22q-10 13 -52 46q-20 15 -53 28.5t-78 26.5q96 112 96 219l2 1128q0 47 -19 88q-8 22 -17.5 36.5t-17.5 25.5l-52 60l1284 -1q-58 -53 -86.5 -107t-28.5 -106v-1143
q0 -49 17 -90v1q20 -44 36 -62v1l11 -11t18.5 -19.5t18.5 -19.5l11 -11h-461q115 107 115 211v406v737z" />
    <glyph glyph-name="afii10034" unicode="&#x420;" horiz-adv-x="1294" 
d="M378 1356v-257q0 -190 95 -316q92 -125 257 -125q133 0 202 82q70 83 70 215q0 166 -113 284q-111 117 -347 117h-164zM39 1564h503q312 0 503 -168q192 -169 192 -441q0 -208 -133 -358q-136 -148 -356 -148q-228 0 -370 153v-391q0 -45 17 -90v1q20 -44 36 -62v1
l11 -11t18.5 -19.5t18.5 -19.5l11 -11h-461q115 107 115 211v1143q0 46 -18 88q-9 22 -18 36.5t-18 25.5z" />
    <glyph glyph-name="afii10035" unicode="&#x421;" horiz-adv-x="1396" 
d="M1328 1148q0 -168 -109 -280q-108 -112 -279 -112q-193 0 -305 118l-38 49q21 0 45 1.5t41 6.5q8 2 17.5 6.5t14.5 8.5q14 10 24.5 36t12.5 61l42 6q4 -10 14.5 -22.5t46.5 -32.5q38 -20 83 -20q68 0 112 44q44 47 44 124q0 112 -85 177q-90 67 -226 67q-202 0 -335 -169
q-69 -86 -102 -198.5t-33 -252.5q0 -141 32 -249.5t95 -186.5q63 -72 144.5 -111.5t177.5 -39.5q229 0 325 194l-1 -1q10 23 17.5 45.5t12.5 48.5l41 1q12 -38 26 -67.5t31 -49.5q14 -16 28 -28t22 -16q4 -1 11.5 -3t16 -4t16 -4t10.5 -3q-10 -19 -19 -36.5t-14 -25.5v1
q-8 -12 -22 -30.5t-35 -42.5q-42 -48 -103 -91q-29 -20 -66.5 -39t-83.5 -35q-92 -33 -203 -33q-311 0 -504 226q-189 223 -189 580q0 99 15.5 190t45.5 172t70.5 148.5t90.5 116.5q101 103 223 157t255 54q259 0 402 -133v1q147 -134 147 -324z" />
    <glyph glyph-name="afii10036" unicode="&#x422;" horiz-adv-x="1198" 
d="M705 1346v-1135q0 -49 17 -90q16 -40 33 -60q4 -4 14 -13t21 -19t20.5 -18.5t12.5 -10.5h-468q115 106 115 211v1135h-206q-29 0 -58 -5t-58 -14q-60 -19 -86 -37l-89 -52l153 425q90 -99 197 -99h611q29 0 58 5t57 14h-1q29 9 51.5 18.5t37.5 18.5v-1q4 2 16.5 10
t27.5 17t27.5 17t16.5 10l-155 -425q-90 98 -196 98h-169z" />
    <glyph glyph-name="afii10037" unicode="&#x423;" horiz-adv-x="1373" 
d="M232 1313q-21 34 -36.5 67t-36.5 64.5t-53.5 61.5t-89.5 57l483 2q-46 -19 -56 -55.5t-2 -83.5l319 -745q33 86 70.5 184t74 193t68.5 178t54 139q22 54 31.5 113.5t2.5 122.5l41 17q8 -14 11.5 -20t5.5 -8l3 -3l4 -4v1l7 -8h-1q9 -8 30.5 -24.5t56.5 -38.5
q68 -43 161 -64l-2 -43q-92 -23 -128 -106q-38 -94 -81.5 -200t-88 -215t-87.5 -215t-81 -199q-88 -215 -185 -336q-43 -54 -94 -90.5t-106 -54.5t-111 -16t-109 26t-100 71t-84 119q30 -12 59.5 -2t56.5 34t50.5 58.5t43.5 70.5q-2 -25 14.5 -49t45 -38t66 -15t77.5 19
q23 17 50.5 51t47.5 69z" />
    <glyph glyph-name="afii10038" unicode="&#x424;" horiz-adv-x="1864" 
d="M72 425q-59 131 -37.5 266t118.5 257.5t265 224.5t401 168v14q0 104 -115 210h454q-115 -106 -115 -210v-14q233 -66 401 -168t265 -224.5t118.5 -257.5t-37.5 -266q-23 -50 -65 -90.5t-98.5 -67.5t-125 -38t-144 -2t-155.5 40t-159 88v-212q-2 -53 -4 -97t-11 -84
t-30 -79t-60 -81q-21 27 -42.5 48.5t-47 38.5t-57 30.5t-71.5 23.5q48 57 71 111t23 108v189q-79 -56 -158.5 -86.5t-154.5 -38.5t-143 3.5t-124 38.5t-98 67.5t-64 89.5zM814 1113q-56 -10 -121 -37t-129.5 -67t-122 -91.5t-97.5 -110.5t-56 -123.5t2 -130.5
q11 -41 43.5 -66.5t77.5 -36.5t99 -7.5t108.5 20.5t105.5 47t90 72v531zM1564 553q18 66 2 130.5t-55.5 123.5t-96.5 110t-121 91t-129.5 67t-120.5 37v-524q38 -43 88.5 -74t104.5 -49t107.5 -22t99 6.5t78 36t43.5 67.5z" />
    <glyph glyph-name="afii10039" unicode="&#x425;" horiz-adv-x="1519" 
d="M1220 1338h1q-87 -134 -169.5 -262t-169.5 -262q95 -148 189.5 -295t188.5 -294q15 -24 35.5 -50.5t41.5 -49.5q43 -48 59 -62q12 -8 37.5 -24t63.5 -39h-482q23 23 33.5 40.5t10.5 31.5q0 34 -62 129l-254 397q-65 -101 -127.5 -198.5t-127.5 -198.5q-30 -47 -46 -79
t-16 -50q0 -14 12 -32t34 -40h-468q7 5 23 16.5t37 28t44 36.5t44 43q20 23 39 48t39 54q97 150 188.5 293.5t188.5 293.5q-85 133 -168.5 263t-168.5 263v-1q-37 56 -92 112t-131 114h468q-26 -26 -35 -42t-10 -30q0 -36 62 -130l213 -335q55 85 109 168t109 168
q61 95 60 129q0 14 -10.5 31.5t-33.5 40.5l471 -1q-44 -32 -73.5 -53.5t-51 -40t-37.5 -37t-33 -43.5z" />
    <glyph glyph-name="afii10040" unicode="&#x426;" horiz-adv-x="1429" 
d="M41 2q58 54 86.5 107.5t28.5 105.5v1143q0 48 -17 90v-1q-20 44 -36 62v-1l-11 11t-18.5 19.5t-18.5 19.5l-11 11h461q-115 -106 -115 -211v-1143l595 1l2 1142q0 48 6.5 95t16.5 87t21.5 70t21.5 45l46 60q12 -21 18.5 -33t14 -21t19.5 -19.5t35 -28.5q20 -16 53 -29
t78 -26q-96 -113 -96 -219v-1037q0 -15 4.5 -40.5t14 -54.5t23.5 -59.5t33.5 -56t43.5 -43.5t53 -22q-58 -49 -84 -96.5t-27 -90.5t19.5 -81.5t54 -69t77 -52.5t89.5 -33q-35 -15 -61 -24l-52 -18t-57 -21.5t-74 -35.5q-82 12 -136.5 47t-84 82.5t-34 102t14.5 105.5
t60 93.5t102 65.5z" />
    <glyph glyph-name="afii10041" unicode="&#x427;" horiz-adv-x="1247" 
d="M875 1352q0 46 -18 88q-9 22 -18 36.5t-18 25.5l-51 60h454q-115 -106 -115 -210v-1143q0 -45 17 -90v1q20 -44 36 -62v1l11 -11t18.5 -19.5t18.5 -19.5l11 -11h-461q115 107 115 211v482q-71 -39 -152.5 -56t-164 -12t-162 32t-145.5 76q-64 47 -113.5 117t-76.5 158
t-28 191.5t33 217.5q0 130 -78 240l28 31q13 -7 30.5 -17t31.5 -17q25 -14 56 -28t73 -29q41 -15 91 -22t105 -7l-53 -62q-19 -20 -35 -59q-30 -75 -34.5 -155t9.5 -152t43 -130.5t68 -90.5q49 -41 112 -60t128.5 -15t127 32t106.5 83v395z" />
    <glyph glyph-name="afii10043" unicode="&#x429;" horiz-adv-x="2197" 
d="M36 2q58 53 86.5 107t28.5 106v1143q0 49 -17 90v-1q-20 44 -36 62v-1l-11 11t-18.5 19.5t-18.5 19.5l-11 11h461q-115 -107 -115 -211v-1143h575v1143q0 49 -17 90v-1q-20 44 -36 62v-1l-11 11t-18.5 19.5t-18.5 19.5l-11 11h461q-115 -107 -115 -211v-1143l583 1
l2 1142q0 97 29 189.5t83 167.5q29 -62 83 -113.5t135 -71.5q-96 -113 -96 -219v-1025q0 -15 4.5 -40.5t14 -54.5t23.5 -59.5t33.5 -56t43.5 -43.5t53 -22q-69 -67 -84 -124t4.5 -102t65.5 -76t99 -46q-27 -14 -47.5 -21.5t-41 -16t-44.5 -20t-58 -32.5q-64 11 -106.5 41.5
t-65.5 71.5t-26.5 87.5t11 90.5t46.5 81t80 58h-1982z" />
    <glyph glyph-name="afii10042" unicode="&#x428;" horiz-adv-x="2164" 
d="M36 2q58 53 86.5 107t28.5 106v1143q0 49 -17 90v-1q-20 44 -36 62v-1l-11 11t-18.5 19.5t-18.5 19.5l-11 11h461q-115 -107 -115 -211v-1143h575v1143q0 49 -17 90v-1q-20 44 -36 62v-1l-11 11t-18.5 19.5t-18.5 19.5l-11 11h461q-115 -107 -115 -211v-1143l583 1
l2 1142q0 97 29 189.5t83 167.5q29 -62 83 -113.5t135 -71.5q-96 -113 -96 -219v-1090q0 -52 28.5 -110t86.5 -111z" />
    <glyph glyph-name="afii10046" unicode="&#x42c;" horiz-adv-x="1263" 
d="M414 877q23 22 34.5 49t16 58t3.5 65.5t-2 71.5q39 -46 92.5 -81.5t115 -66.5t127 -60.5t127.5 -62.5t117 -72t96.5 -90.5t65 -117t22.5 -151.5q-2 -93 -30 -177t-82 -140q-101 -102 -329 -102h-749l51 60q9 11 18 25.5t18 36.5q10 21 14 43t4 45v1143q0 105 -115 211
h461q-2 -2 -10.5 -11t-18.5 -19.5t-19 -19.5l-11 -11v1q-8 -9 -17 -24.5t-18 -37.5v1q-18 -44 -18 -90v-528v-619h412q55 0 95.5 20t66 53t37.5 75.5t10 87.5q-2 51 -33 93t-80 78.5t-111 68.5t-126.5 63.5t-126 63.5t-108.5 68z" />
    <glyph glyph-name="afii10045" unicode="&#x42b;" horiz-adv-x="1750" 
d="M1604 209q0 -45 17 -90v1q20 -44 36 -62v1l11 -11t18.5 -19.5t18.5 -19.5l11 -11h-461q115 107 115 211v1143q0 46 -18 88q-9 22 -18 36.5t-18 25.5l-51 60h454q-115 -106 -115 -210v-1143zM414 877q23 22 34.5 49t16 58t3.5 65.5t-2 71.5q39 -46 92.5 -81.5t115 -66.5
t127 -60.5t127.5 -62.5t117 -72t96.5 -90.5t65 -117t22.5 -151.5q-2 -93 -30 -177t-82 -140q-101 -102 -329 -102h-749l51 60q9 11 18 25.5t18 36.5q10 21 14 43t4 45v1143q0 105 -115 211h461q-2 -2 -10.5 -11t-18.5 -19.5t-19 -19.5l-11 -11v1q-8 -9 -17 -24.5t-18 -37.5
v1q-18 -44 -18 -90v-528v-619h412q55 0 95.5 20t66 53t37.5 75.5t10 87.5q-2 51 -33 93t-80 78.5t-111 68.5t-126.5 63.5t-126 63.5t-108.5 68z" />
    <glyph glyph-name="afii10044" unicode="&#x42a;" horiz-adv-x="1661" 
d="M398 1353q-30 0 -55 -8t-47 -17q-22 -8 -34 -15.5t-17 -12.5t-19.5 -29t-30.5 -50q-5 65 -15 113t-26 77q-16 31 -28.5 50.5t-20.5 30.5q-5 5 -15.5 16t-22 22.5t-21.5 21t-13 12.5h362h496q-2 -2 -10.5 -11t-18.5 -19.5t-19 -19.5l-11 -11v1q-8 -9 -17 -24.5t-18 -37.5
v1q-18 -44 -18 -90v-528v-619h412q55 0 95.5 20t66 53t37.5 75.5t10 87.5q-2 51 -33 92t-80 75.5t-111 65t-126.5 60t-126 60.5t-108.5 67q23 22 34.5 51.5t16 63t3.5 70.5l-2 74q39 -46 92.5 -81.5t115 -66.5t127 -60.5t127.5 -62.5t117 -72t96.5 -90.5t65 -117
t22.5 -151.5q-2 -93 -30 -177t-82 -140q-101 -102 -329 -102h-749l51 60q9 11 18 25.5t18 36.5q10 21 14 43t4 45v1143h-147z" />
    <glyph glyph-name="afii10047" unicode="&#x42d;" horiz-adv-x="1324" 
d="M1036 935q-15 83 -45 153.5t-76 128.5q-133 169 -335 169q-136 0 -226 -67q-85 -65 -85 -177q3 -26 13.5 -48.5t28.5 -37.5t44 -21.5t61 -0.5q-24 -34 -30.5 -65t-1 -60.5t21 -56t35.5 -51.5q-64 3 -114 14.5t-91.5 31.5t-75 49t-64.5 67q-43 72 -49 148t12 145t52 126
t71 90v-1q143 133 402 133q133 0 255 -54t223 -157q50 -49 90.5 -116.5t70.5 -148.5t45.5 -172t15.5 -190q0 -357 -189 -580q-193 -226 -504 -226q-112 0 -203 33q-46 16 -83.5 35t-66.5 39q-61 43 -103 91q-21 24 -35 42.5t-22 30.5v-1q-5 8 -14 25.5t-19 36.5q3 1 10.5 3
t16 4t16 4t11.5 3q8 4 22 16t28 28q17 20 31 49.5t26 67.5l41 -1q5 -26 12.5 -48.5t17.5 -45.5l-1 1q96 -194 325 -194q96 0 177.5 39.5t144.5 111.5q57 70 89 166.5t37 219.5h-283q-187 0 -271 -87q20 60 33 102.5t21.5 84t14 89.5t11.5 117q93 -87 253 -87h208z" />
    <glyph glyph-name="afii10048" unicode="&#x42e;" horiz-adv-x="1949" 
d="M156 212v1143q0 47 -19 88q-8 22 -17.5 36.5t-17.5 25.5l-52 60h455q-115 -105 -115 -210v-419h253q27 285 171 465h-1q178 223 455 223q278 0 456 -223h-1q177 -221 177 -599q0 -380 -173 -599q-175 -223 -459 -223q-283 0 -458 223q-153 194 -171 514h-249v-505
q0 -49 17 -90v1q20 -44 36 -62v1l11 -11t18.5 -19.5t18.5 -19.5l11 -11h-461q115 107 115 211zM1557 353q54 81 81.5 192t27.5 257q0 289 -109 449q-107 155 -289 155q-181 0 -288 -155q-109 -160 -109 -449q0 -146 27.5 -257t81.5 -192q106 -154 288 -154q183 0 289 154z
" />
    <glyph glyph-name="afii10049" unicode="&#x42f;" horiz-adv-x="1316" 
d="M917 1360q-84 4 -166.5 -5.5t-155.5 -32.5t-134 -59t-101.5 -85.5t-58 -111.5t-4.5 -136q8 -43 41 -75.5t82 -52.5t108 -27.5t119.5 -0.5t116 29t97.5 61q4 -134 -25 -262t-78.5 -244t-113.5 -218t-129.5 -184.5t-126.5 -143t-104 -93.5q-9 32 -25.5 57t-44 42.5
t-67.5 27.5t-97 12q84 51 166.5 136t155 186t131 207.5t93.5 200.5q-55 -20 -111.5 -22.5t-110 9t-102 34.5t-88.5 54.5t-69 68.5t-43 77q-33 93 -32 185.5t34.5 177.5t100 158t165 127t229.5 84t294 30l403 6q-115 -106 -115 -210v-1157q0 -45 17 -90v1q20 -44 36 -62v1
l11 -11t18.5 -19.5t18.5 -19.5l11 -11h-461q115 107 115 211v1150z" />
    <glyph glyph-name="afii10065" unicode="&#x430;" horiz-adv-x="1117" 
d="M539 179q64 0 115 22q26 11 44 22t27 19h-1q11 11 16.5 15t10.5 14v572h-31q-193 0 -325 -102q-128 -99 -128 -281q0 -130 73 -206q72 -75 199 -75zM751 0v23q-51 -29 -108.5 -44t-120.5 -15q-206 0 -345 135q-140 135 -140 361q0 130 50 240t141 192q94 78 221.5 121.5
t282.5 43.5h320q-70 -94 -70 -198v-597q2 -150 99 -262h-330z" />
    <glyph glyph-name="afii10066" unicode="&#x431;" horiz-adv-x="1200" 
d="M953 1652q11 -18 21 -44t25 -54t38 -56t60 -50q-44 -33 -97 -53.5t-107.5 -31t-106.5 -14.5t-94 -4q-63 -1 -112 -4.5t-87 -16t-67.5 -36.5t-51.5 -64t-39.5 -99t-31.5 -142q32 35 66.5 56.5t71.5 33.5t77 16t82 4q246 0 404 -161q160 -158 160 -403q0 -244 -160 -404
q-158 -161 -404 -161q-122 0 -224.5 38t-180.5 123q-62 66 -96 156.5t-46.5 196.5t-5.5 224t27 239q16 95 34.5 178t45 153t64.5 125.5t93.5 95.5t131.5 62.5t178 26.5q51 2 100 3.5t92.5 7.5t79.5 19.5t60 39.5zM841 275q93 101 93 254t-93 252q-93 97 -241 97
q-75 0 -137 -22.5t-109 -71.5q-92 -98 -92 -252q0 -78 25 -142.5t71 -114.5q93 -96 242 -96q148 0 241 96z" />
    <glyph glyph-name="afii10067" unicode="&#x432;" horiz-adv-x="1133" 
d="M24 0q26 26 40 41t19 22t12 24.5t16 46.5q9 30 14 62t5 66v590q0 104 -70 198l684 2q68 -6 118 -36t80 -72.5t41 -92.5t1 -96t-40 -83.5t-82 -55.5q80 -24 131.5 -71t76.5 -106t25 -124t-23.5 -124t-69 -106.5t-110.5 -72.5q-34 -13 -77 -19.5t-89 -7t-92.5 5t-89.5 16.5
t-79 27.5t-60 38.5q32 18 46.5 52t18.5 70.5t1.5 68t-4.5 45.5q47 -60 98.5 -89t99 -36t87.5 3t63 28q24 19 37 46t14 57t-10.5 60t-37.5 55t-67.5 43t-98.5 23h-273l-2 -501zM625 685q37 -2 63 12t40.5 36.5t16.5 49t-10.5 49t-40.5 37t-72 12.5l-246 -1v-195h249z" />
    <glyph glyph-name="afii10068" unicode="&#x433;" horiz-adv-x="942" 
d="M353 262q1 -75 20.5 -140t67.5 -122h-410q34 25 51 54t25 62t10 69.5t6 76.5v597q0 53 -26 102t-61 96h386h494q-31 -25 -51 -63t-30.5 -82.5t-13.5 -92t0 -91.5q-15 36 -34 60.5t-44 38.5t-55.5 20t-69.5 6h-187q-42 0 -60.5 -17t-18.5 -64z" />
    <glyph glyph-name="afii10070" unicode="&#x435;" horiz-adv-x="1117" 
d="M340 780q-80 -97 -83 -239q69 25 135.5 48.5t132.5 47t133 47t138 47.5q-32 65 -94 106t-146 41q-133 0 -216 -98zM303 340q42 -77 115 -119t168 -42q98 0 175.5 50.5t131.5 142.5q8 18 17.5 40t17.5 40l43 -8q0 -9 0.5 -22.5t5.5 -36.5q2 -12 6 -23t9 -23q8 -20 31 -43
t60 -39l-29 -51q-6 -10 -20 -27t-35 -40q-20 -22 -44 -43.5t-50 -38.5t-60 -33.5t-76 -30.5q-87 -29 -181 -29q-244 0 -402 155q-159 156 -159 411q0 120 36 219t108 181q148 163 377 163q211 0 348 -134q136 -134 173 -354z" />
    <glyph glyph-name="afii10081" unicode="&#x43f;" horiz-adv-x="1114" 
d="M28 1057h431q-5 -6 -9.5 -11.5t-9.5 -10.5q97 58 218 58q101 0 179 -33t136 -99q115 -130 115 -333q0 -126 -37 -249q-18 -63 -39 -114.5t-42 -92.5q-21 -38 -39.5 -83t-32.5 -96q-23 -80 -23 -150q0 -9 1 -23t2 -24l-42 -11q-12 20 -24 33q-1 2 -3 4.5t-3 4.5l2 -4
q-8 10 -25.5 26t-45.5 39t-64.5 45t-84.5 45l48 58h-1q11 13 25.5 35t34.5 54t39 67t36 72q18 36 32.5 78.5t27.5 90.5q27 100 27 195q0 112 -58 182q-54 68 -160 68q-54 0 -103.5 -21.5t-81.5 -52.5t-55.5 -61t-34.5 -53l-4 -10t-4 -8v-410q1 -148 99 -262h-435
q26 26 40 41t19 22t12 24.5t16 46.5q9 30 14 62t5 66v538q0 33 -5 63t-13 57q-18 55 -33 75z" />
    <glyph glyph-name="afii10082" unicode="&#x440;" horiz-adv-x="1089" 
d="M100 1008q0 104 -70 198h369q-69 -95 -69 -198v-24q2 2 5.5 4.5t5.5 4.5q17 14 33.5 25.5t33.5 21.5l-1 -1q35 21 92 37.5t120 16.5q182 0 306 -121q126 -121 126 -332q0 -383 -375 -584q-74 -38 -153.5 -65.5t-168.5 -42.5q26 74 27 122q0 54 -23 114q3 1 11 2.5t18 3.5
t19 4t15 4q2 1 5.5 1.5t6.5 1.5q14 5 40 15.5t64 27.5q80 38 134 80q54 43 102 126q47 85 47 184q0 112 -64 179q-63 65 -173 65q-146 0 -239 -145v1q-5 -7 -7 -10.5t-7 -11.5v-947q2 -148 99 -262h-436q22 22 36.5 38t19.5 23q14 17 31 75q20 60 20 126v1243z" />
    <glyph glyph-name="afii10083" unicode="&#x441;" horiz-adv-x="1068" 
d="M852 708l-41 10q-1 1 -1 3v6q-3 5 -10 15t-24 31q-11 15 -23.5 28t-24.5 21q-28 21 -74 38.5t-100 17.5q-136 0 -221 -103q-87 -105 -87 -260q0 -148 86 -243h-1q85 -93 235 -93q47 0 88.5 13t67.5 30q26 19 44 38t26 32q1 2 4.5 8t8 12.5t8 12t4.5 7.5q39 -40 91.5 -64
t121.5 -31l-4.5 -9t-8 -15t-8.5 -15.5t-5 -9.5q-6 -6 -8 -10q-14 -22 -50 -58v1q-20 -21 -43 -40t-45 -34q-24 -16 -56 -29.5t-70 -27.5q-38 -12 -80.5 -19t-85.5 -7q-244 0 -399 161q-151 158 -151 404q0 245 154 403q158 161 395 161q87 0 159 -25h-1q39 -13 71 -28.5
t57 -32.5h-1q48 -35 85.5 -71.5t55.5 -61.5l34 -56q-79 -10 -114 -34q-17 -13 -27 -23t-15 -20z" />
    <glyph glyph-name="afii10085" unicode="&#x443;" horiz-adv-x="1157" 
d="M749 1195q74 -51 131.5 -85.5t99.5 -51.5q76 -30 118 -36q10 0 25 -1t23 -1l7 -43q-8 -3 -18 -7.5t-19 -9.5q-8 -4 -22 -18.5t-36 -39.5t-40 -53.5t-30 -60.5q-72 -189 -144.5 -379t-144.5 -378q-82 -215 -176 -336q-96 -124 -310 -180q2 15 3.5 24t2 14.5t0.5 8v4.5
q0 79 -99 174q139 17 226 83q84 65 116 188q-81 197 -160.5 392.5t-160.5 393.5q-15 36 -33.5 76t-40.5 79t-47.5 74.5t-53.5 64.5h412l9 -42q-9 -5 -18.5 -13.5t-23.5 -33.5v1q-1 -5 -3 -9t-2 -9t1.5 -10.5t4.5 -10.5l235 -626q53 147 105 294t105 293v-1q8 25 11 47t3 41
q0 3 -1 7q-2 48 -12 72z" />
    <glyph glyph-name="afii10087" unicode="&#x445;" horiz-adv-x="1202" 
d="M455 538q-56 80 -104.5 159t-104.5 158l1 -1q-18 26 -36 48.5t-36 41.5q-36 39 -54 51q-5 3 -20.5 13t-32.5 20.5t-31 19t-16 9.5h486l-43 -42q-2 -4 -4.5 -13.5t-7.5 -30.5q-1 -5 -1 -8q0 -13 16 -32l132 -190l136 191l-1 -1q15 25 15 48q0 17 -7 25l-32 53l463 -1
q-9 -6 -26.5 -17.5t-37.5 -26.5t-41 -32t-37 -34q-18 -19 -37 -43t-36 -49l-222 -310l114 -162t114 -163v1q20 -27 38.5 -52t44.5 -47q50 -44 74 -57q29 -14 46 -21l-8 -43h-478q33 21 57 38.5t30 33.5l-1 -1q3 8 -3 16l-172 254q-45 -63 -84.5 -124.5t-84.5 -124.5l2 2
q-8 -13 -8 -24q0 -9 8 -17l53 -53h-445l-8 43q8 3 18 7t24 12q12 7 31 21t45 36q27 23 50 48t43 52z" />
    <glyph glyph-name="afii10076" unicode="&#x43a;" horiz-adv-x="1078" 
d="M101 859q0 104 -70 198h369q-69 -95 -69 -198v-276q34 37 73 80.5t75 83t64.5 71.5t40.5 47q40 46 40 77q0 9 -4 20.5t-10 22t-13 17.5t-13 9l6 46h433l10 -40l-19 -10q-3 -2 -10 -6t-16 -11q-5 -4 -12 -9t-13 -10t-13 -10t-15 -13h1q-8 -9 -17.5 -17.5t-18.5 -17.5
q-11 -11 -21 -21.5t-17 -19.5l-195 -209q57 -51 102.5 -120.5t82.5 -143.5t68 -147t59 -132v1q17 -32 34 -50q15 -16 25 -21t18 -8l-9 -43h-351q-7 67 -19 132.5t-33.5 127.5t-54 120.5t-80.5 112.5l-178 -192v-38q1 -75 20 -140t67 -122h-412q34 25 51.5 54t26 62t11 69.5
t6.5 76.5v597z" />
    <glyph glyph-name="afii10072" unicode="&#x436;" horiz-adv-x="1726" 
d="M208 874q-14 17 -35.5 36.5t-38.5 39.5h1q-24 22 -47.5 38.5t-31.5 20.5l-19 10l10 40h433l6 -46q-6 -2 -13 -8.5t-13 -15.5t-10 -20t-4 -20q0 -31 40 -77q12 -15 36 -47t54.5 -71.5t65 -83t68.5 -80.5v271q0 103 -69 198h369q-69 -95 -69 -198v-271q34 37 77.5 80.5
t85 83t74 71.5t45.5 47q40 46 40 77q0 9 -4 20t-10 20t-13 15.5t-13 8.5l6 46h433l10 -40l-19 -10q-8 -4 -30.5 -19.5t-48.5 -39.5h1q-18 -20 -39 -39.5t-35 -36.5l-195 -209q57 -51 102.5 -120.5t82.5 -143.5t68 -147t59 -132v1q13 -24 24.5 -38.5t21 -23t17.5 -12t14 -5.5
l-9 -43h-351q-7 67 -21 135t-38 133.5t-58.5 126.5t-82.5 115l-194 -209v-38q0 -75 19.5 -140t67.5 -122h-412h7q48 57 67.5 122t19.5 140v38l-165 213q-12 -18 -35 -45.5t-50.5 -61t-56 -72.5t-51.5 -81.5t-38 -87.5t-14 -90.5t19.5 -90t62.5 -85.5q-24 0 -48.5 -1.5
t-50 -12t-51.5 -33.5t-54 -66q-82 64 -112.5 140t-25 157t41.5 163.5t87.5 158.5t111.5 143t114 117z" />
    <glyph glyph-name="afii10073" unicode="&#x437;" horiz-adv-x="1003" 
d="M286 683q14 -7 35.5 -12.5t45.5 -9.5t48.5 -6.5t45.5 -3.5q45 -2 89 5.5t78.5 24.5t54.5 45t17 67q-2 26 -16.5 40.5t-36.5 21.5t-48.5 7.5t-53.5 -1.5t-51.5 -5t-41.5 -4q-102 -5 -167.5 10.5t-104.5 39.5t-56.5 50t-23.5 41l48 20q8 2 21 10.5t29.5 27t36 49t40.5 77.5
q25 -61 57 -87.5t72 -33t87 -1t102 8.5q74 3 135 -13t105.5 -50t69.5 -84.5t27 -116.5q1 -34 -5 -68t-20.5 -63.5t-38.5 -53t-58 -36.5q33 -20 61.5 -47.5t49.5 -59.5t33 -67.5t13 -72.5q3 -87 -29.5 -151.5t-88 -109t-129.5 -69t-155 -29.5t-163.5 8t-155 43t-130 77
t-88.5 110q56 23 87.5 44.5t49.5 41.5t27.5 39.5t22.5 39.5q21 -64 69 -105.5t107 -62.5t122 -22t113 16.5t80.5 53t24.5 87.5q-5 38 -24.5 68t-51.5 48q-32 19 -76 24.5t-92 3.5q-19 0 -42.5 -1.5l-47 -3t-44.5 -3.5t-36 -3q10 26 10.5 57t-4.5 60t-15 53t-20 37z" />
    <glyph glyph-name="afii10074" unicode="&#x438;" horiz-adv-x="1182" 
d="M816 859q0 104 -70 198h369q-69 -95 -69 -198v-597q1 -148 99 -262h-435q26 26 40 41t19 22t12 24.5t16 46.5q9 30 14 62t5 66v293l-445 -331v-13q0 -37 6.5 -64t19 -50.5t31 -46t42.5 -50.5h-435q26 26 40 41t19 22t12 24.5t16 46.5q9 30 14 62t5 66v597q0 104 -70 198
h369q-69 -95 -69 -198v-347l445 318v29z" />
    <glyph glyph-name="afii10075" unicode="&#x439;" horiz-adv-x="1145" 
d="M798 1555q1 -2 2.5 -8t2.5 -9q19 -45 52.5 -61t87.5 -16q-13 -62 -47.5 -109.5t-83 -79.5t-106.5 -48.5t-119 -17.5t-120.5 14t-111 45.5t-90 77.5t-57.5 111q54 0 87 16t52 61q1 3 2.5 9t2.5 8l46 -5q0 -2 0.5 -4t0.5 -4q2 -7 6.5 -19t15.5 -34q25 -50 67 -73t88 -21
t87.5 28t65.5 73q11 22 15.5 34t6.5 19q0 2 0.5 4t0.5 4zM816 859q0 104 -70 198h369q-69 -95 -69 -198v-597q1 -148 99 -262h-435q26 26 40 41t19 22t12 24.5t16 46.5q9 30 14 62t5 66v316l-445 -354v-13q0 -37 6.5 -64t19 -50.5t31 -46t42.5 -50.5h-435q26 26 40 41t19 22
t12 24.5t16 46.5q9 30 14 62t5 66v597q0 104 -70 198h369q-69 -95 -69 -198v-373l445 344v29z" />
    <glyph glyph-name="afii10077" unicode="&#x43b;" 
d="M159 -301q-5 21 -21.5 48t-44 52t-66.5 43.5t-90 23.5q58 34 91 96t51.5 141.5t28 172.5t22 190.5t33.5 195t62 185.5q-1 20 -6.5 48.5t-17.5 58.5t-32.5 57t-52.5 43l896 2q-69 -95 -69 -198v-597q1 -148 99 -262h-435q26 26 40 41t19 22t12 24.5t16 46.5q9 30 14 62
t5 66v597h-234q-35 -38 -57 -95.5t-36 -128.5t-23 -152t-18 -165.5t-21.5 -170.5t-33 -166t-52 -152t-79.5 -129z" />
    <glyph glyph-name="afii10078" unicode="&#x43c;" horiz-adv-x="1380" 
d="M732 -2h-99l-263 636q-6 -86 -17 -179.5t-24.5 -187t-29.5 -183t-32 -166.5t-31.5 -137.5t-28.5 -96.5q-41 42 -73.5 67t-63.5 40t-64 22.5t-75 14.5q25 30 41.5 54t29.5 46.5t24 45t24 48.5q18 36 33 93t27.5 125.5t22.5 144t18 149t14 140t11 116.5q3 30 1.5 61t-12 64
t-32 68t-58.5 74h373l246 -635l234 635h353q-62 -50 -86 -114t-13 -149v1l47 -525q8 -46 19 -85t28 -72t42 -61t62 -53h-419q24 25 37 48t18.5 46.5t4.5 50.5t-5 60l-43 426z" />
    <glyph glyph-name="afii10080" unicode="&#x43e;" horiz-adv-x="1200" 
d="M841 275q93 101 93 254t-93 252q-93 97 -241 97q-149 0 -242 -97q-92 -98 -92 -252t92 -254q93 -96 242 -96q148 0 241 96zM195 125q-159 162 -159 404q0 244 159 403q160 161 405 161q246 0 404 -161q160 -158 160 -403q0 -244 -160 -404q-158 -161 -404 -161
q-245 0 -405 161z" />
    <glyph glyph-name="afii10079" unicode="&#x43d;" horiz-adv-x="1165" 
d="M811 859q0 104 -70 198h369q-69 -95 -69 -198v-597q1 -75 20.5 -140t67.5 -122h-413q31 25 49.5 54t28.5 62t13.5 69.5t3.5 76.5v194l-445 -2v-243q0 -37 5 -64t15 -50.5t26.5 -46t40.5 -50.5h-411q31 25 49.5 54t28.5 62t13 69.5t3 76.5v597q0 104 -70 198h369
q-69 -95 -69 -198v-194h445v194z" />
    <glyph glyph-name="afii10084" unicode="&#x442;" horiz-adv-x="1019" 
d="M615 813l-2 -550q1 -148 99 -262h-435q26 26 40 41t19 22t12 24.5t16 46.5q9 30 14 62t5 66v548l-179 2q-22 -5 -42 -7t-41.5 -7t-45.5 -15t-52 -30l76 319q22 -18 46 -27t48.5 -12.5t50.5 -3t52 0.5h475h72t55.5 3t50 10t56.5 21l-83 -314q-16 21 -35.5 33t-40 18.5
t-39.5 8.5t-33 2h-159z" />
    <glyph glyph-name="afii10086" unicode="&#x444;" horiz-adv-x="1758" 
d="M768 707q-5 8 -7 10t-7 9v-1q-93 145 -239 145q-55 0 -99 -17.5t-74.5 -49t-47 -77t-16.5 -100.5q0 -50 13.5 -96.5t34.5 -87t47.5 -73t53.5 -53.5q54 -42 134 -80q37 -17 58.5 -26t38 -14t34.5 -9t48 -11q-23 -60 -23 -114q0 -25 7 -55.5t20 -66.5q-89 16 -168.5 42.5
t-153.5 65.5q-375 201 -375 584q0 106 34 190t92.5 142.5t137.5 89.5t168 31q63 0 120 -16.5t92 -37.5l-1 1q19 -11 40 -25.5t38 -31.5v309q-2 18 -3.5 35t-4.5 37.5t-8.5 46t-13.5 60.5q58 2 104.5 11.5t86 21.5t75.5 25t75 22q-14 -22 -26.5 -41.5t-23 -40.5t-18.5 -46.5
t-14 -58.5l1 -377q17 17 38 31t40 25l-1 -1q35 21 92 37.5t120 16.5q89 0 168 -31t137.5 -89.5t92.5 -142.5t34 -190q0 -383 -375 -584q-74 -39 -153.5 -65.5t-168.5 -42.5q13 36 20 66.5t7 55.5q0 54 -23 114q30 7 48 11t34.5 9t37.5 14t59 26q80 38 134 80
q27 21 53.5 53.5t47.5 73t34.5 87t13.5 96.5q0 55 -16.5 100.5t-47 77t-74.5 49t-99 17.5q-146 0 -239 -145v1q-5 -7 -7 -10.5t-7 -11.5v-947q2 -148 99 -262h-436l40 40t21.5 26t12.5 26.5t13 43.5q9 29 14.5 61t5.5 65v947z" />
    <glyph glyph-name="afii10088" unicode="&#x446;" horiz-adv-x="1113" 
d="M1085 24q-66 -63 -79.5 -122t6.5 -107.5t64.5 -83.5t95.5 -48q-78 0 -129.5 -19.5t-85.5 -65.5q-61 11 -99 41t-56 70.5t-17 86.5t18.5 89.5t50.5 79.5t79 56l-210 -1v67l-3 -3q-13 -13 -28 -24t-31 -22q-32 -20 -86.5 -37t-114.5 -17q-191 0 -304 119
q-57 60 -84.5 137.5t-27.5 177.5q0 60 12 130t34 143q20 67 32 117t12 73q0 40 -13 78t-27 60l-34 58h270q35 -72 35 -196q0 -37 -11.5 -95t-34.5 -136q-22 -75 -33 -131.5t-11 -98.5q0 -108 57 -165q56 -56 147 -56q118 0 180 77h-1q65 80 65 206v397q0 104 -70 198h300
v-795q0 -37 7.5 -76t23 -72.5t40.5 -57.5t61 -32z" />
    <glyph glyph-name="afii10089" unicode="&#x447;" 
d="M269 831q1 -54 17.5 -96.5t45.5 -72t68 -45t84 -15.5q21 0 55 6.5t69.5 21.5t67.5 38.5t49 58.5v116q0 53 -17.5 109t-52.5 103h369q-69 -95 -69 -198v-597q1 -148 99 -262h-435q27 28 40.5 41t20.5 23t11.5 24.5t14.5 45.5q9 30 14 62t5 66v217q-31 -31 -101 -56.5
t-170 -25.5q-96 0 -173.5 31t-132 88t-83.5 137t-27 178q4 76 28 142.5t52.5 125.5t53.5 111.5t31 99.5q29 -33 59 -66t62.5 -57.5t69 -36.5t77.5 -3q-27 -20 -59.5 -44t-62 -59.5t-51.5 -86.5t-29 -124z" />
    <glyph glyph-name="afii10090" unicode="&#x448;" horiz-adv-x="1624" 
d="M1270 857q0 104 -70 198h369q-69 -95 -69 -198v-597q1 -75 20.5 -139t67.5 -121l-1141 -2q-96 0 -171.5 25.5t-132.5 85.5q-62 64 -86.5 147.5t-24.5 173.5t19.5 180.5t46.5 168.5q19 55 38.5 112t36 119t28 131.5t14.5 149.5q20 -30 45 -61.5t56 -55.5t67 -36.5t77 -3.5
q3 -35 -10 -83.5t-34 -104.5t-47 -118t-49 -125.5t-39.5 -126.5t-19 -120t12.5 -107t56 -88q59 -56 147 -56h215v652q0 104 -70 198h369q-69 -95 -69 -198v-652h348v652z" />
    <glyph glyph-name="afii10091" unicode="&#x449;" horiz-adv-x="1681" 
d="M447 -2q-96 0 -171.5 25.5t-132.5 85.5q-62 64 -86.5 147.5t-24.5 173.5t19.5 180.5t46.5 168.5q19 55 38.5 112t36 119t28 131.5t14.5 149.5q20 -30 45 -61.5t56 -55.5t67 -36.5t77 -3.5q3 -35 -10 -83.5t-34 -104.5t-47 -118t-49 -125.5t-39.5 -126.5t-19 -120
t12.5 -107t56 -88q59 -56 147 -56h215v652q0 104 -70 198h369q-69 -95 -69 -198v-652h348v652q0 104 -70 198h369q-69 -95 -69 -198v-597q0 -37 7.5 -76t23 -72.5t40.5 -57.5t61 -32q-44 -42 -64 -82.5t-21.5 -77t12.5 -69t38 -58t56 -44.5t66 -28q-39 0 -67.5 -4.5t-51 -15
t-40.5 -26.5t-35 -39q-61 11 -99 41t-56 70t-17.5 86t18.5 89t51 79t79 56z" />
    <glyph glyph-name="afii10093" unicode="&#x44b;" horiz-adv-x="1413" 
d="M21 0q31 25 49 54t27 62t11.5 69.5t2.5 76.5v597q0 104 -70 198h369q-69 -95 -69 -198v-671h244q40 0 70.5 12.5t50 34t28 51t4.5 63.5q-5 42 -42 71t-90.5 55.5t-114.5 54.5t-113 68q17 16 25.5 44.5t11.5 61.5t2.5 67.5t-1.5 61.5q38 -45 93.5 -77t116.5 -60t122 -58
t109 -71.5t77.5 -99.5t28.5 -143q-1 -34 -8.5 -69.5t-20.5 -69t-30.5 -62t-36.5 -49.5q-72 -75 -241 -75zM1059 859q0 104 -70 198h369q-69 -95 -69 -198v-597q1 -148 99 -262h-414q31 25 48 54t25 62t10 69.5t2 76.5v597z" />
    <glyph glyph-name="afii10094" unicode="&#x44c;" horiz-adv-x="1003" 
d="M21 0q31 25 49 54t27 62t11.5 69.5t2.5 76.5v597q0 104 -70 198h369q-69 -95 -69 -198v-663h244q81 0 121 42.5t32 110.5q-5 42 -42 71t-90.5 55.5t-114.5 54.5t-113 68q17 16 25.5 44.5t11.5 61.5t2.5 67.5t-1.5 61.5q38 -45 93.5 -77t116.5 -60t122 -58t109 -71.5
t77.5 -99.5t28.5 -143q-1 -34 -8.5 -69.5t-20.5 -69t-30.5 -62t-36.5 -49.5q-72 -75 -241 -75z" />
    <glyph glyph-name="afii10092" unicode="&#x44a;" horiz-adv-x="1299" 
d="M340 1058h369q-69 -95 -69 -198v-663h244q81 0 121 42.5t32 110.5q-5 42 -42 71t-90.5 55.5t-114.5 54.5t-113 68q17 16 25.5 44.5t11.5 61.5t2.5 67.5t-1.5 61.5q38 -45 93.5 -77t116.5 -60t122 -58t109 -71.5t77.5 -99.5t28.5 -143q-1 -34 -8.5 -69.5t-20.5 -69
t-30.5 -62t-36.5 -49.5q-72 -75 -241 -75l-605 1q31 25 49 54t27 62t11.5 69.5t2.5 76.5v597q-50 -2 -93 -0.5t-78.5 -8t-62 -37t-43.5 -86.5q-2 63 -6 109t-16 83.5t-35 70t-62 67.5h326z" />
    <glyph glyph-name="afii10095" unicode="&#x44d;" 
d="M291 457q20 107 66.5 160.5t103 62.5t113 -20t96.5 -87l123 79q-22 68 -67 123q-85 103 -221 103q-72 -9 -113.5 -26.5t-67 -38.5t-41.5 -43t-35 -40q-18 33 -33 51.5t-33 29t-43 16t-64 13.5q35 51 71 92.5t83 73.5t110.5 54t154.5 33q237 0 395 -161q154 -158 154 -403
q0 -246 -151 -404q-155 -161 -399 -161q-43 0 -85.5 7t-80.5 19q-38 14 -70 27.5t-56 29.5q-22 15 -45 34t-43 40v-1q-36 36 -50 58q-2 4 -8 10q-1 2 -5 9.5t-8.5 15.5t-8 15l-4.5 9q69 7 121.5 31t91.5 64q1 -2 4.5 -7.5t8 -12t8 -12.5t4.5 -8q8 -13 26 -32t44 -38
q26 -17 67.5 -30t88.5 -13q149 0 235 93h-1q77 85 85 216l-204 -135q-2 18 -14.5 40t-33.5 42t-49 36t-62.5 21.5t-74.5 -2t-83 -33.5z" />
    <glyph glyph-name="afii10096" unicode="&#x44e;" horiz-adv-x="1718" 
d="M699 124q-135 137 -156 331l-178 -1v-243q0 -37 5 -64t15 -50.5t26.5 -46t40.5 -50.5h-411q31 25 49.5 54t28.5 62t13 69.5t3 76.5v597q0 104 -70 198h369q-69 -95 -69 -198v-194h189q33 154 145 266q160 161 405 161q246 0 404 -161q160 -158 160 -403q0 -244 -160 -404
q-158 -161 -404 -161q-245 0 -405 161zM1345 274q93 101 93 254t-93 252q-93 97 -241 97q-149 0 -242 -97q-92 -98 -92 -252t92 -254q93 -96 242 -96q148 0 241 96z" />
    <glyph glyph-name="afii10097" unicode="&#x44f;" horiz-adv-x="1019" 
d="M981 1056q-31 -25 -49 -54t-27 -62t-11.5 -69.5t-2.5 -76.5v-597q0 -104 70 -198h-369q69 95 69 198v148q-37 13 -91 30.5t-104 33.5q-27 -45 -44.5 -104t-27 -117t-12.5 -108t-1 -78h-340l-9 43q43 41 71 93.5t52.5 111t50.5 120t64 120.5q-47 24 -89 53t-74 65
t-50.5 79t-17.5 96q1 34 8.5 61.5t20.5 51.5t30 44.5t37 41.5q72 75 241 75zM398 657q59 -24 129.5 -50t133.5 -46v299h-233q-30 0 -59.5 -3.5t-51.5 -14t-34 -30.5t-8 -54q3 -29 34 -53t79 -44z" />
    <glyph glyph-name="uni0406" unicode="&#x406;" horiz-adv-x="495" 
d="M365 211q0 -45 17 -90v1q20 -44 36 -62v1l11 -11t18.5 -19.5t18.5 -19.5l11 -11h-461q115 107 115 211v1143q0 46 -18 88q-9 22 -18 36.5t-18 25.5l-51 60h454q-115 -106 -115 -210v-1143z" />
    <glyph glyph-name="afii10103" unicode="&#x456;" horiz-adv-x="479" 
d="M137 1260q-41 41 -41 101q0 61 42 102h-1q42 42 102 42q59 0 101 -42h-1q43 -41 43 -102q0 -58 -43 -101q-21 -20 -46 -30.5t-54 -10.5q-30 0 -55 10.5t-46 30.5h-1zM124 859q0 104 -70 198h369q-69 -95 -69 -198v-597q1 -75 21 -140t68 -122h-416q33 23 51 52t27 63
t12.5 71t6.5 76v597z" />
    <glyph glyph-name="afii10056" unicode="&#x407;" horiz-adv-x="532" 
d="M19 1681q-20 19 -29.5 42.5t-9.5 49.5t9 49t29 43q19 19 42.5 28.5t48.5 9.5q50 0 91 -39q39 -41 39 -91q0 -25 -10 -49t-29 -43q-20 -19 -43 -27.5t-48 -8.5t-48.5 8.5t-42.5 27.5h1zM332 1681q-20 19 -29.5 42.5t-9.5 49.5t9 49t29 43q38 38 92 38q51 0 90 -39
q18 -20 28 -42.5t10 -48.5t-9.5 -49.5t-28.5 -42.5q-36 -36 -90 -36q-56 0 -92 36h1zM383 211q0 -45 17 -90v1q20 -44 36 -62v1l11 -11t18.5 -19.5t18.5 -19.5l11 -11h-461q115 107 115 211v1143q0 46 -18 88q-9 22 -18 36.5t-18 25.5l-51 60h454q-115 -106 -115 -210v-1143
z" />
    <glyph glyph-name="afii10104" unicode="&#x457;" horiz-adv-x="490" 
d="M309 1246q-20 19 -29.5 42.5t-9.5 49.5t9 49t29 43q37 37 92 37q52 0 90 -38q38 -40 38 -91q0 -26 -9.5 -49.5t-28.5 -42.5q-37 -37 -90 -37q-55 0 -92 37h1zM-3 1246q-20 19 -29.5 42.5t-9.5 49.5t9 49t29 43q37 37 90 37q54 0 92 -38q18 -20 28 -42.5t10 -48.5
t-9.5 -49.5t-28.5 -42.5q-37 -37 -92 -37q-53 0 -90 37h1zM128 859q0 104 -70 198h370q-70 -94 -70 -198v-597q1 -148 100 -262h-436q26 26 40 41t19 22t12 24.5t16 46.5q9 30 14 62t5 66v597z" />
    <glyph glyph-name="afii10062" unicode="&#x40e;" horiz-adv-x="1373" 
d="M232 1313q-21 34 -36.5 67t-36.5 64.5t-53.5 61.5t-89.5 57l483 2q-46 -19 -56 -55.5t-2 -83.5l319 -745q33 86 70.5 184t74 193t68.5 178t54 139q22 54 31.5 113.5t2.5 122.5l41 17q8 -14 11.5 -20t5.5 -8l3 -3l4 -4v1l7 -8h-1q9 -8 30.5 -24.5t56.5 -38.5
q68 -43 161 -64l-2 -43q-92 -23 -128 -106q-38 -94 -81.5 -200t-88 -215t-87.5 -215t-81 -199q-88 -215 -185 -336q-43 -54 -94 -90.5t-106 -54.5t-111 -16t-109 26t-100 71t-84 119q30 -12 59.5 -2t56.5 34t50.5 58.5t43.5 70.5q-2 -25 14.5 -49t45 -38t66 -15t77.5 19
q23 17 50.5 51t47.5 69zM952 2039q1 -2 2.5 -8t2.5 -9q19 -45 52.5 -61t87.5 -16q-13 -62 -47.5 -109.5t-83 -79.5t-106.5 -48.5t-119 -17.5t-120.5 14t-111 45.5t-90 77.5t-57.5 111q54 0 87 16t52 61q1 3 2.5 9t2.5 8l46 -5q0 -2 0.5 -4t0.5 -4q2 -7 6.5 -19t15.5 -34
q25 -50 67 -73t88 -21t87.5 28t65.5 73q11 22 15.5 34t6.5 19q0 2 0.5 4t0.5 4z" />
    <glyph glyph-name="afii10110" unicode="&#x45e;" horiz-adv-x="1157" 
d="M749 1195q74 -51 131.5 -85.5t99.5 -51.5q76 -30 118 -36q10 0 25 -1t23 -1l7 -43q-8 -3 -18 -7.5t-19 -9.5q-8 -4 -22 -18.5t-36 -39.5t-40 -53.5t-30 -60.5q-72 -189 -144.5 -379t-144.5 -378q-82 -215 -176 -336q-96 -124 -310 -180q2 15 3.5 24t2 14.5t0.5 8v4.5
q0 79 -99 174q139 17 226 83q84 65 116 188q-81 197 -160.5 392.5t-160.5 393.5q-15 36 -33.5 76t-40.5 79t-47.5 74.5t-53.5 64.5h412l9 -42q-9 -5 -18.5 -13.5t-23.5 -33.5v1q-1 -5 -3 -9t-2 -9t1.5 -10.5t4.5 -10.5l235 -626q53 147 105 294t105 293v-1q8 25 11 47t3 41
q0 3 -1 7q-2 48 -12 72zM797 1591q1 -2 2.5 -8t2.5 -9q19 -45 52.5 -61t87.5 -16q-13 -62 -47.5 -109.5t-83 -79.5t-106.5 -48.5t-119 -17.5t-120.5 14t-111 45.5t-90 77.5t-57.5 111q54 0 87 16t52 61q1 3 2.5 9t2.5 8l46 -5q0 -2 0.5 -4t0.5 -4q2 -7 6.5 -19t15.5 -34
q25 -50 67 -73t88 -21t87.5 28t65.5 73q11 22 15.5 34t6.5 19q0 2 0.5 4t0.5 4z" />
    <glyph glyph-name="afii10057" unicode="&#x408;" horiz-adv-x="942" 
d="M576 1354q0 46 -17 89q-18 43 -34 62l1 -2l-62 61h461q-57 -52 -86 -105t-28 -105v-956q0 -203 -102 -321q-103 -117 -290 -117q-66 0 -127.5 17.5t-120.5 52.5q-117 72 -164 220q107 0 145 91q1 3 2.5 9t2.5 8l46 -5q0 -2 0.5 -4t0.5 -4q2 -7 6.5 -19t15.5 -34
q8 -15 17.5 -28.5t20.5 -25.5h-1q21 -23 59 -41t86 -18q168 0 168 219v956z" />
    <glyph glyph-name="afii10105" unicode="&#x458;" horiz-adv-x="475" 
d="M133 1260q-42 42 -42 101q0 61 43 102h-1q42 42 101 42q60 0 102 -42h-1q42 -41 42 -102q0 -59 -42 -101q-21 -20 -46 -30.5t-55 -10.5q-29 0 -54 10.5t-46 30.5h-1zM349 169q0 -43 17.5 -93.5t48.5 -104.5q74 -122 74 -210q0 -140 -90 -217q-89 -76 -210 -76
q-142 0 -245 79q20 18 35 36.5t25 36.5t16 33.5t8 26.5q0 7 0.5 20.5t0.5 26.5t0.5 23.5t0.5 13.5q77 -82 144 -82q42 0 63.5 26.5t21.5 62.5q0 34 -31 83q-35 51 -72 126q-37 76 -37 155v724q0 103 -69 198h369q-34 -47 -52 -96t-18 -102v-690z" />
    <glyph glyph-name="afii61352" unicode="&#x2116;" horiz-adv-x="2067" 
d="M1275 0h-348q115 107 115 211v195q-72 94 -138.5 181t-132 172.5t-132 172.5t-138.5 182l-117 -909q-1 -8 -1.5 -14t-0.5 -11q0 -31 9 -61q6 -21 12.5 -36t14.5 -24l-1 2l11 -11t18.5 -19.5t18.5 -19.5l11 -11h-462q125 110 138 214l148 1143q1 6 1.5 13.5t1.5 14.5
q0 14 -3.5 28.5t-9.5 29.5q-8 21 -17.5 35.5t-18.5 24.5l2 -1q-3 2 -13.5 11t-23 19.5t-23 20t-13.5 11.5h463q-33 -32 -50.5 -59t-17.5 -50q0 -57 49 -121l415 -543v563q0 46 -18 88q-9 23 -18 38t-17 25l-52 59h453q-115 -106 -115 -210v-1354zM1707 752q110 0 110 282
q0 283 -110 283q-111 0 -111 -283q0 -282 111 -282zM1508 720q-69 112 -69 314q0 200 69 314q38 59 87 88.5t112 29.5q123 0 197 -118q70 -112 70 -314t-70 -314q-73 -118 -197 -118t-199 118zM1969 338h-551l54 206h549z" />
    <glyph glyph-name="afii10023" unicode="&#x401;" horiz-adv-x="1247" 
d="M716 1688q-19 19 -28 42.5t-9 49.5q0 25 9 48t28 43q19 19 43 29t49 10q50 0 91 -39q38 -40 38 -91q0 -25 -9.5 -49t-28.5 -43q-20 -19 -43 -27.5t-48 -8.5q-26 0 -49.5 8.5t-42.5 27.5zM328 1688q-20 19 -29.5 42.5t-9.5 49.5t9 49t29 43q38 38 92 38q52 0 91 -39
q37 -40 37 -91q0 -26 -9 -49.5t-28 -42.5q-36 -36 -91 -36q-56 0 -92 36h1zM144 1354q0 46 -18 88q-9 22 -18.5 36.5t-17.5 25.5l-51 60h1149l-12.5 -12.5l-21 -21t-22 -22.5t-15.5 -16q-9 -11 -21 -30.5t-28 -50.5q-17 -29 -26.5 -77t-14.5 -113q-16 26 -30.5 50t-19.5 29
t-17 12.5t-34 15.5q-44 18 -102 18h-367q-42 0 -60.5 -17t-18.5 -64v-330h338q158 0 253 87q-15 -122 -15 -195q1 -17 2 -44t2.5 -55.5t3 -55t2.5 -43.5q-84 87 -270 87h-316v-416q0 -45 18 -63.5t61 -18.5h407q56 0 96.5 14.5t54.5 28.5q1 2 8.5 13.5t16.5 24t16.5 23.5
t9.5 13q11 -103 46.5 -174t89.5 -106q5 -2 13.5 -7t13.5 -7l-10 -41h-1190q115 107 115 211v1143z" />
    <glyph glyph-name="afii10071" unicode="&#x451;" horiz-adv-x="1133" 
d="M252 1238q-20 19 -29.5 42.5t-9.5 49.5t9 49t29 43q19 19 42.5 28t49.5 9q51 0 91 -38q38 -40 38 -91q0 -25 -9.5 -49t-28.5 -43q-20 -19 -43 -28t-48 -9q-26 0 -49.5 9t-42.5 28h1zM655 1242q-20 19 -29 42.5t-9 49.5t8.5 49t28.5 43q37 37 92 37q53 0 91 -38
q18 -20 28 -42.5t10 -48.5t-9.5 -49.5t-28.5 -42.5q-37 -37 -91 -37q-55 0 -92 37h1zM350 780q-80 -97 -83 -239q69 25 135.5 48.5t132.5 47t133 47t138 47.5q-32 65 -94 106t-146 41q-133 0 -216 -98zM313 340q42 -77 115 -119t168 -42q98 0 175.5 50.5t131.5 142.5
q8 18 17.5 40t17.5 40l43 -8q0 -9 0.5 -22.5t5.5 -36.5q2 -12 6 -23t9 -23q8 -20 31 -43t60 -39l-29 -51q-6 -10 -20 -27t-35 -40q-20 -22 -44 -43.5t-50 -38.5t-60 -33.5t-76 -30.5q-87 -29 -181 -29q-244 0 -402 155q-159 156 -159 411q0 120 36 219t108 181
q148 163 377 163q211 0 348 -134q136 -134 173 -354z" />
    <glyph glyph-name="afii10101" unicode="&#x454;" 
d="M345 272h-1q85 -93 235 -93q47 0 88.5 13t67.5 30q26 19 44 38t26 32q1 2 4.5 8t8 12.5t8 12t4.5 7.5q39 -40 91.5 -64t121.5 -31l-4.5 -9t-8 -15t-8.5 -15.5t-5 -9.5q-6 -6 -8 -10q-14 -22 -50 -58v1q-20 -21 -43 -40t-45 -34q-24 -16 -56 -29.5t-70 -27.5
q-38 -12 -80.5 -19t-85.5 -7q-244 0 -399 161q-151 158 -151 404q0 245 154 403q158 161 395 161q91 -11 154.5 -33t110.5 -54t83 -73.5t71 -92.5q-39 -8 -64 -13.5t-43 -16t-33 -29t-33 -51.5q-20 18 -35.5 40t-41 43t-67 38.5t-113.5 26.5q-136 0 -221 -103
q-16 -20 -38 -67.5t-36 -110.5l215 134q2 -18 14.5 -40t33.5 -42t49 -36t62.5 -21.5t74.5 2t83 33.5q-13 -72 -41 -119t-64 -73t-76.5 -31.5t-78.5 6.5t-70 40t-51 69l-154 -99q20 -88 76 -148z" />
    <glyph glyph-name="afii10053" unicode="&#x404;" horiz-adv-x="1324" 
d="M279 716q5 -123 37 -219.5t89 -166.5q63 -72 144.5 -111.5t177.5 -39.5q229 0 325 194l-1 -1q10 23 17.5 45.5t12.5 48.5l41 1q12 -38 26 -67.5t31 -49.5q14 -16 28 -28t22 -16q4 -1 11.5 -3t16 -4t16 -4t10.5 -3q-10 -19 -19 -36.5t-14 -25.5v1q-8 -12 -22 -30.5
t-35 -42.5q-42 -48 -103 -91q-29 -20 -66.5 -39t-83.5 -35q-92 -33 -203 -33q-311 0 -504 226q-189 223 -189 580q0 99 15.5 190t45.5 172t70.5 148.5t90.5 116.5q101 103 223 157t255 54q259 0 402 -133v1q37 -33 71 -90t52 -126t12 -145t-49 -148q-31 -38 -64.5 -67
t-75 -49t-91.5 -31.5t-114 -14.5q20 25 35.5 51.5t21 56t-1 60.5t-30.5 65q35 -6 61 0.5t44 21.5t28.5 37.5t13.5 48.5q0 112 -85 177q-90 67 -226 67q-202 0 -335 -169q-46 -58 -76 -128.5t-45 -153.5h283q187 0 271 87q-20 -60 -33 -102.5t-21.5 -84t-14 -89.5t-11.5 -117
q-93 87 -253 87h-234z" />
    <glyph glyph-name="afii10050" unicode="&#x490;" horiz-adv-x="1129" 
d="M456 1346q-42 0 -60.5 -17t-18.5 -64v-549v-505q0 -45 17 -90v1q10 -22 19 -37.5t17 -24.5v1l11 -11t18.5 -19.5t18.5 -19.5l11 -11h-461q115 106 115 211v1143q0 46 -18 88q-9 22 -18 36.5t-18 25.5l-51 60h719q78 5 133 57t89 162q-2 -26 1 -62t10.5 -77t19.5 -84
t29 -83t38 -74t47 -57h-301h-367z" />
    <glyph glyph-name="afii10098" unicode="&#x491;" horiz-adv-x="918" 
d="M431 853q-42 0 -60.5 -17t-18.5 -64l1 -510q1 -75 20.5 -140t67.5 -122h-410q34 25 51 54t25 62t10 69.5t6 76.5v597q0 53 -26 102t-61 96l550 -3q39 0 74.5 21t66 53t54.5 71.5t39 75.5q-3 -44 -1 -106t12 -124.5t29.5 -115t50.5 -77.5z" />
    <glyph glyph-name="afii10146" unicode="&#x462;" horiz-adv-x="1637" 
d="M776 831q23 22 34.5 49t16 58t3.5 65.5t-2 71.5q39 -46 92.5 -79.5t115 -61.5t127 -53.5t127.5 -54.5t117 -64t96.5 -83t65 -112t22.5 -150q-2 -93 -30 -177t-82 -140q-101 -102 -329 -102h-749l51 60q9 11 18 25.5t18 36.5q10 21 14 43t4 45v1143q0 105 -115 211h461
q-2 -2 -10.5 -11t-18.5 -19.5t-19 -19.5l-11 -11v1q-8 -9 -17 -24.5t-18 -37.5v1q-18 -44 -18 -90v-528v-619h412q55 0 95.5 20t66 53t37.5 75.5t10 87.5q-2 51 -33 90t-80 70t-111 58t-126.5 53t-126 55t-108.5 65zM991 1332q70 3 123 25.5t104 59.5l31 -33
q-19 -19 -36 -50t-31 -67.5t-25 -75.5t-19 -74.5t-12.5 -64t-5.5 -44.5q-19 33 -34.5 54.5t-30.5 34t-31.5 17t-35.5 4.5l-714 1q-70 -3 -123 -25.5t-104 -59.5l-31 33q19 19 36 49.5t31 66.5t25 74t19 73t12.5 63t5.5 44q19 -33 34.5 -55t30.5 -34.5t31 -17t36 -4.5l714 -1
v7z" />
    <glyph glyph-name="afii10194" unicode="&#x463;" horiz-adv-x="1263" 
d="M297 1q31 25 49 54t27 62t11.5 69.5t2.5 76.5v884q0 53 -18 102t-53 96h369q-69 -95 -69 -198l1 -950h244q81 0 118 38.5t29 106.5q-3 28 -23 49t-50.5 37.5t-68.5 30t-76.5 26t-74 25.5t-61.5 28q17 16 25.5 48.5t11.5 70.5t2.5 76t-1.5 65q38 -45 93.5 -74t116.5 -53.5
t122 -49.5t109 -62.5t77.5 -93t28.5 -140.5q-1 -34 -8.5 -69.5t-20.5 -69t-30.5 -62t-36.5 -49.5q-72 -75 -241 -75zM373 851l-179 2q-22 -5 -42 -8.5t-41.5 -10t-45.5 -18t-52 -31.5l76 305q22 -18 45.5 -27t48.5 -12.5t50.5 -3t51.5 0.5h461h72.5t56 3t50 10t56.5 21
l-83 -300q-16 21 -35.5 34.5t-40 21.5t-39.5 11.5t-33 3.5z" />
    <glyph glyph-name="afii10147" unicode="&#x472;" horiz-adv-x="1421" 
d="M79 782q0 378 177 599h-1q178 223 455 223q278 0 456 -223h-1q177 -221 177 -599q0 -380 -173 -599q-175 -223 -459 -223q-283 0 -458 223q-173 220 -173 599zM999 333q48 72 75.5 167.5t32.5 220.5q-39 -22 -91 -33t-112 -11q-101 0 -251 53q-66 23 -114.5 33.5
t-82.5 10.5q-22 0 -43 -6.5t-39 -16t-32 -20.5t-22 -20l-3 -3l-3 -3q6 -121 33 -211.5t75 -160.5q106 -154 288 -154q183 0 289 154zM999 1231q-107 155 -289 155q-181 0 -288 -155q-80 -118 -101 -305q38 20 88 33.5t107 13.5q100 0 251 -53q66 -23 114.5 -33t83.5 -10
q21 0 41 4t37.5 11t30.5 15t20 17l5 5q-11 94 -36 168.5t-64 133.5z" />
    <glyph glyph-name="afii10195" unicode="&#x473;" horiz-adv-x="1200" 
d="M195 125q-159 162 -159 404q0 244 159 403q160 161 405 161q246 0 404 -161q160 -158 160 -403q0 -244 -160 -404q-158 -161 -404 -161q-245 0 -405 161zM841 275q72 78 89 193q-32 -20 -78 -35t-102 -15q-82 0 -202 42q-104 35 -160 35q-34 0 -64 -12t-44 -26
q-1 -1 -7 -9q18 -102 85 -173q93 -96 242 -96q148 0 241 96zM841 781q-93 97 -241 97q-149 0 -242 -97q-62 -66 -83 -160q32 17 73 28t89 11q81 0 203 -42q53 -18 92.5 -26.5t67.5 -8.5q33 0 63 12t42 26l15 15q-20 82 -79 145z" />
    <glyph glyph-name="afii10148" unicode="&#x474;" horiz-adv-x="1446" 
d="M828 379q-16 -37 -25.5 -94t-9.5 -115q1 -55 15 -101t48 -69h-428q70 72 70 132q1 24 -2 47t-8 46v-1l-335 1137q-18 54 -54.5 106t-90.5 97h424q-20 -32 -29.5 -56t-10.5 -39q0 -13 1.5 -29.5t4 -34.5t6 -35t7.5 -32q33 -113 64.5 -222t63 -217t63 -217.5t64.5 -223.5
q35 174 64.5 307.5t54.5 233t46 169.5t38 117.5t30 77.5t22 49q36 78 86.5 125t106 66t111 12t102.5 -37t80 -81t43 -120q-31 -8 -53.5 -21.5t-40.5 -32t-32.5 -41.5t-29.5 -51q-2 79 -29 116.5t-63.5 39.5t-75.5 -29.5t-64 -90.5q-27 -62 -53 -159t-54 -215t-59.5 -250
t-67.5 -264z" />
    <glyph glyph-name="afii10196" unicode="&#x475;" horiz-adv-x="1161" 
d="M720 135q0 -65 107 -135h-532q110 70 110 141q0 43 -19 85l-259 648q-36 94 -154 183h471l-7 -7t-15 -15.5t-15 -15.5l-7 -7q-2 -2 -5 -6.5t-9 -16.5q-4 -9 -7 -17.5t-5 -16.5h1q-2 -8 -3 -15.5t-1 -13.5q0 -17 3.5 -35.5t9.5 -37.5l-1 1q26 -68 48 -126t43.5 -114
t43.5 -114.5t48 -125.5l59 205q14 58 33 115.5t42 118.5q25 60 51 105t57 74q22 21 46.5 38t49.5 29.5t48 20.5t43 11h-1q10 2 12 3.5t2.5 2.5t2.5 0.5t11 -1.5v-1q18 -1 31 -2t21 -2l48 -9q-26 -70 -26 -112q3 -41 18.5 -65t32.5 -47q-64 21 -114.5 -2t-89.5 -77t-70 -132
t-57 -165.5t-49 -177.5t-47 -169z" />
    <glyph glyph-name="uni0492" unicode="&#x492;" horiz-adv-x="1442" 
d="M627 119v1q10 -22 19 -37.5t17 -24.5v1l11 -11t18.5 -19.5t18.5 -19.5l11 -11h-461q115 106 115 211v502l-182 2q-22 -5 -42 -8.5t-41.5 -10t-45.5 -18t-52 -31.5l76 328q22 -18 45.5 -27t48.5 -12.5t50.5 -3t51.5 0.5h91v421q0 46 -18 88q-9 22 -18 36.5t-18 25.5
l-51 60h1150q-3 -3 -13 -12.5t-21.5 -21t-22 -22.5t-15.5 -16q-8 -11 -20.5 -30.5t-28.5 -50.5q-16 -29 -26 -77t-15 -113q-16 26 -30.5 50t-19.5 29t-17 12.5t-34 15.5q-44 18 -102 18h-367q-42 0 -60.5 -17t-18.5 -64v-332h241h72.5t56 3t50 10t56.5 21l-83 -323
q-16 21 -35.5 34.5t-40 21.5t-39.5 11.5t-33 3.5l-245 -1v-503q0 -45 17 -90z" />
    <glyph glyph-name="uni0493" unicode="&#x493;" horiz-adv-x="1174" 
d="M574 262q1 -75 20.5 -140t67.5 -122h-410q34 25 51 54t25 62t10 69.5t6 76.5v191l-143 2q-22 -5 -42 -8.5t-41.5 -10t-45.5 -18t-52 -31.5l76 293q22 -18 45.5 -27t48.5 -12.5t50.5 -3t51.5 0.5h52v221q0 53 -26 102t-61 96h880q-31 -25 -51 -63t-30.5 -82.5t-13.5 -92
t0 -91.5q-15 36 -34 60.5t-44 38.5t-55.5 20t-69.5 6h-187q-42 0 -60.5 -17t-18.5 -64v-134h187h72.5t56 3t50 10t56.5 21l-83 -288q-16 21 -35.5 34.5t-40 21.5t-39.5 11.5t-33 3.5l-190 -1v-192z" />
    <glyph glyph-name="uni0496" unicode="&#x496;" horiz-adv-x="2010" 
d="M1672 2q-15 65 -32 136t-41 142t-56.5 139.5t-78.5 130.5t-107.5 114.5t-142.5 91.5q-11 -12 -24.5 -28.5t-27.5 -33.5t-28 -33.5t-25 -29.5v-418q0 -45 17 -90v1q20 -44 36 -62v1l11 -11t18.5 -19.5t18.5 -19.5l11 -11h-454q2 2 11.5 11t21 19.5t21 19.5t11.5 11v-1
q16 18 36 62v-1q17 45 17 90v418q-11 13 -23.5 29.5t-25.5 33.5t-25 33t-23 28q-79 -16 -136.5 -53.5t-99.5 -91t-71.5 -120t-53 -139.5t-44 -150t-44.5 -152t-54.5 -144.5t-74.5 -128.5q-31 47 -59.5 73t-58 39.5t-61.5 19t-69 10.5q56 60 93.5 125.5t65 134t49.5 138.5
t47 138.5t57.5 133.5t81 124t118 110t168.5 91q-94 105 -184 202t-182 201q-65 70 -116 122q-26 26 -44.5 43t-28.5 25l1 -1q-8 6 -13.5 10t-9.5 5l6 46h421q-3 -8 -8 -19.5t-10.5 -24.5t-10.5 -25t-9 -21q1 -24 23 -47q103 -118 204 -235.5t204 -235.5v398q0 105 -115 210
h454q-115 -105 -115 -210v-398q103 118 204 235.5t204 235.5q22 23 23 47q-4 9 -9 21t-10.5 25t-10.5 24.5t-8 19.5h421l6 -46q-4 -1 -9.5 -5t-13.5 -10l1 1q-10 -8 -28.5 -25t-44.5 -43q-52 -52 -116 -122q-46 -52 -90 -100t-87.5 -95.5t-87.5 -96t-91 -100.5
q114 -66 189.5 -129t125.5 -126t80 -127t53 -130.5t44 -136.5t53 -146l-3 -5q17 -32 34 -50q15 -16 25 -21t18 -8q-46 -45 -67 -88.5t-23.5 -83.5t11 -75.5t38.5 -64.5t58 -49.5t68 -30.5q-27 -14 -47.5 -21.5t-41 -16t-44.5 -20t-58 -32.5q-64 11 -103.5 42.5t-58 73
t-17 89.5t20.5 93t53.5 82.5t83.5 58.5h-182z" />
    <glyph glyph-name="uni0497" unicode="&#x497;" horiz-adv-x="1738" 
d="M1335 1q-7 67 -21 135t-38 133.5t-58.5 126.5t-82.5 115l-194 -209v-38q0 -75 19.5 -140t67.5 -122h-412h7q48 57 67.5 122t19.5 140v38l-165 213q-12 -18 -35 -45.5t-50.5 -61t-56 -72.5t-51.5 -81.5t-38 -87.5t-14 -90.5t19.5 -90t62.5 -85.5q-24 0 -48.5 -1.5t-50 -12
t-51.5 -33.5t-54 -66q-82 64 -112.5 140t-25 157t41.5 163.5t87.5 158.5t111.5 143t114 117l-187 207q-14 17 -35.5 36.5t-38.5 39.5h1q-24 22 -47.5 38.5t-31.5 20.5l-19 10l10 40h433l6 -46q-6 -2 -13 -8.5t-13 -15.5t-10 -20t-4 -20q0 -31 40 -77q12 -15 36 -47
t54.5 -71.5t65 -83t68.5 -80.5v271q0 103 -69 198h369q-69 -95 -69 -198v-271q34 37 77.5 80.5t85 83t74 71.5t45.5 47q40 46 40 77q0 9 -4 20t-10 20t-13 15.5t-13 8.5l6 46h433l10 -40l-19 -10q-8 -4 -30.5 -19.5t-48.5 -39.5h1q-18 -20 -39 -39.5t-35 -36.5l-195 -209
q57 -51 102.5 -120.5t82.5 -143.5t68 -147t59 -132v1q26 -48 46.5 -76t31.5 -32q-66 -63 -79.5 -117.5t6 -97t64 -72t95.5 -43.5q-39 0 -67.5 -4.5t-51 -15t-40.5 -26.5t-35 -39q-61 11 -99 39.5t-56.5 67t-17.5 82t18.5 85t50.5 76t79 54.5z" />
    <glyph glyph-name="uni0498" unicode="&#x498;" horiz-adv-x="1357" 
d="M909 -555q-27 -9 -59 -12.5t-70 -3.5q-129 0 -217 70l1 -1q-91 72 -91 204q0 51 17.5 99.5t40.5 80.5q14 19 29 35.5t29 29.5q-224 14 -375 121q-176 125 -176 336q0 171 108 270q74 68 170 89q49 10 95.5 4.5t88.5 -24t79.5 -47.5t68.5 -65l47 -57h-6.5t-15 -0.5
t-16.5 -0.5h-12q-5 -1 -11.5 -2.5t-15 -5.5t-19.5 -12t-26 -22q-16 -14 -29.5 -43t-25.5 -71q-3 16 -14 35t-27 36t-36.5 30t-43 18t-45.5 0t-45 -25q-20 -18 -27.5 -46.5t-7.5 -60.5q0 -57 25.5 -101.5t73.5 -76.5q51 -30 123.5 -47.5t159.5 -17.5q202 0 319 84
q114 84 114 221q0 52 -15.5 104.5t-48.5 99.5t-84 85t-122 62q-21 7 -48.5 13.5t-57.5 11t-61 8t-59 4.5q-1 36 -6 68t-10 56q-6 28 -14 52q38 -6 82 -1t87.5 18.5t83.5 35.5t70.5 49.5t47.5 61t15 71.5q-1 60 -36.5 90.5t-111.5 30.5q-46 0 -160 -35q-118 -37 -206 -37
q-148 -1 -266 87l23 21q72 53 74 231q2 -2 10.5 -10t18 -17.5t18.5 -18t12 -11.5q18 -16 53 -32t72 -16q35 0 76 7t89 20q51 14 97 21.5t89 7.5q172 0 283 -93q110 -93 110 -246q0 -61 -18.5 -108.5t-52 -84.5t-79.5 -64.5t-101 -48.5q82 -30 152 -76t120 -108.5t78.5 -140
t28.5 -168.5q0 -232 -188 -378q-67 -53 -148.5 -85.5t-178.5 -46.5q-17 -15 -30.5 -27.5t-18.5 -18.5q-9 -10 -21.5 -30t-28.5 -48q-30 -56 -30 -109q0 -48 29.5 -79t86.5 -31q17 0 32 3t24 8q6 6 16 15.5t19.5 19.5t17 17t8.5 8q-9 -57 -12.5 -83.5t-3.5 -37.5
q0 -55 24 -77z" />
    <glyph glyph-name="uni0499" unicode="&#x499;" horiz-adv-x="1003" 
d="M736 -455q-26 -8 -57.5 -11t-67.5 -3q-126 0 -211 61l1 -1q-89 61 -89 175q0 45 16.5 86t39.5 69q14 17 28.5 31t28.5 25q-65 8 -126 27t-113.5 48.5t-94 69t-65.5 89.5q56 23 87.5 44.5t49.5 41.5t27.5 39.5t22.5 39.5q21 -64 69 -105.5t107 -62.5t122 -22t113 16.5
t80.5 53t24.5 87.5q-5 38 -24.5 68t-51.5 48q-32 19 -76 24.5t-92 3.5q-19 0 -42.5 -1.5l-47 -3t-44.5 -3.5t-36 -3q10 26 10.5 57t-4.5 60t-15 53t-20 37q14 -7 35.5 -12.5t45.5 -9.5t48.5 -6.5t45.5 -3.5q45 -2 89 5.5t78.5 24.5t54.5 45t17 67q-2 26 -16.5 40.5
t-36.5 21.5t-48.5 7.5t-53.5 -1.5t-51.5 -5t-41.5 -4q-102 -5 -167.5 10.5t-104.5 39.5t-56.5 50t-23.5 41l48 20q8 2 21 10.5t29.5 27t36 49t40.5 77.5q25 -61 57 -87.5t72 -33t87 -1t102 8.5q74 3 135 -13t105.5 -50t69.5 -84.5t27 -116.5q1 -34 -5 -68t-20.5 -63.5
t-38.5 -53t-58 -36.5q33 -20 61.5 -47.5t49.5 -59.5t33 -67.5t13 -72.5q2 -77 -23.5 -137t-71.5 -103.5t-107.5 -70.5t-131.5 -39q-15 -12 -27 -22t-17 -15q-8 -8 -20.5 -25.5t-27.5 -41.5t-22 -47.5t-7 -46.5q0 -41 28.5 -67.5t83.5 -26.5q17 0 31.5 2.5t23.5 6.5
q6 5 15.5 13.5t19 16.5t16.5 14.5t8 7.5q-8 -49 -11.5 -72t-3.5 -32q0 -48 23 -67z" />
    <glyph glyph-name="uni049A" unicode="&#x49a;" horiz-adv-x="1283" 
d="M163 628v725q0 105 -115 210h454q-115 -105 -115 -210v-398q103 118 204 235.5t204 235.5q22 23 23 47q-4 9 -9 21t-10.5 25t-10.5 24.5t-8 19.5h421l6 -46q-4 -1 -9.5 -5t-13.5 -10l1 1q-10 -8 -28.5 -25t-44.5 -43q-52 -52 -116 -122q-46 -52 -90 -100t-87.5 -95.5
t-87.5 -96t-91 -100.5q114 -66 189.5 -129t125.5 -126t80 -127t53 -130.5t44 -136.5t53 -146l-3 -5q17 -32 34 -50q15 -16 25 -21t18 -8q-46 -45 -67 -88.5t-23.5 -83.5t11 -75.5t38.5 -64.5t57.5 -49.5t68.5 -30.5q-27 -14 -47.5 -21.5t-41 -16t-44.5 -20t-58 -32.5
q-64 11 -103.5 42.5t-58 73t-17 89.5t20.5 93t53.5 82.5t83.5 58.5h-182q-15 65 -32 136t-41 142t-56.5 139.5t-78.5 130.5t-107.5 115t-142.5 91q-11 -12 -24.5 -28.5t-27.5 -33.5t-28 -33.5t-25 -29.5v-418q0 -45 17 -90v1q20 -44 36 -62v1l11 -11t18.5 -19.5t18.5 -19.5
l11 -11h-454q2 2 11.5 11t21 19.5t21 19.5t11.5 11v-1q16 18 36 62v-1q17 45 17 90v418z" />
    <glyph glyph-name="uni049B" unicode="&#x49b;" horiz-adv-x="1125" 
d="M113 298v559q0 103 -69 198h369q-69 -95 -69 -198v-271q34 37 77.5 80.5t85 83t74 71.5t45.5 47q40 46 40 77q0 9 -4 20t-10 20t-13 15.5t-13 8.5l6 46h433l10 -40l-19 -10q-8 -4 -30.5 -19.5t-48.5 -39.5h1q-18 -20 -39 -39.5t-35 -36.5l-195 -209q57 -51 102.5 -120
t82.5 -143t68 -146.5t59 -131.5v1q26 -48 46.5 -77.5t31.5 -33.5q-66 -63 -79.5 -117.5t6 -97t64 -72t95.5 -43.5q-39 0 -67.5 -4.5t-51 -15t-40.5 -26.5t-35 -39q-61 11 -99 39.5t-56.5 67t-17.5 82t18.5 85t50.5 76t79 54.5h-228q-7 67 -21 134.5t-38 133t-58.5 126
t-82.5 114.5l-194 -209v-38q0 -75 19.5 -140t67.5 -122h-412h7q48 57 67.5 122t19.5 140v38z" />
    <glyph glyph-name="uni049C" unicode="&#x49c;" horiz-adv-x="1332" 
d="M504 1339l123 3l-1 -213q72 83 140.5 161.5t121.5 138.5q22 23 23 47q-4 9 -9 21t-10.5 25t-10.5 24.5t-8 19.5h421l6 -46q-4 -1 -9.5 -5t-13.5 -10l1 1q-10 -8 -28.5 -25t-44.5 -43q-52 -52 -116 -122q-92 -104 -182 -201t-184 -202q99 -40 168.5 -91t118 -110t81 -124
t57.5 -133.5t47 -138.5t49.5 -138.5t65 -134t93.5 -125.5q-38 -5 -69.5 -10.5t-61 -19t-58 -39.5t-59.5 -73q-56 75 -91.5 167.5t-63.5 190t-55.5 193.5t-68 178.5t-100 144.5t-151.5 92v-334l-122 -1v263q-19 -22 -38 -45t-36.5 -43t-30.5 -36t-20 -23l-1 -310
q0 -45 17 -90v1q20 -44 36 -62v1q2 -2 11.5 -11t21 -19.5t21 -19.5t11.5 -11h-454l11 11t18.5 19.5t18.5 19.5l11 11v-1q16 18 36 62v-1q17 45 17 90v1143q0 105 -115 210h454q-115 -105 -115 -210l1 -512q27 31 58.5 67.5t66.5 77.5z" />
    <glyph glyph-name="uni049D" unicode="&#x49d;" horiz-adv-x="1161" 
d="M432 919l122 3v-168q40 38 69.5 68t40.5 43q40 46 40 77q0 9 -4 20.5t-10 22t-13 17.5t-13 9l6 46h433l10 -40l-19 -10q-3 -2 -10 -6t-16 -11q-5 -4 -12 -9t-13 -10t-13 -10t-15 -13h1q-8 -9 -17.5 -17.5t-18.5 -17.5q-11 -11 -21 -21.5t-17 -19.5l-195 -209
q57 -51 102.5 -120.5t82.5 -143.5t68 -147t59 -132v1q17 -32 34 -50q15 -16 25 -21t18 -8l-9 -43h-351q-7 67 -19 132.5t-33.5 127.5t-54 120.5t-80.5 112.5l-35 -34v-292l-122 -1v175l-101 -98q1 -74 20 -130t67 -112h-412q34 25 51.5 54t26 62t11 69.5t6.5 76.5v597
q0 104 -70 198h369q-69 -95 -69 -198v-327q20 22 46 48.5t55 55.5v283z" />
    <glyph glyph-name="uni04A0" unicode="&#x4a0;" horiz-adv-x="1771" 
d="M680 1256q0 47 -18.5 64t-60.5 17h-224q-59 0 -102 -18q-22 -8 -34 -15.5t-17 -12.5t-19.5 -29t-30.5 -50q-5 65 -15 113t-26 77q-16 31 -28.5 50.5t-20.5 30.5q-5 5 -15.5 16t-22 22.5t-21.5 21t-13 12.5h312h683l-51 -60q-9 -11 -18 -25.5t-18 -36.5q-9 -21 -13.5 -39
t-4.5 -41v-398q103 118 204 235.5t204 235.5q22 23 23 47q-4 9 -9 21t-10.5 25t-10.5 24.5t-8 19.5h421l6 -46q-4 -1 -9.5 -5t-13.5 -10l1 1q-10 -8 -28.5 -25t-44.5 -43q-52 -52 -116 -122q-92 -104 -182 -201t-184 -202q99 -40 168.5 -91t118 -110t81 -124t57.5 -133.5
t47 -138.5t49.5 -138.5t65 -134t93.5 -125.5q-38 -5 -69.5 -10.5t-61 -19t-58 -39.5t-59.5 -73q-44 59 -74.5 128.5t-54.5 144.5t-44.5 152t-44 150t-53 139.5t-71.5 120t-99.5 91t-136.5 53.5q-11 -12 -23 -28t-25 -33t-25.5 -33.5t-23.5 -29.5v-418q0 -45 17 -90v1
q20 -44 36 -62v1q2 -2 11.5 -11t21 -19.5t21 -19.5t11.5 -11h-454l11 11t18.5 19.5t18.5 19.5l11 11v-1q16 18 36 62v-1q17 45 17 90v418z" />
    <glyph glyph-name="uni04A1" unicode="&#x4a1;" horiz-adv-x="1458" 
d="M468 772q0 47 -18.5 64t-60.5 17h-79q-39 0 -69.5 -6t-55.5 -20t-44 -38.5t-34 -60.5q3 44 0 91.5t-13.5 92t-30.5 82.5t-51 63h386h386q-35 -47 -61 -96.5t-26 -102.5v-276q34 37 73 80.5t75 83t64.5 71.5t40.5 47q40 46 40 77q0 9 -4 20.5t-10 22t-13 17.5t-13 9l6 46
h433l10 -40l-19 -10q-3 -2 -10 -6t-16 -11q-5 -4 -12 -9t-13 -10t-13 -10t-15 -13h1q-8 -9 -17.5 -17.5t-18.5 -17.5q-11 -11 -21 -21.5t-17 -19.5l-195 -209q57 -51 102.5 -120.5t82.5 -143.5t68 -147t59 -132v1q17 -32 34 -50q15 -16 25 -21t18 -8l-9 -43h-351
q-7 67 -19 132.5t-33.5 127.5t-54 120.5t-80.5 112.5l-178 -192v-38q1 -75 20 -140t67 -122h-412q34 25 51.5 54t26 62t11 69.5t6.5 76.5z" />
    <glyph glyph-name="uni04A2" unicode="&#x4a2;" horiz-adv-x="1385" 
d="M862 0q115 107 115 211v406q-77 17 -151 33.5t-147 32t-147 32t-152 33.5v-537q0 -101 -24 -185q-11 -41 -21.5 -69t-20.5 -43l-46 -60q-11 20 -20.5 34t-14.5 22q-10 13 -52 46q-20 15 -53 28.5t-78 26.5q96 112 96 219v1063q0 47 -19 88q-8 21 -17 35.5t-18 24.5
l-50 59q60 3 110.5 11.5t92.5 23.5q42 16 72.5 28t45.5 20q16 8 31.5 18t26.5 18l30 -38q-6 -6 -20.5 -33t-33.5 -84q-9 -29 -13 -56.5t-4 -55.5v-376q77 -17 150.5 -33.5t146.5 -33t147.5 -33t152.5 -33.5v511q0 47 -19 88q-8 22 -17.5 36.5t-17.5 25.5l-52 60h455
q-115 -105 -115 -210v-1127q-2 -18 3.5 -42t19.5 -49.5t38.5 -50.5t61.5 -44q-46 -45 -67 -88.5t-23.5 -83.5t11 -75.5t38.5 -64.5t57.5 -49.5t68.5 -30.5q-27 -14 -47.5 -21.5t-41 -16t-44.5 -20t-58 -32.5q-64 11 -103.5 42.5t-58 73t-17 89.5t20.5 93t54 82.5t83 58.5z
" />
    <glyph glyph-name="uni04A3" unicode="&#x4a3;" horiz-adv-x="1186" 
d="M716 0q31 25 49.5 54t28.5 62t13.5 69.5t3.5 76.5v194l-445 -2v-243q0 -37 5 -64t15 -50.5t26.5 -46t40.5 -50.5h-411q31 25 49.5 54t28.5 62t13 69.5t3 76.5v597q0 104 -70 198h369q-69 -95 -69 -198v-194h445v194q0 104 -70 198h369q-69 -95 -69 -198v-597
q0 -21 1 -55.5t10.5 -71t31 -70.5t62.5 -54q-66 -63 -79.5 -117.5t6 -97t64 -72t95.5 -43.5q-39 0 -67.5 -4.5t-51 -15t-40.5 -26.5t-35 -39q-61 11 -99 39.5t-56.5 67t-17.5 82t18.5 85t50.5 76t79 54.5h-297z" />
    <glyph glyph-name="uni04A4" unicode="&#x4a4;" horiz-adv-x="1909" 
d="M1211 211q0 -49 17 -90v1q20 -44 36 -62v1l11 -11t18.5 -19.5t18.5 -19.5l11 -11h-461q115 107 115 211v406q-77 17 -151 33.5t-147 32t-147 32t-152 33.5v-537q0 -101 -24 -185q-11 -41 -21.5 -69t-20.5 -43l-46 -60q-11 20 -20.5 34t-14.5 22q-10 13 -52 46
q-20 15 -53 28.5t-78 26.5q96 112 96 219v1063q0 47 -19 88q-8 21 -17 35.5t-18 24.5l-50 59q60 3 110.5 11.5t92.5 23.5q42 16 72.5 28t45.5 20q16 8 31.5 18t26.5 18l30 -38q-6 -6 -20.5 -33t-33.5 -84q-9 -29 -13 -56.5t-4 -55.5v-376q77 -17 150.5 -33.5t146.5 -33
t147.5 -33t152.5 -33.5v511q0 23 -4.5 41t-13.5 39q-9 22 -18 36.5t-18 25.5l-51 60h704h312q-3 -3 -13 -12.5t-21.5 -21t-22 -22.5t-15.5 -16q-8 -11 -20.5 -30.5t-28.5 -50.5q-16 -29 -26 -77t-15 -113q-16 26 -30.5 50t-19.5 29t-17 12.5t-34 15.5q-44 18 -102 18h-234
q-42 0 -60.5 -17t-18.5 -64z" />
    <glyph glyph-name="uni04A5" unicode="&#x4a5;" horiz-adv-x="1519" 
d="M1041 262q1 -75 20.5 -140t67.5 -122h-413q31 25 49.5 54t28.5 62t13.5 69.5t3.5 76.5v194l-445 -2v-243q0 -37 5 -64t15 -50.5t26.5 -46t40.5 -50.5h-411q31 25 49.5 54t28.5 62t13 69.5t3 76.5v597q0 104 -70 198h369q-69 -95 -69 -198v-194h445v194q0 53 -26 102.5
t-61 96.5h386h386q-31 -25 -51 -63t-30.5 -82.5t-13.5 -92t0 -91.5q-15 36 -34 60.5t-44 38.5t-55.5 20t-69.5 6h-79q-42 0 -60.5 -17t-18.5 -64z" />
    <glyph glyph-name="uni04AA" unicode="&#x4aa;" horiz-adv-x="1396" 
d="M964 -545q-27 -9 -59 -12.5t-70 -3.5q-129 0 -217 70l1 -1q-91 72 -91 204q0 51 17.5 99.5t40.5 80.5q18 23 36.5 43t34.5 34q-235 35 -389 217q-189 223 -189 580q0 99 15.5 190t45.5 172t70.5 148.5t90.5 116.5q101 103 223 157t255 54q259 0 402 -133v1
q147 -134 147 -324q0 -168 -109 -280q-108 -112 -279 -112q-193 0 -305 118l-38 49q21 0 45 1.5t41 6.5q8 2 17.5 6.5t14.5 8.5q14 10 24.5 36t12.5 61l42 6q4 -10 14.5 -22.5t46.5 -32.5q38 -20 83 -20q68 0 112 44q44 47 44 124q0 112 -85 177q-90 67 -226 67
q-202 0 -335 -169q-69 -86 -102 -198.5t-33 -252.5q0 -141 32 -249.5t95 -186.5q63 -72 144.5 -111.5t177.5 -39.5q229 0 325 194l-1 -1q10 23 17.5 45.5t12.5 48.5l41 1q12 -38 26 -67.5t31 -49.5q14 -16 28 -28t22 -16q4 -1 11.5 -3t16 -4t16 -4t10.5 -3
q-10 -19 -19 -36.5t-14 -25.5v1q-8 -12 -22 -30.5t-35 -42.5q-42 -48 -103 -91q-29 -20 -66.5 -39t-83.5 -35q-53 -19 -115 -27q-17 -15 -30.5 -27.5t-18.5 -18.5q-9 -10 -21.5 -30t-28.5 -48q-30 -56 -30 -109q0 -48 29.5 -79t86.5 -31q17 0 32 3t24 8q6 6 16 15.5
t19.5 19.5t17 17t8.5 8q-9 -57 -12.5 -83.5t-3.5 -37.5q0 -55 24 -77z" />
    <glyph glyph-name="uni04AB" unicode="&#x4ab;" horiz-adv-x="1068" 
d="M749 -455q-26 -8 -57.5 -11t-67.5 -3q-126 0 -211 61l1 -1q-89 61 -89 175q0 45 16.5 86t39.5 69q14 16 28.5 30t27.5 25q-160 33 -270 149q-151 158 -151 404q0 245 154 403q158 161 395 161q87 0 159 -25h-1q39 -13 71 -28.5t57 -32.5h-1q48 -35 85.5 -71.5t55.5 -61.5
l34 -56q-79 -10 -114 -34q-17 -13 -27 -23t-15 -20l-17 -33l-41 10q-1 1 -1 3v6q-3 5 -10 15t-24 31q-11 15 -23.5 28t-24.5 21q-28 21 -74 38.5t-100 17.5q-136 0 -221 -103q-87 -105 -87 -260q0 -148 86 -243h-1q85 -93 235 -93q47 0 88.5 13t67.5 30q26 19 44 38t26 32
q1 2 4.5 8t8 12.5t8 12t4.5 7.5q39 -40 91.5 -64t121.5 -31l-4.5 -9t-8 -15t-8.5 -15.5t-5 -9.5q-6 -6 -8 -10q-14 -22 -50 -58v1q-20 -21 -43 -40t-45 -34q-24 -16 -56 -29.5t-70 -27.5q-25 -8 -51.5 -13.5t-53.5 -8.5q-9 -8 -16 -13.5t-11 -9.5q-8 -8 -20.5 -25.5
t-27.5 -41.5t-22 -47.5t-7 -46.5q0 -41 28.5 -67.5t83.5 -26.5q17 0 31.5 2.5t23.5 6.5q6 5 15.5 13.5t19 16.5t16.5 14.5t8 7.5q-8 -49 -11.5 -72t-3.5 -32q0 -48 23 -67z" />
    <glyph glyph-name="uni04AE" unicode="&#x4ae;" horiz-adv-x="1291" 
d="M659 1023q66 106 130 207.5t130 207.5q29 50 45.5 108t17.5 121l43 10q6 -15 9.5 -21.5t5 -9t2.5 -3.5t3 -4v1l6 -9h-1q8 -10 27 -29.5t51 -46.5q31 -27 68 -49t82 -40l-8 -42q-92 -8 -140 -85l-354 -555v-573q0 -49 17 -90v1q19 -44 36 -63l-1 2l11 -11t19 -19.5
t19 -19.5l11 -11h-461q57 53 86 105.5t28 105.5v569q-89 141 -177 279.5t-177 279.5q-68 109 -224 225h468q-22 -22 -34 -40t-12 -31q0 -14 18 -50.5t44 -80.5z" />
    <glyph glyph-name="uni04AF" unicode="&#x4af;" horiz-adv-x="1117" 
d="M621 341q9 18 17 35.5t18.5 37.5t25 45t34.5 60q126 211 126 298q0 103 -140 188q29 5 64.5 17.5t66.5 39.5q31 28 63 95l39 -27q7 -5 17 -13.5t24 -21.5v1q14 -13 27 -28t24 -32h-1q12 -16 22.5 -38.5t18.5 -48.5t13 -55.5t5 -60.5q0 -84 -54 -202q-54 -119 -116 -216v1
q-30 -49 -58 -97.5t-55 -101.5q-12 -24 -22.5 -52t-19 -55t-13 -49.5t-4.5 -35.5v-265q1 -74 24 -139.5t72 -122.5h-436q46 46 58 63q5 8 8 26t12 47t14 61t5 65l-1 256q0 11 -10.5 41t-24.5 64t-27 64t-18 41l-259 648q-36 94 -154 183h471l-7 -7t-15 -15.5t-15 -15.5
l-7 -7q-2 -2 -5 -6.5t-9 -16.5q-4 -9 -7 -17.5t-5 -16.5h1q-2 -8 -3 -15.5t-1 -13.5q0 -17 3.5 -35.5t9.5 -37.5l-1 1q26 -68 51.5 -131t51 -125.5t51 -126t51.5 -130.5z" />
    <glyph glyph-name="uni04B0" unicode="&#x4b0;" horiz-adv-x="1291" 
d="M512 382l-203 1q-22 -5 -42 -8t-41.5 -9.5t-45.5 -18t-52 -31.5l76 328q22 -18 45.5 -27t48.5 -12.5t50.5 -3t51.5 0.5h141v178q-89 141 -177 279.5t-177 279.5q-68 109 -224 225h468q-22 -22 -34 -40t-12 -31q0 -14 18 -50.5t44 -80.5l212 -339q66 106 130 207.5
t130 207.5q29 50 45.5 108t17.5 121l43 10q6 -15 9.5 -21.5t5 -9t2.5 -3.5t3 -4v1l6 -9h-1q8 -10 27 -29.5t51 -46.5q31 -27 68 -49t82 -40l-8 -42q-92 -8 -140 -85l-354 -555v-182h190h72.5t56 3t50 10t56.5 21l-83 -323q-16 21 -35.5 34.5t-40 21.5t-39.5 11t-33 3
l-194 -1v-171q0 -49 17 -90v1q19 -44 36 -63l-1 2l11 -11t19 -19.5t19 -19.5l11 -11h-461q57 53 86 105.5t28 105.5v171h-29z" />
    <glyph glyph-name="uni04B1" unicode="&#x4b1;" horiz-adv-x="1117" 
d="M621 341q9 18 17 35.5t18.5 37.5t25 45t34.5 60q126 211 126 298q0 103 -140 188q29 5 64.5 17.5t66.5 39.5q31 28 63 95l39 -27q7 -5 17 -13.5t24 -21.5v1q14 -13 27 -28t24 -32h-1q12 -16 22.5 -38.5t18.5 -48.5t13 -55.5t5 -60.5q0 -84 -54 -202q-54 -119 -116 -216v1
q-30 -49 -58 -97.5t-55 -101.5q-12 -24 -22.5 -52t-19 -55t-13 -49.5t-4.5 -35.5v-23h129h72.5t56 3t50 10t56.5 21l-83 -306q-16 21 -35.5 34.5t-40 21.5t-39.5 11.5t-33 3.5h-133v-41q1 -74 24 -139.5t72 -122.5h-436q46 46 58 63q5 8 8 26t12 47t14 61t5 65v39l-187 2
q-22 -5 -42 -8.5t-41.5 -10t-45.5 -18t-52 -31.5l76 311q22 -18 45.5 -27t48.5 -12.5t50.5 -3t51.5 0.5h95v14q0 11 -10.5 41t-24.5 64t-27 64t-18 41l-259 648q-36 94 -154 183h471l-7 -7t-15 -15.5t-15 -15.5l-7 -7q-2 -2 -5 -6.5t-9 -16.5q-4 -9 -7 -17.5t-5 -16.5h1
q-2 -8 -3 -15.5t-1 -13.5q0 -17 3.5 -35.5t9.5 -37.5l-1 1q26 -68 51.5 -131t51 -125.5t51 -126t51.5 -130.5z" />
    <glyph glyph-name="uni04B2" unicode="&#x4b2;" horiz-adv-x="1498" 
d="M1015 0q23 23 33.5 40.5t10.5 31.5q0 34 -62 129l-254 397q-65 -101 -127.5 -198.5t-127.5 -198.5q-30 -47 -46 -79t-16 -50q0 -14 12 -32t34 -40h-468q7 5 23 16.5t37 28t44 36.5t44 43q20 23 39 48t39 54q97 150 188.5 293.5t188.5 293.5q-85 133 -168.5 263
t-168.5 263v-1q-37 56 -92 112t-131 114h468q-26 -26 -35 -42t-10 -30q0 -36 62 -130l213 -335q55 85 109 168t109 168q61 95 60 129q0 14 -10.5 31.5t-33.5 40.5l471 -1q-44 -32 -73.5 -53.5t-51 -40t-37.5 -37t-33 -43.5l-35 -51h1q-87 -134 -169.5 -262t-169.5 -262
q95 -148 189.5 -295t188.5 -294q15 -24 35.5 -50.5t41.5 -49.5q43 -48 59 -62q7 -8 17.5 -13t20.5 -8t18.5 -5t12.5 -3q-46 -45 -67 -88.5t-23.5 -83.5t11 -75.5t38.5 -64.5t57.5 -49.5t68.5 -30.5q-27 -14 -47.5 -21.5t-41 -16t-44.5 -20t-58 -32.5q-64 11 -103.5 43
t-58 74.5t-17 91t20.5 94.5t53.5 84t83.5 59z" />
    <glyph glyph-name="uni04B3" unicode="&#x4b3;" horiz-adv-x="1230" 
d="M703 0q33 21 57 38.5t30 33.5l-1 -1q3 8 -3 16l-180 254q-45 -63 -88 -124.5t-88 -124.5l2 2q-8 -13 -8 -24q0 -9 8 -17l53 -53h-445l-8 43q8 3 18 7t24 12q12 7 31 21t45 36q27 23 50 48t43 52l226 319q-56 80 -111 159t-111 158l1 -1q-18 26 -36 48.5t-36 41.5
q-36 39 -54 51q-5 3 -20.5 13t-32.5 20.5t-31 19t-16 9.5h499l-43 -42q-2 -4 -4.5 -13.5t-7.5 -30.5q-1 -5 -1 -8q0 -13 16 -32l132 -190l136 191l-1 -1q15 25 15 48q0 17 -7 25l-32 53l463 -1q-9 -6 -26.5 -17.5t-37.5 -26.5t-41 -32t-37 -34q-18 -19 -37 -43t-36 -49
l-222 -310l114 -162t114 -163v1q20 -27 42.5 -52t48.5 -47q50 -44 74 -57q29 -14 46 -21q-66 -63 -79.5 -117.5t6 -97t64 -72t95.5 -43.5q-39 0 -67.5 -4.5t-51 -15t-40.5 -26.5t-35 -39q-61 11 -99 37.5t-56.5 61.5t-17.5 74.5t18.5 77.5t50.5 70.5t79 52.5z" />
    <glyph glyph-name="uni04B6" unicode="&#x4b6;" horiz-adv-x="1275" 
d="M760 -2q115 107 115 211v482q-71 -39 -152.5 -56t-164 -12t-162 32t-145.5 76q-64 47 -113.5 117t-76.5 158t-28 191.5t33 217.5q0 130 -78 240l28 31q13 -7 30.5 -17t31.5 -17q25 -14 56 -28t73 -29q41 -15 91 -22t105 -7l-53 -62q-19 -20 -35 -59q-30 -75 -34.5 -155
t9.5 -152t43 -130.5t68 -90.5q49 -41 112 -60t128.5 -15t127 32t106.5 83v395q0 46 -18 88q-9 22 -18 36.5t-18 25.5l-51 60h454q-115 -106 -115 -210v-1143q-2 -18 3.5 -42t19.5 -49.5t38.5 -50.5t61.5 -44q-46 -45 -67 -88.5t-23.5 -83.5t11 -75.5t38.5 -64.5t57.5 -49.5
t68.5 -30.5q-27 -14 -47.5 -21.5t-41 -16t-44.5 -20t-58 -32.5q-64 11 -103.5 43.5t-58 76.5t-17 94.5t20.5 97.5t53.5 86t83.5 60z" />
    <glyph glyph-name="uni04B7" unicode="&#x4b7;" horiz-adv-x="1105" 
d="M1054 -2q-66 -63 -79.5 -117.5t6 -97t64 -72t95.5 -43.5q-39 0 -67.5 -4.5t-51 -15t-40.5 -26.5t-35 -39q-61 11 -99 40.5t-56.5 69t-17.5 84.5t18.5 87.5t50.5 78t79 55.5h-302q27 28 40.5 41t20.5 23t11.5 24.5t14.5 45.5q9 30 14 62t5 66v217q-31 -31 -101 -56.5
t-170 -25.5q-96 0 -173.5 31t-132 88t-83.5 137t-27 178q4 76 28 142.5t52.5 125.5t53.5 111.5t31 99.5q29 -33 59 -66t62.5 -57.5t69 -36.5t77.5 -3q-27 -20 -59.5 -44t-62 -59.5t-51.5 -86.5t-29 -124q1 -54 17.5 -96.5t45.5 -72t68 -45t84 -15.5q21 0 55 6.5t69.5 21.5
t67.5 38.5t49 58.5v116q0 53 -17.5 109t-52.5 103h369q-69 -95 -69 -198v-597q1 -148 99 -262z" />
    <glyph glyph-name="uni04B8" unicode="&#x4b8;" horiz-adv-x="1247" 
d="M542 1176l123 3l-1 -335q60 8 114.5 35t96.5 78v395q0 46 -18 88q-9 22 -18 36.5t-18 25.5l-51 60h454q-115 -106 -115 -210v-1143q0 -45 17 -90v1q20 -44 36 -62v1l11 -11t18.5 -19.5t18.5 -19.5l11 -11h-461q115 107 115 211v482q-49 -27 -102 -43.5t-109 -22.5v-256
l-123 -1v256q-78 7 -152.5 33.5t-137.5 73.5q-64 47 -113.5 117t-76.5 158t-28 191.5t33 217.5q0 130 -78 240l28 31q13 -7 30.5 -17t31.5 -17q25 -14 56 -28t73 -29q41 -15 91 -22t105 -7l-53 -62q-19 -20 -35 -59q-30 -75 -34.5 -155t9.5 -152t43 -130.5t68 -90.5
q60 -50 140 -68z" />
    <glyph glyph-name="uni04B9" unicode="&#x4b9;" 
d="M426 864l123 3l-1 -257q24 6 50 15.5t50 24t44.5 33.5t32.5 44v116q0 53 -17.5 109t-52.5 103h369q-69 -95 -69 -198v-597q1 -148 99 -262h-435q27 28 40.5 41t20.5 23t11.5 24.5t14.5 45.5q9 30 14 62t5 66v217q-23 -23 -69 -44t-110 -31v-197l-122 -1v192
q-89 5 -161 38t-122.5 89.5t-77.5 134t-25 171.5q4 76 28 142.5t52.5 125.5t53.5 111.5t31 99.5q29 -33 59 -66t62.5 -57.5t69 -36.5t77.5 -3q-27 -20 -59.5 -44t-62 -59.5t-51.5 -86.5t-29 -124q1 -90 44 -147.5t112 -74.5z" />
    <glyph glyph-name="uni04BA" unicode="&#x4ba;" horiz-adv-x="1247" 
d="M381 210q0 -46 18 -88q9 -22 18 -36.5t18 -25.5l51 -60h-454q115 106 115 210v1143q0 45 -17 90v-1q-20 44 -36 62v-1l-11 11t-18.5 19.5t-18.5 19.5l-11 11h461q-115 -107 -115 -211v-355q71 39 152.5 56t164 12t162 -32t145.5 -76q64 -47 112.5 -132.5t75.5 -194.5
t28 -233.5t-31 -250.5q0 -131 78 -240l-28 -31q-13 7 -30.5 17t-31.5 17q-25 14 -56 28t-73 29q-41 15 -91 22t-105 7l53 62q19 20 35 59q20 50 29.5 110t10 123t-7.5 125.5t-24 117.5t-39.5 100t-53.5 72q-45 41 -108 61.5t-129.5 17.5t-129.5 -30t-108 -82v-522z" />
    <glyph glyph-name="uni04BB" unicode="&#x4bb;" horiz-adv-x="1145" 
d="M37 0q26 26 40 41t19 22t12 24.5t16 46.5q9 30 14 62t5 66v1044q0 33 -5 63t-13 57q-18 56 -33 75l-47 63h328v-593l10 10t11 9q20 18 50 36.5t65 32.5q38 16 80.5 25t85.5 9q101 0 179 -33t136 -99q115 -130 115 -333q0 -126 -37 -249q-18 -63 -39 -114.5t-42 -92.5
q-21 -38 -39.5 -83t-32.5 -96q-23 -80 -23 -150q0 -9 1 -23t2 -24l-42 -11q-12 20 -24 33q-1 2 -3 4.5t-3 4.5l2 -4q-8 10 -25.5 26t-45.5 39t-64.5 45t-84.5 45l48 58h-1q11 13 25.5 35t34.5 54t39 67t36 72q18 36 32.5 78.5t27.5 90.5q27 100 27 195q0 112 -58 182
q-54 68 -160 68q-54 0 -103.5 -21.5t-81.5 -52.5t-55.5 -61t-34.5 -53l-4 -10t-4 -8v-410q1 -148 99 -262h-435z" />
    <glyph glyph-name="uni04C0" unicode="&#x4c0;" horiz-adv-x="540" 
d="M390 211q0 -45 17 -90v1q20 -44 36 -62v1l11 -11t18.5 -19.5t18.5 -19.5l11 -11h-461q115 107 115 211v1143q0 46 -18 88q-9 22 -18 36.5t-18 25.5l-51 60h454q-115 -106 -115 -210v-1143z" />
    <glyph glyph-name="uni04C1" unicode="&#x4c1;" horiz-adv-x="2010" 
d="M1672 2q-15 66 -32 136.5t-41 141.5t-56.5 139.5t-78.5 130.5t-107.5 114.5t-142.5 91.5q-11 -12 -24.5 -28.5t-27.5 -33.5t-28 -33.5t-25 -29.5v-418q0 -45 17 -90v1q20 -44 36 -62v1l11 -11t18.5 -19.5t18.5 -19.5l11 -11h-454q2 2 11.5 11t21 19.5t21 19.5t11.5 11v-1
q16 18 36 62v-1q17 45 17 90v418q-11 13 -23.5 29.5t-25.5 33.5t-25 33t-23 28q-79 -16 -136.5 -53.5t-99.5 -91t-71.5 -120t-53 -139.5t-44 -150t-44.5 -152t-54.5 -144.5t-74.5 -128.5q-31 47 -59.5 73t-58 39.5t-61.5 19t-69 10.5q56 60 93.5 125.5t65 134t49.5 138.5
t47 138.5t57.5 133.5t81 124t118 110t168.5 91q-94 105 -184 202t-182 201q-65 70 -116 122q-26 26 -44.5 43t-28.5 25l1 -1q-8 6 -13.5 10t-9.5 5l6 46h421q-3 -8 -8 -19.5t-10.5 -24.5t-10.5 -25t-9 -21q1 -24 23 -47q103 -118 204 -235.5t204 -235.5v398q0 105 -115 210
h454q-115 -105 -115 -210v-398q103 118 204 235.5t204 235.5q22 23 23 47q-4 9 -9 21t-10.5 25t-10.5 24.5t-8 19.5h421l6 -46q-4 -1 -9.5 -5t-13.5 -10l1 1q-10 -8 -28.5 -25t-44.5 -43q-52 -52 -116 -122q-46 -52 -90 -100t-87.5 -95.5t-87.5 -96t-91 -100.5
q114 -66 189.5 -129t125.5 -126t80 -127t53 -130.5t44 -136.5t53 -146l-3 -5q17 -32 34 -50q15 -16 25 -21t18 -8l-9 -43h-300zM1199 2041q1 -2 2.5 -8t2.5 -9q19 -45 52.5 -61t87.5 -16q-13 -62 -47.5 -109.5t-83 -79.5t-106.5 -48.5t-119 -17.5t-120.5 14t-111 45.5
t-90 77.5t-57.5 111q54 0 87 16t52 61q1 3 2.5 9t2.5 8l46 -5q0 -2 0.5 -4t0.5 -4q2 -7 6.5 -19t15.5 -34q25 -50 67 -73t88 -21t87.5 28t65.5 73q11 22 15.5 34t6.5 19q0 2 0.5 4t0.5 4z" />
    <glyph glyph-name="uni04C2" unicode="&#x4c2;" horiz-adv-x="1726" 
d="M208 874q-14 17 -35.5 36.5t-38.5 39.5h1q-24 22 -47.5 38.5t-31.5 20.5l-19 10l10 40h433l6 -46q-6 -2 -13 -8.5t-13 -15.5t-10 -20t-4 -20q0 -31 40 -77q12 -15 36 -47t54.5 -71.5t65 -83t68.5 -80.5v271q0 103 -69 198h369q-69 -95 -69 -198v-271q34 37 77.5 80.5
t85 83t74 71.5t45.5 47q40 46 40 77q0 9 -4 20t-10 20t-13 15.5t-13 8.5l6 46h433l10 -40l-19 -10q-8 -4 -30.5 -19.5t-48.5 -39.5h1q-18 -20 -39 -39.5t-35 -36.5l-195 -209q57 -51 102.5 -120.5t82.5 -143.5t68 -147t59 -132v1q13 -24 24.5 -38.5t21 -23t17.5 -12t14 -5.5
l-9 -43h-351q-7 67 -21 135t-38 133.5t-58.5 126.5t-82.5 115l-194 -209v-38q0 -75 19.5 -140t67.5 -122h-412h7q48 57 67.5 122t19.5 140v38l-165 213q-12 -18 -35 -45.5t-50.5 -61t-56 -72.5t-51.5 -81.5t-38 -87.5t-14 -90.5t19.5 -90t62.5 -85.5q-24 0 -48.5 -1.5
t-50 -12t-51.5 -33.5t-54 -66q-82 64 -112.5 140t-25 157t41.5 163.5t87.5 158.5t111.5 143t114 117zM1034 1555q1 -2 2.5 -8t2.5 -9q19 -45 52.5 -61t87.5 -16q-13 -62 -47.5 -109.5t-83 -79.5t-106.5 -48.5t-119 -17.5t-120.5 14t-111 45.5t-90 77.5t-57.5 111q54 0 87 16
t52 61q1 3 2.5 9t2.5 8l46 -5q0 -2 0.5 -4t0.5 -4q2 -7 6.5 -19t15.5 -34q25 -50 67 -73t88 -21t87.5 28t65.5 73q11 22 15.5 34t6.5 19q0 2 0.5 4t0.5 4z" />
    <glyph glyph-name="uni04CF" unicode="&#x4cf;" horiz-adv-x="512" 
d="M40 0q34 25 51.5 54t26 62t11 69.5t6.5 76.5v1044q0 33 -5 63t-13 57q-18 56 -33 75l-47 63h423q-11 -18 -27.5 -42t-31.5 -53.5t-25.5 -64.5t-10.5 -75v-1067q1 -75 20.5 -140t67.5 -122h-413z" />
    <glyph glyph-name="uni04D0" unicode="&#x4d0;" horiz-adv-x="1433" 
d="M540 693q193 -96 438 -107q-15 97 -29 191t-28.5 188t-29 188.5t-29.5 192.5q-97 -5 -143 -49q-53 -51 -77 -159zM1011 374q-147 2 -275.5 28t-243.5 76q-26 -113 -50.5 -226.5t-50.5 -226.5q-8 -38 -13 -100t-6 -143q-2 3 -11.5 13t-21 22.5t-22 24t-14.5 16.5
q-9 9 -26.5 20.5t-43.5 25.5q-51 28 -151 31q77 81 104 201l102 458q-45 32 -83 67.5t-73 75.5q-36 42 -59.5 75.5t-37.5 60.5l-40 82q60 0 87 34q32 38 38 97l42 5q3 -8 9 -23.5t13 -29.5v1q8 -17 24 -42t41 -60v1q41 -57 91 -107q21 87 41.5 174.5t40.5 174.5
q50 210 166 297q118 87 335 87h248q-16 -19 -30.5 -37.5t-16.5 -21.5q-5 -5 -10 -21t-10 -37q-3 -12 -5 -27t-2 -30q0 -16 3 -34l166 -1090q5 -38 14.5 -72.5t20.5 -61.5q24 -55 40 -72v1l60 -61h-443q11 8 22.5 16.5t21 16t16 12.5t7.5 7q2 3 6 14.5t9 28.5q7 20 5 40
q0 15 -3 39v-1zM1023 2042q1 -2 2.5 -8t2.5 -9q19 -45 52.5 -61t87.5 -16q-13 -62 -47.5 -109.5t-83 -79.5t-106.5 -48.5t-119 -17.5t-120.5 14t-111 45.5t-90 77.5t-57.5 111q54 0 87 16t52 61q1 3 2.5 9t2.5 8l46 -5q0 -2 0.5 -4t0.5 -4q2 -7 6.5 -19t15.5 -34
q25 -50 67 -73t88 -21t87.5 28t65.5 73q11 22 15.5 34t6.5 19q0 2 0.5 4t0.5 4z" />
    <glyph glyph-name="uni04D1" unicode="&#x4d1;" horiz-adv-x="1117" 
d="M539 179q64 0 115 22q26 11 44 22t27 19h-1q11 11 16.5 15t10.5 14v572h-31q-193 0 -325 -102q-128 -99 -128 -281q0 -130 73 -206q72 -75 199 -75zM751 0v23q-51 -29 -108.5 -44t-120.5 -15q-206 0 -345 135q-140 135 -140 361q0 130 50 240t141 192q94 78 221.5 121.5
t282.5 43.5h320q-70 -94 -70 -198v-597q2 -150 99 -262h-330zM833 1555q1 -2 2.5 -8t2.5 -9q19 -45 52.5 -61t87.5 -16q-13 -62 -47.5 -109.5t-83 -79.5t-106.5 -48.5t-119 -17.5t-120.5 14t-111 45.5t-90 77.5t-57.5 111q54 0 87 16t52 61q1 3 2.5 9t2.5 8l46 -5
q0 -2 0.5 -4t0.5 -4q2 -7 6.5 -19t15.5 -34q25 -50 67 -73t88 -21t87.5 28t65.5 73q11 22 15.5 34t6.5 19q0 2 0.5 4t0.5 4z" />
    <glyph glyph-name="uni04D2" unicode="&#x4d2;" horiz-adv-x="1433" 
d="M540 693q193 -96 438 -107q-15 97 -29 191t-28.5 188t-29 188.5t-29.5 192.5q-97 -5 -143 -49q-53 -51 -77 -159zM1011 374q-147 2 -275.5 28t-243.5 76q-26 -113 -50.5 -226.5t-50.5 -226.5q-8 -38 -13 -100t-6 -143q-2 3 -11.5 13t-21 22.5t-22 24t-14.5 16.5
q-9 9 -26.5 20.5t-43.5 25.5q-51 28 -151 31q77 81 104 201l102 458q-45 32 -83 67.5t-73 75.5q-36 42 -59.5 75.5t-37.5 60.5l-40 82q60 0 87 34q32 38 38 97l42 5q3 -8 9 -23.5t13 -29.5v1q8 -17 24 -42t41 -60v1q41 -57 91 -107q21 87 41.5 174.5t40.5 174.5
q50 210 166 297q118 87 335 87h248q-16 -19 -30.5 -37.5t-16.5 -21.5q-5 -5 -10 -21t-10 -37q-3 -12 -5 -27t-2 -30q0 -16 3 -34l166 -1090q5 -38 14.5 -72.5t20.5 -61.5q24 -55 40 -72v1l60 -61h-443q11 8 22.5 16.5t21 16t16 12.5t7.5 7q2 3 6 14.5t9 28.5q7 20 5 40
q0 15 -3 39v-1zM888 1692q-19 19 -28 42.5t-9 49.5q0 25 9 48t28 43q19 19 43 29t49 10q50 0 91 -39q38 -40 38 -91q0 -25 -9.5 -49t-28.5 -43q-20 -19 -43 -27.5t-48 -8.5q-26 0 -49.5 8.5t-42.5 27.5zM500 1692q-20 19 -29.5 42.5t-9.5 49.5t9 49t29 43q38 38 92 38
q52 0 91 -39q37 -40 37 -91q0 -26 -9 -49.5t-28 -42.5q-36 -36 -91 -36q-56 0 -92 36h1z" />
    <glyph glyph-name="uni04D3" unicode="&#x4d3;" horiz-adv-x="1117" 
d="M539 179q64 0 115 22q26 11 44 22t27 19h-1q11 11 16.5 15t10.5 14v572h-31q-193 0 -325 -102q-128 -99 -128 -281q0 -130 73 -206q72 -75 199 -75zM751 0v23q-51 -29 -108.5 -44t-120.5 -15q-206 0 -345 135q-140 135 -140 361q0 130 50 240t141 192q94 78 221.5 121.5
t282.5 43.5h320q-70 -94 -70 -198v-597q2 -150 99 -262h-330zM305 1238q-20 19 -29.5 42.5t-9.5 49.5t9 49t29 43q19 19 42.5 28t49.5 9q51 0 91 -38q38 -40 38 -91q0 -25 -9.5 -49t-28.5 -43q-20 -19 -43 -28t-48 -9q-26 0 -49.5 9t-42.5 28h1zM708 1242q-20 19 -29 42.5
t-9 49.5t8.5 49t28.5 43q37 37 92 37q53 0 91 -38q18 -20 28 -42.5t10 -48.5t-9.5 -49.5t-28.5 -42.5q-37 -37 -91 -37q-55 0 -92 37h1z" />
    <glyph glyph-name="uni04D4" unicode="&#x4d4;" horiz-adv-x="2095" 
d="M553 693q94 -48 202.5 -75t233.5 -32v760h-71q-126 0 -182 -52q-59 -54 -84 -162v1zM989 374q-135 5 -254.5 31t-229.5 74q-26 -113 -51 -226.5t-51 -227.5q-8 -38 -12.5 -100t-5.5 -143q-3 3 -12.5 13t-20.5 22.5t-21.5 24t-15.5 16.5q-8 9 -26 20.5t-43 25.5
q-51 28 -152 31q38 41 64.5 91t39.5 110l103 458q-45 32 -83.5 67.5t-73.5 75.5q-71 83 -96 136l-41 82q61 0 88 34q32 40 38 97l41 5q3 -8 9.5 -23.5t12.5 -29.5v1q8 -17 24 -42t41 -60v1q42 -58 92 -107q20 87 40.5 174.5t40.5 174.5v-1q48 210 164 297q121 88 334 88
h1101l-12.5 -12.5l-21 -21l-22.5 -22.5t-15 -16q-17 -20 -50 -81q-16 -29 -25.5 -77t-14.5 -113q-16 26 -31.5 50.5t-20.5 30.5q-5 5 -18 12t-33 15t-44.5 12.5t-54.5 4.5h-368q-42 0 -60.5 -17t-18.5 -64v-330h338q159 0 254 87q-8 -61 -12 -110.5t-4 -84.5q1 -17 2.5 -44
t3 -55.5t3 -55t2.5 -43.5q-84 87 -271 87h-316v-416q0 -45 18.5 -63.5t60.5 -18.5h408q57 0 97 14.5t52 28.5q2 3 10 14.5t17 25t17 25t9 13.5q6 -82 23.5 -137.5t34.5 -78.5q8 -11 18 -21t23 -22l-1 1q25 -20 36 -27t22 -11l-8 -43h-1186q115 107 115 211v163z" />
    <glyph glyph-name="uni04D5" unicode="&#x4d5;" horiz-adv-x="1754" 
d="M390 179q106 0 183 84h-1q35 38 55.5 92t26.5 119q-29 -6 -74 -14t-107 -18q-60 -10 -103 -23t-71 -32q-48 -30 -48 -102q0 -46 38 -75q20 -17 45 -24t56 -7zM969 780q-79 -95 -82 -239q138 49 268 95t270 95q-32 65 -94 106t-146 41q-133 0 -216 -98zM932 340
q42 -77 115 -119t168 -42q35 0 67.5 6.5t61.5 20.5q60 26 96 59q36 34 63 78q14 22 23 38t14 27q5 10 8.5 20.5t6.5 18.5l44 -7q0 -15 3.5 -43t26.5 -73v1q25 -43 82 -68l-28 -51q-6 -10 -20.5 -27t-34.5 -40q-20 -22 -44 -43.5t-50 -38.5t-60 -33.5t-77 -30.5t-87.5 -21.5
t-92.5 -7.5q-140 0 -254.5 52.5t-192.5 152.5q-68 -99 -167.5 -152t-210.5 -53q-156 0 -262 85q-109 87 -109 238q0 315 426 371q69 8 119 19t77 22q41 19 41 54q0 81 -257 80q-25 -4 -59.5 -9t-70.5 -11t-70 -11t-57 -9q143 171 167 344l41 5q5 -11 13.5 -26.5t35.5 -38.5
q32 -21 70 -28q50 -9 85 -17t53 -13q19 -4 44 -12.5t55 -19.5l-1 1q25 -9 45.5 -20t37.5 -22q142 148 361 147q211 0 348 -134q136 -134 173 -354z" />
    <glyph glyph-name="uni04D6" unicode="&#x4d6;" horiz-adv-x="1267" 
d="M144 1354q0 46 -18 88q-9 22 -18.5 36.5t-17.5 25.5l-51 60h1149l-12.5 -12.5l-21 -21t-22 -22.5t-15.5 -16q-9 -11 -21 -30.5t-28 -50.5q-17 -29 -26.5 -77t-14.5 -113q-16 26 -30.5 50t-19.5 29t-17 12.5t-34 15.5q-44 18 -102 18h-367q-42 0 -60.5 -17t-18.5 -64v-330
h338q158 0 253 87q-15 -122 -15 -195q1 -17 2 -44t2.5 -55.5t3 -55t2.5 -43.5q-84 87 -270 87h-316v-416q0 -45 18 -63.5t61 -18.5h407q56 0 96.5 14.5t54.5 28.5q1 2 8.5 13.5t16.5 24t16.5 23.5t9.5 13q11 -103 46.5 -174t89.5 -106q5 -2 13.5 -7t13.5 -7l-10 -41h-1190
q115 107 115 211v1143zM825 2039q1 -2 2.5 -8t2.5 -9q19 -45 52.5 -61t87.5 -16q-13 -62 -47.5 -109.5t-83 -79.5t-106.5 -48.5t-119 -17.5t-120.5 14t-111 45.5t-90 77.5t-57.5 111q54 0 87 16t52 61q1 3 2.5 9t2.5 8l46 -5q0 -2 0.5 -4t0.5 -4q2 -7 6.5 -19t15.5 -34
q25 -50 67 -73t88 -21t87.5 28t65.5 73q11 22 15.5 34t6.5 19q0 2 0.5 4t0.5 4z" />
    <glyph glyph-name="uni04D7" unicode="&#x4d7;" horiz-adv-x="1117" 
d="M340 780q-80 -97 -83 -239q69 25 135.5 48.5t132.5 47t133 47t138 47.5q-32 65 -94 106t-146 41q-133 0 -216 -98zM303 340q42 -77 115 -119t168 -42q98 0 175.5 50.5t131.5 142.5q8 18 17.5 40t17.5 40l43 -8q0 -9 0.5 -22.5t5.5 -36.5q2 -12 6 -23t9 -23q8 -20 31 -43
t60 -39l-29 -51q-6 -10 -20 -27t-35 -40q-20 -22 -44 -43.5t-50 -38.5t-60 -33.5t-76 -30.5q-87 -29 -181 -29q-244 0 -402 155q-159 156 -159 411q0 120 36 219t108 181q148 163 377 163q211 0 348 -134q136 -134 173 -354zM763 1555q1 -2 2.5 -8t2.5 -9q19 -45 52.5 -61
t87.5 -16q-13 -62 -47.5 -109.5t-83 -79.5t-106.5 -48.5t-119 -17.5t-120.5 14t-111 45.5t-90 77.5t-57.5 111q54 0 87 16t52 61q1 3 2.5 9t2.5 8l46 -5q0 -2 0.5 -4t0.5 -4q2 -7 6.5 -19t15.5 -34q25 -50 67 -73t88 -21t87.5 28t65.5 73q11 22 15.5 34t6.5 19q0 2 0.5 4
t0.5 4z" />
    <glyph glyph-name="uni04D8" unicode="&#x4d8;" horiz-adv-x="1324" 
d="M1026 935q-15 83 -48.5 153.5t-79.5 128.5q-105 144 -283 144q-29 0 -56.5 -4.5t-52 -11.5t-45 -16.5t-33.5 -19.5q-14 -8 -26.5 -19t-24.5 -24q-21 -23 -27 -31.5t-8 -12.5q-3 -6 -12 -16t-20 -20q-34 77 -75 107q-20 15 -33.5 23.5t-21.5 10.5v-1q-4 1 -7 2l-6 2
t-12.5 2.5t-20.5 3.5t-20 3.5t-11 1.5l66 65q188 173 448 173q70 0 132 -15.5t116.5 -41.5t102 -60.5t90.5 -72.5l-6 4q50 -49 90.5 -116.5t70.5 -148.5t45.5 -172t15.5 -190q0 -357 -189 -580q-146 -170 -359 -212q-84 -2 -155 9.5t-131 37t-111 66t-95 96.5
q-46 59 -74.5 132t-45.5 151t-26 155t-16.5 143.5t-17 117.5t-27.5 76q34 -8 65.5 -12.5t64.5 -7t71.5 -4t88.5 -1.5zM305 727q1 -92 17.5 -182.5t54 -164t99.5 -123t155 -58.5q69 -8 141.5 22.5t140.5 108.5q57 70 89 172t37 225h-734z" />
    <glyph glyph-name="afii10846" unicode="&#x4d9;" 
d="M656 202q51 32 87 84t59 117q-70 -2 -137 -2.5t-133.5 -0.5t-134 -0.5t-138.5 -0.5q1 -43 21 -82t52.5 -70t73.5 -51.5t84.5 -28t86.5 0t79 34.5zM799 586q-14 70 -37 123t-58 89t-84.5 56t-115.5 24q-72 -9 -113.5 -26.5t-67 -38.5t-41.5 -43t-35 -40q-18 33 -33 51.5
t-33 29t-43 16t-64 13.5q35 51 71 92.5t83 73.5t110.5 54t154.5 33q237 0 395 -161q54 -56 89.5 -127t52 -149.5t12.5 -161t-28 -160.5q-36 -109 -98.5 -188t-152.5 -133q-43 -29 -107 -43t-134.5 -12t-140 19.5t-122.5 50.5q-68 42 -114.5 105.5t-72 138.5t-31 156t9.5 158
h748z" />
    <glyph glyph-name="uni04DA" unicode="&#x4da;" horiz-adv-x="1324" 
d="M317 933q-50 0 -88.5 1.5t-71.5 4t-64.5 7t-65.5 12.5q18 -25 27.5 -76t17 -117.5t16.5 -143.5t26 -155t45.5 -151t74.5 -132q44 -56 95 -96.5t111 -66t131 -37t155 -9.5q213 42 359 212q189 223 189 580q0 99 -15.5 190t-45.5 172t-70.5 148.5t-90.5 116.5l6 -4
q-43 38 -90.5 72.5t-102 60.5t-116.5 41.5t-132 15.5q-260 0 -448 -173l-66 -65q2 0 11 -1.5t20 -3.5t20.5 -3.5t12.5 -2.5l6 -2t7 -2v1q8 -2 21.5 -10.5t33.5 -23.5q41 -30 75 -107q11 10 20 20t12 16q2 4 8 12.5t27 31.5q12 13 24.5 24t26.5 19q13 10 33.5 19.5t45 16.5
t52 11.5t56.5 4.5q178 0 283 -144q46 -58 79.5 -128.5t48.5 -153.5zM1039 727q2 -64 -10 -129.5t-36.5 -126.5t-60.5 -113.5t-82 -90t-101.5 -56.5t-117.5 -12q-93 9 -155 58.5t-99.5 123t-54 164t-17.5 182.5h734zM725 1685q-19 19 -28 42.5t-9 49.5q0 25 9 48t28 43
q19 19 43 29t49 10q50 0 91 -39q38 -40 38 -91q0 -25 -9.5 -49t-28.5 -43q-20 -19 -43 -27.5t-48 -8.5q-26 0 -49.5 8.5t-42.5 27.5zM337 1685q-20 19 -29.5 42.5t-9.5 49.5t9 49t29 43q38 38 92 38q52 0 91 -39q37 -40 37 -91q0 -26 -9 -49.5t-28 -42.5q-36 -36 -91 -36
q-56 0 -92 36h1z" />
    <glyph glyph-name="uni04DB" unicode="&#x4db;" 
d="M656 202q-36 -27 -79 -34.5t-86.5 0t-84.5 28t-73.5 51.5t-52.5 70t-21 82q71 0 138.5 0.5t134 0.5t133.5 0.5t137 2.5q-23 -65 -59 -117t-87 -84zM51 586q-15 -77 -9.5 -158t31 -156t72 -138.5t114.5 -105.5q53 -33 122.5 -50.5t140 -19.5t134.5 12t107 43
q90 54 152.5 133t98.5 188q24 78 28 160.5t-12.5 161t-52 149.5t-89.5 127q-158 161 -395 161q-91 -11 -154.5 -33t-110.5 -54t-83 -73.5t-71 -92.5q39 -8 64 -13.5t43 -16t33 -29t33 -51.5q19 18 35 40t41.5 43t67 38.5t113.5 26.5q66 -4 115.5 -24t84.5 -56t58 -89
t37 -123h-748zM212 1238q-20 19 -29.5 42.5t-9.5 49.5t9 49t29 43q19 19 42.5 28t49.5 9q51 0 91 -38q38 -40 38 -91q0 -25 -9.5 -49t-28.5 -43q-20 -19 -43 -28t-48 -9q-26 0 -49.5 9t-42.5 28h1zM615 1242q-20 19 -29 42.5t-9 49.5t8.5 49t28.5 43q37 37 92 37
q53 0 91 -38q18 -20 28 -42.5t10 -48.5t-9.5 -49.5t-28.5 -42.5q-37 -37 -91 -37q-55 0 -92 37h1z" />
    <glyph glyph-name="uni04DC" unicode="&#x4dc;" horiz-adv-x="2010" 
d="M1972 2l9 43q-8 3 -18 8t-25 21q-17 18 -34 50l3 5q-32 76 -53 146t-44 136.5t-53 130.5t-80 127t-125.5 126t-189.5 129q47 52 91 100.5t87.5 96t87.5 95.5t90 100q64 70 116 122q26 26 44.5 43t28.5 25l-1 -1q8 6 13.5 10t9.5 5l-6 46h-421q3 -8 8 -19.5t10.5 -24.5
t10.5 -25t9 -21q-1 -24 -23 -47q-103 -118 -204 -235.5t-204 -235.5v398q0 105 115 210h-454q115 -105 115 -210v-398q-103 118 -204 235.5t-204 235.5q-22 23 -23 47q4 9 9 21t10.5 25t10.5 24.5t8 19.5h-421l-6 -46q4 -1 9.5 -5t13.5 -10l-1 1q10 -8 28.5 -25t44.5 -43
q51 -52 116 -122q92 -104 182 -201t184 -202q-99 -40 -168.5 -91t-118 -110t-81 -124t-57.5 -133.5t-47 -138.5t-49.5 -138.5t-65 -134t-93.5 -125.5q37 -5 69 -10.5t61.5 -19t58 -39.5t59.5 -73q44 59 74.5 128.5t54.5 144.5t44.5 152t44 150t53 139.5t71.5 120t99.5 91
t136.5 53.5q11 -12 23 -28t25 -33t25.5 -33.5t23.5 -29.5v-418q0 -45 -17 -90v1q-20 -44 -36 -62v1q-2 -2 -11.5 -11t-21 -19.5t-21 -19.5t-11.5 -11h454l-11 11t-18.5 19.5t-18.5 19.5l-11 11v-1q-16 18 -36 62v-1q-17 45 -17 90v418q11 13 25 29.5t28 33.5t27.5 33.5
t24.5 28.5q81 -39 142.5 -91.5t107.5 -114.5t78.5 -130.5t56.5 -139.5t41 -141.5t32 -136.5h300zM1095 1695q-19 19 -28 42.5t-9 49.5q0 25 9 48t28 43q19 19 43 29t49 10q50 0 91 -39q38 -40 38 -91q0 -25 -9.5 -49t-28.5 -43q-20 -19 -43 -27.5t-48 -8.5q-26 0 -49.5 8.5
t-42.5 27.5zM707 1695q-20 19 -29.5 42.5t-9.5 49.5t9 49t29 43q38 38 92 38q52 0 91 -39q37 -40 37 -91q0 -26 -9 -49.5t-28 -42.5q-36 -36 -91 -36q-56 0 -92 36h1z" />
    <glyph glyph-name="uni04DD" unicode="&#x4dd;" horiz-adv-x="1726" 
d="M208 874q-14 17 -35.5 36.5t-38.5 39.5h1q-24 22 -47.5 38.5t-31.5 20.5l-19 10l10 40h433l6 -46q-6 -2 -13 -8.5t-13 -15.5t-10 -20t-4 -20q0 -31 40 -77q12 -15 36 -47t54.5 -71.5t65 -83t68.5 -80.5v271q0 103 -69 198h369q-69 -95 -69 -198v-271q34 37 77.5 80.5
t85 83t74 71.5t45.5 47q40 46 40 77q0 9 -4 20t-10 20t-13 15.5t-13 8.5l6 46h433l10 -40l-19 -10q-8 -4 -30.5 -19.5t-48.5 -39.5h1q-18 -20 -39 -39.5t-35 -36.5l-195 -209q57 -51 102.5 -120.5t82.5 -143.5t68 -147t59 -132v1q13 -24 24.5 -38.5t21 -23t17.5 -12t14 -5.5
l-9 -43h-351q-7 67 -21 135t-38 133.5t-58.5 126.5t-82.5 115l-194 -209v-38q0 -75 19.5 -140t67.5 -122h-412h7q48 57 67.5 122t19.5 140v38l-165 213q-12 -18 -35 -45.5t-50.5 -61t-56 -72.5t-51.5 -81.5t-38 -87.5t-14 -90.5t19.5 -90t62.5 -85.5q-24 0 -48.5 -1.5
t-50 -12t-51.5 -33.5t-54 -66q-82 64 -112.5 140t-25 157t41.5 163.5t87.5 158.5t111.5 143t114 117zM526 1243q-20 19 -29.5 42.5t-9.5 49.5t9 49t29 43q19 19 42.5 28t49.5 9q51 0 91 -38q38 -40 38 -91q0 -25 -9.5 -49t-28.5 -43q-20 -19 -43 -28t-48 -9q-26 0 -49.5 9
t-42.5 28h1zM929 1247q-20 19 -29 42.5t-9 49.5t8.5 49t28.5 43q37 37 92 37q53 0 91 -38q18 -20 28 -42.5t10 -48.5t-9.5 -49.5t-28.5 -42.5q-37 -37 -91 -37q-55 0 -92 37h1z" />
    <glyph glyph-name="uni04DE" unicode="&#x4de;" horiz-adv-x="1357" 
d="M591 854q28 -1 59 -4.5t61 -8t57.5 -11t48.5 -13.5q71 -24 122 -62t84 -85t48.5 -99.5t15.5 -104.5q0 -137 -114 -221q-117 -84 -319 -84q-87 0 -159.5 17.5t-123.5 47.5q-48 32 -73.5 76.5t-25.5 101.5q0 32 7.5 60.5t27.5 46.5q22 20 45 25t45.5 0t43 -18t36.5 -30
t27 -36t14 -35q12 42 25.5 71t29.5 43q15 14 26 22t19.5 12t15 5.5t11.5 2.5h12t16.5 0.5t15 0.5h6.5l-47 57q-31 36 -68.5 65t-79.5 47.5t-88.5 24t-95.5 -4.5q-96 -21 -170 -89q-108 -99 -108 -270q0 -211 176 -336q174 -123 440 -123q294 0 478 143q188 146 188 378
q0 91 -28.5 168.5t-78.5 140t-120 108.5t-152 76q55 21 101 48.5t79.5 64.5t52 84.5t18.5 108.5q0 153 -110 246q-111 93 -283 93q-43 0 -89 -7.5t-97 -21.5q-48 -13 -89 -20t-76 -7q-37 0 -72 16t-53 32l1 -1l-11 11t-19 18.5t-19 18t-11 10.5q-2 -178 -74 -231l-23 -21
q118 -88 266 -87q88 0 206 37q114 35 160 35q76 0 111.5 -30.5t36.5 -90.5q2 -38 -15 -71.5t-47.5 -61t-70.5 -49.5t-83.5 -35.5t-87.5 -18.5t-82 1q8 -24 14 -52q5 -24 10 -56t6 -68zM780 1727q-19 19 -28 42.5t-9 49.5q0 25 9 48t28 43q19 19 43 29t49 10q50 0 91 -39
q38 -40 38 -91q0 -25 -9.5 -49t-28.5 -43q-20 -19 -43 -27.5t-48 -8.5q-26 0 -49.5 8.5t-42.5 27.5zM392 1727q-20 19 -29.5 42.5t-9.5 49.5t9 49t29 43q38 38 92 38q52 0 91 -39q37 -40 37 -91q0 -26 -9 -49.5t-28 -42.5q-36 -36 -91 -36q-56 0 -92 36h1z" />
    <glyph glyph-name="uni04DF" unicode="&#x4df;" horiz-adv-x="1003" 
d="M286 683q10 -13 20 -37t15 -53t4.5 -60t-10.5 -57q15 1 36 3t44.5 3.5l47 3t42.5 1.5q48 2 92 -3.5t76 -24.5q32 -18 51.5 -48t24.5 -68q6 -52 -24.5 -87.5t-80.5 -53t-113 -16.5t-122 22t-107 62.5t-69 105.5q-13 -20 -22.5 -39.5t-27.5 -39.5t-49.5 -41.5t-87.5 -44.5
q31 -63 88.5 -110t130 -77t155 -43t163.5 -8t155 29.5t129.5 69t88 109t29.5 151.5q-1 37 -13 72.5t-33 67.5t-49.5 59.5t-61.5 47.5q34 13 58 36.5t38.5 53t20.5 63.5t5 68q-2 66 -27 116.5t-69.5 84.5t-105.5 50t-135 13q-55 -3 -102 -8.5t-87 1t-72 33t-57 87.5
q-21 -47 -40.5 -77.5t-36 -49t-29.5 -27t-21 -10.5l-48 -20q6 -15 23.5 -41t56.5 -50t104.5 -39.5t167.5 -10.5q17 1 41.5 4t51.5 5t53.5 1.5t48.5 -7.5t36.5 -21.5t16.5 -40.5q3 -39 -17 -67t-54.5 -45t-78.5 -24.5t-89 -5.5q-21 1 -45.5 3.5t-48.5 6.5t-45.5 9.5
t-35.5 12.5zM213 1271q-20 19 -29.5 42.5t-9.5 49.5t9 49t29 43q19 19 42.5 28t49.5 9q51 0 91 -38q38 -40 38 -91q0 -25 -9.5 -49t-28.5 -43q-20 -19 -43 -28t-48 -9q-26 0 -49.5 9t-42.5 28h1zM616 1275q-20 19 -29 42.5t-9 49.5t8.5 49t28.5 43q37 37 92 37q53 0 91 -38
q18 -20 28 -42.5t10 -48.5t-9.5 -49.5t-28.5 -42.5q-37 -37 -91 -37q-55 0 -92 37h1z" />
    <glyph glyph-name="uni04E2" unicode="&#x4e2;" horiz-adv-x="1355" 
d="M972 1360q0 23 -5 42t-15 40q-8 22 -17.5 36.5t-17.5 25.5l-52 60h455q-115 -105 -115 -210v-1143q0 -49 17 -90v1q20 -44 36 -62v1l11 -11t18.5 -19.5t18.5 -19.5l11 -11h-461q115 107 115 211l1 796l-598 -796q0 -101 -24 -185q-11 -41 -21.5 -69t-20.5 -43l-46 -60
q-11 20 -20.5 34t-14.5 22q-10 13 -52 46q-20 15 -53 28.5t-78 26.5q96 112 96 219v1063q0 47 -19 88q-8 21 -17 35.5t-18 24.5l-50 59q60 3 110.5 11.5t92.5 23.5q42 16 72.5 28t45.5 20q16 8 31.5 18t26.5 18l30 -38q-6 -6 -20.5 -33t-33.5 -84q-9 -29 -13 -56.5t-4 -55.5
v-786l599 776zM382 1706v191h649v-191h-649z" />
    <glyph glyph-name="uni04E3" unicode="&#x4e3;" horiz-adv-x="1182" 
d="M816 859q0 104 -70 198h369q-69 -95 -69 -198v-597q1 -148 99 -262h-435q26 26 40 41t19 22t12 24.5t16 46.5q9 30 14 62t5 66v293l-445 -331v-13q0 -37 6.5 -64t19 -50.5t31 -46t42.5 -50.5h-435q26 26 40 41t19 22t12 24.5t16 46.5q9 30 14 62t5 66v597q0 104 -70 198
h369q-69 -95 -69 -198v-347l445 318v29zM271 1205v191h648v-191h-648z" />
    <glyph glyph-name="uni04E4" unicode="&#x4e4;" horiz-adv-x="1355" 
d="M972 1360q0 23 -5 42t-15 40q-8 22 -17.5 36.5t-17.5 25.5l-52 60h455q-115 -105 -115 -210v-1143q0 -49 17 -90v1q20 -44 36 -62v1l11 -11t18.5 -19.5t18.5 -19.5l11 -11h-461q115 107 115 211l1 796l-598 -796q0 -101 -24 -185q-11 -41 -21.5 -69t-20.5 -43l-46 -60
q-11 20 -20.5 34t-14.5 22q-10 13 -52 46q-20 15 -53 28.5t-78 26.5q96 112 96 219v1063q0 47 -19 88q-8 21 -17 35.5t-18 24.5l-50 59q60 3 110.5 11.5t92.5 23.5q42 16 72.5 28t45.5 20q16 8 31.5 18t26.5 18l30 -38q-6 -6 -20.5 -33t-33.5 -84q-9 -29 -13 -56.5t-4 -55.5
v-786l599 776zM799 1715q-19 19 -28 42.5t-9 49.5q0 25 9 48t28 43q19 19 43 29t49 10q50 0 91 -39q38 -40 38 -91q0 -25 -9.5 -49t-28.5 -43q-20 -19 -43 -27.5t-48 -8.5q-26 0 -49.5 8.5t-42.5 27.5zM411 1715q-20 19 -29.5 42.5t-9.5 49.5t9 49t29 43q38 38 92 38
q52 0 91 -39q37 -40 37 -91q0 -26 -9 -49.5t-28 -42.5q-36 -36 -91 -36q-56 0 -92 36h1z" />
    <glyph glyph-name="uni04E5" unicode="&#x4e5;" horiz-adv-x="1182" 
d="M816 859q0 104 -70 198h369q-69 -95 -69 -198v-597q1 -148 99 -262h-435q26 26 40 41t19 22t12 24.5t16 46.5q9 30 14 62t5 66v293l-445 -331v-13q0 -37 6.5 -64t19 -50.5t31 -46t42.5 -50.5h-435q26 26 40 41t19 22t12 24.5t16 46.5q9 30 14 62t5 66v597q0 104 -70 198
h369q-69 -95 -69 -198v-347l445 318v29zM290 1238q-20 19 -29.5 42.5t-9.5 49.5t9 49t29 43q19 19 42.5 28t49.5 9q51 0 91 -38q38 -40 38 -91q0 -25 -9.5 -49t-28.5 -43q-20 -19 -43 -28t-48 -9q-26 0 -49.5 9t-42.5 28h1zM693 1242q-20 19 -29 42.5t-9 49.5t8.5 49
t28.5 43q37 37 92 37q53 0 91 -38q18 -20 28 -42.5t10 -48.5t-9.5 -49.5t-28.5 -42.5q-37 -37 -91 -37q-55 0 -92 37h1z" />
    <glyph glyph-name="uni04E6" unicode="&#x4e6;" horiz-adv-x="1421" 
d="M999 333q54 81 81.5 192t27.5 257q0 289 -109 449q-107 155 -289 155q-181 0 -288 -155q-109 -160 -109 -449q0 -146 27.5 -257t81.5 -192q106 -154 288 -154q183 0 289 154zM79 782q0 378 177 599h-1q178 223 455 223q278 0 456 -223h-1q177 -221 177 -599
q0 -380 -173 -599q-175 -223 -459 -223q-283 0 -458 223q-173 220 -173 599zM796 1705q-19 19 -28 42.5t-9 49.5q0 25 9 48t28 43q19 19 43 29t49 10q50 0 91 -39q38 -40 38 -91q0 -25 -9.5 -49t-28.5 -43q-20 -19 -43 -27.5t-48 -8.5q-26 0 -49.5 8.5t-42.5 27.5zM408 1705
q-20 19 -29.5 42.5t-9.5 49.5t9 49t29 43q38 38 92 38q52 0 91 -39q37 -40 37 -91q0 -26 -9 -49.5t-28 -42.5q-36 -36 -91 -36q-56 0 -92 36h1z" />
    <glyph glyph-name="uni04E7" unicode="&#x4e7;" horiz-adv-x="1200" 
d="M841 275q93 101 93 254t-93 252q-93 97 -241 97q-149 0 -242 -97q-92 -98 -92 -252t92 -254q93 -96 242 -96q148 0 241 96zM195 125q-159 162 -159 404q0 244 159 403q160 161 405 161q246 0 404 -161q160 -158 160 -403q0 -244 -160 -404q-158 -161 -404 -161
q-245 0 -405 161zM304 1238q-20 19 -29.5 42.5t-9.5 49.5t9 49t29 43q19 19 42.5 28t49.5 9q51 0 91 -38q38 -40 38 -91q0 -25 -9.5 -49t-28.5 -43q-20 -19 -43 -28t-48 -9q-26 0 -49.5 9t-42.5 28h1zM707 1242q-20 19 -29 42.5t-9 49.5t8.5 49t28.5 43q37 37 92 37
q53 0 91 -38q18 -20 28 -42.5t10 -48.5t-9.5 -49.5t-28.5 -42.5q-37 -37 -91 -37q-55 0 -92 37h1z" />
    <glyph glyph-name="uni04E8" unicode="&#x4e8;" horiz-adv-x="1421" 
d="M79 782q0 378 177 599h-1q178 223 455 223q278 0 456 -223h-1q177 -221 177 -599q0 -380 -173 -599q-175 -223 -459 -223q-283 0 -458 223q-173 220 -173 599zM999 333q97 143 107 385h-792q12 -242 108 -385q106 -154 288 -154q183 0 289 154zM999 1231
q-107 155 -289 155q-181 0 -288 -155q-42 -62 -67.5 -135.5t-35.5 -173.5h783q-10 100 -35.5 173.5t-67.5 135.5z" />
    <glyph glyph-name="uni04E9" unicode="&#x4e9;" horiz-adv-x="1200" 
d="M195 125q-159 162 -159 404q0 244 159 403q160 161 405 161q246 0 404 -161q160 -158 160 -403q0 -244 -160 -404q-158 -161 -404 -161q-245 0 -405 161zM841 275q67 73 86 173h-654q9 -51 30.5 -94t54.5 -79q93 -96 242 -96q148 0 241 96zM841 781q-93 97 -241 97
q-149 0 -242 -97q-56 -59 -79 -142h641q-22 81 -79 142z" />
    <glyph glyph-name="uni04EA" unicode="&#x4ea;" horiz-adv-x="1421" 
d="M79 782q0 378 177 599h-1q178 223 455 223q278 0 456 -223h-1q177 -221 177 -599q0 -380 -173 -599q-175 -223 -459 -223q-283 0 -458 223q-173 220 -173 599zM999 333q97 143 107 385h-792q12 -242 108 -385q106 -154 288 -154q183 0 289 154zM999 1231
q-107 155 -289 155q-181 0 -288 -155q-42 -62 -67.5 -135.5t-35.5 -173.5h783q-10 100 -35.5 173.5t-67.5 135.5zM796 1705q-19 19 -28 42.5t-9 49.5q0 25 9 48t28 43q19 19 43 29t49 10q50 0 91 -39q38 -40 38 -91q0 -25 -9.5 -49t-28.5 -43q-20 -19 -43 -27.5t-48 -8.5
q-26 0 -49.5 8.5t-42.5 27.5zM408 1705q-20 19 -29.5 42.5t-9.5 49.5t9 49t29 43q38 38 92 38q52 0 91 -39q37 -40 37 -91q0 -26 -9 -49.5t-28 -42.5q-36 -36 -91 -36q-56 0 -92 36h1z" />
    <glyph glyph-name="uni04EB" unicode="&#x4eb;" horiz-adv-x="1200" 
d="M195 125q-159 162 -159 404q0 244 159 403q160 161 405 161q246 0 404 -161q160 -158 160 -403q0 -244 -160 -404q-158 -161 -404 -161q-245 0 -405 161zM841 275q67 73 86 173h-654q9 -51 30.5 -94t54.5 -79q93 -96 242 -96q148 0 241 96zM841 781q-93 97 -241 97
q-149 0 -242 -97q-56 -59 -79 -142h641q-22 81 -79 142zM304 1238q-20 19 -29.5 42.5t-9.5 49.5t9 49t29 43q19 19 42.5 28t49.5 9q51 0 91 -38q38 -40 38 -91q0 -25 -9.5 -49t-28.5 -43q-20 -19 -43 -28t-48 -9q-26 0 -49.5 9t-42.5 28h1zM707 1242q-20 19 -29 42.5
t-9 49.5t8.5 49t28.5 43q37 37 92 37q53 0 91 -38q18 -20 28 -42.5t10 -48.5t-9.5 -49.5t-28.5 -42.5q-37 -37 -91 -37q-55 0 -92 37h1z" />
    <glyph glyph-name="uni04EC" unicode="&#x4ec;" horiz-adv-x="1324" 
d="M828 935q-160 0 -253 87q-6 -69 -11.5 -117t-14 -89.5t-21.5 -84t-33 -102.5q84 87 271 87h283q-5 -123 -37 -219.5t-89 -166.5q-63 -72 -144.5 -111.5t-177.5 -39.5q-229 0 -325 194l1 -1q-10 23 -17.5 45.5t-12.5 48.5l-41 1q-12 -38 -26 -67.5t-31 -49.5
q-14 -16 -28 -28t-22 -16q-4 -1 -11.5 -3t-16 -4t-16 -4t-10.5 -3q10 -19 19 -36.5t14 -25.5v1q8 -12 22 -30.5t35 -42.5q42 -48 103 -91q29 -20 66.5 -39t83.5 -35q91 -33 203 -33q311 0 504 226q189 223 189 580q0 99 -15.5 190t-45.5 172t-70.5 148.5t-90.5 116.5
q-101 103 -223 157t-255 54q-259 0 -402 -133v1q-37 -33 -71 -90t-52 -126t-12 -145t49 -148q31 -38 64.5 -67t75 -49t91.5 -31.5t114 -14.5q-20 25 -35.5 51.5t-21 56t1 60.5t30.5 65q-35 -6 -61 0.5t-44 21.5t-28.5 37.5t-13.5 48.5q0 112 85 177q90 67 226 67
q202 0 335 -169q46 -58 76 -128.5t45 -153.5h-208zM716 1705q-19 19 -28 42.5t-9 49.5q0 25 9 48t28 43q19 19 43 29t49 10q50 0 91 -39q38 -40 38 -91q0 -25 -9.5 -49t-28.5 -43q-20 -19 -43 -27.5t-48 -8.5q-26 0 -49.5 8.5t-42.5 27.5zM328 1705q-20 19 -29.5 42.5
t-9.5 49.5t9 49t29 43q38 38 92 38q52 0 91 -39q37 -40 37 -91q0 -26 -9 -49.5t-28 -42.5q-36 -36 -91 -36q-56 0 -92 36h1z" />
    <glyph glyph-name="uni04ED" unicode="&#x4ed;" 
d="M291 457q43 26 83 33.5t74.5 2t62.5 -21.5t49 -36t33.5 -42t14.5 -40l204 135q-8 -131 -85 -216h1q-86 -93 -235 -93q-47 0 -88.5 13t-67.5 30q-26 19 -44 38t-26 32q-1 2 -4.5 8t-8 12.5t-8 12t-4.5 7.5q-39 -40 -91.5 -64t-121.5 -31l4.5 -9t8 -15t8.5 -15.5t5 -9.5
q6 -6 8 -10q14 -22 50 -58v1q20 -21 43 -40t45 -34q24 -16 56 -29.5t70 -27.5q38 -12 80.5 -19t85.5 -7q244 0 399 161q151 158 151 404q0 245 -154 403q-158 161 -395 161q-91 -11 -154.5 -33t-110.5 -54t-83 -73.5t-71 -92.5q39 -8 64 -13.5t43 -16t33 -29t33 -51.5
q19 18 35 40t41.5 43t67 38.5t113.5 26.5q136 0 221 -103q45 -55 67 -123l-123 -79q-40 58 -96.5 87t-113 20t-103 -62.5t-66.5 -160.5zM222 1240q-20 19 -29.5 42.5t-9.5 49.5t9 49t29 43q19 19 42.5 28t49.5 9q51 0 91 -38q38 -40 38 -91q0 -25 -9.5 -49t-28.5 -43
q-20 -19 -43 -28t-48 -9q-26 0 -49.5 9t-42.5 28h1zM625 1244q-20 19 -29 42.5t-9 49.5t8.5 49t28.5 43q37 37 92 37q53 0 91 -38q18 -20 28 -42.5t10 -48.5t-9.5 -49.5t-28.5 -42.5q-37 -37 -91 -37q-55 0 -92 37h1z" />
    <glyph glyph-name="uni04EE" unicode="&#x4ee;" horiz-adv-x="1373" 
d="M232 1313q-21 34 -36.5 67t-36.5 64.5t-53.5 61.5t-89.5 57l483 2q-46 -19 -56 -55.5t-2 -83.5l319 -745q33 86 70.5 184t74 193t68.5 178t54 139q22 54 31.5 113.5t2.5 122.5l41 17q8 -14 11.5 -20t5.5 -8l3 -3l4 -4v1l7 -8h-1q9 -8 30.5 -24.5t56.5 -38.5
q68 -43 161 -64l-2 -43q-92 -23 -128 -106q-38 -94 -81.5 -200t-88 -215t-87.5 -215t-81 -199q-88 -215 -185 -336q-43 -54 -94 -90.5t-106 -54.5t-111 -16t-109 26t-100 71t-84 119q30 -12 59.5 -2t56.5 34t50.5 58.5t43.5 70.5q-2 -25 14.5 -49t45 -38t66 -15t77.5 19
q23 17 50.5 51t47.5 69zM426 1706v191h649v-191h-649z" />
    <glyph glyph-name="uni04EF" unicode="&#x4ef;" horiz-adv-x="1157" 
d="M749 1195q74 -51 131.5 -85.5t99.5 -51.5q76 -30 118 -36q10 0 25 -1t23 -1l7 -43q-8 -3 -18 -7.5t-19 -9.5q-8 -4 -22 -18.5t-36 -39.5t-40 -53.5t-30 -60.5q-72 -189 -144.5 -379t-144.5 -378q-82 -215 -176 -336q-96 -124 -310 -180q2 15 3.5 24t2 14.5t0.5 8v4.5
q0 79 -99 174q139 17 226 83q84 65 116 188q-81 197 -160.5 392.5t-160.5 393.5q-15 36 -33.5 76t-40.5 79t-47.5 74.5t-53.5 64.5h412l9 -42q-9 -5 -18.5 -13.5t-23.5 -33.5v1q-1 -5 -3 -9t-2 -9t1.5 -10.5t4.5 -10.5l235 -626q53 147 105 294t105 293v-1q8 25 11 47t3 41
q0 3 -1 7q-2 48 -12 72zM256 1255v191h648v-191h-648z" />
    <glyph glyph-name="uni04F4" unicode="&#x4f4;" horiz-adv-x="1247" 
d="M875 1352q0 46 -18 88q-9 22 -18 36.5t-18 25.5l-51 60h454q-115 -106 -115 -210v-1143q0 -45 17 -90v1q20 -44 36 -62v1l11 -11t18.5 -19.5t18.5 -19.5l11 -11h-461q115 107 115 211v482q-71 -39 -152.5 -56t-164 -12t-162 32t-145.5 76q-64 47 -113.5 117t-76.5 158
t-28 191.5t33 217.5q0 130 -78 240l28 31q13 -7 30.5 -17t31.5 -17q25 -14 56 -28t73 -29q41 -15 91 -22t105 -7l-53 -62q-19 -20 -35 -59q-30 -75 -34.5 -155t9.5 -152t43 -130.5t68 -90.5q49 -41 112 -60t128.5 -15t127 32t106.5 83v395zM726 1692q-19 19 -28 42.5
t-9 49.5q0 25 9 48t28 43q19 19 43 29t49 10q50 0 91 -39q38 -40 38 -91q0 -25 -9.5 -49t-28.5 -43q-20 -19 -43 -27.5t-48 -8.5q-26 0 -49.5 8.5t-42.5 27.5zM338 1692q-20 19 -29.5 42.5t-9.5 49.5t9 49t29 43q38 38 92 38q52 0 91 -39q37 -40 37 -91q0 -26 -9 -49.5
t-28 -42.5q-36 -36 -91 -36q-56 0 -92 36h1z" />
    <glyph glyph-name="uni04F5" unicode="&#x4f5;" 
d="M269 831q1 -54 17.5 -96.5t45.5 -72t68 -45t84 -15.5q21 0 55 6.5t69.5 21.5t67.5 38.5t49 58.5v116q0 53 -17.5 109t-52.5 103h369q-69 -95 -69 -198v-597q1 -148 99 -262h-435q27 28 40.5 41t20.5 23t11.5 24.5t14.5 45.5q9 30 14 62t5 66v217q-31 -31 -101 -56.5
t-170 -25.5q-96 0 -173.5 31t-132 88t-83.5 137t-27 178q4 76 28 142.5t52.5 125.5t53.5 111.5t31 99.5q29 -33 59 -66t62.5 -57.5t69 -36.5t77.5 -3q-27 -20 -59.5 -44t-62 -59.5t-51.5 -86.5t-29 -124zM296 1294q-20 19 -29.5 42.5t-9.5 49.5t9 49t29 43q19 19 42.5 28
t49.5 9q51 0 91 -38q38 -40 38 -91q0 -25 -9.5 -49t-28.5 -43q-20 -19 -43 -28t-48 -9q-26 0 -49.5 9t-42.5 28h1zM699 1298q-20 19 -29 42.5t-9 49.5t8.5 49t28.5 43q37 37 92 37q53 0 91 -38q18 -20 28 -42.5t10 -48.5t-9.5 -49.5t-28.5 -42.5q-37 -37 -91 -37
q-55 0 -92 37h1z" />
    <glyph glyph-name="uni04F8" unicode="&#x4f8;" horiz-adv-x="1750" 
d="M1604 209q0 -45 17 -90v1q20 -44 36 -62v1l11 -11t18.5 -19.5t18.5 -19.5l11 -11h-461q115 107 115 211v1143q0 46 -18 88q-9 22 -18 36.5t-18 25.5l-51 60h454q-115 -106 -115 -210v-1143zM414 877q23 22 34.5 49t16 58t3.5 65.5t-2 71.5q39 -46 92.5 -81.5t115 -66.5
t127 -60.5t127.5 -62.5t117 -72t96.5 -90.5t65 -117t22.5 -151.5q-2 -93 -30 -177t-82 -140q-101 -102 -329 -102h-749l51 60q9 11 18 25.5t18 36.5q10 21 14 43t4 45v1143q0 105 -115 211h461q-2 -2 -10.5 -11t-18.5 -19.5t-19 -19.5l-11 -11v1q-8 -9 -17 -24.5t-18 -37.5
v1q-18 -44 -18 -90v-528v-619h412q55 0 95.5 20t66 53t37.5 75.5t10 87.5q-2 51 -33 93t-80 78.5t-111 68.5t-126.5 63.5t-126 63.5t-108.5 68zM993 1695q-19 19 -28 42.5t-9 49.5q0 25 9 48t28 43q19 19 43 29t49 10q50 0 91 -39q38 -40 38 -91q0 -25 -9.5 -49t-28.5 -43
q-20 -19 -43 -27.5t-48 -8.5q-26 0 -49.5 8.5t-42.5 27.5zM605 1695q-20 19 -29.5 42.5t-9.5 49.5t9 49t29 43q38 38 92 38q52 0 91 -39q37 -40 37 -91q0 -26 -9 -49.5t-28 -42.5q-36 -36 -91 -36q-56 0 -92 36h1z" />
    <glyph glyph-name="uni04F9" unicode="&#x4f9;" horiz-adv-x="1413" 
d="M21 0q31 25 49 54t27 62t11.5 69.5t2.5 76.5v597q0 104 -70 198h369q-69 -95 -69 -198v-671h244q40 0 70.5 12.5t50 34t28 51t4.5 63.5q-5 42 -42 71t-90.5 55.5t-114.5 54.5t-113 68q17 16 25.5 44.5t11.5 61.5t2.5 67.5t-1.5 61.5q38 -45 93.5 -77t116.5 -60t122 -58
t109 -71.5t77.5 -99.5t28.5 -143q-1 -34 -8.5 -69.5t-20.5 -69t-30.5 -62t-36.5 -49.5q-72 -75 -241 -75zM1059 859q0 104 -70 198h369q-69 -95 -69 -198v-597q1 -148 99 -262h-414q31 25 48 54t25 62t10 69.5t2 76.5v597zM417 1232q-20 19 -29.5 42.5t-9.5 49.5t9 49t29 43
q19 19 42.5 28t49.5 9q51 0 91 -38q38 -40 38 -91q0 -25 -9.5 -49t-28.5 -43q-20 -19 -43 -28t-48 -9q-26 0 -49.5 9t-42.5 28h1zM820 1236q-20 19 -29 42.5t-9 49.5t8.5 49t28.5 43q37 37 92 37q53 0 91 -38q18 -20 28 -42.5t10 -48.5t-9.5 -49.5t-28.5 -42.5
q-37 -37 -91 -37q-55 0 -92 37h1z" />
    <glyph glyph-name="uni04F0" unicode="&#x4f0;" horiz-adv-x="1373" 
d="M232 1313q-21 34 -36.5 67t-36.5 64.5t-53.5 61.5t-89.5 57l483 2q-46 -19 -56 -55.5t-2 -83.5l319 -745q33 86 70.5 184t74 193t68.5 178t54 139q22 54 31.5 113.5t2.5 122.5l41 17q8 -14 11.5 -20t5.5 -8l3 -3l4 -4v1l7 -8h-1q9 -8 30.5 -24.5t56.5 -38.5
q68 -43 161 -64l-2 -43q-92 -23 -128 -106q-38 -94 -81.5 -200t-88 -215t-87.5 -215t-81 -199q-88 -215 -185 -336q-43 -54 -94 -90.5t-106 -54.5t-111 -16t-109 26t-100 71t-84 119q30 -12 59.5 -2t56.5 34t50.5 58.5t43.5 70.5q-2 -25 14.5 -49t45 -38t66 -15t77.5 19
q23 17 50.5 51t47.5 69zM866 1724q-19 19 -28 42.5t-9 49.5q0 25 9 48t28 43q19 19 43 29t49 10q50 0 91 -39q38 -40 38 -91q0 -25 -9.5 -49t-28.5 -43q-20 -19 -43 -27.5t-48 -8.5q-26 0 -49.5 8.5t-42.5 27.5zM478 1724q-20 19 -29.5 42.5t-9.5 49.5t9 49t29 43
q38 38 92 38q52 0 91 -39q37 -40 37 -91q0 -26 -9 -49.5t-28 -42.5q-36 -36 -91 -36q-56 0 -92 36h1z" />
    <glyph glyph-name="uni04F1" unicode="&#x4f1;" horiz-adv-x="1157" 
d="M749 1195q74 -51 131.5 -85.5t99.5 -51.5q76 -30 118 -36q10 0 25 -1t23 -1l7 -43q-8 -3 -18 -7.5t-19 -9.5q-8 -4 -22 -18.5t-36 -39.5t-40 -53.5t-30 -60.5q-72 -189 -144.5 -379t-144.5 -378q-82 -215 -176 -336q-96 -124 -310 -180q2 15 3.5 24t2 14.5t0.5 8v4.5
q0 79 -99 174q139 17 226 83q84 65 116 188q-81 197 -160.5 392.5t-160.5 393.5q-15 36 -33.5 76t-40.5 79t-47.5 74.5t-53.5 64.5h412l9 -42q-9 -5 -18.5 -13.5t-23.5 -33.5v1q-1 -5 -3 -9t-2 -9t1.5 -10.5t4.5 -10.5l235 -626q53 147 105 294t105 293v-1q8 25 11 47t3 41
q0 3 -1 7q-2 48 -12 72zM296 1294q-20 19 -29.5 42.5t-9.5 49.5t9 49t29 43q19 19 42.5 28t49.5 9q51 0 91 -38q38 -40 38 -91q0 -25 -9.5 -49t-28.5 -43q-20 -19 -43 -28t-48 -9q-26 0 -49.5 9t-42.5 28h1zM699 1298q-20 19 -29 42.5t-9 49.5t8.5 49t28.5 43q37 37 92 37
q53 0 91 -38q18 -20 28 -42.5t10 -48.5t-9.5 -49.5t-28.5 -42.5q-37 -37 -91 -37q-55 0 -92 37h1z" />
    <glyph glyph-name="uni04F2" unicode="&#x4f2;" horiz-adv-x="1373" 
d="M232 1313q-21 34 -36.5 67t-36.5 64.5t-53.5 61.5t-89.5 57l483 2q-46 -19 -56 -55.5t-2 -83.5l319 -745q33 86 70.5 184t74 193t68.5 178t54 139q22 54 31.5 113.5t2.5 122.5l41 17q8 -14 11.5 -20t5.5 -8l3 -3l4 -4v1l7 -8h-1q9 -8 30.5 -24.5t56.5 -38.5
q68 -43 161 -64l-2 -43q-92 -23 -128 -106q-38 -94 -81.5 -200t-88 -215t-87.5 -215t-81 -199q-88 -215 -185 -336q-43 -54 -94 -90.5t-106 -54.5t-111 -16t-109 26t-100 71t-84 119q30 -12 59.5 -2t56.5 34t50.5 58.5t43.5 70.5q-2 -25 14.5 -49t45 -38t66 -15t77.5 19
q23 17 50.5 51t47.5 69zM874 1633l-104 116l368 393l149 -167zM396 1639l-105 117l369 392l150 -167z" />
    <glyph glyph-name="uni04F3" unicode="&#x4f3;" horiz-adv-x="1157" 
d="M749 1195q74 -51 131.5 -85.5t99.5 -51.5q76 -30 118 -36q10 0 25 -1t23 -1l7 -43q-8 -3 -18 -7.5t-19 -9.5q-8 -4 -22 -18.5t-36 -39.5t-40 -53.5t-30 -60.5q-72 -189 -144.5 -379t-144.5 -378q-82 -215 -176 -336q-96 -124 -310 -180q2 15 3.5 24t2 14.5t0.5 8v4.5
q0 79 -99 174q139 17 226 83q84 65 116 188q-81 197 -160.5 392.5t-160.5 393.5q-15 36 -33.5 76t-40.5 79t-47.5 74.5t-53.5 64.5h412l9 -42q-9 -5 -18.5 -13.5t-23.5 -33.5v1q-1 -5 -3 -9t-2 -9t1.5 -10.5t4.5 -10.5l235 -626q53 147 105 294t105 293v-1q8 25 11 47t3 41
q0 3 -1 7q-2 48 -12 72zM286 1210l-123 112l310 373l176 -160zM706 1210l-123 112l310 373l176 -160z" />
    </font>
</defs>
</svg>
