<?xml version="1.0" standalone="no"?>
<!DOCTYPE svg PUBLIC "-//W3C//DTD SVG 1.1//EN" "http://www.w3.org/Graphics/SVG/1.1/DTD/svg11.dtd" >
<svg xmlns="http://www.w3.org/2000/svg" xmlns:xlink="http://www.w3.org/1999/xlink" version="1.1">
<metadata>
Created by FontForge 20190801 at Mon Dec 30 23:53:22 2019
 By Jimmy Wärting
Typeface (c) Ultra Cool Fonts/Lawrence! Entertainment 2019. All Rights Reserved
</metadata>
<defs>
<font id="FranxurterTotallyMedium" horiz-adv-x="1200" >
  <font-face 
    font-family="Franxurter Totally Medium"
    font-weight="400"
    font-stretch="normal"
    units-per-em="2048"
    panose-1="2 0 5 0 0 0 0 0 0 0"
    ascent="1638"
    descent="-410"
    x-height="880"
    cap-height="1180"
    bbox="-372.065 -425 1970 1592"
    underline-thickness="150"
    underline-position="-292"
    unicode-range="U+0020-F002"
  />
<missing-glyph horiz-adv-x="990" 
d="M50 0v1184h890v-1184h-890zM561 121.5q32 31.5 32 76.5t-32 77t-77 32t-76.5 -32t-31.5 -77t31.5 -76.5t76.5 -31.5t77 31.5zM743 456q135 120 127 275q-5 161 -137 270q-105 89 -255 89q-224 0 -335 -173q-23 -32 -23 -77t31.5 -76.5t76.5 -31.5t77 40q56 101 173 101
q60 0 117.5 -37.5t57.5 -107.5q9 -62 -57 -117q-47 -29 -118 -29q-45 0 -72.5 -27.5t-27.5 -72.5t27.5 -72.5t72.5 -27.5q65 -1 121 10t144 64z" />
    <glyph glyph-name=".notdef" horiz-adv-x="990" 
d="M50 0v1184h890v-1184h-890zM561 121.5q32 31.5 32 76.5t-32 77t-77 32t-76.5 -32t-31.5 -77t31.5 -76.5t76.5 -31.5t77 31.5zM743 456q135 120 127 275q-5 161 -137 270q-105 89 -255 89q-224 0 -335 -173q-23 -32 -23 -77t31.5 -76.5t76.5 -31.5t77 40q56 101 173 101
q60 0 117.5 -37.5t57.5 -107.5q9 -62 -57 -117q-47 -29 -118 -29q-45 0 -72.5 -27.5t-27.5 -72.5t27.5 -72.5t72.5 -27.5q65 -1 121 10t144 64z" />
    <glyph glyph-name=".null" horiz-adv-x="0" 
 />
    <glyph glyph-name="nonmarkingreturn" horiz-adv-x="500" 
 />
    <glyph glyph-name="space" unicode=" " horiz-adv-x="500" 
 />
    <glyph glyph-name="space" unicode="&#xa0;" horiz-adv-x="500" 
 />
    <glyph glyph-name="uni20BD" unicode="&#x20bd;" horiz-adv-x="1130" 
d="M240 680v370q0 54 38 92t92 38h310q179 0 294.5 -100.5t115.5 -279.5q0 -189 -115.5 -284.5t-294.5 -95.5h-180v-30h310q54 0 92 -38t38 -92t-38 -92t-92 -38h-310v-10q0 -54 -38 -92t-92 -38t-92 38t-38 92v10h-70q-54 0 -92 38t-38 92t38 92t92 38h70v30h-70
q-54 0 -92 38t-38 92t38 92t92 38h70zM680 680q70 0 110 35t40 85t-40 85t-110 35h-180v-240h180z" />
    <glyph glyph-name="uni040D" unicode="&#x40d;" horiz-adv-x="1160" 
d="M888 1152q38 38 92 38t92 -38t38 -92v-940q0 -54 -38 -92t-92 -38t-92 38t-38 92v590l-578 -682q-38 -38 -92 -38t-92 38t-38 92v940q0 54 38 92t92 38t92 -38t38 -92v-590zM699 1307q0 -27 -19.5 -46t-45.5 -19q-27 0 -121.5 16t-132.5 54t-38 92t38 92t92 38
q53 0 91 -38t87 -100t49 -89z" />
    <glyph glyph-name="uni20B9" unicode="&#x20b9;" horiz-adv-x="1000" 
d="M701 630q-29 -96 -106 -169q-50 -48 -108 -77l196 -164q42 -35 46.5 -88.5t-30.5 -94.5q-34 -42 -87.5 -46.5t-95.5 30.5l-428 357q-38 38 -38 92t38 92t92 38h110q57 0 101 30h-211q-54 0 -92 38t-38 92t38 92t92 38h211q-44 30 -101 30h-110q-54 0 -92 38t-38 92t38 92
t92 38h640q54 0 92 -38t38 -92t-38 -92t-92 -38h-130q6 -15 11 -30h119q54 0 92 -38t38 -92t-38 -92t-92 -38h-119z" />
    <glyph glyph-name="uni20BA" unicode="&#x20ba;" horiz-adv-x="1000" 
d="M530 260q79 0 134.5 55.5t55.5 134.5q0 54 38 92t92 38t92 -38t38 -92q0 -187 -131.5 -318.5t-318.5 -131.5h-240q-54 0 -92 38t-38 92v180l-2 -1q-37 -22 -76 -11.5t-61 47.5q-21 37 -10.5 76t47.5 61l102 59v69l-2 -1q-37 -22 -76 -11.5t-61 47.5q-21 37 -10.5 76
t47.5 61l102 59v219q0 54 38 92t92 38t92 -38t38 -92v-70l158 91q37 22 76 11.5t61 -47.5q21 -37 10.5 -76t-47.5 -61l-258 -148v-70l158 91q37 22 76 11.5t61 -47.5q21 -37 10.5 -76t-47.5 -61l-258 -148v-200h110z" />
    <glyph glyph-name="Scommaaccent" unicode="&#x218;" horiz-adv-x="940" 
d="M78 148q-38 38 -38 92t38 92t92 38t92 -38q117 -82 208 -82q71 0 120.5 30.5t49.5 74.5t-49.5 69.5t-150.5 45.5q-166 36 -273 119.5t-107 238.5q5 154 121 256q113 100 279 106q239 0 382 -148q38 -38 38 -92t-38 -92t-92 -38t-92 38q-23 23 -65 47.5t-113 24.5
t-115.5 -30.5t-44.5 -74.5t44.5 -69.5t141.5 -45.5q168 -35 281 -119t113 -240q-6 -153 -125 -254q-126 -107 -305 -107q-219 0 -392 158zM425 -292q-60 13 -78 71t10 105q26 46 78.5 60.5t98.5 -12.5q47 -28 61.5 -80.5t-13.5 -98.5l-88 -149q-12 -21 -35 -27t-44 6
t-27.5 35.5t5.5 44.5z" />
    <glyph glyph-name="uni021B" unicode="&#x21b;" horiz-adv-x="670" 
d="M460 630v-515q0 -52 -36.5 -88.5t-88.5 -36.5t-88.5 36.5t-36.5 88.5v515h-55q-52 0 -88.5 36.5t-36.5 88.5t36.5 88.5t88.5 36.5h55v175q0 52 36.5 88.5t88.5 36.5t88.5 -36.5t36.5 -88.5v-175h55q52 0 88.5 -36.5t36.5 -88.5t-36.5 -88.5t-88.5 -36.5h-55zM290 -292
q-60 13 -78 71t10 105q26 46 78.5 60.5t98.5 -12.5q47 -28 61.5 -80.5t-13.5 -98.5l-88 -149q-12 -21 -35 -27t-44 6t-27.5 35.5t5.5 44.5z" />
    <glyph glyph-name="uni0237" unicode="&#x237;" horiz-adv-x="360" 
d="M55 -19v784q0 52 36.5 88.5t88.5 36.5t88.5 -36.5t36.5 -88.5v-860q0 -102 -71.5 -173.5t-194.5 -71.5q-132 0 -206 54t-74 116t39 101t91 39t78 -21t57 -22t31 54z" />
    <glyph glyph-name="scommaaccent" unicode="&#x219;" horiz-adv-x="774" 
d="M120 45q-80 55 -80 117t39 101t91 39q47 0 95.5 -35t121.5 -37t94 29t-92.5 64.5t-223.5 97.5t-110 178q0 115 97.5 202.5t234.5 87.5q135 0 233.5 -51.5t98.5 -113.5t-38.5 -101t-90.5 -39q-47 0 -88 31.5t-107 33.5t-87 -29t77.5 -61t223.5 -93.5t125 -185.5
q0 -115 -97.5 -202.5t-256.5 -87.5q-180 0 -260 55zM342 -292q-60 13 -78 71t10 105q26 46 78.5 60.5t98.5 -12.5q47 -28 61.5 -80.5t-13.5 -98.5l-88 -149q-12 -21 -35 -27t-44 6t-27.5 35.5t5.5 44.5z" />
    <glyph glyph-name="uni021A" unicode="&#x21a;" horiz-adv-x="930" 
d="M335 920h-165q-54 0 -92 38t-38 92t38 92t92 38h590q54 0 92 -38t38 -92t-38 -92t-92 -38h-165v-800q0 -54 -38 -92t-92 -38t-92 38t-38 92v800zM420 -292q-60 13 -78 71t10 105q26 46 78.5 60.5t98.5 -12.5q47 -28 61.5 -80.5t-13.5 -98.5l-88 -149q-12 -21 -35 -27
t-44 6t-27.5 35.5t5.5 44.5z" />
    <glyph glyph-name="uni20B8" unicode="&#x20b8;" horiz-adv-x="930" 
d="M335 570h-165q-54 0 -92 38t-38 92t38 92t92 38h590q54 0 92 -38t38 -92t-38 -92t-92 -38h-165v-450q0 -54 -38 -92t-92 -38t-92 38t-38 92v450zM170 920q-54 0 -92 38t-38 92t38 92t92 38h590q54 0 92 -38t38 -92t-38 -92t-92 -38h-590z" />
    <glyph glyph-name="uni1E9E" unicode="&#x1e9e;" horiz-adv-x="1150" 
d="M560 490q-54 0 -87 33t-33 87t33 87t227 202q-69 31 -170 31q-109 0 -164.5 -55.5t-55.5 -134.5v-620q0 -54 -38 -92t-92 -38t-92 38t-38 92v620q0 187 131.5 318.5t348.5 131.5q206 -6 310 -86q115 -72 120 -166q4 -70 -45 -115l-136 -120q131 0 231 -93t100 -249
q-6 -153 -108.5 -262t-271.5 -109q-209 0 -332 158q-38 38 -38 92t38 92t92 38t92 -38q67 -82 148 -82q61 0 95.5 30.5t34.5 84.5t-49.5 89.5t-150.5 35.5h-100z" />
    <glyph glyph-name="uni20AD" unicode="&#x20ad;" horiz-adv-x="1135" 
d="M805 460l249 -248q39 -38 39 -92t-38 -92q-39 -38 -92.5 -38t-91.5 38l-431 430v-338q0 -54 -38 -92t-92 -38t-92 38t-38 92v340h-20q-54 0 -92 38t-38 92t38 92t92 38h20v340q0 54 38 92t92 38t92 -38t38 -92v-318l411 410q38 38 91.5 38t92.5 -38q38 -38 38 -92
t-39 -92l-249 -248h115q54 0 92 -38t38 -92t-38 -92t-92 -38h-95z" />
    <glyph glyph-name="uni0450" unicode="&#x450;" horiz-adv-x="910" 
d="M384 270q47 -30 106 -30q83 0 166.5 58.5t158.5 -18.5t-31.5 -183.5t-293.5 -106.5t-318.5 131.5t-131.5 318.5t131.5 318.5t318.5 131.5t294 -106q75 -76 79 -171q-2 -69 -58 -100zM588 620q-49 20 -98 20q-83 0 -141 -58q-56 -56 -59 -135zM571 1035q0 -27 -19.5 -46
t-45.5 -19q-27 0 -121.5 16t-132.5 54t-38 92t38 92t92 38q53 0 91 -38t87 -100t49 -89z" />
    <glyph glyph-name="uni0400" unicode="&#x400;" horiz-adv-x="890" 
d="M180 1180h540q54 0 92 -38t38 -92t-38 -92t-92 -38h-410v-200h310q54 0 92 -38t38 -92t-38 -92t-92 -38h-310v-200h410q54 0 92 -38t38 -92t-38 -92t-92 -38h-540q-54 0 -92 38t-38 92v920q0 54 38 92t92 38zM569 1307q0 -27 -19.5 -46t-45.5 -19q-27 0 -121.5 16
t-132.5 54t-38 92t38 92t92 38q53 0 91 -38t87 -100t49 -89z" />
    <glyph glyph-name="uni20AF" unicode="&#x20af;" horiz-adv-x="2000" 
d="M383.5 237q21.5 22 21.5 53q0 32 -21.5 53.5t-53.5 21.5q-31 0 -53 -21.5t-22 -53.5q0 -31 22 -53t53 -22q32 0 53.5 22zM630 253q24 -3 50 -3q141 0 240.5 99.5t99.5 240.5t-99.5 240.5t-240.5 99.5q-26 0 -50 -3v-674zM370 588v194q-26 -12 -50 -12q-54 0 -92 38
t-38 92t38 92q26 31 52 58q41 38 90 66v44q0 54 38 92t92 38t92 -38q28 -28 35 -64q26 2 53 2q249 0 424.5 -175.5t175.5 -424.5t-175.5 -424.5t-424.5 -175.5q-118 0 -214 32q-62 -32 -136 -32q-124 0 -212 88t-88 212t88 212t212 88q20 0 40 -2zM1726 234q44 44 44 106
t-44 106t-106 44t-106 -44t-44 -106t44 -106t106 -44t106 44zM1270 340q0 145 102.5 247.5t247.5 102.5t247.5 -102.5t102.5 -247.5t-102.5 -247.5t-247.5 -102.5q-82 0 -150 33v-173q0 -43 -28.5 -71.5t-71.5 -28.5t-71.5 28.5t-28.5 71.5v490z" />
    <glyph glyph-name="anoteleia" unicode="&#x387;" horiz-adv-x="400" 
d="M200 590q-62 0 -106 44t-44 106t44 106t106 44t106 -44t44 -106t-44 -106t-106 -44z" />
    <glyph glyph-name="uni20B4" unicode="&#x20b4;" horiz-adv-x="987" 
d="M66 397q-26 27 -26 68q0 43 28.5 71.5t71.5 28.5h707q43 0 71.5 -28.5t28.5 -71.5t-28.5 -71.5t-71.5 -28.5h-523q-1 -5 -1 -10q0 -44 49.5 -74.5t120.5 -30.5q91 0 208 42q38 28 92 28t92 -38t38 -92t-38 -92q-173 -108 -392 -108q-179 0 -305 107q-119 101 -125 254
q0 24 3 46zM902 800q9 -6 17 -13q28 -29 28 -72t-28.5 -71.5t-71.5 -28.5h-707q-43 0 -71.5 28.5t-28.5 71.5t28.5 71.5t71.5 28.5h502q1 5 1 10q0 44 -44.5 74.5t-115.5 30.5t-113 -14.5t-65 -37.5q-38 -28 -92 -28t-92 38t-38 92t38 92q143 118 382 118q166 -6 279 -106
q116 -102 121 -256q0 -14 -1 -28z" />
    <glyph glyph-name="uni045D" unicode="&#x45d;" horiz-adv-x="950" 
d="M263.5 26.5q-36.5 -36.5 -88.5 -36.5t-88.5 36.5t-36.5 88.5v650q0 52 36.5 88.5t88.5 36.5t88.5 -36.5t36.5 -88.5v-350q350 402 386.5 438.5t88.5 36.5t88.5 -36.5t36.5 -88.5v-650q0 -52 -36.5 -88.5t-88.5 -36.5t-88.5 36.5t-36.5 88.5v350q-350 -402 -386.5 -438.5z
M594 1035q0 -27 -19.5 -46t-45.5 -19q-27 0 -121.5 16t-132.5 54t-38 92t38 92t92 38q53 0 91 -38t87 -100t49 -89z" />
    <glyph glyph-name="uni20B1" unicode="&#x20b1;" horiz-adv-x="1152" 
d="M1020 759v-15h30q34 0 53 -18.5t19 -53.5q0 -34 -19 -53t-53 -19h-55q-31 -85 -100 -154q-126 -126 -305 -126h-180v-200q0 -54 -38 -92t-92 -38t-92 38t-38 92v480h-48q-34 0 -53 19t-19 53q0 35 19 53.5t53 18.5h48v15h-48q-34 0 -53 18.5t-19 53.5q0 34 19 53t53 19
h48v147q0 54 38 92t92 38h310q179 0 305 -125q67 -68 99 -152h56q34 0 53 -19t19 -53q0 -35 -19 -53.5t-53 -18.5h-30zM699 600h-289v-40h160q80 0 129 40zM410 903h285q-48 37 -125 37h-160v-37zM760 759h-350v-15h350v15z" />
    <glyph glyph-name="quotesingle" unicode="'" horiz-adv-x="370" 
d="M310 795q0 -52 -36.5 -88.5t-88.5 -36.5t-88.5 36.5t-36.5 88.5v270q0 52 36.5 88.5t88.5 36.5t88.5 -36.5t36.5 -88.5v-270z" />
    <glyph glyph-name="hyphen" unicode="-" horiz-adv-x="800" 
d="M620 720q54 0 92 -38t38 -92t-38 -92t-92 -38h-440q-54 0 -92 38t-38 92t38 92t92 38h440z" />
    <glyph glyph-name="hyphen" unicode="&#x2010;" horiz-adv-x="800" 
d="M620 720q54 0 92 -38t38 -92t-38 -92t-92 -38h-440q-54 0 -92 38t-38 92t38 92t92 38h440z" />
    <glyph glyph-name="hyphen" unicode="&#xad;" horiz-adv-x="800" 
d="M620 720q54 0 92 -38t38 -92t-38 -92t-92 -38h-440q-54 0 -92 38t-38 92t38 92t92 38h440z" />
    <glyph glyph-name="endash" unicode="&#x2013;" horiz-adv-x="1000" 
d="M820 720q54 0 92 -38t38 -92t-38 -92t-92 -38h-640q-54 0 -92 38t-38 92t38 92t92 38h640z" />
    <glyph glyph-name="emdash" unicode="&#x2014;" horiz-adv-x="1300" 
d="M1120 720q54 0 92 -38t38 -92t-38 -92t-92 -38h-940q-54 0 -92 38t-38 92t38 92t92 38h940z" />
    <glyph glyph-name="afii00208" unicode="&#x2015;" horiz-adv-x="1500" 
d="M1370 720q54 0 92 -38t38 -92t-38 -92t-92 -38h-1240q-54 0 -92 38t-38 92t38 92t92 38h1240z" />
    <glyph glyph-name="uni02BB" unicode="&#x2bb;" horiz-adv-x="424" 
d="M263 1212q69 -15 90 -82t-11 -121q-30 -54 -90.5 -70.5t-114.5 14.5q-54 32 -70.5 92.5t15.5 114.5l102 172q14 24 40.5 31t50.5 -7t31.5 -41t-6.5 -51z" />
    <glyph glyph-name="afii57929" unicode="&#x2bc;" horiz-adv-x="324" 
d="M61 1011q-69 15 -90 82t11 121q30 54 90.5 70.5t114.5 -14.5q54 -32 70.5 -92.5t-15.5 -114.5l-102 -172q-14 -24 -40.5 -31t-50.5 7t-31.5 41t6.5 51z" />
    <glyph glyph-name="uni0315" unicode="&#x315;" horiz-adv-x="224" 
d="M111 921q-69 15 -90 82t11 121q30 54 90.5 70.5t114.5 -14.5q54 -32 70.5 -92.5t-15.5 -114.5l-102 -172q-14 -24 -40.5 -31t-50.5 7t-31.5 41t6.5 51z" />
    <glyph glyph-name="uni0326" unicode="&#x326;" horiz-adv-x="380" 
d="M146 -292q-60 13 -78 71t10 105q26 46 78.5 60.5t98.5 -12.5q47 -28 61.5 -80.5t-13.5 -98.5l-88 -149q-12 -21 -35 -27t-44 6t-27.5 35.5t5.5 44.5z" />
    <glyph glyph-name="exclam" unicode="!" horiz-adv-x="380" 
d="M320 470q0 -54 -38 -92t-92 -38t-92 38t-38 92v590q0 54 38 92t92 38t92 -38t38 -92v-590zM190 -10q-54 0 -92 38t-38 92t38 92t92 38t92 -38t38 -92t-38 -92t-92 -38z" />
    <glyph glyph-name="quotedbl" unicode="&#x22;" horiz-adv-x="670" 
d="M310 795q0 -52 -36.5 -88.5t-88.5 -36.5t-88.5 36.5t-36.5 88.5v270q0 52 36.5 88.5t88.5 36.5t88.5 -36.5t36.5 -88.5v-270zM610 795q0 -52 -36.5 -88.5t-88.5 -36.5t-88.5 36.5t-36.5 88.5v270q0 52 36.5 88.5t88.5 36.5t88.5 -36.5t36.5 -88.5v-270z" />
    <glyph glyph-name="numbersign" unicode="#" horiz-adv-x="1300" 
d="M270 470v240h-90q-54 0 -92 38t-38 92t38 92t92 38h90v90q0 54 38 92t92 38t92 -38t38 -92v-90h240v90q0 54 38 92t92 38t92 -38t38 -92v-90h90q54 0 92 -38t38 -92t-38 -92t-92 -38h-90v-240h90q54 0 92 -38t38 -92t-38 -92t-92 -38h-90v-90q0 -54 -38 -92t-92 -38
t-92 38t-38 92v90h-240v-90q0 -54 -38 -92t-92 -38t-92 38t-38 92v90h-90q-54 0 -92 38t-38 92t38 92t92 38h90zM530 710v-240h240v240h-240z" />
    <glyph glyph-name="dollar" unicode="$" horiz-adv-x="940" 
d="M370 752v151q-3 -2 -5 -3q-45 -31 -45 -75t45 -69q2 -2 5 -4zM570 270q11 4 21 11q49 30 49 74t-49 70q-10 4 -21 9v-164zM370 -1q-159 28 -292 149q-38 38 -38 92t38 92t92 38t92 -38q57 -40 108 -61v217q-119 36 -203 102q-107 83 -107 238q5 154 121 256q81 72 189 95
v121q0 42 29 71t71 29t71 -29t29 -71v-119q164 -27 272 -139q38 -38 38 -92t-38 -92t-92 -38t-92 38q-23 23 -65 48q-11 6 -23 10v-222q126 -36 217 -103q113 -84 113 -240q-6 -153 -125 -254q-89 -76 -205 -98v-109q0 -42 -29 -71t-71 -29t-71 29t-29 71v109z" />
    <glyph glyph-name="percent" unicode="%" horiz-adv-x="1380" 
d="M340 590q-124 0 -212 88t-88 212t88 212t212 88t212 -88t88 -212t-88 -212t-212 -88zM303 6q-34 23 -42.5 63.5t14.5 75.5l663 1000q23 35 63.5 43t75.5 -14q34 -23 42.5 -63.5t-14.5 -75.5l-663 -1000q-23 -35 -63.5 -43t-75.5 14zM1040 -10q-124 0 -212 88t-88 212
t88 212t212 88t212 -88t88 -212t-88 -212t-212 -88zM422.5 807.5q34.5 34.5 34.5 82.5t-34.5 82.5t-82.5 34.5t-82.5 -34.5t-34.5 -82.5t34.5 -82.5t82.5 -34.5t82.5 34.5zM1122.5 207.5q34.5 34.5 34.5 82.5t-34.5 82.5t-82.5 34.5t-82.5 -34.5t-34.5 -82.5t34.5 -82.5
t82.5 -34.5t82.5 34.5z" />
    <glyph glyph-name="ampersand" unicode="&#x26;" horiz-adv-x="1081" 
d="M159 652q-45 71 -46 166q5 154 120 266q114 100 260 106q219 0 362 -198q28 -48 28 -102t-33 -87t-87 -33t-92 38q-23 23 -60 72.5t-98 49.5t-100.5 -25.5t-39.5 -79.5q-1 -60 98 -138l218 -195q1 9 1 18q0 54 38 92t92 38t92 -38t38 -92q0 -109 -43 -212l91 -81
q39 -37 41 -91t-34 -93q-38 -40 -92 -41.5t-93 35.5l-63 58q-110 -95 -267 -95q-207 0 -328.5 116.5t-121.5 283.5h1q2 130 118 262zM563 265l-232 216q-31 -52 -33 -98q3 -53 48 -93t144 -40q41 0 73 15z" />
    <glyph glyph-name="parenleft" unicode="(" horiz-adv-x="677" 
d="M599 12q38 -38 38 -92t-38 -92t-92 -38q-114 0 -285.5 215.5t-171.5 584.5t171.5 584.5t285.5 215.5q54 0 92 -38t38 -92t-38 -92t-83.5 -68t-125.5 -139.5t-80 -370.5t80 -370.5t125.5 -139.5t83.5 -68z" />
    <glyph glyph-name="parenright" unicode=")" horiz-adv-x="677" 
d="M287 219.5q80 109.5 80 370.5t-80 370.5t-125.5 139.5t-83.5 68t-38 92t38 92t92 38q114 0 285.5 -215.5t171.5 -584.5t-171.5 -584.5t-285.5 -215.5q-54 0 -92 38t-38 92t38 92t83.5 68t125.5 139.5z" />
    <glyph glyph-name="asterisk" unicode="*" horiz-adv-x="808" 
d="M529 579v-34q0 -52 -36.5 -88.5t-88.5 -36.5t-88.5 36.5t-36.5 88.5v34l-29 -18q-45 -27 -95 -15.5t-78 55.5q-27 44 -15.5 94.5t55.5 77.5l51 32l-51 32q-44 27 -55.5 77.5t15.5 94.5q28 44 78 55.5t95 -15.5l29 -18v34q0 52 36.5 88.5t88.5 36.5t88.5 -36.5t36.5 -88.5
v-34l29 18q45 27 95 15.5t78 -55.5q27 -44 15.5 -94.5t-55.5 -77.5l-51 -32l51 -32q44 -27 55.5 -77.5t-15.5 -94.5q-28 -44 -78 -55.5t-95 15.5z" />
    <glyph glyph-name="comma" unicode="," horiz-adv-x="424" 
d="M161 11q-69 15 -90 82t11 121q30 54 90.5 70.5t114.5 -14.5q54 -32 70.5 -92.5t-15.5 -114.5l-102 -172q-14 -24 -40.5 -31t-50.5 7t-31.5 41t6.5 51z" />
    <glyph glyph-name="period" unicode="." horiz-adv-x="420" 
d="M210 -10q-62 0 -106 44t-44 106t44 106t106 44t106 -44t44 -106t-44 -106t-106 -44z" />
    <glyph glyph-name="slash" unicode="/" horiz-adv-x="850" 
d="M296 61q-25 -48 -76.5 -64.5t-99.5 8.5t-64 76.5t9 99.5l489 938q25 48 76.5 64.5t99.5 -8.5t64 -76.5t-9 -99.5z" />
    <glyph glyph-name="colon" unicode=":" horiz-adv-x="420" 
d="M210 -10q-62 0 -106 44t-44 106t44 106t106 44t106 -44t44 -106t-44 -106t-106 -44zM210 590q-62 0 -106 44t-44 106t44 106t106 44t106 -44t44 -106t-44 -106t-106 -44z" />
    <glyph glyph-name="semicolon" unicode=";" horiz-adv-x="424" 
d="M213 590q-62 0 -106 44t-44 106t44 106t106 44t106 -44t44 -106t-44 -106t-106 -44zM161 11q-69 15 -90 82t11 121q30 54 90.5 70.5t114.5 -14.5q54 -32 70.5 -92.5t-15.5 -114.5l-102 -172q-14 -24 -40.5 -31t-50.5 7t-31.5 41t6.5 51z" />
    <glyph glyph-name="semicolon" unicode="&#x37e;" horiz-adv-x="424" 
d="M213 590q-62 0 -106 44t-44 106t44 106t106 44t106 -44t44 -106t-44 -106t-106 -44zM161 11q-69 15 -90 82t11 121q30 54 90.5 70.5t114.5 -14.5q54 -32 70.5 -92.5t-15.5 -114.5l-102 -172q-14 -24 -40.5 -31t-50.5 7t-31.5 41t6.5 51z" />
    <glyph glyph-name="question" unicode="?" horiz-adv-x="990" 
d="M477 -10q-54 0 -92 38t-38 92t38 92t92 38t92 -38t38 -92t-38 -92t-92 -38zM470 340q-54 0 -87 33t-33 87t33 87t87 33q85 0 141 35q79 66 69 140q0 84 -69.5 129.5t-140.5 45.5q-141 0 -208 -122q-38 -48 -92 -48t-92 38t-38 92t28 92q133 208 402 208q179 0 305 -107
q159 -131 165 -324q10 -186 -153 -330q-105 -64 -172.5 -77t-144.5 -12z" />
    <glyph glyph-name="at" unicode="@" horiz-adv-x="1280" 
d="M836 363q-83 -73 -196 -73q-124 0 -212 88t-88 212t88 212t212 88t212 -88t88 -232q0 -47 19.5 -64t42.5 -17t40 17t18 64q0 186 -127 313t-293 127t-293 -127t-127 -293t127 -293t293 -127t268 67t157 -9q55 -77 -60.5 -157.5t-364.5 -80.5t-424.5 175.5t-175.5 424.5
t175.5 424.5t424.5 175.5t424.5 -175.5t175.5 -424.5q-1 -134 -71.5 -207t-176.5 -73q-90 0 -156 53zM722.5 507.5q34.5 34.5 34.5 82.5t-34.5 82.5t-82.5 34.5t-82.5 -34.5t-34.5 -82.5t34.5 -82.5t82.5 -34.5t82.5 34.5z" />
    <glyph glyph-name="bracketleft" unicode="[" horiz-adv-x="540" 
d="M50 1250q0 54 38 92t92 38h190q54 0 92 -38t38 -92t-38 -92t-92 -38h-60v-1070h60q54 0 92 -38t38 -92t-38 -92t-92 -38h-190q-54 0 -92 38t-38 92v1330z" />
    <glyph glyph-name="backslash" unicode="\" horiz-adv-x="850" 
d="M65 999q-25 48 -9 99.5t64 76.5t99.5 8.5t76.5 -64.5l489 -938q25 -48 9 -99.5t-64 -76.5t-99.5 -8.5t-76.5 64.5z" />
    <glyph glyph-name="bracketright" unicode="]" horiz-adv-x="540" 
d="M490 -80q0 -54 -38 -92t-92 -38h-190q-54 0 -92 38t-38 92t38 92t92 38h60v1070h-60q-54 0 -92 38t-38 92t38 92t92 38h190q54 0 92 -38t38 -92v-1330z" />
    <glyph glyph-name="asciicircum" unicode="^" horiz-adv-x="982" 
d="M491 1072l-219 -219q-38 -39 -91.5 -39t-91.5 38q-39 39 -39 92.5t39 91.5l310 312q38 38 93 38q53 0 91 -38l310 -312q39 -38 39 -91.5t-39 -92.5q-38 -38 -91.5 -38t-91.5 39z" />
    <glyph glyph-name="circumflex" unicode="&#x2c6;" horiz-adv-x="692" 
d="M346 1029l-55 -56q-33 -33 -79 -33t-79 33t-33 79t33 79l133 134q33 33 79 33h2q46 0 78 -33l134 -134q33 -33 33 -79t-33 -79q-32 -33 -78.5 -33t-79.5 33z" />
    <glyph glyph-name="underscore" unicode="_" horiz-adv-x="800" 
d="M800 -100q0 -43 -28.5 -71.5t-71.5 -28.5h-600q-43 0 -71.5 28.5t-28.5 71.5t28.5 71.5t71.5 28.5h600q43 0 71.5 -28.5t28.5 -71.5z" />
    <glyph glyph-name="grave" unicode="`" horiz-adv-x="557" 
d="M457 1035q0 -27 -19.5 -46t-45.5 -19q-27 0 -121.5 16t-132.5 54t-38 92t38 92t92 38q53 0 91 -38t87 -100t49 -89z" />
    <glyph glyph-name="braceleft" unicode="{" horiz-adv-x="780" 
d="M170 720q39 0 64.5 25.5t25.5 64.5v230q0 147 101.5 248.5t248.5 101.5q54 0 92 -38t38 -92t-38 -92t-92 -38q-39 0 -64.5 -25.5t-25.5 -64.5v-230q0 -127 -76 -220q76 -93 76 -220v-230q0 -39 25.5 -64.5t64.5 -25.5q54 0 92 -38t38 -92t-38 -92t-92 -38
q-147 0 -248.5 101.5t-101.5 248.5v230q0 39 -25.5 64.5t-64.5 25.5q-54 0 -92 38t-38 92t38 92t92 38z" />
    <glyph glyph-name="bar" unicode="|" horiz-adv-x="460" 
d="M360 -80q0 -54 -38 -92t-92 -38t-92 38t-38 92v1340q0 54 38 92t92 38t92 -38t38 -92v-1340z" />
    <glyph glyph-name="braceright" unicode="}" horiz-adv-x="780" 
d="M702 682q38 -38 38 -92t-38 -92t-92 -38q-39 0 -64.5 -25.5t-25.5 -64.5v-230q0 -147 -101.5 -248.5t-248.5 -101.5q-54 0 -92 38t-38 92t38 92t92 38q39 0 64.5 25.5t25.5 64.5v230q0 127 76 220q-76 93 -76 220v230q0 39 -25.5 64.5t-64.5 25.5q-54 0 -92 38t-38 92
t38 92t92 38q147 0 248.5 -101.5t101.5 -248.5v-230q0 -39 25.5 -64.5t64.5 -25.5q54 0 92 -38z" />
    <glyph glyph-name="asciitilde" unicode="~" horiz-adv-x="1100" 
d="M306 444q-44 -44 -106 -44t-106 44t-44 106t99 146t211 84t192 -45t139 -44t103 45t106 44t106 -44t44 -106t-99 -146t-211 -84t-192 45t-139 44t-103 -45z" />
    <glyph glyph-name="exclamdown" unicode="&#xa1;" horiz-adv-x="380" 
d="M60 410q0 54 38 92t92 38t92 -38t38 -92v-590q0 -54 -38 -92t-92 -38t-92 38t-38 92v590zM190 890q54 0 92 -38t38 -92t-38 -92t-92 -38t-92 38t-38 92t38 92t92 38z" />
    <glyph glyph-name="brokenbar" unicode="&#xa6;" horiz-adv-x="460" 
d="M360 820q0 -54 -38 -92t-92 -38t-92 38t-38 92v440q0 54 38 92t92 38t92 -38t38 -92v-440zM360 -80q0 -54 -38 -92t-92 -38t-92 38t-38 92v440q0 54 38 92t92 38t92 -38t38 -92v-440z" />
    <glyph glyph-name="dieresis" unicode="&#xa8;" horiz-adv-x="760" 
d="M322 1212q38 -38 38 -92t-38 -92t-92 -38t-92 38t-38 92t38 92t92 38t92 -38zM622 1212q38 -38 38 -92t-38 -92t-92 -38t-92 38t-38 92t38 92t92 38t92 -38z" />
    <glyph glyph-name="macron" unicode="&#xaf;" horiz-adv-x="800" 
d="M800 1280q0 -43 -28.5 -71.5t-71.5 -28.5h-600q-43 0 -71.5 28.5t-28.5 71.5t28.5 71.5t71.5 28.5h600q43 0 71.5 -28.5t28.5 -71.5z" />
    <glyph glyph-name="uni02C9" unicode="&#x2c9;" horiz-adv-x="800" 
d="M700 1120q0 -43 -28.5 -71.5t-71.5 -28.5h-400q-43 0 -71.5 28.5t-28.5 71.5t28.5 71.5t71.5 28.5h400q43 0 71.5 -28.5t28.5 -71.5z" />
    <glyph glyph-name="acute" unicode="&#xb4;" horiz-adv-x="557" 
d="M235.5 1224q37.5 38 91.5 38t92 -38t38 -92t-38 -92t-132.5 -54t-121.5 -16t-46 19t-19 46t49 89t86.5 100z" />
    <glyph glyph-name="cedilla" unicode="&#xb8;" horiz-adv-x="665" 
d="M380 -36q58 1 111 -33q74 -53 74 -140q0 -96 -71.5 -150t-169.5 -54q-105 0 -164.5 42.5t-59.5 95.5q0 42 22 64.5t55 22.5q29 0 63 -36t99 -35t70 51q-1 39 -40 49t-78 4q-79 -6 -96 34q-8 39 21 86l19 35h158z" />
    <glyph glyph-name="questiondown" unicode="&#xbf;" horiz-adv-x="1010" 
d="M523 890q54 0 92 -38t38 -92t-38 -92t-92 -38t-92 38t-38 92t38 92t92 38zM530 540q54 0 87 -33t33 -87t-33 -87t-87 -33q-85 0 -141 -35q-79 -66 -69 -140q0 -84 69.5 -129.5t140.5 -45.5q141 0 208 122q38 48 92 48t92 -38t38 -92t-28 -92q-133 -208 -402 -208
q-179 0 -305 107q-159 131 -165 324q-10 186 153 330q105 64 172.5 77t144.5 12z" />
    <glyph glyph-name="caron" unicode="&#x2c7;" horiz-adv-x="692" 
d="M401 1265q33 33 79.5 33t78.5 -33q33 -32 33 -78.5t-33 -79.5l-134 -134q-32 -33 -78 -33h-2q-46 0 -79 33l-133 134q-33 33 -33 79.5t33 78.5q33 33 79 33t79 -33l55 -55z" />
    <glyph glyph-name="breve" unicode="&#x2d8;" horiz-adv-x="842" 
d="M421 1171q57 0 91 41q10 16 32.5 47t82.5 31q61 0 88 -35.5t27 -74.5q0 -68 -80.5 -148.5t-240.5 -80.5t-240.5 80.5t-80.5 148.5q0 39 27 74.5t88 35.5t83 -31t31 -47q36 -41 92 -41z" />
    <glyph glyph-name="dotaccent" unicode="&#x2d9;" horiz-adv-x="460" 
d="M322 1212q38 -38 38 -92t-38 -92t-92 -38t-92 38t-38 92t38 92t92 38t92 -38z" />
    <glyph glyph-name="ring" unicode="&#x2da;" horiz-adv-x="600" 
d="M300 920q-83 0 -141.5 58.5t-58.5 141.5t58.5 141.5t141.5 58.5t141.5 -58.5t58.5 -141.5t-58.5 -141.5t-141.5 -58.5zM353.5 1067q21.5 22 21.5 53q0 32 -21.5 53.5t-53.5 21.5q-31 0 -53 -21.5t-22 -53.5q0 -31 22 -53t53 -22q32 0 53.5 22z" />
    <glyph glyph-name="ogonek" unicode="&#x2db;" horiz-adv-x="698" 
d="M418 0q-112 -62 -116 -119t37 -65.5t76.5 9.5t77.5 18q46 0 75.5 -29.5t29.5 -75.5t-68 -97t-192 -51q-106 0 -172 49t-66 161q10 124 145 200h173z" />
    <glyph glyph-name="tilde" unicode="&#x2dc;" horiz-adv-x="840" 
d="M282 1006q-37 -36 -78 -36t-72.5 31.5t-31.5 82.5t35 87.5t81.5 56.5t98.5 20q51 0 108 -37q35 -22 69 -23q34 1 66 23q37 37 78 37q42 0 73 -31.5t31 -82.5q0 -52 -35 -88t-81.5 -56t-98.5 -20q-51 0 -108 36q-35 23 -69 24q-34 -1 -66 -24z" />
    <glyph glyph-name="hungarumlaut" unicode="&#x2dd;" horiz-adv-x="907" 
d="M235.5 1224q37.5 38 91.5 38t92 -38t38 -92t-38 -92t-132.5 -54t-121.5 -16t-46 19t-19 46t49 89t86.5 100zM585.5 1224q37.5 38 91.5 38t92 -38t38 -92t-38 -92t-132.5 -54t-121.5 -16t-46 19t-19 46t49 89t86.5 100z" />
    <glyph glyph-name="tonos" unicode="&#x384;" horiz-adv-x="460" 
d="M100 1170q0 54 38 92t92 38t92 -38t38 -92t-27.5 -120t-49 -88t-53.5 -22q-31 0 -53 22t-49.5 88t-27.5 120z" />
    <glyph glyph-name="dieresistonos" unicode="&#x385;" horiz-adv-x="960" 
d="M272 1212q38 -38 38 -92t-38 -92t-92 -38t-92 38t-38 92t38 92t92 38t92 -38zM872 1212q38 -38 38 -92t-38 -92t-92 -38t-92 38t-38 92t38 92t92 38t92 -38zM350 1170q0 54 38 92t92 38t92 -38t38 -92t-27.5 -120t-49 -88t-53.5 -22q-31 0 -53 22t-49.5 88t-27.5 120z
" />
    <glyph glyph-name="uni2016" unicode="&#x2016;" horiz-adv-x="760" 
d="M360 -80q0 -54 -38 -92t-92 -38t-92 38t-38 92v1340q0 54 38 92t92 38t92 -38t38 -92v-1340zM660 -80q0 -54 -38 -92t-92 -38t-92 38t-38 92v1340q0 54 38 92t92 38t92 -38t38 -92v-1340z" />
    <glyph glyph-name="underscoredbl" unicode="&#x2017;" horiz-adv-x="800" 
d="M800 0q0 -43 -28.5 -71.5t-71.5 -28.5h-600q-43 0 -71.5 28.5t-28.5 71.5t28.5 71.5t71.5 28.5h600q43 0 71.5 -28.5t28.5 -71.5zM800 -250q0 -43 -28.5 -71.5t-71.5 -28.5h-600q-43 0 -71.5 28.5t-28.5 71.5t28.5 71.5t71.5 28.5h600q43 0 71.5 -28.5t28.5 -71.5z" />
    <glyph glyph-name="quoteleft" unicode="&#x2018;" horiz-adv-x="424" 
d="M263 1037q69 -15 90 -82t-11 -121q-30 -54 -90.5 -70.5t-114.5 14.5q-54 32 -70.5 92.5t15.5 114.5l102 172q14 24 40.5 31t50.5 -7t31.5 -41t-6.5 -51z" />
    <glyph glyph-name="quoteright" unicode="&#x2019;" horiz-adv-x="424" 
d="M161 911q-69 15 -90 82t11 121q30 54 90.5 70.5t114.5 -14.5q54 -32 70.5 -92.5t-15.5 -114.5l-102 -172q-14 -24 -40.5 -31t-50.5 7t-31.5 41t6.5 51z" />
    <glyph glyph-name="quotesinglbase" unicode="&#x201a;" horiz-adv-x="424" 
d="M161 1q-69 15 -90 82t11 121q30 54 90.5 70.5t114.5 -14.5q54 -32 70.5 -92.5t-15.5 -114.5l-102 -172q-14 -24 -40.5 -31t-50.5 7t-31.5 41t6.5 51z" />
    <glyph glyph-name="quotereversed" unicode="&#x201b;" horiz-adv-x="424" 
d="M300 859q14 -24 6.5 -51t-31.5 -41t-50.5 -7t-40.5 31l-102 172q-32 54 -15.5 114.5t70.5 92.5q54 31 114.5 14.5t90.5 -70.5q32 -54 11 -121t-90 -82z" />
    <glyph glyph-name="quotedblleft" unicode="&#x201c;" horiz-adv-x="774" 
d="M263 1037q69 -15 90 -82t-11 -121q-30 -54 -90.5 -70.5t-114.5 14.5q-54 32 -70.5 92.5t15.5 114.5l102 172q14 24 40.5 31t50.5 -7t31.5 -41t-6.5 -51zM613 1037q69 -15 90 -82t-11 -121q-30 -54 -90.5 -70.5t-114.5 14.5q-54 32 -70.5 92.5t15.5 114.5l102 172
q14 24 40.5 31t50.5 -7t31.5 -41t-6.5 -51z" />
    <glyph glyph-name="quotedblright" unicode="&#x201d;" horiz-adv-x="774" 
d="M511 911q-69 15 -90 82t11 121q30 54 90.5 70.5t114.5 -14.5q54 -32 70.5 -92.5t-15.5 -114.5l-102 -172q-14 -24 -40.5 -31t-50.5 7t-31.5 41t6.5 51zM161 911q-69 15 -90 82t11 121q30 54 90.5 70.5t114.5 -14.5q54 -32 70.5 -92.5t-15.5 -114.5l-102 -172
q-14 -24 -40.5 -31t-50.5 7t-31.5 41t6.5 51z" />
    <glyph glyph-name="quotedblbase" unicode="&#x201e;" horiz-adv-x="774" 
d="M511 1q-69 15 -90 82t11 121q30 54 90.5 70.5t114.5 -14.5q54 -32 70.5 -92.5t-15.5 -114.5l-102 -172q-14 -24 -40.5 -31t-50.5 7t-31.5 41t6.5 51zM161 1q-69 15 -90 82t11 121q30 54 90.5 70.5t114.5 -14.5q54 -32 70.5 -92.5t-15.5 -114.5l-102 -172
q-14 -24 -40.5 -31t-50.5 7t-31.5 41t6.5 51z" />
    <glyph glyph-name="uni201F" unicode="&#x201f;" horiz-adv-x="774" 
d="M300 859q14 -24 6.5 -51t-31.5 -41t-50.5 -7t-40.5 31l-102 172q-32 54 -15.5 114.5t70.5 92.5q54 31 114.5 14.5t90.5 -70.5q32 -54 11 -121t-90 -82zM650 859q14 -24 6.5 -51t-31.5 -41t-50.5 -7t-40.5 31l-102 172q-32 54 -15.5 114.5t70.5 92.5q54 31 114.5 14.5
t90.5 -70.5q32 -54 11 -121t-90 -82z" />
    <glyph glyph-name="minute" unicode="&#x2032;" horiz-adv-x="420" 
d="M60 1040q0 62 44 106t106 44t106 -44t44 -106t-65 -149t-89.5 -111.5t-60.5 -24.5t-60.5 24.5t-24.5 60.5v200z" />
    <glyph glyph-name="second" unicode="&#x2033;" horiz-adv-x="770" 
d="M60 1040q0 62 44 106t106 44t106 -44t44 -106t-65 -149t-89.5 -111.5t-60.5 -24.5t-60.5 24.5t-24.5 60.5v200zM410 1040q0 62 44 106t106 44t106 -44t44 -106t-65 -149t-89.5 -111.5t-60.5 -24.5t-60.5 24.5t-24.5 60.5v200z" />
    <glyph glyph-name="guilsinglleft" unicode="&#x2039;" horiz-adv-x="552" 
d="M328 590l159 -185q25 -47 8.5 -98.5t-63.5 -76.5q-48 -25 -99.5 -9t-76.5 64l-190 244q-16 30 -15 61q-1 31 15 61l190 243q25 49 76.5 65t99.5 -9q47 -25 63.5 -76.5t-8.5 -98.5z" />
    <glyph glyph-name="guilsinglright" unicode="&#x203a;" horiz-adv-x="552" 
d="M65 775q-25 47 -8.5 98.5t63.5 76.5q48 25 99.5 9t76.5 -65l190 -243q16 -30 15 -61q1 -31 -15 -61l-190 -244q-25 -48 -76.5 -64t-99.5 9q-47 25 -63.5 76.5t8.5 98.5l159 185z" />
    <glyph glyph-name="exclamdbl" unicode="&#x203c;" horiz-adv-x="730" 
d="M320 470q0 -54 -38 -92t-92 -38t-92 38t-38 92v590q0 54 38 92t92 38t92 -38t38 -92v-590zM190 -10q-54 0 -92 38t-38 92t38 92t92 38t92 -38t38 -92t-38 -92t-92 -38zM670 470q0 -54 -38 -92t-92 -38t-92 38t-38 92v590q0 54 38 92t92 38t92 -38t38 -92v-590zM540 -10
q-54 0 -92 38t-38 92t38 92t92 38t92 -38t38 -92t-38 -92t-92 -38z" />
    <glyph glyph-name="uni203E" unicode="&#x203e;" horiz-adv-x="800" 
d="M800 1280q0 -43 -28.5 -71.5t-71.5 -28.5h-600q-43 0 -71.5 28.5t-28.5 71.5t28.5 71.5t71.5 28.5h600q43 0 71.5 -28.5t28.5 -71.5z" />
    <glyph glyph-name="plus" unicode="+" horiz-adv-x="1000" 
d="M630 720h190q54 0 92 -38t38 -92t-38 -92t-92 -38h-190v-190q0 -54 -38 -92t-92 -38t-92 38t-38 92v190h-190q-54 0 -92 38t-38 92t38 92t92 38h190v190q0 54 38 92t92 38t92 -38t38 -92v-190z" />
    <glyph glyph-name="minus" unicode="&#x2212;" horiz-adv-x="1000" 
d="M820 720q54 0 92 -38t38 -92t-38 -92t-92 -38h-640q-54 0 -92 38t-38 92t38 92t92 38h640z" />
    <glyph glyph-name="fraction" unicode="&#x2044;" horiz-adv-x="120" 
d="M-327 6q-35 23 -43 63.5t15 75.5l663 1000q22 35 63 43t75 -14q35 -23 43 -63.5t-15 -75.5l-662 -1000q-23 -35 -63.5 -43t-75.5 14z" />
    <glyph glyph-name="fraction" unicode="&#x2215;" horiz-adv-x="120" 
d="M-327 6q-35 23 -43 63.5t15 75.5l663 1000q22 35 63 43t75 -14q35 -23 43 -63.5t-15 -75.5l-662 -1000q-23 -35 -63.5 -43t-75.5 14z" />
    <glyph glyph-name="less" unicode="&#x3c;" horiz-adv-x="1009" 
d="M50 590q0 78 68 116l648 330q46 24 95.5 8.5t73.5 -61.5t8 -95.5t-62 -73.5l-436 -224l436 -225q46 -24 62 -73.5t-8 -95.5t-73.5 -61.5t-95.5 8.5l-648 330q-68 38 -68 117z" />
    <glyph glyph-name="equal" unicode="=" horiz-adv-x="1000" 
d="M820 890q54 0 92 -38t38 -92t-38 -92t-92 -38h-640q-54 0 -92 38t-38 92t38 92t92 38h640zM820 550q54 0 92 -38t38 -92t-38 -92t-92 -38h-640q-54 0 -92 38t-38 92t38 92t92 38h640z" />
    <glyph glyph-name="greater" unicode="&#x3e;" horiz-adv-x="1009" 
d="M891 473l-648 -330q-46 -24 -95.5 -8.5t-73.5 61.5t-8 95.5t62 73.5l436 225l-436 224q-46 24 -62 73.5t8 95.5t73.5 61.5t95.5 -8.5l648 -330q68 -38 68 -116q0 -79 -68 -117z" />
    <glyph glyph-name="plusminus" unicode="&#xb1;" horiz-adv-x="1000" 
d="M630 780h190q54 0 92 -38t38 -92t-38 -92t-92 -38h-190v-190h190q54 0 92 -38t38 -92t-38 -92t-92 -38h-640q-54 0 -92 38t-38 92t38 92t92 38h190v190h-190q-54 0 -92 38t-38 92t38 92t92 38h190v190q0 54 38 92t92 38t92 -38t38 -92v-190z" />
    <glyph glyph-name="guillemotleft" unicode="&#xab;" horiz-adv-x="952" 
d="M328 590l159 -185q25 -47 8.5 -98.5t-63.5 -76.5q-48 -25 -99.5 -9t-76.5 64l-190 244q-16 30 -15 61q-1 31 15 61l190 243q25 49 76.5 65t99.5 -9q47 -25 63.5 -76.5t-8.5 -98.5zM728 590l159 -185q25 -47 8.5 -98.5t-63.5 -76.5q-48 -25 -99.5 -9t-76.5 64l-190 244
q-16 30 -15 61q-1 31 15 61l190 243q25 49 76.5 65t99.5 -9q47 -25 63.5 -76.5t-8.5 -98.5z" />
    <glyph glyph-name="guillemotright" unicode="&#xbb;" horiz-adv-x="952" 
d="M65 775q-25 47 -8.5 98.5t63.5 76.5q48 25 99.5 9t76.5 -65l190 -243q16 -30 15 -61q1 -31 -15 -61l-190 -244q-25 -48 -76.5 -64t-99.5 9q-47 25 -63.5 76.5t8.5 98.5l159 185zM465 775q-25 47 -8.5 98.5t63.5 76.5q48 25 99.5 9t76.5 -65l190 -243q16 -30 15 -61
q1 -31 -15 -61l-190 -244q-25 -48 -76.5 -64t-99.5 9q-47 25 -63.5 76.5t8.5 98.5l159 185z" />
    <glyph glyph-name="multiply" unicode="&#xd7;" horiz-adv-x="993" 
d="M497 774l224 224q38 38 92 38t92 -38t38 -92t-38 -92l-224 -224l224 -224q38 -39 38 -92.5t-38 -91.5q-39 -39 -92.5 -38.5t-91.5 38.5l-224 224l-225 -224q-38 -38 -92 -38t-92 38t-38 92t38 92l224 224l-224 224q-38 39 -38 92.5t38 91.5q39 39 92.5 38.5t91.5 -38.5z
" />
    <glyph glyph-name="divide" unicode="&#xf7;" horiz-adv-x="1000" 
d="M820 720q54 0 92 -38t38 -92t-38 -92t-92 -38h-640q-54 0 -92 38t-38 92t38 92t92 38h640zM500 110q-62 0 -106 44t-44 106t44 106t106 44t106 -44t44 -106t-44 -106t-106 -44zM500 770q-62 0 -106 44t-44 106t44 106t106 44t106 -44t44 -106t-44 -106t-106 -44z" />
    <glyph glyph-name="universal" unicode="&#x2200;" horiz-adv-x="1270" 
d="M496 680l139 -279l140 279h-279zM994 1119q25 48 76.5 64.5t99.5 -8.5t64 -76.5t-9 -99.5l-469 -938q-39 -72 -121 -71q-82 -1 -121 71l-469 938q-25 48 -9 99.5t64 76.5t99.5 8.5t76.5 -64.5l90 -179h539z" />
    <glyph glyph-name="partialdiff" unicode="&#x2202;" horiz-adv-x="980" 
d="M490 250q79 0 129.5 50.5t50.5 119.5t-50.5 119.5t-129.5 50.5t-129.5 -50.5t-50.5 -119.5t50.5 -119.5t129.5 -50.5zM268 976q-34 42 -29.5 95.5t45.5 88.5q42 34 95.5 29.5t87.5 -45.5l353 -427q110 -131 110 -297q0 -167 -126.5 -298.5t-313.5 -131.5t-313.5 131.5
t-126.5 298.5t131 299q99 98 223 97z" />
    <glyph glyph-name="existential" unicode="&#x2203;" horiz-adv-x="890" 
d="M802 1142q38 -38 38 -92v-920q0 -54 -38 -92t-92 -38h-540q-54 0 -92 38t-38 92t38 92t92 38h410v200h-410q-54 0 -92 38t-38 92t38 92t92 38h410v200h-410q-54 0 -92 38t-38 92t38 92t92 38h540q54 0 92 -38z" />
    <glyph glyph-name="emptyset" unicode="&#x2205;" horiz-adv-x="1100" 
d="M462 366q41 -16 88 -16q100 0 170 70t70 170q0 47 -16 88zM325 503l313 311q-41 16 -88 16q-100 0 -170 -70t-70 -170q0 -47 15 -87zM966 869q84 -122 84 -279q0 -207 -146 -353.5t-354 -146.5q-157 0 -279 84l-66 -65q-28 -29 -68 -29t-69 29q-28 28 -28 68t28 69l66 66
q-84 122 -84 278q0 208 146.5 354t353.5 146q158 0 280 -84l65 65q28 29 68 29t68 -29q29 -28 29 -68t-29 -69z" />
    <glyph glyph-name="Delta" unicode="&#x2206;" horiz-adv-x="1270" 
d="M898 260l-263 519l-263 -519h526zM100 15q-48 25 -64 76.5t9 99.5l469 928q39 72 121 71q82 1 121 -71l469 -928q25 -48 9 -99.5t-64 -76.5q-32 -15 -60 -15h-950q-28 0 -60 15z" />
    <glyph glyph-name="element" unicode="&#x2208;" 
d="M333 460q17 -29 43 -54q75 -76 184 -76h460q54 0 92 -38t38 -92t-38 -92t-92 -38h-460q-217 0 -368.5 151.5t-151.5 368.5t151.5 368.5t368.5 151.5h460q54 0 92 -38t38 -92t-38 -92t-92 -38h-460q-109 0 -184 -75q-26 -26 -43 -55h687q54 0 92 -38t38 -92t-38 -92
t-92 -38h-687z" />
    <glyph glyph-name="suchthat" unicode="&#x220b;" 
d="M867 720q-17 29 -42 55q-76 75 -185 75h-460q-54 0 -92 38t-38 92t38 92t92 38h460q217 0 368.5 -151.5t151.5 -368.5t-151.5 -368.5t-368.5 -151.5h-460q-54 0 -92 38t-38 92t38 92t92 38h460q109 0 185 76q25 25 42 54h-687q-54 0 -92 38t-38 92t38 92t92 38h687z" />
    <glyph glyph-name="product" unicode="&#x220f;" horiz-adv-x="1215" 
d="M430 920v-1000q0 -54 -38 -92t-92 -38t-92 38t-38 92v1000q-54 0 -92 38t-38 92t38 92t92 38h875q54 0 92 -38t38 -92t-38 -92t-92 -38v-1000q0 -54 -38 -92t-92 -38t-92 38t-38 92v1000h-355z" />
    <glyph glyph-name="summation" unicode="&#x2211;" horiz-adv-x="1000" 
d="M418 60h412q54 0 92 -38t38 -92t-38 -92t-92 -38h-649q-24 -2 -44 4q-33 8 -59 34q-38 38 -38 102q0 61 34 98l359 452l-359 452q-34 37 -34 98q0 64 38 102q26 26 59 34q20 6 44 4h649q54 0 92 -38t38 -92t-38 -92t-92 -38h-412l264 -338q38 -38 38 -92t-38 -92z" />
    <glyph glyph-name="radical" unicode="&#x221a;" horiz-adv-x="1215" 
d="M531 374l388 745q25 48 76.5 64.5t99.5 -8.5t64 -76.5t-9 -99.5l-489 -938q-49 -72 -121 -71q-72 -1 -121 71l-164 267l-14 -8q-48 -25 -99.5 -9t-76.5 64t-8.5 99.5t64.5 76.5l114 74q48 25 99.5 8.5t76.5 -64.5z" />
    <glyph glyph-name="orthogonal" unicode="&#x221f;" horiz-adv-x="1190" 
d="M310 310h700q54 0 92 -38t38 -92t-38 -92t-92 -38h-830q-54 0 -92 38t-38 92v830q0 54 38 92t92 38t92 -38t38 -92v-700z" />
    <glyph glyph-name="logicaland" unicode="&#x2227;" horiz-adv-x="1170" 
d="M706 1069l419 -838q25 -48 9 -99.5t-64 -76.5t-99.5 -8.5t-76.5 64.5l-309 618l-309 -618q-25 -48 -76.5 -64.5t-99.5 8.5t-64 76.5t9 99.5l419 838q39 71 121 71t121 -71z" />
    <glyph glyph-name="logicalor" unicode="&#x2228;" horiz-adv-x="1170" 
d="M585 40q-82 0 -121 71l-419 838q-25 48 -9 99.5t64 76.5t99.5 8.5t76.5 -64.5l309 -618l309 618q25 48 76.5 64.5t99.5 -8.5t64 -76.5t-9 -99.5l-419 -838q-39 -71 -121 -71z" />
    <glyph glyph-name="intersection" unicode="&#x2229;" horiz-adv-x="1040" 
d="M679.5 819.5q-50.5 60.5 -159.5 60.5t-159.5 -60.5t-50.5 -169.5v-480q0 -54 -38 -92t-92 -38t-92 38t-38 92v480q0 217 126.5 353.5t343.5 136.5t343.5 -136.5t126.5 -353.5v-480q0 -54 -38 -92t-92 -38t-92 38t-38 92v480q0 109 -50.5 169.5z" />
    <glyph glyph-name="union" unicode="&#x222a;" horiz-adv-x="1040" 
d="M730 530v480q0 54 38 92t92 38t92 -38t38 -92v-480q0 -217 -126.5 -353.5t-343.5 -136.5t-343.5 136.5t-126.5 353.5v480q0 54 38 92t92 38t92 -38t38 -92v-480q0 -109 50.5 -169.5t159.5 -60.5t159.5 60.5t50.5 169.5z" />
    <glyph glyph-name="integral" unicode="&#x222b;" horiz-adv-x="800" 
d="M270 1040q0 147 101.5 248.5t248.5 101.5q54 0 92 -38t38 -92t-38 -92t-92 -38q-39 0 -64.5 -25.5t-25.5 -64.5v-900q0 -147 -101.5 -248.5t-248.5 -101.5q-54 0 -92 38t-38 92t38 92t92 38q39 0 64.5 25.5t25.5 64.5v900z" />
    <glyph glyph-name="therefore" unicode="&#x2234;" 
d="M200 40q-62 0 -106 44t-44 106t44 106t106 44t106 -44t44 -106t-44 -106t-106 -44zM600 840q-62 0 -106 44t-44 106t44 106t106 44t106 -44t44 -106t-44 -106t-106 -44zM1000 40q-62 0 -106 44t-44 106t44 106t106 44t106 -44t44 -106t-44 -106t-106 -44z" />
    <glyph glyph-name="similar" unicode="&#x223c;" horiz-adv-x="1100" 
d="M306 444q-44 -44 -106 -44t-106 44t-44 106t99 146t211 84t192 -45t139 -44t103 45t106 44t106 -44t44 -106t-99 -146t-211 -84t-192 45t-139 44t-103 -45z" />
    <glyph glyph-name="approxequal" unicode="&#x2248;" horiz-adv-x="1100" 
d="M306 644q-44 -44 -106 -44t-106 44t-44 106t99 146t211 84t192 -45t139 -44t103 45t106 44t106 -44t44 -106t-99 -146t-211 -84t-192 45t-139 44t-103 -45zM306 244q-44 -44 -106 -44t-106 44t-44 106t99 146t211 84t192 -45t139 -44t103 45t106 44t106 -44t44 -106
t-99 -146t-211 -84t-192 45t-139 44t-103 -45z" />
    <glyph glyph-name="notequal" unicode="&#x2260;" horiz-adv-x="1000" 
d="M789 890h31q54 0 92 -38t38 -92t-38 -92t-92 -38h-181l-46 -80h227q54 0 92 -38t38 -92t-38 -92t-92 -38h-377l-90 -155q-23 -35 -63.5 -43t-75.5 14q-35 23 -43 63.5t15 75.5l26 45h-32q-54 0 -92 38t-38 92t38 92t92 38h183l46 80h-229q-54 0 -92 38t-38 92t38 92
t92 38h379l90 155q22 35 63 43t75 -14q35 -23 43 -63.5t-15 -75.5z" />
    <glyph glyph-name="equivalence" unicode="&#x2261;" horiz-adv-x="1000" 
d="M820 720q54 0 92 -38t38 -92t-38 -92t-92 -38h-640q-54 0 -92 38t-38 92t38 92t92 38h640zM820 1040q54 0 92 -38t38 -92t-38 -92t-92 -38h-640q-54 0 -92 38t-38 92t38 92t92 38h640zM820 400q54 0 92 -38t38 -92t-38 -92t-92 -38h-640q-54 0 -92 38t-38 92t38 92t92 38
h640z" />
    <glyph glyph-name="lessequal" unicode="&#x2264;" horiz-adv-x="1009" 
d="M50 740q0 78 68 116l648 280q46 24 95.5 8.5t73.5 -61.5t8 -95.5t-62 -73.5l-436 -174l436 -175q46 -24 62 -73.5t-8 -95.5t-73.5 -61.5t-95.5 8.5l-648 280q-68 38 -68 117zM820 300q54 0 92 -38t38 -92t-38 -92t-92 -38h-640q-54 0 -92 38t-38 92t38 92t92 38h640z" />
    <glyph glyph-name="greaterequal" unicode="&#x2265;" horiz-adv-x="1009" 
d="M891 623l-648 -280q-46 -24 -95.5 -8.5t-73.5 61.5t-8 95.5t62 73.5l436 175l-436 174q-46 24 -62 73.5t8 95.5t73.5 61.5t95.5 -8.5l648 -280q68 -38 68 -116q0 -79 -68 -117zM830 300q54 0 92 -38t38 -92t-38 -92t-92 -38h-640q-54 0 -92 38t-38 92t38 92t92 38h640z
" />
    <glyph glyph-name="propersubset" unicode="&#x2282;" 
d="M560 330h460q54 0 92 -38t38 -92t-38 -92t-92 -38h-460q-217 0 -368.5 151.5t-151.5 368.5t151.5 368.5t368.5 151.5h460q54 0 92 -38t38 -92t-38 -92t-92 -38h-460q-109 0 -184.5 -75.5t-75.5 -184.5t75.5 -184.5t184.5 -75.5z" />
    <glyph glyph-name="propersuperset" unicode="&#x2283;" 
d="M824.5 405.5q75.5 75.5 75.5 184.5t-75.5 184.5t-184.5 75.5h-460q-54 0 -92 38t-38 92t38 92t92 38h460q217 0 368.5 -151.5t151.5 -368.5t-151.5 -368.5t-368.5 -151.5h-460q-54 0 -92 38t-38 92t38 92t92 38h460q109 0 184.5 75.5z" />
    <glyph glyph-name="reflexsubset" unicode="&#x2286;" horiz-adv-x="1009" 
d="M820 300q54 0 92 -38t38 -92t-38 -92t-92 -38h-640q-54 0 -92 38t-38 92t38 92t92 38h640zM358 839.5q-48 -40.5 -48 -99.5t48 -99.5t157 -40.5h305q54 0 92 -38t38 -92t-38 -92t-92 -38h-305q-217 0 -341 116.5t-124 283.5t124 283.5t341 116.5h305q54 0 92 -38t38 -92
t-38 -92t-92 -38h-305q-109 0 -157 -40.5z" />
    <glyph glyph-name="reflexsuperset" unicode="&#x2287;" horiz-adv-x="1009" 
d="M830 300q54 0 92 -38t38 -92t-38 -92t-92 -38h-640q-54 0 -92 38t-38 92t38 92t92 38h640zM495 880h-305q-54 0 -92 38t-38 92t38 92t92 38h305q217 0 341 -116.5t124 -283.5t-124 -283.5t-341 -116.5h-305q-54 0 -92 38t-38 92t38 92t92 38h305q109 0 157 40.5t48 99.5
t-48 99.5t-157 40.5z" />
    <glyph glyph-name="house" unicode="&#x2302;" horiz-adv-x="1182" 
d="M50 645q0 53 39 91l410 412q38 38 93 38q53 0 91 -38l410 -412q39 -38 39 -91v-515q0 -54 -38 -92t-92 -38h-822q-54 0 -92 38t-38 92v515zM872 591l-281 281l-281 -281v-331h562v331z" />
    <glyph glyph-name="revlogicalnot" unicode="&#x2310;" horiz-adv-x="1090" 
d="M310 635v-210q0 -54 -38 -92t-92 -38t-92 38t-38 92v340q0 54 38 92t92 38h730q54 0 92 -38t38 -92t-38 -92t-92 -38h-600z" />
    <glyph glyph-name="integraltp" unicode="&#x2320;" horiz-adv-x="800" 
d="M270 1040q0 147 101.5 248.5t248.5 101.5q54 0 92 -38t38 -92t-38 -92t-92 -38q-39 0 -64.5 -25.5t-25.5 -64.5v-1450h-260v1450z" />
    <glyph glyph-name="integralbt" unicode="&#x2321;" horiz-adv-x="800" 
d="M270 1590h260v-1450q0 -147 -101.5 -248.5t-248.5 -101.5q-54 0 -92 38t-38 92t38 92t92 38q39 0 64.5 25.5t25.5 64.5v1450z" />
    <glyph glyph-name="filledbox" unicode="&#x25a0;" horiz-adv-x="1280" 
d="M1100 0h-920q-54 0 -92 38t-38 92v920q0 54 38 92t92 38h920q54 0 92 -38t38 -92v-920q0 -54 -38 -92t-92 -38z" />
    <glyph glyph-name="H22073" unicode="&#x25a1;" horiz-adv-x="1280" 
d="M210 1020v-860h860v860h-860zM1100 0h-920q-54 0 -92 38t-38 92v920q0 54 38 92t92 38h920q54 0 92 -38t38 -92v-920q0 -54 -38 -92t-92 -38z" />
    <glyph glyph-name="H18543" unicode="&#x25aa;" horiz-adv-x="480" 
d="M360 400h-240q-29 0 -49.5 20.5t-20.5 49.5v240q0 29 20.5 49.5t49.5 20.5h240q29 0 49.5 -20.5t20.5 -49.5v-240q0 -29 -20.5 -49.5t-49.5 -20.5z" />
    <glyph glyph-name="H18551" unicode="&#x25ab;" horiz-adv-x="480" 
d="M160 670v-160h160v160h-160zM360 400h-240q-29 0 -49.5 20.5t-20.5 49.5v240q0 29 20.5 49.5t49.5 20.5h240q29 0 49.5 -20.5t20.5 -49.5v-240q0 -29 -20.5 -49.5t-49.5 -20.5z" />
    <glyph glyph-name="filledrect" unicode="&#x25ac;" horiz-adv-x="1280" 
d="M1100 300h-920q-54 0 -92 38t-38 92v320q0 54 38 92t92 38h920q54 0 92 -38t38 -92v-320q0 -54 -38 -92t-92 -38z" />
    <glyph glyph-name="triagup" unicode="&#x25b2;" horiz-adv-x="1270" 
d="M100 15q-48 25 -64 76.5t9 99.5l469 928q39 72 121 71q82 1 121 -71l469 -928q25 -48 9 -99.5t-64 -76.5q-32 -15 -60 -15h-950q-28 0 -60 15z" />
    <glyph glyph-name="uni25B3" unicode="&#x25b3;" horiz-adv-x="1270" 
d="M1073 160l-438 869l-438 -869h876zM100 15q-48 25 -64 76.5t9 99.5l469 928q39 72 121 71q82 1 121 -71l469 -928q25 -48 9 -99.5t-64 -76.5q-32 -15 -60 -15h-950q-28 0 -60 15z" />
    <glyph glyph-name="uni25B6" unicode="&#x25b6;" horiz-adv-x="1270" 
d="M55 1125q25 48 76.5 64t99.5 -9l928 -469q72 -39 71 -121q1 -82 -71 -121l-928 -469q-48 -25 -99.5 -9t-76.5 64q-15 32 -15 60v950q0 28 15 60z" />
    <glyph glyph-name="uni25B7" unicode="&#x25b7;" horiz-adv-x="1270" 
d="M200 152l869 438l-869 438v-876zM55 1125q25 48 76.5 64t99.5 -9l928 -469q72 -39 71 -121q1 -82 -71 -121l-928 -469q-48 -25 -99.5 -9t-76.5 64q-15 32 -15 60v950q0 28 15 60z" />
    <glyph glyph-name="triagdn" unicode="&#x25bc;" horiz-adv-x="1270" 
d="M160 1180h950q28 0 60 -15q48 -25 64 -76.5t-9 -99.5l-469 -928q-39 -72 -121 -71q-82 -1 -121 71l-469 928q-25 48 -9 99.5t64 76.5q32 15 60 15z" />
    <glyph glyph-name="uni25BD" unicode="&#x25bd;" horiz-adv-x="1270" 
d="M197 1020l438 -869l438 869h-876zM160 1180h950q28 0 60 -15q48 -25 64 -76.5t-9 -99.5l-469 -928q-39 -72 -121 -71q-82 -1 -121 71l-469 928q-25 48 -9 99.5t64 76.5q32 15 60 15z" />
    <glyph glyph-name="uni25C0" unicode="&#x25c0;" horiz-adv-x="1270" 
d="M1230 1065v-950q0 -28 -15 -60q-25 -48 -76.5 -64t-99.5 9l-928 469q-72 39 -71 121q-1 82 71 121l928 469q48 25 99.5 9t76.5 -64q15 -32 15 -60z" />
    <glyph glyph-name="uni25C1" unicode="&#x25c1;" horiz-adv-x="1270" 
d="M1070 1028l-869 -438l869 -438v876zM1230 1065v-950q0 -28 -15 -60q-25 -48 -76.5 -64t-99.5 9l-928 469q-72 39 -71 121q-1 82 71 121l928 469q48 25 99.5 9t76.5 -64q15 -32 15 -60z" />
    <glyph glyph-name="triagrt" unicode="&#x25ba;" horiz-adv-x="842" 
d="M282 28q-38 -38 -92 -38t-92 38t-38 92v940q0 54 38 92t92 38t92 -38l472 -470q38 -38 38 -93q0 -53 -38 -91z" />
    <glyph glyph-name="triaglf" unicode="&#x25c4;" horiz-adv-x="842" 
d="M88 498q-38 38 -38 91q0 55 38 93l472 470q38 38 92 38t92 -38t38 -92v-940q0 -54 -38 -92t-92 -38t-92 38z" />
    <glyph glyph-name="uni25C6" unicode="&#x25c6;" horiz-adv-x="1280" 
d="M1201 498l-470 -470q-38 -38 -92 -38t-92 39l-469 470q-38 38 -38 91.5t38 91.5l470 470q38 38 92 38t92 -39l469 -470q38 -38 38 -91.5t-38 -91.5z" />
    <glyph glyph-name="uni25C7" unicode="&#x25c7;" horiz-adv-x="1280" 
d="M210 590l430 -430l430 430l-430 430zM1201 498l-470 -470q-38 -38 -92 -38t-92 39l-469 470q-38 38 -38 91.5t38 91.5l470 470q38 38 92 38t92 -39l469 -470q38 -38 38 -91.5t-38 -91.5z" />
    <glyph glyph-name="lozenge" unicode="&#x25ca;" horiz-adv-x="1035" 
d="M764 590l-246 490l-248 -490l248 -490zM997 636q7 -22 7 -46t-7 -46v-1q-7 -21 -19 -39l-317 -628q-39 -86 -143 -86q-105 0 -144 86l-325 640q-19 36 -18 74q-1 38 18 74l325 640q39 86 144 86q104 0 143 -86l317 -628q12 -18 19 -39v-1z" />
    <glyph glyph-name="circle" unicode="&#x25cb;" horiz-adv-x="1280" 
d="M640 -10q-249 0 -424.5 175.5t-175.5 424.5t175.5 424.5t424.5 175.5t424.5 -175.5t175.5 -424.5t-175.5 -424.5t-424.5 -175.5zM951 279q129 129 129 311t-129 311t-311 129t-311 -129t-129 -311t129 -311t311 -129t311 129z" />
    <glyph glyph-name="uni25CE" unicode="&#x25ce;" horiz-adv-x="1280" 
d="M640 -10q-249 0 -424.5 175.5t-175.5 424.5t175.5 424.5t424.5 175.5t424.5 -175.5t175.5 -424.5t-175.5 -424.5t-424.5 -175.5zM951 279q129 129 129 311t-129 311t-311 129t-311 -129t-129 -311t129 -311t311 -129t311 129zM645 290q-122 0 -208.5 86.5t-86.5 208.5
t86.5 208.5t208.5 86.5t208.5 -86.5t86.5 -208.5t-86.5 -208.5t-208.5 -86.5zM727 503q34 34 34 82t-34 82t-82 34t-82 -34t-34 -82t34 -82t82 -34t82 34z" />
    <glyph glyph-name="H18533" unicode="&#x25cf;" horiz-adv-x="1280" 
d="M640 -10q-249 0 -424.5 175.5t-175.5 424.5t175.5 424.5t424.5 175.5t424.5 -175.5t175.5 -424.5t-175.5 -424.5t-424.5 -175.5z" />
    <glyph glyph-name="invcircle" unicode="&#x25d9;" horiz-adv-x="1280" 
d="M1100 0h-920q-54 0 -92 38t-38 92v920q0 54 38 92t92 38h920q54 0 92 -38t38 -92v-920q0 -54 -38 -92t-92 -38zM640 340q-103 0 -176.5 73.5t-73.5 176.5t73.5 176.5t176.5 73.5t176.5 -73.5t73.5 -176.5t-73.5 -176.5t-176.5 -73.5zM951 279q129 129 129 311t-129 311
t-311 129t-311 -129t-129 -311t129 -311t311 -129t311 129z" />
    <glyph glyph-name="invbullet" unicode="&#x25d8;" horiz-adv-x="1280" 
d="M1100 0h-920q-54 0 -92 38t-38 92v920q0 54 38 92t92 38h920q54 0 92 -38t38 -92v-920q0 -54 -38 -92t-92 -38zM816.5 413.5q73.5 73.5 73.5 176.5t-73.5 176.5t-176.5 73.5t-176.5 -73.5t-73.5 -176.5t73.5 -176.5t176.5 -73.5t176.5 73.5z" />
    <glyph glyph-name="openbullet" unicode="&#x25e6;" horiz-adv-x="600" 
d="M300 340q-103 0 -176.5 73.5t-73.5 176.5t73.5 176.5t176.5 73.5t176.5 -73.5t73.5 -176.5t-73.5 -176.5t-176.5 -73.5zM382.5 507.5q34.5 34.5 34.5 82.5t-34.5 82.5t-82.5 34.5t-82.5 -34.5t-34.5 -82.5t34.5 -82.5t82.5 -34.5t82.5 34.5z" />
    <glyph glyph-name="arrowup" unicode="&#x2191;" horiz-adv-x="982" 
d="M361 747l-89 -89q-38 -39 -91.5 -39t-91.5 38q-39 39 -39 92.5t39 91.5l310 312q38 38 93 38q53 0 91 -38l310 -312q39 -38 39 -91.5t-39 -92.5q-38 -38 -91.5 -38t-91.5 39l-89 89v-627q0 -54 -38 -92t-92 -38t-92 38t-38 92v627z" />
    <glyph glyph-name="arrowright" unicode="&#x2192;" horiz-adv-x="1300" 
d="M722 809q-39 38 -39 91.5t38 91.5q39 39 92.5 39t91.5 -39l312 -310q38 -38 38 -91q0 -55 -38 -93l-312 -310q-38 -39 -91.5 -39t-92.5 39q-38 38 -38 91.5t39 91.5l89 89h-631q-54 0 -92 38t-38 92t38 92t92 38h631z" />
    <glyph glyph-name="arrowdown" unicode="&#x2193;" horiz-adv-x="982" 
d="M361 1060q0 54 38 92t92 38t92 -38t38 -92v-627l89 89q38 39 91.5 39t91.5 -38q39 -39 39 -92.5t-39 -91.5l-310 -312q-38 -38 -91 -38q-55 0 -93 38l-310 312q-39 38 -39 91.5t39 92.5q38 38 91.5 38t91.5 -39l89 -89v627z" />
    <glyph glyph-name="arrowleft" unicode="&#x2190;" horiz-adv-x="1300" 
d="M489 720h631q54 0 92 -38t38 -92t-38 -92t-92 -38h-631l89 -89q39 -38 39 -91.5t-38 -91.5q-39 -39 -92.5 -39t-91.5 39l-312 310q-38 38 -38 93q0 53 38 91l312 310q38 39 91.5 39t92.5 -39q38 -38 38 -91.5t-39 -91.5z" />
    <glyph glyph-name="arrowboth" unicode="&#x2194;" horiz-adv-x="1500" 
d="M489 460l89 -89q39 -38 39 -91.5t-38 -91.5q-39 -39 -92.5 -39t-91.5 39l-312 310q-38 38 -38 93q0 53 38 91l312 310q38 39 91.5 39t92.5 -39q38 -38 38 -91.5t-39 -91.5l-89 -89h522l-89 89q-39 38 -39 91.5t38 91.5q39 39 92.5 39t91.5 -39l312 -310q38 -38 38 -91
q0 -55 -38 -93l-312 -310q-38 -39 -91.5 -39t-92.5 39q-38 38 -38 91.5t39 91.5l89 89h-522z" />
    <glyph glyph-name="arrowupdn" unicode="&#x2195;" horiz-adv-x="982" 
d="M361 847l-89 -89q-38 -39 -91.5 -39t-91.5 38q-39 39 -39 92.5t39 91.5l310 312q38 38 93 38q53 0 91 -38l310 -312q39 -38 39 -91.5t-39 -92.5q-38 -38 -91.5 -38t-91.5 39l-89 89v-514l89 89q38 39 91.5 39t91.5 -38q39 -39 39 -92.5t-39 -91.5l-310 -312
q-38 -38 -91 -38q-55 0 -93 38l-310 312q-39 38 -39 91.5t39 92.5q38 38 91.5 38t91.5 -39l89 -89v514z" />
    <glyph glyph-name="arrowupdnbse" unicode="&#x21a8;" horiz-adv-x="982" 
d="M287 140l-198 199q-39 38 -39 91.5t39 92.5q38 38 91.5 38t91.5 -39l89 -89v414l-89 -89q-38 -39 -91.5 -39t-91.5 38q-39 39 -39 92.5t39 91.5l310 312q38 38 93 38q53 0 91 -38l310 -312q39 -38 39 -91.5t-39 -92.5q-38 -38 -91.5 -38t-91.5 39l-89 89v-414l89 89
q38 39 91.5 39t91.5 -38q39 -39 39 -92.5t-39 -91.5l-198 -199h115q54 0 92 -38t38 -92t-38 -92t-92 -38h-640q-54 0 -92 38t-38 92t38 92t92 38h117z" />
    <glyph glyph-name="SF100000" unicode="&#x2500;" 
d="M0 540v100h1200v-100h-1200z" />
    <glyph glyph-name="SF430000" unicode="&#x2550;" 
d="M0 640v100h1200v-100h-1200zM0 440v100h1200v-100h-1200z" />
    <glyph glyph-name="SF110000" unicode="&#x2502;" 
d="M650 -410h-100v2000h100v-2000z" />
    <glyph glyph-name="SF240000" unicode="&#x2551;" 
d="M550 -410h-100v2000h100v-2000zM750 -410h-100v2000h100v-2000z" />
    <glyph glyph-name="SF010000" unicode="&#x250c;" 
d="M550 640h650v-100h-550v-950h-100v1050z" />
    <glyph glyph-name="SF510000" unicode="&#x2552;" 
d="M550 740h650v-100h-550v-100h550v-100h-550v-850h-100v1150z" />
    <glyph glyph-name="SF520000" unicode="&#x2553;" 
d="M550 540v-950h-100v1050h750v-100h-450v-950h-100v950h-100z" />
    <glyph glyph-name="SF390000" unicode="&#x2554;" 
d="M450 740h750v-100h-650v-1050h-100v1150zM650 540h550v-100h-450v-850h-100v950z" />
    <glyph glyph-name="SF030000" unicode="&#x2510;" 
d="M550 540h-550v100h650v-1050h-100v950z" />
    <glyph glyph-name="SF220000" unicode="&#x2555;" 
d="M550 640h-550v100h650v-1150h-100v850h-550v100h550v100z" />
    <glyph glyph-name="SF210000" unicode="&#x2556;" 
d="M550 540v-950h-100v950h-450v100h750v-1050h-100v950h-100z" />
    <glyph glyph-name="SF250000" unicode="&#x2557;" 
d="M550 540v-950h-100v850h-450v100h550zM650 640h-650v100h650h100v-100v-1050h-100v1050z" />
    <glyph glyph-name="SF020000" unicode="&#x2514;" 
d="M550 540v1050h100v-950h550v-100h-650z" />
    <glyph glyph-name="SF500000" unicode="&#x2558;" 
d="M550 1590h100v-850h550v-100h-550v-100h550v-100h-650v1150z" />
    <glyph glyph-name="SF490000" unicode="&#x2559;" 
d="M450 540v1050h100v-950h100v950h100v-950h450v-100h-750z" />
    <glyph glyph-name="SF380000" unicode="&#x255a;" 
d="M450 1590h100v-1050h650v-100h-750v1150zM650 640v950h100v-850h450v-100h-550z" />
    <glyph glyph-name="SF040000" unicode="&#x2518;" 
d="M0 540v100h550v950h100v-1050h-650z" />
    <glyph glyph-name="SF280000" unicode="&#x255b;" 
d="M550 640h-550v100h550v850h100v-1150h-650v100h550v100z" />
    <glyph glyph-name="SF270000" unicode="&#x255c;" 
d="M0 540v100h450v950h100v-950h100v950h100v-1050h-750z" />
    <glyph glyph-name="SF260000" unicode="&#x255d;" 
d="M650 540v1050h100v-1050v-100h-100h-650v100h650zM0 640v100h450v850h100v-950h-550z" />
    <glyph glyph-name="SF080000" unicode="&#x251c;" 
d="M550 1590h100v-950h550v-100h-550v-950h-100v2000z" />
    <glyph glyph-name="SF360000" unicode="&#x255e;" 
d="M550 1590h100v-850h550v-100h-550v-100h550v-100h-550v-850h-100v2000z" />
    <glyph glyph-name="SF370000" unicode="&#x255f;" 
d="M650 1590h100v-950h450v-100h-450v-950h-100v2000zM550 -410h-100v2000h100v-2000z" />
    <glyph glyph-name="SF420000" unicode="&#x2560;" 
d="M650 1590h100v-850h450v-100h-550v950zM450 1590h100v-2000h-100v2000zM650 540h550v-100h-450v-850h-100v950z" />
    <glyph glyph-name="SF090000" unicode="&#x2524;" 
d="M550 540h-550v100h550v950h100v-2000h-100v950z" />
    <glyph glyph-name="SF190000" unicode="&#x2561;" 
d="M550 640h-550v100h550v850h100v-2000h-100v850h-550v100h550v100z" />
    <glyph glyph-name="SF200000" unicode="&#x2562;" 
d="M550 -410h-100v950h-450v100h450v950h100v-2000zM650 1590h100v-2000h-100v2000z" />
    <glyph glyph-name="SF230000" unicode="&#x2563;" 
d="M0 640v100h450v850h100v-950h-550zM550 540v-950h-100v850h-450v100h550zM650 1590h100v-2000h-100v2000z" />
    <glyph glyph-name="SF060000" unicode="&#x252c;" 
d="M550 540h-550v100h1200v-100h-550v-950h-100v950z" />
    <glyph glyph-name="SF470000" unicode="&#x2564;" 
d="M1200 540v-100h-550v-850h-100v850h-550v100h1200zM0 640v100h1200v-100h-1200z" />
    <glyph glyph-name="SF480000" unicode="&#x2565;" 
d="M550 540v-950h-100v950h-450v100h1200v-100h-450v-950h-100v950h-100z" />
    <glyph glyph-name="SF410000" unicode="&#x2566;" 
d="M550 540v-950h-100v850h-450v100h550zM0 640v100h1200v-100h-1200zM1200 540v-100h-450v-850h-100v950h550z" />
    <glyph glyph-name="SF070000" unicode="&#x2534;" 
d="M0 540v100h550v950h100v-950h550v-100h-1200z" />
    <glyph glyph-name="SF450000" unicode="&#x2567;" 
d="M0 640v100h550v850h100v-850h550v-100h-1200zM1200 540v-100h-1200v100h1200z" />
    <glyph glyph-name="SF460000" unicode="&#x2568;" 
d="M0 540v100h450v950h100v-950h100v950h100v-950h450v-100h-1200z" />
    <glyph glyph-name="SF400000" unicode="&#x2569;" 
d="M650 1590h100v-850h450v-100h-550v950zM1200 540v-100h-1200v100h1200zM0 640v100h450v850h100v-950h-550z" />
    <glyph glyph-name="SF050000" unicode="&#x253c;" 
d="M550 540h-550v100h550v950h100v-950h550v-100h-550v-950h-100v950z" />
    <glyph glyph-name="SF540000" unicode="&#x256a;" 
d="M550 640h-550v100h550v850h100v-850h550v-100h-550v-100h550v-100h-550v-850h-100v850h-550v100h550v100z" />
    <glyph glyph-name="SF530000" unicode="&#x256b;" 
d="M550 540v-950h-100v950h-450v100h450v950h100v-950h100v950h100v-950h450v-100h-450v-950h-100v950h-100z" />
    <glyph glyph-name="SF440000" unicode="&#x256c;" 
d="M650 1590h100v-850h450v-100h-550v950zM0 640v100h450v850h100v-950h-550zM550 540v-950h-100v850h-450v100h550zM650 540h550v-100h-450v-850h-100v950z" />
    <glyph glyph-name="upblock" unicode="&#x2580;" 
d="M0 1590h1200v-1000h-1200v1000z" />
    <glyph glyph-name="dnblock" unicode="&#x2584;" 
d="M1200 590v-1000h-1200v1000h1200z" />
    <glyph glyph-name="lfblock" unicode="&#x258c;" 
d="M0 1590h600v-2000h-600v2000z" />
    <glyph glyph-name="rtblock" unicode="&#x2590;" 
d="M600 1590h600v-2000h-600v2000z" />
    <glyph glyph-name="block" unicode="&#x2588;" 
d="M0 1590h1200v-2000h-1200v2000z" />
    <glyph glyph-name="ltshade" unicode="&#x2591;" 
d="M25 1515v50h50v-50h-50zM125 1415v50h50v-50h-50zM225 1515v50h50v-50h-50zM325 1415v50h50v-50h-50zM425 1515v50h50v-50h-50zM525 1415v50h50v-50h-50zM625 1515v50h50v-50h-50zM725 1415v50h50v-50h-50zM825 1515v50h50v-50h-50zM925 1415v50h50v-50h-50zM1025 1515
v50h50v-50h-50zM1125 1415v50h50v-50h-50zM25 1315v50h50v-50h-50zM125 1215v50h50v-50h-50zM225 1315v50h50v-50h-50zM325 1215v50h50v-50h-50zM425 1315v50h50v-50h-50zM525 1215v50h50v-50h-50zM625 1315v50h50v-50h-50zM725 1215v50h50v-50h-50zM825 1315v50h50v-50h-50
zM925 1215v50h50v-50h-50zM1025 1315v50h50v-50h-50zM1125 1215v50h50v-50h-50zM25 1115v50h50v-50h-50zM125 1015v50h50v-50h-50zM225 1115v50h50v-50h-50zM325 1015v50h50v-50h-50zM425 1115v50h50v-50h-50zM525 1015v50h50v-50h-50zM625 1115v50h50v-50h-50zM725 1015v50
h50v-50h-50zM825 1115v50h50v-50h-50zM925 1015v50h50v-50h-50zM1025 1115v50h50v-50h-50zM1125 1015v50h50v-50h-50zM25 915v50h50v-50h-50zM125 815v50h50v-50h-50zM225 915v50h50v-50h-50zM325 815v50h50v-50h-50zM425 915v50h50v-50h-50zM525 815v50h50v-50h-50z
M625 915v50h50v-50h-50zM725 815v50h50v-50h-50zM825 915v50h50v-50h-50zM925 815v50h50v-50h-50zM1025 915v50h50v-50h-50zM1125 815v50h50v-50h-50zM25 715v50h50v-50h-50zM125 615v50h50v-50h-50zM225 715v50h50v-50h-50zM325 615v50h50v-50h-50zM425 715v50h50v-50h-50z
M525 615v50h50v-50h-50zM625 715v50h50v-50h-50zM725 615v50h50v-50h-50zM825 715v50h50v-50h-50zM925 615v50h50v-50h-50zM1025 715v50h50v-50h-50zM1125 615v50h50v-50h-50zM25 515v50h50v-50h-50zM125 415v50h50v-50h-50zM225 515v50h50v-50h-50zM325 415v50h50v-50h-50z
M425 515v50h50v-50h-50zM525 415v50h50v-50h-50zM625 515v50h50v-50h-50zM725 415v50h50v-50h-50zM825 515v50h50v-50h-50zM925 415v50h50v-50h-50zM1025 515v50h50v-50h-50zM1125 415v50h50v-50h-50zM25 315v50h50v-50h-50zM125 215v50h50v-50h-50zM225 315v50h50v-50h-50z
M325 215v50h50v-50h-50zM425 315v50h50v-50h-50zM525 215v50h50v-50h-50zM625 315v50h50v-50h-50zM725 215v50h50v-50h-50zM825 315v50h50v-50h-50zM925 215v50h50v-50h-50zM1025 315v50h50v-50h-50zM1125 215v50h50v-50h-50zM25 115v50h50v-50h-50zM125 15v50h50v-50h-50z
M225 115v50h50v-50h-50zM325 15v50h50v-50h-50zM425 115v50h50v-50h-50zM525 15v50h50v-50h-50zM625 115v50h50v-50h-50zM725 15v50h50v-50h-50zM825 115v50h50v-50h-50zM925 15v50h50v-50h-50zM1025 115v50h50v-50h-50zM1125 15v50h50v-50h-50zM25 -85v50h50v-50h-50z
M125 -185v50h50v-50h-50zM225 -85v50h50v-50h-50zM325 -185v50h50v-50h-50zM425 -85v50h50v-50h-50zM525 -185v50h50v-50h-50zM625 -85v50h50v-50h-50zM725 -185v50h50v-50h-50zM825 -85v50h50v-50h-50zM925 -185v50h50v-50h-50zM1025 -85v50h50v-50h-50zM1125 -185v50h50
v-50h-50zM25 -285v50h50v-50h-50zM125 -385v50h50v-50h-50zM225 -285v50h50v-50h-50zM325 -385v50h50v-50h-50zM425 -285v50h50v-50h-50zM525 -385v50h50v-50h-50zM625 -285v50h50v-50h-50zM725 -385v50h50v-50h-50zM825 -285v50h50v-50h-50zM925 -385v50h50v-50h-50z
M1025 -285v50h50v-50h-50zM1125 -385v50h50v-50h-50z" />
    <glyph glyph-name="shade" unicode="&#x2592;" 
d="M0 1490v100h100v-100h-100zM100 1390v100h100v-100h-100zM200 1490v100h100v-100h-100zM300 1390v100h100v-100h-100zM0 1290v100h100v-100h-100zM100 1190v100h100v-100h-100zM200 1290v100h100v-100h-100zM300 1190v100h100v-100h-100zM400 1490v100h100v-100h-100z
M500 1390v100h100v-100h-100zM600 1490v100h100v-100h-100zM700 1390v100h100v-100h-100zM400 1290v100h100v-100h-100zM500 1190v100h100v-100h-100zM600 1290v100h100v-100h-100zM700 1190v100h100v-100h-100zM0 1090v100h100v-100h-100zM100 990v100h100v-100h-100z
M200 1090v100h100v-100h-100zM300 990v100h100v-100h-100zM0 890v100h100v-100h-100zM100 790v100h100v-100h-100zM200 890v100h100v-100h-100zM300 790v100h100v-100h-100zM400 1090v100h100v-100h-100zM500 990v100h100v-100h-100zM600 1090v100h100v-100h-100zM700 990
v100h100v-100h-100zM400 890v100h100v-100h-100zM500 790v100h100v-100h-100zM600 890v100h100v-100h-100zM700 790v100h100v-100h-100zM0 690v100h100v-100h-100zM100 590v100h100v-100h-100zM200 690v100h100v-100h-100zM300 590v100h100v-100h-100zM0 490v100h100v-100
h-100zM100 390v100h100v-100h-100zM200 490v100h100v-100h-100zM300 390v100h100v-100h-100zM400 690v100h100v-100h-100zM500 590v100h100v-100h-100zM600 690v100h100v-100h-100zM700 590v100h100v-100h-100zM400 490v100h100v-100h-100zM500 390v100h100v-100h-100z
M600 490v100h100v-100h-100zM700 390v100h100v-100h-100zM0 290v100h100v-100h-100zM100 190v100h100v-100h-100zM200 290v100h100v-100h-100zM300 190v100h100v-100h-100zM0 90v100h100v-100h-100zM100 -10v100h100v-100h-100zM200 90v100h100v-100h-100zM300 -10v100h100
v-100h-100zM400 290v100h100v-100h-100zM500 190v100h100v-100h-100zM600 290v100h100v-100h-100zM700 190v100h100v-100h-100zM400 90v100h100v-100h-100zM500 -10v100h100v-100h-100zM600 90v100h100v-100h-100zM700 -10v100h100v-100h-100zM0 -110v100h100v-100h-100z
M100 -210v100h100v-100h-100zM200 -110v100h100v-100h-100zM300 -210v100h100v-100h-100zM0 -310v100h100v-100h-100zM100 -410v100h100v-100h-100zM200 -310v100h100v-100h-100zM300 -410v100h100v-100h-100zM400 -110v100h100v-100h-100zM500 -210v100h100v-100h-100z
M600 -110v100h100v-100h-100zM700 -210v100h100v-100h-100zM400 -310v100h100v-100h-100zM500 -410v100h100v-100h-100zM600 -310v100h100v-100h-100zM700 -410v100h100v-100h-100zM800 1490v100h100v-100h-100zM900 1390v100h100v-100h-100zM1000 1490v100h100v-100h-100z
M1100 1390v100h100v-100h-100zM800 1290v100h100v-100h-100zM900 1190v100h100v-100h-100zM1000 1290v100h100v-100h-100zM1100 1190v100h100v-100h-100zM800 1090v100h100v-100h-100zM900 990v100h100v-100h-100zM1000 1090v100h100v-100h-100zM1100 990v100h100v-100h-100
zM800 890v100h100v-100h-100zM900 790v100h100v-100h-100zM1000 890v100h100v-100h-100zM1100 790v100h100v-100h-100zM800 690v100h100v-100h-100zM900 590v100h100v-100h-100zM1000 690v100h100v-100h-100zM1100 590v100h100v-100h-100zM800 490v100h100v-100h-100z
M900 390v100h100v-100h-100zM1000 490v100h100v-100h-100zM1100 390v100h100v-100h-100zM800 290v100h100v-100h-100zM900 190v100h100v-100h-100zM1000 290v100h100v-100h-100zM1100 190v100h100v-100h-100zM800 90v100h100v-100h-100zM900 -10v100h100v-100h-100zM1000 90
v100h100v-100h-100zM1100 -10v100h100v-100h-100zM800 -110v100h100v-100h-100zM900 -210v100h100v-100h-100zM1000 -110v100h100v-100h-100zM1100 -210v100h100v-100h-100zM800 -310v100h100v-100h-100zM900 -410v100h100v-100h-100zM1000 -310v100h100v-100h-100z
M1100 -410v100h100v-100h-100z" />
    <glyph glyph-name="dkshade" unicode="&#x2593;" 
d="M0 1590h1200v-2000h-1200v2000zM25 -335v-50h50v50h-50zM125 -235v-50h50v50h-50zM225 -335v-50h50v50h-50zM325 -235v-50h50v50h-50zM425 -335v-50h50v50h-50zM525 -235v-50h50v50h-50zM625 -335v-50h50v50h-50zM725 -235v-50h50v50h-50zM825 -335v-50h50v50h-50z
M925 -235v-50h50v50h-50zM1025 -335v-50h50v50h-50zM1125 -235v-50h50v50h-50zM25 -135v-50h50v50h-50zM125 -35v-50h50v50h-50zM225 -135v-50h50v50h-50zM325 -35v-50h50v50h-50zM425 -135v-50h50v50h-50zM525 -35v-50h50v50h-50zM625 -135v-50h50v50h-50zM725 -35v-50h50
v50h-50zM825 -135v-50h50v50h-50zM925 -35v-50h50v50h-50zM1025 -135v-50h50v50h-50zM1125 -35v-50h50v50h-50zM25 65v-50h50v50h-50zM125 165v-50h50v50h-50zM225 65v-50h50v50h-50zM325 165v-50h50v50h-50zM425 65v-50h50v50h-50zM525 165v-50h50v50h-50zM625 65v-50h50
v50h-50zM725 165v-50h50v50h-50zM825 65v-50h50v50h-50zM925 165v-50h50v50h-50zM1025 65v-50h50v50h-50zM1125 165v-50h50v50h-50zM25 265v-50h50v50h-50zM125 365v-50h50v50h-50zM225 265v-50h50v50h-50zM325 365v-50h50v50h-50zM425 265v-50h50v50h-50zM525 365v-50h50
v50h-50zM625 265v-50h50v50h-50zM725 365v-50h50v50h-50zM825 265v-50h50v50h-50zM925 365v-50h50v50h-50zM1025 265v-50h50v50h-50zM1125 365v-50h50v50h-50zM25 465v-50h50v50h-50zM125 565v-50h50v50h-50zM225 465v-50h50v50h-50zM325 565v-50h50v50h-50zM425 465v-50h50
v50h-50zM525 565v-50h50v50h-50zM625 465v-50h50v50h-50zM725 565v-50h50v50h-50zM825 465v-50h50v50h-50zM925 565v-50h50v50h-50zM1025 465v-50h50v50h-50zM1125 565v-50h50v50h-50zM25 665v-50h50v50h-50zM125 765v-50h50v50h-50zM225 665v-50h50v50h-50zM325 765v-50h50
v50h-50zM425 665v-50h50v50h-50zM525 765v-50h50v50h-50zM625 665v-50h50v50h-50zM725 765v-50h50v50h-50zM825 665v-50h50v50h-50zM925 765v-50h50v50h-50zM1025 665v-50h50v50h-50zM1125 765v-50h50v50h-50zM25 865v-50h50v50h-50zM125 965v-50h50v50h-50zM225 865v-50h50
v50h-50zM325 965v-50h50v50h-50zM425 865v-50h50v50h-50zM525 965v-50h50v50h-50zM625 865v-50h50v50h-50zM725 965v-50h50v50h-50zM825 865v-50h50v50h-50zM925 965v-50h50v50h-50zM1025 865v-50h50v50h-50zM1125 965v-50h50v50h-50zM25 1065v-50h50v50h-50zM125 1165v-50
h50v50h-50zM225 1065v-50h50v50h-50zM325 1165v-50h50v50h-50zM425 1065v-50h50v50h-50zM525 1165v-50h50v50h-50zM625 1065v-50h50v50h-50zM725 1165v-50h50v50h-50zM825 1065v-50h50v50h-50zM925 1165v-50h50v50h-50zM1025 1065v-50h50v50h-50zM1125 1165v-50h50v50h-50z
M25 1265v-50h50v50h-50zM125 1365v-50h50v50h-50zM225 1265v-50h50v50h-50zM325 1365v-50h50v50h-50zM425 1265v-50h50v50h-50zM525 1365v-50h50v50h-50zM625 1265v-50h50v50h-50zM725 1365v-50h50v50h-50zM825 1265v-50h50v50h-50zM925 1365v-50h50v50h-50zM1025 1265v-50
h50v50h-50zM1125 1365v-50h50v50h-50zM25 1465v-50h50v50h-50zM125 1565v-50h50v50h-50zM225 1465v-50h50v50h-50zM325 1565v-50h50v50h-50zM425 1465v-50h50v50h-50zM525 1565v-50h50v50h-50zM625 1465v-50h50v50h-50zM725 1565v-50h50v50h-50zM825 1465v-50h50v50h-50z
M925 1565v-50h50v50h-50zM1025 1465v-50h50v50h-50zM1125 1565v-50h50v50h-50z" />
    <glyph glyph-name="cent" unicode="&#xa2;" horiz-adv-x="900" 
d="M370 430v320q-11 -8 -21 -18q-59 -59 -59 -142t59 -141q10 -11 21 -19zM570 404q43 14 87 45q83 58 158 -19t-31 -183q-83 -83 -214 -102v-55q0 -42 -29 -71t-71 -29t-71 29t-29 71v65q-111 29 -198 117q-132 131 -132 318t132 319q87 87 198 116v65q0 42 29 71t71 29
t71 -29t29 -71v-55q131 -19 214 -101q106 -107 31 -184t-158 -18q-44 30 -87 44v-372z" />
    <glyph glyph-name="sterling" unicode="&#xa3;" horiz-adv-x="1000" 
d="M474 430q-13 -84 -73 -170h419q54 0 92 -38t38 -92t-38 -92t-92 -38h-640q-54 0 -92 38t-38 92t38 92q29 29 87 103q35 45 33 105h-38q-54 0 -92 38t-38 92t38 92q30 30 70 36q-6 49 -7 102h-1q0 167 121.5 283.5t278.5 116.5t278.5 -101.5t121.5 -238.5q0 -54 -38 -92
t-92 -38t-92 33t-38 87q-20 49 -55.5 69.5t-84.5 20.5t-89 -40t-43 -93q2 -44 17 -107h185q54 0 92 -38t38 -92t-38 -92t-92 -38h-136z" />
    <glyph glyph-name="currency" unicode="&#xa4;" horiz-adv-x="1020" 
d="M651.5 448.5q58.5 58.5 58.5 141.5t-58.5 141.5t-141.5 58.5t-141.5 -58.5t-58.5 -141.5t58.5 -141.5t141.5 -58.5t141.5 58.5zM293 194q-9 -14 -21 -26q-38 -38 -92 -38t-92 38t-38 92t38 92q12 12 26 21q-54 97 -54 217t54 217q-14 9 -26 21q-38 38 -38 92t38 92t92 38
t92 -38q12 -12 21 -26q97 54 217 54t217 -54q9 14 21 26q38 38 92 38t92 -38t38 -92t-38 -92q-12 -12 -26 -21q54 -97 54 -217t-54 -217q14 -9 26 -21q38 -38 38 -92t-38 -92t-92 -38t-92 38q-12 12 -21 26q-97 -54 -217 -54t-217 54z" />
    <glyph glyph-name="yen" unicode="&#xa5;" horiz-adv-x="1123" 
d="M360 650l-281 318q-39 38 -39 92t38 92q39 38 92.5 38t91.5 -38l300 -349l299 349q38 38 91.5 38t92.5 -38q38 -38 38 -92t-39 -92l-281 -318h174q43 0 71.5 -28.5t28.5 -71.5t-28.5 -71.5t-71.5 -28.5h-242v-50h242q43 0 71.5 -28.5t28.5 -71.5t-28.5 -71.5t-71.5 -28.5
h-242v-80q0 -54 -38 -92t-92 -38t-92 38t-38 92v80h-248q-43 0 -71.5 28.5t-28.5 71.5t28.5 71.5t71.5 28.5h248v50h-248q-43 0 -71.5 28.5t-28.5 71.5t28.5 71.5t71.5 28.5h173z" />
    <glyph glyph-name="section" unicode="&#xa7;" horiz-adv-x="940" 
d="M829 353q71 -78 71 -202q-6 -153 -125 -254q-126 -107 -305 -107q-219 0 -392 158q-38 38 -38 92t38 92t92 38t92 -38q117 -82 208 -82q71 0 120.5 30.5t49.5 74.5t-49.5 69.5t-150.5 45.5q-166 36 -273 119.5t-107 238.5q4 113 68 199q-68 78 -68 201q5 154 121 256
q113 100 279 106q239 0 382 -148q38 -38 38 -92t-38 -92t-92 -38t-92 38q-23 23 -65 47.5t-113 24.5t-115.5 -30.5t-44.5 -74.5t44.5 -69.5t141.5 -45.5q168 -35 281 -119t113 -240q-4 -113 -71 -198zM598 486q42 29 42 69q0 44 -49.5 69.5t-150.5 45.5q-44 10 -85 23
q-35 -29 -35 -68q0 -44 44.5 -69.5t141.5 -45.5q49 -10 92 -24z" />
    <glyph glyph-name="copyright" unicode="&#xa9;" horiz-adv-x="1480" 
d="M740 -110q-290 0 -495 205t-205 495t205 495t495 205t495 -205t205 -495t-205 -495t-495 -205zM1164.5 165.5q175.5 175.5 175.5 424.5t-175.5 424.5t-424.5 175.5t-424.5 -175.5t-175.5 -424.5t175.5 -424.5t424.5 -175.5t424.5 175.5zM1012 475q50 0 78.5 -28.5
t28.5 -68.5q0 -41 -28 -79q-112 -159 -349 -159q-187 0 -318.5 131.5t-131.5 318.5t131.5 318.5t318.5 131.5q237 0 349 -158q28 -39 28 -79q0 -41 -28.5 -69.5t-78.5 -28.5q-51 0 -109 66q-55 54 -161 54t-170.5 -64.5t-64.5 -170.5t64.5 -170.5t170.5 -64.5t161 55
q58 65 109 65z" />
    <glyph glyph-name="logicalnot" unicode="&#xac;" horiz-adv-x="1090" 
d="M180 635q-54 0 -92 38t-38 92t38 92t92 38h730q54 0 92 -38t38 -92v-340q0 -54 -38 -92t-92 -38t-92 38t-38 92v210h-600z" />
    <glyph glyph-name="registered" unicode="&#xae;" horiz-adv-x="1480" 
d="M740 -110q-290 0 -495 205t-205 495t205 495t495 205t495 -205t205 -495t-205 -495t-495 -205zM1164.5 165.5q175.5 175.5 175.5 424.5t-175.5 424.5t-424.5 175.5t-424.5 -175.5t-175.5 -424.5t175.5 -424.5t424.5 -175.5t424.5 175.5zM647 828v-220h115q42 0 74.5 33.5
t32.5 76.5q0 42 -32.5 76t-74.5 34h-115zM910 446l146 -123q32 -26 35.5 -71.5t-23.5 -75.5q-25 -32 -75 -35.5t-82 23.5l-264 229v-145q0 -51 -28.5 -79.5t-79.5 -28.5q-50 0 -78.5 28.5t-28.5 79.5v677q0 51 28.5 79.5t78.5 28.5h223q134 0 228 -90.5t94 -224.5
q0 -125 -94 -214q-37 -36 -80 -58z" />
    <glyph glyph-name="degree" unicode="&#xb0;" horiz-adv-x="700" 
d="M350 590q-124 0 -212 88t-88 212t88 212t212 88t212 -88t88 -212t-88 -212t-212 -88zM432.5 807.5q34.5 34.5 34.5 82.5t-34.5 82.5t-82.5 34.5t-82.5 -34.5t-34.5 -82.5t34.5 -82.5t82.5 -34.5t82.5 34.5z" />
    <glyph glyph-name="mu" unicode="&#xb5;" horiz-adv-x="900" 
d="M300 390q0 -63 43.5 -106.5t106.5 -43.5t106.5 43.5t43.5 106.5v375q0 52 36.5 88.5t88.5 36.5t88.5 -36.5t36.5 -88.5v-375q0 -167 -116.5 -283.5t-283.5 -116.5q-81 0 -150 27v-202q0 -52 -36.5 -88.5t-88.5 -36.5t-88.5 36.5t-36.5 88.5v950q0 52 36.5 88.5t88.5 36.5
t88.5 -36.5t36.5 -88.5v-375z" />
    <glyph glyph-name="paragraph" unicode="&#xb6;" horiz-adv-x="1070" 
d="M640 920v-800q0 -54 -38 -92t-92 -38t-92 38t-38 92v300q-129 0 -229.5 100.5t-100.5 279.5t100.5 279.5t229.5 100.5h510q54 0 92 -38t38 -92v-930q0 -54 -38 -92t-92 -38t-92 38t-38 92v800h-120z" />
    <glyph glyph-name="periodcentered" unicode="&#xb7;" horiz-adv-x="400" 
d="M200 440q-62 0 -106 44t-44 106t44 106t106 44t106 -44t44 -106t-44 -106t-106 -44z" />
    <glyph glyph-name="periodcentered" unicode="&#x2219;" horiz-adv-x="400" 
d="M200 440q-62 0 -106 44t-44 106t44 106t106 44t106 -44t44 -106t-44 -106t-106 -44z" />
    <glyph glyph-name="dagger" unicode="&#x2020;" horiz-adv-x="1000" 
d="M630 970h190q54 0 92 -38t38 -92t-38 -92t-92 -38h-190v-690q0 -54 -38 -92t-92 -38t-92 38t-38 92v690h-190q-54 0 -92 38t-38 92t38 92t92 38h190v190q0 54 38 92t92 38t92 -38t38 -92v-190z" />
    <glyph glyph-name="daggerdbl" unicode="&#x2021;" horiz-adv-x="1000" 
d="M630 970h190q54 0 92 -38t38 -92t-38 -92t-92 -38h-190v-240h190q54 0 92 -38t38 -92t-38 -92t-92 -38h-190v-190q0 -54 -38 -92t-92 -38t-92 38t-38 92v190h-190q-54 0 -92 38t-38 92t38 92t92 38h190v240h-190q-54 0 -92 38t-38 92t38 92t92 38h190v190q0 54 38 92
t92 38t92 -38t38 -92v-190z" />
    <glyph glyph-name="bullet" unicode="&#x2022;" horiz-adv-x="600" 
d="M300 340q-103 0 -176.5 73.5t-73.5 176.5t73.5 176.5t176.5 73.5t176.5 -73.5t73.5 -176.5t-73.5 -176.5t-176.5 -73.5z" />
    <glyph glyph-name="ellipsis" unicode="&#x2026;" 
d="M200 -10q-62 0 -106 44t-44 106t44 106t106 44t106 -44t44 -106t-44 -106t-106 -44zM600 -10q-62 0 -106 44t-44 106t44 106t106 44t106 -44t44 -106t-44 -106t-106 -44zM1000 -10q-62 0 -106 44t-44 106t44 106t106 44t106 -44t44 -106t-44 -106t-106 -44z" />
    <glyph glyph-name="perthousand" unicode="&#x2030;" horiz-adv-x="1760" 
d="M340 590q-124 0 -212 88t-88 212t88 212t212 88t212 -88t88 -212t-88 -212t-212 -88zM303 6q-34 23 -42.5 63.5t14.5 75.5l663 1000q23 35 63.5 43t75.5 -14q34 -23 42.5 -63.5t-14.5 -75.5l-663 -1000q-23 -35 -63.5 -43t-75.5 14zM1230 58q-81 -68 -190 -68
q-124 0 -212 88t-88 212t88 212t212 88q109 0 190 -68q81 68 190 68q124 0 212 -88t88 -212t-88 -212t-212 -88q-109 0 -190 68zM422.5 807.5q34.5 34.5 34.5 82.5t-34.5 82.5t-82.5 34.5t-82.5 -34.5t-34.5 -82.5t34.5 -82.5t82.5 -34.5t82.5 34.5zM1122.5 207.5
q34.5 34.5 34.5 82.5t-34.5 82.5t-82.5 34.5t-82.5 -34.5t-34.5 -82.5t34.5 -82.5t82.5 -34.5t82.5 34.5zM1502.5 207.5q34.5 34.5 34.5 82.5t-34.5 82.5t-82.5 34.5t-82.5 -34.5t-34.5 -82.5t34.5 -82.5t82.5 -34.5t82.5 34.5z" />
    <glyph glyph-name="franc" unicode="&#x20a3;" horiz-adv-x="1300" 
d="M180 1180h540q54 0 92 -38t38 -92t-38 -92t-92 -38h-410v-200h210q54 0 92 -38t38 -92t-38 -92t-92 -38h-210v-340q0 -54 -38 -92t-92 -38t-92 38t-38 92v930q0 54 38 92t92 38zM950 620v-505q0 -52 -36.5 -88.5t-88.5 -36.5t-88.5 36.5t-36.5 88.5v650q0 52 36.5 88.5
t88.5 36.5t99 -56q62 56 166 56q84 0 127 -43t43 -107t-38 -107t-102 -43t-112 38q-39 23 -58 -8z" />
    <glyph glyph-name="lira" unicode="&#x20a4;" horiz-adv-x="1000" 
d="M141 790q0 167 121.5 283.5t278.5 116.5t278.5 -91.5t121.5 -188.5q0 -54 -38 -92t-92 -38t-87 28t-48 54.5t-50.5 47t-84.5 20.5t-89 -40t-43 -93v-7h228q43 0 71.5 -28.5t28.5 -71.5t-28.5 -71.5t-71.5 -28.5h-182q3 -12 8 -24q4 -13 7 -26h167q43 0 71.5 -28.5
t28.5 -71.5t-28.5 -71.5t-71.5 -28.5h-189q-18 -40 -46 -80h419q54 0 92 -38t38 -92t-38 -92t-92 -38h-640q-54 0 -92 38t-38 92t38 92q29 29 87 103q6 7 10 15h-49q-43 0 -71.5 28.5t-28.5 71.5t28.5 71.5t71.5 28.5h50q-8 25 -15 50h-35q-43 0 -71.5 28.5t-28.5 71.5
t28.5 71.5t71.5 28.5h4z" />
    <glyph glyph-name="peseta" unicode="&#x20a7;" horiz-adv-x="1762" 
d="M310 920v-340h180q70 0 120 50t50 120t-50 120t-120 50h-180zM1283 635q72 56 168 56q106 0 182.5 -40t76.5 -89q0 -48 -30 -78.5t-70 -30.5q-37 0 -69 24.5t-83.5 26t-67.5 -22.5t60.5 -47.5t174 -73t97.5 -144.5q0 -90 -76 -158t-200 -68q-140 0 -202.5 43t-62.5 91
t30.5 78.5t70.5 30.5q37 0 75 -27t94.5 -28.5t73 22.5t-72 50t-174 76t-85.5 139q0 12 1 24h-38v-402q0 -40 -28.5 -68.5t-69.5 -28.5q-40 0 -68.5 28.5t-28.5 68.5v402h-43q-39 0 -66 26q-25 -37 -57 -69q-126 -126 -305 -126h-180v-200q0 -54 -38 -92t-92 -38t-92 38
t-38 92v930q0 54 38 92t92 38h310q179 0 304.5 -125.5t125.5 -304.5q0 -34 -5 -66h46v137q0 40 28.5 68.5t68.5 28.5q41 0 69.5 -28.5t28.5 -68.5v-137h43q40 0 69 -28q9 -10 15 -21z" />
    <glyph glyph-name="uni20A9" unicode="&#x20a9;" horiz-adv-x="1567" 
d="M497 615h-52l16 -50h20zM563 815l95 286q35 89 126 89q90 0 125 -89l95 -286h184l95 286q17 51 65 75t100 7q51 -17 75 -65t7 -99l-68 -207q27 -6 47 -25q28 -29 28 -72t-28.5 -71.5t-71.5 -28.5h-41l-16 -50h57q43 0 71.5 -28.5t28.5 -71.5t-28.5 -71.5t-71.5 -28.5
h-124l-100 -303q-30 -72 -117 -72q-95 0 -117 72l-100 303h-190l-101 -303q-30 -72 -117 -72q-95 0 -117 72l-100 303h-124q-43 0 -71.5 28.5t-28.5 71.5t28.5 71.5t71.5 28.5h57l-16 50h-41q-43 0 -71.5 28.5t-28.5 71.5t29 72q19 19 46 25l-68 207q-17 51 7 99t76 65
q51 17 99 -7t65 -75l95 -286h184zM1070 615l16 -50h20l16 50h-52zM813 565l-17 50h-24l-17 -50h58z" />
    <glyph glyph-name="uni2606" unicode="&#x2606;" horiz-adv-x="1262" 
d="M1121 740h-353l-142 350l-139 -350h-346l263 -254l-148 -381l375 264l375 -264l-151 379zM980 484l135 -329q16 -52 -9 -100t-71.5 -64t-94.5 9l-309 244l-309 -244q-48 -25 -94.5 -9t-71.5 64t-8 100l131 331l-167 123q-72 49 -71 111q0 54 38 87t92 33h246l108 279
q39 72 101 71q62 1 101 -71l111 -279h253q54 0 92 -33t38 -87q1 -62 -71 -111z" />
    <glyph glyph-name="uni2605" unicode="&#x2605;" horiz-adv-x="1262" 
d="M980 484l135 -329q16 -52 -9 -100t-71.5 -64t-94.5 9l-309 244l-309 -244q-48 -25 -94.5 -9t-71.5 64t-8 100l131 331l-167 123q-72 49 -71 111q0 54 38 87t92 33h246l108 279q39 72 101 71q62 1 101 -71l111 -279h253q54 0 92 -33t38 -87q1 -62 -71 -111z" />
    <glyph glyph-name="uni260E" unicode="&#x260e;" horiz-adv-x="1370" 
d="M1160 1180q54 0 92 -38t48 -92l40 -230q0 -54 -38 -92t-92 -38t-92 38t-38 92l-20 100h-750l-20 -100q0 -54 -38 -92t-92 -38t-92 38t-38 92l40 230q10 54 48 92t92 38h950zM826.5 253.5q58.5 58.5 58.5 141.5t-58.5 141.5t-141.5 58.5t-141.5 -58.5t-58.5 -141.5
t58.5 -141.5t141.5 -58.5t141.5 58.5zM935 760h25q54 0 92 -38t58 -92l170 -370q30 -76 30 -130t-38 -92t-92 -38h-990q-54 0 -92 38t-38 92t30 130l170 370q20 54 58 92t92 38h25v20q0 43 28.5 71.5t71.5 28.5t71.5 -28.5t28.5 -71.5v-20h100v20q0 43 28.5 71.5t71.5 28.5
t71.5 -28.5t28.5 -71.5v-20z" />
    <glyph glyph-name="smileface" unicode="&#x263a;" horiz-adv-x="1280" 
d="M640 -10q-249 0 -424.5 175.5t-175.5 424.5t175.5 424.5t424.5 175.5t424.5 -175.5t175.5 -424.5t-175.5 -424.5t-424.5 -175.5zM951 279q129 129 129 311t-129 311t-311 129t-311 -129t-129 -311t129 -311t311 -129t311 129zM640 421q74 0 123 48q41 46 76 46t55 -20
t20 -48q0 -29 -19 -55q-89 -122 -255 -122t-255 122q-19 26 -19 55q0 28 20 48t55 20t76 -46q49 -48 123 -48zM480 623q-48 0 -82.5 34.5t-34.5 82.5t34.5 82.5t82.5 34.5t82.5 -34.5t34.5 -82.5t-34.5 -82.5t-82.5 -34.5zM800 623q-48 0 -82.5 34.5t-34.5 82.5t34.5 82.5
t82.5 34.5t82.5 -34.5t34.5 -82.5t-34.5 -82.5t-82.5 -34.5z" />
    <glyph glyph-name="invsmileface" unicode="&#x263b;" horiz-adv-x="1280" 
d="M640 -10q-249 0 -424.5 175.5t-175.5 424.5t175.5 424.5t424.5 175.5t424.5 -175.5t175.5 -424.5t-175.5 -424.5t-424.5 -175.5zM517 469q-41 46 -76 46t-55 -20t-20 -48q0 -29 19 -55q89 -122 255 -122t255 122q19 26 19 55q0 28 -20 48t-55 20t-76 -46
q-49 -48 -123 -48t-123 48zM562.5 657.5q34.5 34.5 34.5 82.5t-34.5 82.5t-82.5 34.5t-82.5 -34.5t-34.5 -82.5t34.5 -82.5t82.5 -34.5t82.5 34.5zM882.5 657.5q34.5 34.5 34.5 82.5t-34.5 82.5t-82.5 34.5t-82.5 -34.5t-34.5 -82.5t34.5 -82.5t82.5 -34.5t82.5 34.5z" />
    <glyph glyph-name="sun" unicode="&#x263c;" horiz-adv-x="1280" 
d="M510 276l-110 -110q-38 -39 -92 -39t-92 39q-38 38 -38 91.5t38 91.5l111 111h-157q-54 0 -92 38t-38 92t38 92t92 38h156l-110 110q-39 38 -39 92t39 92q38 38 91.5 38t91.5 -38l111 -111v157q0 54 38 92t92 38t92 -38t38 -92v-156l110 110q38 39 92 39t92 -39
q38 -38 38 -91.5t-38 -91.5l-111 -111h157q54 0 92 -38t38 -92t-38 -92t-92 -38h-156l110 -110q39 -38 39 -92t-39 -92q-38 -38 -91.5 -38t-91.5 38l-111 111v-157q0 -54 -38 -92t-92 -38t-92 38t-38 92v156zM746 484q44 44 44 106t-44 106t-106 44t-106 -44t-44 -106
t44 -106t106 -44t106 44z" />
    <glyph glyph-name="female" unicode="&#x2640;" horiz-adv-x="1000" 
d="M617 840q0 48 -34.5 82.5t-82.5 34.5t-82.5 -34.5t-34.5 -82.5t34.5 -82.5t82.5 -34.5t82.5 34.5t34.5 82.5zM630 514v-44h190q54 0 92 -38t38 -92t-38 -92t-92 -38h-190v-90q0 -54 -38 -92t-92 -38t-92 38t-38 92v90h-190q-54 0 -92 38t-38 92t38 92t92 38h190v44
q-64 25 -117 79q-103 102 -103 247t102.5 247.5t247.5 102.5t247.5 -102.5t102.5 -247.5t-102 -247q-54 -54 -118 -79z" />
    <glyph glyph-name="male" unicode="&#x2642;" horiz-adv-x="1280" 
d="M546 284q44 44 44 106t-44 106t-106 44t-106 -44t-44 -106t44 -106t106 -44t106 44zM786 920h-116q-54 0 -92 38t-38 92t38 92t92 38h430q54 0 92 -38t38 -92v-430q0 -54 -38 -92t-92 -38t-92 38t-38 92v116l-170 -170q40 -79 40 -176q0 -166 -117 -283t-283 -117
t-283 117t-117 283t117 283t283 117q97 0 176 -40z" />
    <glyph glyph-name="spade" unicode="&#x2660;" horiz-adv-x="1270" 
d="M498 279q-64 -39 -153 -39q-132 0 -218.5 86.5t-86.5 208.5q2 98 68 159l406 445q39 52 121 51q82 1 121 -51l406 -445q56 -61 68 -159q0 -122 -86.5 -208.5t-218.5 -86.5q-89 0 -153 39l33 -88q25 -48 9 -99.5t-64 -76.5q-32 -15 -60 -15h-110q-28 0 -60 15
q-48 25 -64 76.5t9 99.5z" />
    <glyph glyph-name="club" unicode="&#x2663;" horiz-adv-x="1270" 
d="M501 287q-71 -47 -161 -47q-122 0 -208.5 86.5t-86.5 208.5t86.5 208.5t208.5 86.5h7q-7 31 -7 65q0 122 86.5 208.5t208.5 86.5t208.5 -86.5t86.5 -208.5q0 -34 -7 -65h7q122 0 208.5 -86.5t86.5 -208.5t-86.5 -208.5t-208.5 -86.5q-90 0 -161 47l36 -96q25 -48 9 -99.5
t-64 -76.5q-32 -15 -60 -15h-110q-28 0 -60 15q-48 25 -64 76.5t9 99.5z" />
    <glyph glyph-name="heart" unicode="&#x2665;" horiz-adv-x="1270" 
d="M40 895q0 122 86.5 208.5t218.5 86.5t209 -86q44 -55 81 -124q37 69 82 124q76 86 208 86t218.5 -86.5t86.5 -208.5q-12 -148 -68 -239l-406 -595q-39 -72 -121 -71q-82 -1 -121 71l-406 595q-66 91 -68 239z" />
    <glyph glyph-name="diamond" unicode="&#x2666;" horiz-adv-x="1055" 
d="M1007 636q7 -22 7 -46t-7 -46v-1q-7 -21 -19 -39l-317 -428q-69 -86 -143 -86q-75 0 -144 86l-325 440q-19 36 -18 74q-1 38 18 74l325 440q69 86 144 86q74 0 143 -86l317 -428q12 -18 19 -39v-1z" />
    <glyph glyph-name="musicalnote" unicode="&#x266a;" horiz-adv-x="944" 
d="M550 240q0 -103 -73.5 -176.5t-176.5 -73.5t-176.5 73.5t-73.5 176.5t73.5 176.5t176.5 73.5v575q0 52 36.5 88.5t88.5 36.5q43 0 75 -25l357 -236q40 -34 43.5 -85.5t-29.5 -90.5q-34 -39 -85.5 -43t-91.5 30l-144 95v-595z" />
    <glyph glyph-name="musicalnotedbl" unicode="&#x266b;" horiz-adv-x="1300" 
d="M550 240q0 -103 -73.5 -176.5t-176.5 -73.5t-176.5 73.5t-73.5 176.5t73.5 176.5t176.5 73.5v565q0 52 36.5 88.5t88.5 36.5h700q52 0 88.5 -36.5t36.5 -88.5v-815q0 -103 -73.5 -176.5t-176.5 -73.5t-176.5 73.5t-73.5 176.5t73.5 176.5t176.5 73.5v430h-450v-680z" />
    <glyph glyph-name="uni266D" unicode="&#x266d;" horiz-adv-x="870" 
d="M190 -10q-54 0 -92 38t-38 92v940q0 54 38 92t92 38t92 -38t38 -92v-303q77 33 150 33q167 0 263.5 -86.5t96.5 -273.5h-1q-3 -232 -221 -355q-130 -83 -418 -85zM320 420v-159q94 -3 171 45.5t81 120.5q-3 73 -38 103t-84 30t-89.5 -30.5t-40.5 -109.5z" />
    <glyph glyph-name="uni266F" unicode="&#x266f;" horiz-adv-x="1170" 
d="M260 376v227l-40 -12q-52 -16 -100 8.5t-64 76.5t9 99.5t77 64.5l118 36v134q0 54 38 92t92 38t92 -38t38 -92v-56l140 42v114q0 54 38 92t92 38t92 -38t38 -92v-35l30 9q52 16 100 -8.5t64 -76.5t-9 -99.5t-77 -64.5l-108 -33v-227l30 9q52 16 100 -8.5t64 -76.5
t-9 -99.5t-77 -64.5l-108 -33v-132q0 -54 -38 -92t-92 -38t-92 38t-38 92v54l-140 -42v-112q0 -54 -38 -92t-92 -38t-92 38t-38 92v33l-40 -12q-52 -16 -100 8.5t-64 76.5t9 99.5t77 64.5zM520 682v-228l140 42v228z" />
    <glyph glyph-name="uni2713" unicode="&#x2713;" horiz-adv-x="1270" 
d="M435 -10q-82 0 -121 71l-269 538q-25 48 -9 99.5t64 76.5t99.5 8.5t76.5 -64.5l159 -318l559 718q25 48 76.5 64.5t99.5 -8.5t64 -76.5t-9 -99.5l-669 -938q-39 -71 -121 -71z" />
    <glyph glyph-name="uni2717" unicode="&#x2717;" horiz-adv-x="1280" 
d="M607 373l-349 -349q-38 -38 -92 -38t-92 38q-38 39 -38 92.5t38 91.5l59 59l347 347l-200 385q-25 48 -9 99.5t64 76.5t99.5 8.5t76.5 -64.5l162 -312l290 290l59 59q38 38 92 38t92 -38q38 -39 38 -92.5t-38 -91.5l-406 -406l200 -385q25 -48 9 -99.5t-64 -76.5
t-99.5 -8.5t-76.5 64.5z" />
    <glyph glyph-name="uni2117" unicode="&#x2117;" horiz-adv-x="1480" 
d="M740 -110q-290 0 -495 205t-205 495t205 495t495 205t495 -205t205 -495t-205 -495t-495 -205zM1164.5 165.5q175.5 175.5 175.5 424.5t-175.5 424.5t-424.5 175.5t-424.5 -175.5t-175.5 -424.5t175.5 -424.5t424.5 -175.5t424.5 175.5zM647 828v-220h115q42 0 74.5 33.5
t32.5 76.5q0 42 -32.5 76t-74.5 34h-115zM647 403v-155q0 -51 -28.5 -79.5t-79.5 -28.5q-50 0 -78.5 28.5t-28.5 79.5v677q0 51 28.5 79.5t78.5 28.5h223q134 0 228 -90.5t94 -224.5t-94 -224.5t-228 -90.5h-115z" />
    <glyph glyph-name="Euro" unicode="&#x20ac;" horiz-adv-x="1330" 
d="M501 410q20 -32 49 -60q99 -100 240 -100t241 100q65 60 119 60t92 -38t38 -92t-38 -92q-26 -31 -52 -57q-151 -141 -400 -141t-424 176q-109 108 -150 244h-94q-34 0 -53 19t-19 53q0 35 19 53.5t53 18.5h69q-1 18 -1 36q0 15 1 29h-69q-34 0 -53 18.5t-19 53.5
q0 34 19 53t53 19h92q40 140 152 252q175 175 424 175t400 -140q26 -27 52 -58q38 -38 38 -92t-38 -92t-92 -38t-119 61q-100 99 -241 99t-240 -99q-32 -32 -54 -68h324q34 0 53 -19t19 -53q0 -35 -19 -53.5t-53 -18.5h-369q-1 -14 -1 -29q0 -18 2 -36h368q34 0 53 -18.5
t19 -53.5q0 -34 -19 -53t-53 -19h-319z" />
    <glyph glyph-name="zero" unicode="0" horiz-adv-x="1080" 
d="M540 -10q-207 0 -353.5 175.5t-146.5 424.5t146.5 424.5t353.5 175.5q208 0 354 -175.5t146 -424.5t-146 -424.5t-354 -175.5zM710 349.5q70 99.5 70 240.5t-70 240.5t-170 99.5t-170 -99.5t-70 -240.5t70 -240.5t170 -99.5t170 99.5z" />
    <glyph glyph-name="uni2080" unicode="&#x2080;" horiz-adv-x="589" 
d="M295 -5q-106 0 -180.5 89t-74.5 216t74.5 216.5t180.5 89.5q105 0 179.5 -89.5t74.5 -216.5t-74.5 -216t-179.5 -89zM351.5 202.5q25.5 25.5 25.5 97.5t-25.5 97.5t-56.5 25.5t-57 -25.5t-26 -97.5t26 -97.5t57 -25.5t56.5 25.5z" />
    <glyph glyph-name="uni2070" unicode="&#x2070;" horiz-adv-x="589" 
d="M295 580q-106 0 -180.5 89.5t-74.5 216.5q0 126 74.5 215.5t180.5 89.5q105 0 179.5 -89.5t74.5 -215.5q0 -127 -74.5 -216.5t-179.5 -89.5zM351.5 788q25.5 26 25.5 98q0 71 -25.5 97t-56.5 26t-57 -26t-26 -97q0 -72 26 -98t57 -26t56.5 26z" />
    <glyph glyph-name="oneeighth" unicode="&#x215b;" horiz-adv-x="1048" 
d="M230 1185q42 0 66 -24t24 -66v-415q0 -41 -24 -65.5t-66 -24.5q-41 0 -65.5 24.5t-24.5 65.5v325q-41 0 -65.5 24.5t-24.5 65.5q0 42 24.5 66t65.5 24h90zM93 6q-35 23 -43 63.5t15 75.5l663 1000q22 35 63 43t75 -14q35 -23 43 -63.5t-15 -75.5l-662 -1000
q-23 -35 -63.5 -43t-75.5 14zM923 317q85 -54 85 -137t-65.5 -136.5t-158.5 -53.5t-158.5 53.5t-65.5 136.5t86 137q-45 47 -45 108q0 62 44.5 113.5t138.5 51.5q95 0 139 -51.5t44 -113.5q0 -61 -44 -108zM836 149q18 14 18 34t-18 34t-50 14t-52 -14t-20 -34t20 -34
t52 -14t50 14zM816.5 366.5q11.5 11.5 11.5 28.5t-11.5 28.5t-32.5 11.5t-32.5 -11.5t-11.5 -28.5t11.5 -28.5t32.5 -11.5t32.5 11.5z" />
    <glyph glyph-name="onequarter" unicode="&#xbc;" horiz-adv-x="1055" 
d="M91 6q-35 23 -43 63.5t15 75.5l663 1000q22 35 63 43t75 -14q35 -23 43 -63.5t-15 -75.5l-662 -1000q-23 -35 -63.5 -43t-75.5 14zM228 1185q42 0 66 -24t24 -66v-415q0 -41 -24 -65.5t-66 -24.5q-41 0 -65.5 24.5t-24.5 65.5v325q-41 0 -65.5 24.5t-24.5 65.5
q0 42 24.5 66t65.5 24h90zM840 595q42 0 71 -29t29 -71v-225q27 0 51 -24t24 -56q0 -31 -24 -55.5t-51 -24.5q0 -51 -21.5 -80.5t-63.5 -29.5q-41 0 -63 29.5t-22 80.5h-180q-41 0 -70.5 22t-29.5 68q0 47 30 90l191 265q34 33 86 40h43zM775 400l-105 -135h105v135z" />
    <glyph glyph-name="onethird" unicode="&#x2153;" horiz-adv-x="1030" 
d="M230 1185q42 0 66 -24t24 -66v-415q0 -41 -24 -65.5t-66 -24.5q-41 0 -65.5 24.5t-24.5 65.5v325q-41 0 -65.5 24.5t-24.5 65.5q0 42 24.5 66t65.5 24h90zM91 6q-35 23 -43 63.5t15 75.5l663 1000q22 35 63 43t75 -14q35 -23 43 -63.5t-15 -75.5l-662 -1000
q-23 -35 -63.5 -43t-75.5 14zM927 341q63 -40 63 -132q0 -91 -61.5 -155t-163.5 -64q-116 0 -167.5 45.5t-51.5 90.5q0 46 27 68t63 22q32 0 57.5 -27t71 -28.5t50 38.5t-65.5 45q-65 5 -66 70q9 66 72 69q49 8 45.5 30t-39.5 21t-48.5 -21.5t-46.5 -20.5q-38 0 -59 23.5
t-21 60.5q0 38 48 76t137 38q75 0 132.5 -47.5t57.5 -121.5q0 -42 -34 -80z" />
    <glyph glyph-name="threeeighths" unicode="&#x215c;" horiz-adv-x="1152" 
d="M421 941q63 -40 63 -132q0 -91 -61.5 -155t-163.5 -64q-116 0 -167.5 45.5t-51.5 90.5q0 46 27 68t63 22q32 0 57.5 -27t71 -28.5t50 38.5t-65.5 45q-65 5 -66 70q9 66 72 69q49 8 45.5 30t-39.5 21t-48.5 -21.5t-46.5 -20.5q-38 0 -59 23.5t-21 60.5q0 38 48 76t137 38
q75 0 132.5 -47.5t57.5 -121.5q0 -42 -34 -80zM197 6q-35 23 -43 63.5t15 75.5l663 1000q22 35 63 43t75 -14q35 -23 43 -63.5t-15 -75.5l-662 -1000q-23 -35 -63.5 -43t-75.5 14zM1027 317q85 -54 85 -137t-65.5 -136.5t-158.5 -53.5t-158.5 53.5t-65.5 136.5t86 137
q-45 47 -45 108q0 62 44.5 113.5t138.5 51.5q95 0 139 -51.5t44 -113.5q0 -61 -44 -108zM940 149q18 14 18 34t-18 34t-50 14t-52 -14t-20 -34t20 -34t52 -14t50 14zM920.5 366.5q11.5 11.5 11.5 28.5t-11.5 28.5t-32.5 11.5t-32.5 -11.5t-11.5 -28.5t11.5 -28.5t32.5 -11.5
t32.5 11.5z" />
    <glyph glyph-name="onehalf" unicode="&#xbd;" horiz-adv-x="1108" 
d="M141 6q-35 23 -43 63.5t15 75.5l663 1000q22 35 63 43t75 -14q35 -23 43 -63.5t-15 -75.5l-662 -1000q-23 -35 -63.5 -43t-75.5 14zM278 1185q42 0 66 -24t24 -66v-415q0 -41 -24 -65.5t-66 -24.5q-41 0 -65.5 24.5t-24.5 65.5v325q-41 0 -65.5 24.5t-24.5 65.5
q0 42 24.5 66t65.5 24h90zM890 180h90q42 0 66 -24t24 -66q0 -41 -24 -65.5t-66 -24.5h-270q-42 1 -60 20q-23 25 -24 66t34 74q237 175 239.5 215t-49.5 40q-41 0 -55 -49q-6 -19 -14 -36q-19 -30 -61 -30q-41 0 -65.5 29.5t-24.5 70.5q0 16 2 32q4 29 41 76q88 87 177 87
t152 -50t63 -140q0 -89 -63 -137q-33 -33 -112 -88z" />
    <glyph glyph-name="fiveeighths" unicode="&#x215d;" horiz-adv-x="1134" 
d="M271 992q103 -8 149 -62t46 -136q-3 -81 -58.5 -142.5t-154.5 -61.5q-118 0 -194 78q-19 19 -19 46t19 50.5t55 23.5q37 0 56 -18q38 -31 83 -31q35 0 59.5 20t24.5 42t-24.5 39.5t-84.5 17.5h-114q-26 0 -45 16t-19 43q0 15 2 28l23 180q5 23 19 36q18 19 45 19h243
q32 0 53 -21.5t21 -52.5q0 -32 -21 -53.5t-53 -21.5h-168l-9 -39h66zM179 6q-35 23 -43 63.5t15 75.5l663 1000q22 35 63 43t75 -14q35 -23 43 -63.5t-15 -75.5l-662 -1000q-23 -35 -63.5 -43t-75.5 14zM1009 317q85 -54 85 -137t-65.5 -136.5t-158.5 -53.5t-158.5 53.5
t-65.5 136.5t86 137q-45 47 -45 108q0 62 44.5 113.5t138.5 51.5q95 0 139 -51.5t44 -113.5q0 -61 -44 -108zM922 149q18 14 18 34t-18 34t-50 14t-52 -14t-20 -34t20 -34t52 -14t50 14zM902.5 366.5q11.5 11.5 11.5 28.5t-11.5 28.5t-32.5 11.5t-32.5 -11.5t-11.5 -28.5
t11.5 -28.5t32.5 -11.5t32.5 11.5z" />
    <glyph glyph-name="twothirds" unicode="&#x2154;" horiz-adv-x="1150" 
d="M305 775h90q42 0 66 -24t24 -66q0 -41 -24 -65.5t-66 -24.5h-270q-42 1 -60 20q-23 25 -24 66t34 74q237 175 239.5 215t-49.5 40q-41 0 -55 -49q-6 -19 -14 -36q-19 -30 -61 -30q-41 0 -65.5 29.5t-24.5 70.5q0 16 2 32q4 29 41 76q88 87 177 87t152 -50t63 -140
q0 -89 -63 -137q-33 -33 -112 -88zM218 6q-35 23 -43 63.5t15 75.5l663 1000q22 35 63 43t75 -14q35 -23 43 -63.5t-15 -75.5l-662 -1000q-23 -35 -63.5 -43t-75.5 14zM1046 341q63 -40 63 -132q0 -91 -61.5 -155t-163.5 -64q-116 0 -167.5 45.5t-51.5 90.5q0 46 27 68
t63 22q32 0 57.5 -27t71 -28.5t50 38.5t-65.5 45q-65 5 -66 70q9 66 72 69q49 8 45.5 30t-39.5 21t-48.5 -21.5t-46.5 -20.5q-38 0 -59 23.5t-21 60.5q0 38 48 76t137 38q75 0 132.5 -47.5t57.5 -121.5q0 -42 -34 -80z" />
    <glyph glyph-name="threequarters" unicode="&#xbe;" horiz-adv-x="1185" 
d="M221 6q-35 23 -43 63.5t15 75.5l663 1000q22 35 63 43t75 -14q35 -23 43 -63.5t-15 -75.5l-662 -1000q-23 -35 -63.5 -43t-75.5 14zM421 941q63 -40 63 -132q0 -91 -61.5 -155t-163.5 -64q-116 0 -167.5 45.5t-51.5 90.5q0 46 27 68t63 22q32 0 57.5 -27t71 -28.5
t50 38.5t-65.5 45q-65 5 -66 70q9 66 72 69q49 8 45.5 30t-39.5 21t-48.5 -21.5t-46.5 -20.5q-38 0 -59 23.5t-21 60.5q0 38 48 76t137 38q75 0 132.5 -47.5t57.5 -121.5q0 -42 -34 -80zM970 595q42 0 71 -29t29 -71v-225q27 0 51 -24t24 -56q0 -31 -24 -55.5t-51 -24.5
q0 -51 -21.5 -80.5t-63.5 -29.5q-41 0 -63 29.5t-22 80.5h-180q-41 0 -70.5 22t-29.5 68q0 47 30 90l191 265q34 33 86 40h43zM905 400l-105 -135h105v135z" />
    <glyph glyph-name="seveneighths" unicode="&#x215e;" horiz-adv-x="1066" 
d="M296 1024h-165q-32 0 -55 23t-23 55q0 33 23 55.5t55 22.5h290q20 1 39 -9q29 -15 38.5 -46t-5.5 -59l-227 -436q-15 -29 -45.5 -39t-59.5 5t-38.5 46t5.5 59zM101 6q-35 23 -43 63.5t15 75.5l663 1000q22 35 63 43t75 -14q35 -23 43 -63.5t-15 -75.5l-662 -1000
q-23 -35 -63.5 -43t-75.5 14zM941 317q85 -54 85 -137t-65.5 -136.5t-158.5 -53.5t-158.5 53.5t-65.5 136.5t86 137q-45 47 -45 108q0 62 44.5 113.5t138.5 51.5q95 0 139 -51.5t44 -113.5q0 -61 -44 -108zM854 149q18 14 18 34t-18 34t-50 14t-52 -14t-20 -34t20 -34
t52 -14t50 14zM834.5 366.5q11.5 11.5 11.5 28.5t-11.5 28.5t-32.5 11.5t-32.5 -11.5t-11.5 -28.5t11.5 -28.5t32.5 -11.5t32.5 11.5z" />
    <glyph glyph-name="one" unicode="1" horiz-adv-x="500" 
d="M180 920h-10q-54 0 -92 38t-38 92t38 92t92 38h140q54 0 92 -38t38 -92v-930q0 -54 -38 -92t-92 -38t-92 38t-38 92v800z" />
    <glyph glyph-name="uni2081" unicode="&#x2081;" horiz-adv-x="370" 
d="M220 598q42 0 66 -24t24 -66v-415q0 -41 -24 -65.5t-66 -24.5q-41 0 -65.5 24.5t-24.5 65.5v325q-41 0 -65.5 24.5t-24.5 65.5q0 42 24.5 66t65.5 24h90z" />
    <glyph glyph-name="uni00B9" unicode="&#xb9;" horiz-adv-x="370" 
d="M220 1185q42 0 66 -24t24 -66v-415q0 -41 -24 -65.5t-66 -24.5q-41 0 -65.5 24.5t-24.5 65.5v325q-41 0 -65.5 24.5t-24.5 65.5q0 42 24.5 66t65.5 24h90z" />
    <glyph glyph-name="two" unicode="2" horiz-adv-x="970" 
d="M642 797q-3 53 -43 93t-119 40t-124.5 -55.5t-45.5 -134.5q0 -54 -38 -92t-92 -38t-92 38t-38 92q0 187 121.5 318.5t308.5 131.5t308.5 -116.5t121.5 -283.5h-1q-3 -162 -211 -345l-217 -185h319q54 0 92 -38t38 -92t-38 -92t-92 -38h-629q-64 0 -103 38q-38 38 -38 92
t38 92l445 371q125 122 129 204z" />
    <glyph glyph-name="uni2082" unicode="&#x2082;" horiz-adv-x="520" 
d="M300 183h90q42 0 66 -24t24 -66q0 -41 -24 -65.5t-66 -24.5h-270q-42 1 -60 20q-23 25 -24 66t34 74q237 175 239.5 215t-49.5 40q-41 0 -55 -49q-6 -19 -14 -36q-19 -30 -61 -30q-41 0 -65.5 29.5t-24.5 70.5q0 16 2 32q4 29 41 76q88 87 177 87t152 -50t63 -140
q0 -89 -63 -137q-33 -33 -112 -88z" />
    <glyph glyph-name="uni00B2" unicode="&#xb2;" horiz-adv-x="520" 
d="M300 775h90q42 0 66 -24t24 -66q0 -41 -24 -65.5t-66 -24.5h-270q-42 1 -60 20q-23 25 -24 66t34 74q237 175 239.5 215t-49.5 40q-41 0 -55 -49q-6 -19 -14 -36q-19 -30 -61 -30q-41 0 -65.5 29.5t-24.5 70.5q0 16 2 32q4 29 41 76q88 87 177 87t152 -50t63 -140
q0 -89 -63 -137q-33 -33 -112 -88z" />
    <glyph glyph-name="three" unicode="3" horiz-adv-x="940" 
d="M777 618q5 -3 10 -7q113 -84 113 -250q-6 -163 -125 -264q-126 -107 -305 -107q-269 0 -402 208q-28 38 -28 92t38 92t92 38t92 -48q67 -122 208 -122q71 0 120.5 30.5t49.5 84.5t-39 90q-56 35 -161 35q-54 0 -87 33t-33 87t33 87t87 33q97 1 146 31q34 30 34 74
t-39.5 69.5t-120.5 25.5t-118 -49.5t-60 -72.5q-38 -38 -92 -38t-87 33t-33 87t28 102q143 198 382 198q166 -6 280 -106q115 -92 120 -246q0 -132 -103 -220z" />
    <glyph glyph-name="uni2083" unicode="&#x2083;" horiz-adv-x="524" 
d="M421 351q63 -40 63 -132q0 -91 -61.5 -155t-163.5 -64q-116 0 -167.5 45.5t-51.5 90.5q0 46 27 68t63 22q32 0 57.5 -27t71 -28.5t50 38.5t-65.5 45q-65 5 -66 70q9 66 72 69q49 8 45.5 30t-39.5 21t-48.5 -21.5t-46.5 -20.5q-38 0 -59 23.5t-21 60.5q0 38 48 76t137 38
q75 0 132.5 -47.5t57.5 -121.5q0 -42 -34 -80z" />
    <glyph glyph-name="uni00B3" unicode="&#xb3;" horiz-adv-x="524" 
d="M421 941q63 -40 63 -132q0 -91 -61.5 -155t-163.5 -64q-116 0 -167.5 45.5t-51.5 90.5q0 46 27 68t63 22q32 0 57.5 -27t71 -28.5t50 38.5t-65.5 45q-65 5 -66 70q9 66 72 69q49 8 45.5 30t-39.5 21t-48.5 -21.5t-46.5 -20.5q-38 0 -59 23.5t-21 60.5q0 38 48 76t137 38
q75 0 132.5 -47.5t57.5 -121.5q0 -42 -34 -80z" />
    <glyph glyph-name="four" unicode="4" horiz-adv-x="1083" 
d="M723 1190q54 0 92 -38t38 -92v-540h60q54 0 92 -38t38 -92t-38 -92t-92 -38h-60v-140q0 -54 -38 -92t-92 -38t-92 38t-38 92v140h-420q-54 0 -92 38t-38 92v121q0 53 32 94l459 540q35 41 89 45h100zM593 520v293l-249 -293h249z" />
    <glyph glyph-name="uni2084" unicode="&#x2084;" horiz-adv-x="605" 
d="M390 598q42 0 71 -29t29 -71v-225q27 0 51 -24t24 -56q0 -31 -24 -55.5t-51 -24.5q0 -51 -21.5 -80.5t-63.5 -29.5q-41 0 -63 29.5t-22 80.5h-180q-41 0 -70.5 22t-29.5 68q0 47 30 90l191 265q34 33 86 40h43zM325 403l-105 -135h105v135z" />
    <glyph glyph-name="uni2074" unicode="&#x2074;" horiz-adv-x="605" 
d="M390 1185q42 0 71 -29t29 -71v-225q27 0 51 -24t24 -56q0 -31 -24 -55.5t-51 -24.5q0 -51 -21.5 -80.5t-63.5 -29.5q-41 0 -63 29.5t-22 80.5h-180q-41 0 -70.5 22t-29.5 68q0 47 30 90l191 265q34 33 86 40h43zM325 990l-105 -135h105v135z" />
    <glyph glyph-name="five" unicode="5" horiz-adv-x="940" 
d="M506 780q208 -15 301 -114t93 -265q-6 -163 -118.5 -287t-311.5 -124q-239 0 -392 158q-38 38 -38 92t38 92t92 38t92 -38q117 -82 208 -82q71 0 120.5 40.5t49.5 104.5t-49.5 99.5t-170.5 35.5h-230q-54 0 -92 33t-38 87q0 29 5 56l46 364q10 45 37 72q38 38 92 38h510
q54 0 92 -38t38 -92t-38 -92t-92 -38h-399l-19 -140h174z" />
    <glyph glyph-name="uni2085" unicode="&#x2085;" horiz-adv-x="506" 
d="M271 407q103 -8 149 -62t46 -136q-3 -81 -58.5 -142.5t-154.5 -61.5q-118 0 -194 78q-19 19 -19 46t19 50.5t55 23.5q37 0 56 -18q38 -31 83 -31q35 0 59.5 20t24.5 42t-24.5 39.5t-84.5 17.5h-114q-26 0 -45 16t-19 43q0 15 2 28l23 180q5 23 19 36q18 19 45 19h243
q32 0 53 -21.5t21 -52.5q0 -32 -21 -53.5t-53 -21.5h-168l-9 -39h66z" />
    <glyph glyph-name="uni2075" unicode="&#x2075;" horiz-adv-x="506" 
d="M271 992q103 -8 149 -62t46 -136q-3 -81 -58.5 -142.5t-154.5 -61.5q-118 0 -194 78q-19 19 -19 46t19 50.5t55 23.5q37 0 56 -18q38 -31 83 -31q35 0 59.5 20t24.5 42t-24.5 39.5t-84.5 17.5h-114q-26 0 -45 16t-19 43q0 15 2 28l23 180q5 23 19 36q18 19 45 19h243
q32 0 53 -21.5t21 -52.5q0 -32 -21 -53.5t-53 -21.5h-168l-9 -39h66z" />
    <glyph glyph-name="six" unicode="6" horiz-adv-x="960" 
d="M609.5 300.5q50.5 50.5 50.5 119.5t-50.5 119.5t-129.5 50.5t-129.5 -50.5t-50.5 -119.5t50.5 -119.5t129.5 -50.5t129.5 50.5zM566 816q124 1 223 -97q131 -132 131 -299t-126.5 -298.5t-313.5 -131.5t-313.5 131.5t-126.5 298.5q0 166 110 297l353 427q34 41 87.5 45.5
t95.5 -29.5q41 -35 45.5 -88.5t-29.5 -95.5z" />
    <glyph glyph-name="uni2086" unicode="&#x2086;" horiz-adv-x="520" 
d="M310.5 167.5q20.5 20.5 20.5 44.5q0 25 -20.5 45t-50.5 20q-29 0 -49.5 -20t-20.5 -45q0 -24 20.5 -44.5t49.5 -20.5q30 0 50.5 20.5zM313 406q63 0 102 -39q66 -71 66 -155q0 -83 -63.5 -149t-157.5 -66q-93 0 -156.5 66t-63.5 149t55 154l177 204q27 30 64 32.5
t58 -14.5q20 -18 17.5 -49.5t-19.5 -52.5z" />
    <glyph glyph-name="uni2076" unicode="&#x2076;" horiz-adv-x="520" 
d="M310.5 755.5q20.5 20.5 20.5 44.5q0 25 -20.5 45.5t-50.5 20.5q-29 0 -49.5 -20.5t-20.5 -45.5q0 -24 20.5 -44.5t49.5 -20.5q30 0 50.5 20.5zM313 994q63 0 102 -39q66 -71 66 -155q0 -83 -63.5 -149t-157.5 -66q-93 0 -156.5 66t-63.5 149t55 154l177 204
q27 30 64 32.5t58 -14.5q20 -18 17.5 -49.5t-19.5 -52.5z" />
    <glyph glyph-name="seven" unicode="7" horiz-adv-x="940" 
d="M556 920h-376q-54 0 -92 38t-38 92t38 92t92 38h585q33 2 65 -15q48 -25 64 -76.5t-9 -99.5l-479 -928q-25 -48 -76.5 -64.5t-99.5 8.5t-64 76.5t9 99.5z" />
    <glyph glyph-name="uni2087" unicode="&#x2087;" horiz-adv-x="545" 
d="M293 441h-165q-32 0 -55 22.5t-23 55.5q0 32 23 54.5t55 22.5h290q20 2 39 -9q29 -15 38.5 -45.5t-5.5 -59.5l-227 -436q-15 -29 -45.5 -39t-59.5 5t-38.5 46t5.5 60z" />
    <glyph glyph-name="uni2077" unicode="&#x2077;" horiz-adv-x="545" 
d="M293 1024h-165q-32 0 -55 23t-23 55q0 33 23 55.5t55 22.5h290q20 1 39 -9q29 -15 38.5 -46t-5.5 -59l-227 -436q-15 -29 -45.5 -39t-59.5 5t-38.5 46t5.5 59z" />
    <glyph glyph-name="eight" unicode="8" horiz-adv-x="976" 
d="M765 643q171 -107 171 -273t-131 -273t-317 -107t-317 107t-131 273t171 273q-89 95 -89 217q0 124 88.5 227t277.5 103t277.5 -103t88.5 -227q0 -122 -89 -217zM617.5 294.5q44.5 34.5 44.5 85.5t-44.5 85.5t-124.5 34.5t-129.5 -34.5t-49.5 -85.5t49.5 -85.5
t129.5 -34.5t124.5 34.5zM569 749q29 29 29 71t-29 71t-81 29t-81 -29t-29 -71t29 -71t81 -29t81 29z" />
    <glyph glyph-name="uni2088" unicode="&#x2088;" horiz-adv-x="528" 
d="M403 327q85 -54 85 -137t-65.5 -136.5t-158.5 -53.5t-158.5 53.5t-65.5 136.5t86 137q-45 47 -45 108q0 62 44.5 113.5t138.5 51.5q95 0 139 -51.5t44 -113.5q0 -61 -44 -108zM316 159q18 14 18 34t-18 34t-50 14t-52 -14t-20 -34t20 -34t52 -14t50 14zM296.5 376.5
q11.5 11.5 11.5 28.5t-11.5 28.5t-32.5 11.5t-32.5 -11.5t-11.5 -28.5t11.5 -28.5t32.5 -11.5t32.5 11.5z" />
    <glyph glyph-name="uni2078" unicode="&#x2078;" horiz-adv-x="528" 
d="M403 917q85 -54 85 -137t-65.5 -136.5t-158.5 -53.5t-158.5 53.5t-65.5 136.5t86 137q-45 47 -45 108q0 62 44.5 113.5t138.5 51.5q95 0 139 -51.5t44 -113.5q0 -61 -44 -108zM316 749q18 14 18 34t-18 34t-50 14t-52 -14t-20 -34t20 -34t52 -14t50 14zM296.5 966.5
q11.5 11.5 11.5 28.5t-11.5 28.5t-32.5 11.5t-32.5 -11.5t-11.5 -28.5t11.5 -28.5t32.5 -11.5t32.5 11.5z" />
    <glyph glyph-name="nine" unicode="9" horiz-adv-x="960" 
d="M350.5 879.5q-50.5 -50.5 -50.5 -119.5t50.5 -119.5t129.5 -50.5t129.5 50.5t50.5 119.5t-50.5 119.5t-129.5 50.5t-129.5 -50.5zM394 364q-124 -1 -222 98q-132 131 -132 298t126.5 298.5t313.5 131.5t313.5 -131.5t126.5 -298.5q0 -166 -110 -297l-353 -427
q-34 -41 -87.5 -45.5t-95.5 29.5q-41 35 -45.5 88.5t29.5 95.5z" />
    <glyph glyph-name="uni2089" unicode="&#x2089;" horiz-adv-x="520" 
d="M210.5 432.5q-20.5 -20.5 -20.5 -44.5q0 -25 20.5 -45t49.5 -20q30 0 50.5 20t20.5 45q0 24 -20.5 44.5t-50.5 20.5q-29 0 -49.5 -20.5zM207 194q-62 0 -101 39q-66 66 -66 150q0 83 63.5 151.5t156.5 68.5q94 0 157.5 -68.5t63.5 -151.5t-55 -149l-177 -204
q-27 -30 -64 -32.5t-58 14.5q-20 18 -17.5 49.5t19.5 52.5z" />
    <glyph glyph-name="uni2079" unicode="&#x2079;" horiz-adv-x="520" 
d="M210.5 1020.5q-20.5 -20.5 -20.5 -44.5q0 -25 20.5 -45t49.5 -20q30 0 50.5 20t20.5 45q0 24 -20.5 44.5t-50.5 20.5q-29 0 -49.5 -20.5zM207 782q-62 0 -101 39q-66 66 -66 150q0 83 63.5 151.5t156.5 68.5q94 0 157.5 -68.5t63.5 -151.5t-55 -149l-177 -204
q-27 -30 -64 -32.5t-58 14.5q-20 18 -17.5 49.5t19.5 52.5z" />
    <glyph glyph-name="infinity" unicode="&#x221e;" horiz-adv-x="1380" 
d="M546 484q44 44 44 106t-44 106t-106 44t-106 -44t-44 -106t44 -106t106 -44t106 44zM690 277q-107 -87 -250 -87q-166 0 -283 117t-117 283t117 283t283 117q143 0 250 -87q107 87 250 87q166 0 283 -117t117 -283t-117 -283t-283 -117q-143 0 -250 87zM1046 484
q44 44 44 106t-44 106t-106 44t-106 -44t-44 -106t44 -106t106 -44t106 44z" />
    <glyph glyph-name="a" unicode="a" horiz-adv-x="990" 
d="M631.5 298.5q58.5 58.5 58.5 141.5t-58.5 141.5t-141.5 58.5t-141.5 -58.5t-58.5 -141.5t58.5 -141.5t141.5 -58.5t141.5 58.5zM710 46q-98 -56 -220 -56q-187 0 -318.5 131.5t-131.5 318.5t131.5 318.5t318.5 131.5q122 0 220 -56q7 10 17 20q36 36 88 36t88.5 -36.5
t36.5 -88.5v-650q0 -52 -36.5 -88.5t-88.5 -36.5t-88 37q-10 9 -17 19z" />
    <glyph glyph-name="A" unicode="A" horiz-adv-x="1270" 
d="M775 500l-140 279l-139 -279h279zM905 240h-539l-90 -179q-25 -48 -76.5 -64.5t-99.5 8.5t-64 76.5t9 99.5l469 938q39 72 121 71q82 1 121 -71l469 -938q25 -48 9 -99.5t-64 -76.5t-99.5 -8.5t-76.5 64.5z" />
    <glyph glyph-name="ordfeminine" unicode="&#xaa;" horiz-adv-x="790" 
d="M496 734q44 44 44 106t-44 106t-106 44t-106 -44t-44 -106t44 -106t106 -44t106 44zM547 526q-71 -36 -157 -36q-145 0 -247.5 102.5t-102.5 247.5t102.5 247.5t247.5 102.5q86 0 157 -36l4 4q32 32 78 32t78.5 -32.5t32.5 -78.5v-478q0 -46 -32.5 -78.5t-78.5 -32.5
t-78 33q-2 1 -4 3z" />
    <glyph glyph-name="aacute" unicode="&#xe1;" horiz-adv-x="990" 
d="M631.5 298.5q58.5 58.5 58.5 141.5t-58.5 141.5t-141.5 58.5t-141.5 -58.5t-58.5 -141.5t58.5 -141.5t141.5 -58.5t141.5 58.5zM710 46q-98 -56 -220 -56q-187 0 -318.5 131.5t-131.5 318.5t131.5 318.5t318.5 131.5q122 0 220 -56q7 10 17 20q36 36 88 36t88.5 -36.5
t36.5 -88.5v-650q0 -52 -36.5 -88.5t-88.5 -36.5t-88 37q-10 9 -17 19zM506.5 1224q37.5 38 91.5 38t92 -38t38 -92t-38 -92t-132.5 -54t-121.5 -16t-46 19t-19 46t49 89t86.5 100z" />
    <glyph glyph-name="Aacute" unicode="&#xc1;" horiz-adv-x="1270" 
d="M775 500l-140 279l-139 -279h279zM905 240h-539l-90 -179q-25 -48 -76.5 -64.5t-99.5 8.5t-64 76.5t9 99.5l469 938q39 72 121 71q82 1 121 -71l469 -938q25 -48 9 -99.5t-64 -76.5t-99.5 -8.5t-76.5 64.5zM651.5 1496q37.5 38 91.5 38t92 -38t38 -92t-38 -92t-132.5 -54
t-121.5 -16t-46 19t-19 46t49 89t86.5 100z" />
    <glyph glyph-name="agrave" unicode="&#xe0;" horiz-adv-x="990" 
d="M631.5 298.5q58.5 58.5 58.5 141.5t-58.5 141.5t-141.5 58.5t-141.5 -58.5t-58.5 -141.5t58.5 -141.5t141.5 -58.5t141.5 58.5zM710 46q-98 -56 -220 -56q-187 0 -318.5 131.5t-131.5 318.5t131.5 318.5t318.5 131.5q122 0 220 -56q7 10 17 20q36 36 88 36t88.5 -36.5
t36.5 -88.5v-650q0 -52 -36.5 -88.5t-88.5 -36.5t-88 37q-10 9 -17 19zM609 1035q0 -27 -19.5 -46t-45.5 -19q-27 0 -121.5 16t-132.5 54t-38 92t38 92t92 38q53 0 91 -38t87 -100t49 -89z" />
    <glyph glyph-name="Agrave" unicode="&#xc0;" horiz-adv-x="1270" 
d="M775 500l-140 279l-139 -279h279zM905 240h-539l-90 -179q-25 -48 -76.5 -64.5t-99.5 8.5t-64 76.5t9 99.5l469 938q39 72 121 71q82 1 121 -71l469 -938q25 -48 9 -99.5t-64 -76.5t-99.5 -8.5t-76.5 64.5zM754 1307q0 -27 -19.5 -46t-45.5 -19q-27 0 -121.5 16
t-132.5 54t-38 92t38 92t92 38q53 0 91 -38t87 -100t49 -89z" />
    <glyph glyph-name="acircumflex" unicode="&#xe2;" horiz-adv-x="990" 
d="M631.5 298.5q58.5 58.5 58.5 141.5t-58.5 141.5t-141.5 58.5t-141.5 -58.5t-58.5 -141.5t58.5 -141.5t141.5 -58.5t141.5 58.5zM710 46q-98 -56 -220 -56q-187 0 -318.5 131.5t-131.5 318.5t131.5 318.5t318.5 131.5q122 0 220 -56q7 10 17 20q36 36 88 36t88.5 -36.5
t36.5 -88.5v-650q0 -52 -36.5 -88.5t-88.5 -36.5t-88 37q-10 9 -17 19zM490 1029l-55 -56q-33 -33 -79 -33t-79 33t-33 79t33 79l133 134q33 33 79 33h2q46 0 78 -33l134 -134q33 -33 33 -79t-33 -79q-32 -33 -78.5 -33t-79.5 33z" />
    <glyph glyph-name="Acircumflex" unicode="&#xc2;" horiz-adv-x="1270" 
d="M775 500l-140 279l-139 -279h279zM905 240h-539l-90 -179q-25 -48 -76.5 -64.5t-99.5 8.5t-64 76.5t9 99.5l469 938q39 72 121 71q82 1 121 -71l469 -938q25 -48 9 -99.5t-64 -76.5t-99.5 -8.5t-76.5 64.5zM635 1301l-55 -56q-33 -33 -79 -33t-79 33t-33 79t33 79
l133 134q33 33 79 33h2q46 0 78 -33l134 -134q33 -33 33 -79t-33 -79q-32 -33 -78.5 -33t-79.5 33z" />
    <glyph glyph-name="adieresis" unicode="&#xe4;" horiz-adv-x="990" 
d="M631.5 298.5q58.5 58.5 58.5 141.5t-58.5 141.5t-141.5 58.5t-141.5 -58.5t-58.5 -141.5t58.5 -141.5t141.5 -58.5t141.5 58.5zM710 46q-98 -56 -220 -56q-187 0 -318.5 131.5t-131.5 318.5t131.5 318.5t318.5 131.5q122 0 220 -56q7 10 17 20q36 36 88 36t88.5 -36.5
t36.5 -88.5v-650q0 -52 -36.5 -88.5t-88.5 -36.5t-88 37q-10 9 -17 19zM432 1212q38 -38 38 -92t-38 -92t-92 -38t-92 38t-38 92t38 92t92 38t92 -38zM732 1212q38 -38 38 -92t-38 -92t-92 -38t-92 38t-38 92t38 92t92 38t92 -38z" />
    <glyph glyph-name="Adieresis" unicode="&#xc4;" horiz-adv-x="1270" 
d="M775 500l-140 279l-139 -279h279zM905 240h-539l-90 -179q-25 -48 -76.5 -64.5t-99.5 8.5t-64 76.5t9 99.5l469 938q39 72 121 71q82 1 121 -71l469 -938q25 -48 9 -99.5t-64 -76.5t-99.5 -8.5t-76.5 64.5zM577 1484q38 -38 38 -92t-38 -92t-92 -38t-92 38t-38 92t38 92
t92 38t92 -38zM877 1484q38 -38 38 -92t-38 -92t-92 -38t-92 38t-38 92t38 92t92 38t92 -38z" />
    <glyph glyph-name="uni01CE" unicode="&#x1ce;" horiz-adv-x="990" 
d="M631.5 298.5q58.5 58.5 58.5 141.5t-58.5 141.5t-141.5 58.5t-141.5 -58.5t-58.5 -141.5t58.5 -141.5t141.5 -58.5t141.5 58.5zM710 46q-98 -56 -220 -56q-187 0 -318.5 131.5t-131.5 318.5t131.5 318.5t318.5 131.5q122 0 220 -56q7 10 17 20q36 36 88 36t88.5 -36.5
t36.5 -88.5v-650q0 -52 -36.5 -88.5t-88.5 -36.5t-88 37q-10 9 -17 19zM545 1265q33 33 79.5 33t78.5 -33q33 -32 33 -78.5t-33 -79.5l-134 -134q-32 -33 -78 -33h-2q-46 0 -79 33l-133 134q-33 33 -33 79.5t33 78.5q33 33 79 33t79 -33l55 -55z" />
    <glyph glyph-name="uni01CD" unicode="&#x1cd;" horiz-adv-x="1270" 
d="M775 500l-140 279l-139 -279h279zM905 240h-539l-90 -179q-25 -48 -76.5 -64.5t-99.5 8.5t-64 76.5t9 99.5l469 938q39 72 121 71q82 1 121 -71l469 -938q25 -48 9 -99.5t-64 -76.5t-99.5 -8.5t-76.5 64.5zM690 1537q33 33 79.5 33t78.5 -33q33 -32 33 -78.5t-33 -79.5
l-134 -134q-32 -33 -78 -33h-2q-46 0 -79 33l-133 134q-33 33 -33 79.5t33 78.5q33 33 79 33t79 -33l55 -55z" />
    <glyph glyph-name="abreve" unicode="&#x103;" horiz-adv-x="990" 
d="M631.5 298.5q58.5 58.5 58.5 141.5t-58.5 141.5t-141.5 58.5t-141.5 -58.5t-58.5 -141.5t58.5 -141.5t141.5 -58.5t141.5 58.5zM710 46q-98 -56 -220 -56q-187 0 -318.5 131.5t-131.5 318.5t131.5 318.5t318.5 131.5q122 0 220 -56q7 10 17 20q36 36 88 36t88.5 -36.5
t36.5 -88.5v-650q0 -52 -36.5 -88.5t-88.5 -36.5t-88 37q-10 9 -17 19zM490 1171q57 0 91 41q10 16 32.5 47t82.5 31q61 0 88 -35.5t27 -74.5q0 -68 -80.5 -148.5t-240.5 -80.5t-240.5 80.5t-80.5 148.5q0 39 27 74.5t88 35.5t83 -31t31 -47q36 -41 92 -41z" />
    <glyph glyph-name="Abreve" unicode="&#x102;" horiz-adv-x="1270" 
d="M775 500l-140 279l-139 -279h279zM905 240h-539l-90 -179q-25 -48 -76.5 -64.5t-99.5 8.5t-64 76.5t9 99.5l469 938q39 72 121 71q82 1 121 -71l469 -938q25 -48 9 -99.5t-64 -76.5t-99.5 -8.5t-76.5 64.5zM635 1443q57 0 91 41q10 16 32.5 47t82.5 31q61 0 88 -35.5
t27 -74.5q0 -68 -80.5 -148.5t-240.5 -80.5t-240.5 80.5t-80.5 148.5q0 39 27 74.5t88 35.5t83 -31t31 -47q36 -41 92 -41z" />
    <glyph glyph-name="amacron" unicode="&#x101;" horiz-adv-x="990" 
d="M631.5 298.5q58.5 58.5 58.5 141.5t-58.5 141.5t-141.5 58.5t-141.5 -58.5t-58.5 -141.5t58.5 -141.5t141.5 -58.5t141.5 58.5zM710 46q-98 -56 -220 -56q-187 0 -318.5 131.5t-131.5 318.5t131.5 318.5t318.5 131.5q122 0 220 -56q7 10 17 20q36 36 88 36t88.5 -36.5
t36.5 -88.5v-650q0 -52 -36.5 -88.5t-88.5 -36.5t-88 37q-10 9 -17 19zM790 1120q0 -43 -28.5 -71.5t-71.5 -28.5h-400q-43 0 -71.5 28.5t-28.5 71.5t28.5 71.5t71.5 28.5h400q43 0 71.5 -28.5t28.5 -71.5z" />
    <glyph glyph-name="Amacron" unicode="&#x100;" horiz-adv-x="1270" 
d="M775 500l-140 279l-139 -279h279zM905 240h-539l-90 -179q-25 -48 -76.5 -64.5t-99.5 8.5t-64 76.5t9 99.5l469 938q39 72 121 71q82 1 121 -71l469 -938q25 -48 9 -99.5t-64 -76.5t-99.5 -8.5t-76.5 64.5zM935 1392q0 -43 -28.5 -71.5t-71.5 -28.5h-400
q-43 0 -71.5 28.5t-28.5 71.5t28.5 71.5t71.5 28.5h400q43 0 71.5 -28.5t28.5 -71.5z" />
    <glyph glyph-name="atilde" unicode="&#xe3;" horiz-adv-x="990" 
d="M631.5 298.5q58.5 58.5 58.5 141.5t-58.5 141.5t-141.5 58.5t-141.5 -58.5t-58.5 -141.5t58.5 -141.5t141.5 -58.5t141.5 58.5zM710 46q-98 -56 -220 -56q-187 0 -318.5 131.5t-131.5 318.5t131.5 318.5t318.5 131.5q122 0 220 -56q7 10 17 20q36 36 88 36t88.5 -36.5
t36.5 -88.5v-650q0 -52 -36.5 -88.5t-88.5 -36.5t-88 37q-10 9 -17 19zM352 1006q-37 -36 -78 -36t-72.5 31.5t-31.5 82.5t35 87.5t81.5 56.5t98.5 20q51 0 108 -37q35 -22 69 -23q34 1 66 23q37 37 78 37q42 0 73 -31.5t31 -82.5q0 -52 -35 -88t-81.5 -56t-98.5 -20
q-51 0 -108 36q-35 23 -69 24q-34 -1 -66 -24z" />
    <glyph glyph-name="Atilde" unicode="&#xc3;" horiz-adv-x="1270" 
d="M775 500l-140 279l-139 -279h279zM905 240h-539l-90 -179q-25 -48 -76.5 -64.5t-99.5 8.5t-64 76.5t9 99.5l469 938q39 72 121 71q82 1 121 -71l469 -938q25 -48 9 -99.5t-64 -76.5t-99.5 -8.5t-76.5 64.5zM497 1278q-37 -36 -78 -36t-72.5 31.5t-31.5 82.5t35 87.5
t81.5 56.5t98.5 20q51 0 108 -37q35 -22 69 -23q34 1 66 23q37 37 78 37q42 0 73 -31.5t31 -82.5q0 -52 -35 -88t-81.5 -56t-98.5 -20q-51 0 -108 36q-35 23 -69 24q-34 -1 -66 -24z" />
    <glyph glyph-name="aring" unicode="&#xe5;" horiz-adv-x="990" 
d="M631.5 298.5q58.5 58.5 58.5 141.5t-58.5 141.5t-141.5 58.5t-141.5 -58.5t-58.5 -141.5t58.5 -141.5t141.5 -58.5t141.5 58.5zM710 46q-98 -56 -220 -56q-187 0 -318.5 131.5t-131.5 318.5t131.5 318.5t318.5 131.5q122 0 220 -56q7 10 17 20q36 36 88 36t88.5 -36.5
t36.5 -88.5v-650q0 -52 -36.5 -88.5t-88.5 -36.5t-88 37q-10 9 -17 19zM490 920q-83 0 -141.5 58.5t-58.5 141.5t58.5 141.5t141.5 58.5t141.5 -58.5t58.5 -141.5t-58.5 -141.5t-141.5 -58.5zM543.5 1067q21.5 22 21.5 53q0 32 -21.5 53.5t-53.5 21.5q-31 0 -53 -21.5
t-22 -53.5q0 -31 22 -53t53 -22q32 0 53.5 22z" />
    <glyph glyph-name="Aring" unicode="&#xc5;" horiz-adv-x="1270" 
d="M775 500l-140 279l-139 -279h279zM905 240h-539l-90 -179q-25 -48 -76.5 -64.5t-99.5 8.5t-64 76.5t9 99.5l469 938q39 72 121 71q82 1 121 -71l469 -938q25 -48 9 -99.5t-64 -76.5t-99.5 -8.5t-76.5 64.5zM635 1192q-83 0 -141.5 58.5t-58.5 141.5t58.5 141.5
t141.5 58.5t141.5 -58.5t58.5 -141.5t-58.5 -141.5t-141.5 -58.5zM688.5 1339q21.5 22 21.5 53q0 32 -21.5 53.5t-53.5 21.5q-31 0 -53 -21.5t-22 -53.5q0 -31 22 -53t53 -22q32 0 53.5 22z" />
    <glyph glyph-name="aogonek" unicode="&#x105;" horiz-adv-x="990" 
d="M631.5 298.5q58.5 58.5 58.5 141.5t-58.5 141.5t-141.5 58.5t-141.5 -58.5t-58.5 -141.5t58.5 -141.5t141.5 -58.5t141.5 58.5zM727 27q-10 9 -17 19q-98 -56 -220 -56q-187 0 -318.5 131.5t-131.5 318.5t131.5 318.5t318.5 131.5q122 0 220 -56q7 10 17 20q36 36 88 36
t88.5 -36.5t36.5 -88.5v-650q0 -52 -36 -88q-18 -18 -40 -27q-111 -62 -115 -119t37 -65.5t76.5 9.5t77.5 18q46 0 75.5 -29.5t29.5 -75.5t-68 -97t-192 -51q-106 0 -172 49t-66 161q10 124 180 227z" />
    <glyph glyph-name="Aogonek" unicode="&#x104;" horiz-adv-x="1270" 
d="M775 500l-140 279l-139 -279h279zM994 61l-89 179h-539l-90 -179q-25 -48 -76.5 -64.5t-99.5 8.5t-64 76.5t9 99.5l469 938q39 72 121 71q82 1 121 -71l469 -938q25 -48 9 -99.5t-74 -81.5q-112 -62 -116 -119t37 -65.5t76.5 9.5t77.5 18q46 0 75.5 -29.5t29.5 -75.5
t-68 -97t-192 -51q-106 0 -172 49t-66 161q10 124 180 224q-15 14 -28 37z" />
    <glyph glyph-name="aringacute" unicode="&#x1fb;" horiz-adv-x="990" 
d="M631.5 298.5q58.5 58.5 58.5 141.5t-58.5 141.5t-141.5 58.5t-141.5 -58.5t-58.5 -141.5t58.5 -141.5t141.5 -58.5t141.5 58.5zM710 46q-98 -56 -220 -56q-187 0 -318.5 131.5t-131.5 318.5t131.5 318.5t318.5 131.5q122 0 220 -56q7 10 17 20q36 36 88 36t88.5 -36.5
t36.5 -88.5v-650q0 -52 -36.5 -88.5t-88.5 -36.5t-88 37q-10 9 -17 19zM490 920q-83 0 -141.5 58.5t-58.5 141.5t58.5 141.5t141.5 58.5t141.5 -58.5t58.5 -141.5t-58.5 -141.5t-141.5 -58.5zM543.5 1067q21.5 22 21.5 53q0 32 -21.5 53.5t-53.5 21.5q-31 0 -53 -21.5
t-22 -53.5q0 -31 22 -53t53 -22q32 0 53.5 22zM805.5 1374q37.5 38 91.5 38t92 -38t38 -92t-38 -92t-132.5 -54t-121.5 -16t-46 19t-19 46t49 89t86.5 100z" />
    <glyph glyph-name="Aringacute" unicode="&#x1fa;" horiz-adv-x="1270" 
d="M775 500l-140 279l-139 -279h279zM905 240h-539l-90 -179q-25 -48 -76.5 -64.5t-99.5 8.5t-64 76.5t9 99.5l469 938q39 72 121 71q82 1 121 -71l469 -938q25 -48 9 -99.5t-64 -76.5t-99.5 -8.5t-76.5 64.5zM635 1192q-83 0 -141.5 58.5t-58.5 141.5t58.5 141.5
t141.5 58.5t141.5 -58.5t58.5 -141.5t-58.5 -141.5t-141.5 -58.5zM688.5 1339q21.5 22 21.5 53q0 32 -21.5 53.5t-53.5 21.5q-31 0 -53 -21.5t-22 -53.5q0 -31 22 -53t53 -22q32 0 53.5 22zM950.5 1554q37.5 38 91.5 38t92 -38t38 -92t-38 -92t-132.5 -54t-121.5 -16t-46 19
t-19 46t49 89t86.5 100z" />
    <glyph glyph-name="ae" unicode="&#xe6;" horiz-adv-x="1560" 
d="M631.5 298.5q58.5 58.5 58.5 141.5t-58.5 141.5t-141.5 58.5t-141.5 -58.5t-58.5 -141.5t58.5 -141.5t141.5 -58.5t141.5 58.5zM1238 620q-49 20 -98 20q-83 0 -141 -58q-56 -56 -59 -135zM920 46q-7 -10 -16 -19q-37 -37 -89 -37t-88 37q-10 9 -17 19q-98 -56 -220 -56
q-187 0 -318.5 131.5t-131.5 318.5t131.5 318.5t318.5 131.5q122 0 220 -56q7 10 17 20q36 36 88 36t89 -36q9 -10 16 -20q98 56 220 56q187 0 294 -106q75 -76 79 -171q-2 -69 -58 -100l-421 -243q47 -30 106 -30q83 0 166.5 58.5t158.5 -18.5t-31.5 -183.5t-293.5 -106.5
q-122 0 -220 56z" />
    <glyph glyph-name="AE" unicode="&#xc6;" horiz-adv-x="1510" 
d="M670 500v347l-174 -347h174zM670 240h-304l-90 -179q-25 -48 -76.5 -64.5t-99.5 8.5t-64 76.5t9 99.5l479 928q39 72 121 71h695q54 0 92 -38t38 -92t-38 -92t-92 -38h-410v-200h310q54 0 92 -38t38 -92t-38 -92t-92 -38h-310v-200h410q54 0 92 -38t38 -92t-38 -92
t-92 -38h-540q-54 0 -92 38t-38 92v110z" />
    <glyph glyph-name="aeacute" unicode="&#x1fd;" horiz-adv-x="1560" 
d="M631.5 298.5q58.5 58.5 58.5 141.5t-58.5 141.5t-141.5 58.5t-141.5 -58.5t-58.5 -141.5t58.5 -141.5t141.5 -58.5t141.5 58.5zM1238 620q-49 20 -98 20q-83 0 -141 -58q-56 -56 -59 -135zM920 46q-7 -10 -16 -19q-37 -37 -89 -37t-88 37q-10 9 -17 19q-98 -56 -220 -56
q-187 0 -318.5 131.5t-131.5 318.5t131.5 318.5t318.5 131.5q122 0 220 -56q7 10 17 20q36 36 88 36t89 -36q9 -10 16 -20q98 56 220 56q187 0 294 -106q75 -76 79 -171q-2 -69 -58 -100l-421 -243q47 -30 106 -30q83 0 166.5 58.5t158.5 -18.5t-31.5 -183.5t-293.5 -106.5
q-122 0 -220 56zM793.5 1224q37.5 38 91.5 38t92 -38t38 -92t-38 -92t-132.5 -54t-121.5 -16t-46 19t-19 46t49 89t86.5 100z" />
    <glyph glyph-name="AEacute" unicode="&#x1fc;" horiz-adv-x="1510" 
d="M670 500v347l-174 -347h174zM670 240h-304l-90 -179q-25 -48 -76.5 -64.5t-99.5 8.5t-64 76.5t9 99.5l479 928q39 72 121 71h695q54 0 92 -38t38 -92t-38 -92t-92 -38h-410v-200h310q54 0 92 -38t38 -92t-38 -92t-92 -38h-310v-200h410q54 0 92 -38t38 -92t-38 -92
t-92 -38h-540q-54 0 -92 38t-38 92v110zM766.5 1496q37.5 38 91.5 38t92 -38t38 -92t-38 -92t-132.5 -54t-121.5 -16t-46 19t-19 46t49 89t86.5 100z" />
    <glyph glyph-name="b" unicode="b" horiz-adv-x="990" 
d="M641.5 298.5q58.5 58.5 58.5 141.5t-58.5 141.5t-141.5 58.5t-141.5 -58.5t-58.5 -141.5t58.5 -141.5t141.5 -58.5t141.5 58.5zM300 845q90 45 200 45q187 0 318.5 -131.5t131.5 -318.5t-131.5 -318.5t-318.5 -131.5q-122 0 -220 56q-7 -10 -16 -19q-37 -37 -89 -37
t-88.5 36.5t-36.5 88.5v960q0 52 36.5 88.5t88.5 36.5t88.5 -36.5t36.5 -88.5v-230z" />
    <glyph glyph-name="B" unicode="B" horiz-adv-x="990" 
d="M856 658q94 -109 94 -258q0 -166 -117 -283t-283 -117h-370q-54 0 -92 38t-38 92v920q0 54 38 92t92 38h370q145 0 247.5 -102.5t102.5 -247.5q0 -95 -44 -172zM310 920v-200h228q42 0 71 29t29 71q0 41 -29 70.5t-71 29.5h-228zM310 480v-220h268q42 0 76 34t34 76
q0 41 -34 75.5t-76 34.5h-268z" />
    <glyph glyph-name="c" unicode="c" horiz-adv-x="890" 
d="M490 -10q-187 0 -318.5 131.5t-131.5 318.5t131.5 318.5t318.5 131.5t293.5 -106.5t31.5 -183.5t-158.5 -18.5t-166.5 58.5t-141.5 -58.5t-58.5 -141.5t58.5 -141.5t141.5 -58.5t166.5 58.5t158.5 -18.5t-31.5 -183.5t-293.5 -106.5z" />
    <glyph glyph-name="C" unicode="C" horiz-adv-x="1180" 
d="M1000 410q54 0 92 -38t38 -92t-38 -92q-26 -31 -52 -57q-151 -141 -400 -141t-424.5 175.5t-175.5 424.5t175.5 424.5t424.5 175.5t400 -140q26 -27 52 -58q38 -38 38 -92t-38 -92t-92 -38t-119 61q-100 99 -241 99t-240.5 -99.5t-99.5 -240.5t99.5 -240.5t240.5 -99.5
t241 100q65 60 119 60z" />
    <glyph glyph-name="cacute" unicode="&#x107;" horiz-adv-x="890" 
d="M490 -10q-187 0 -318.5 131.5t-131.5 318.5t131.5 318.5t318.5 131.5t293.5 -106.5t31.5 -183.5t-158.5 -18.5t-166.5 58.5t-141.5 -58.5t-58.5 -141.5t58.5 -141.5t141.5 -58.5t166.5 58.5t158.5 -18.5t-31.5 -183.5t-293.5 -106.5zM459.5 1224q37.5 38 91.5 38t92 -38
t38 -92t-38 -92t-132.5 -54t-121.5 -16t-46 19t-19 46t49 89t86.5 100z" />
    <glyph glyph-name="Cacute" unicode="&#x106;" horiz-adv-x="1180" 
d="M1000 410q54 0 92 -38t38 -92t-38 -92q-26 -31 -52 -57q-151 -141 -400 -141t-424.5 175.5t-175.5 424.5t175.5 424.5t424.5 175.5t400 -140q26 -27 52 -58q38 -38 38 -92t-38 -92t-92 -38t-119 61q-100 99 -241 99t-240.5 -99.5t-99.5 -240.5t99.5 -240.5t240.5 -99.5
t241 100q65 60 119 60zM601.5 1496q37.5 38 91.5 38t92 -38t38 -92t-38 -92t-132.5 -54t-121.5 -16t-46 19t-19 46t49 89t86.5 100z" />
    <glyph glyph-name="cdotaccent" unicode="&#x10b;" horiz-adv-x="890" 
d="M490 -10q-187 0 -318.5 131.5t-131.5 318.5t131.5 318.5t318.5 131.5t293.5 -106.5t31.5 -183.5t-158.5 -18.5t-166.5 58.5t-141.5 -58.5t-58.5 -141.5t58.5 -141.5t141.5 -58.5t166.5 58.5t158.5 -18.5t-31.5 -183.5t-293.5 -106.5zM535 1212q38 -38 38 -92t-38 -92
t-92 -38t-92 38t-38 92t38 92t92 38t92 -38z" />
    <glyph glyph-name="Cdotaccent" unicode="&#x10a;" horiz-adv-x="1180" 
d="M1000 410q54 0 92 -38t38 -92t-38 -92q-26 -31 -52 -57q-151 -141 -400 -141t-424.5 175.5t-175.5 424.5t175.5 424.5t424.5 175.5t400 -140q26 -27 52 -58q38 -38 38 -92t-38 -92t-92 -38t-119 61q-100 99 -241 99t-240.5 -99.5t-99.5 -240.5t99.5 -240.5t240.5 -99.5
t241 100q65 60 119 60zM677 1484q38 -38 38 -92t-38 -92t-92 -38t-92 38t-38 92t38 92t92 38t92 -38z" />
    <glyph glyph-name="ccircumflex" unicode="&#x109;" horiz-adv-x="890" 
d="M490 -10q-187 0 -318.5 131.5t-131.5 318.5t131.5 318.5t318.5 131.5t293.5 -106.5t31.5 -183.5t-158.5 -18.5t-166.5 58.5t-141.5 -58.5t-58.5 -141.5t58.5 -141.5t141.5 -58.5t166.5 58.5t158.5 -18.5t-31.5 -183.5t-293.5 -106.5zM443 1029l-55 -56q-33 -33 -79 -33
t-79 33t-33 79t33 79l133 134q33 33 79 33h2q46 0 78 -33l134 -134q33 -33 33 -79t-33 -79q-32 -33 -78.5 -33t-79.5 33z" />
    <glyph glyph-name="Ccircumflex" unicode="&#x108;" horiz-adv-x="1180" 
d="M1000 410q54 0 92 -38t38 -92t-38 -92q-26 -31 -52 -57q-151 -141 -400 -141t-424.5 175.5t-175.5 424.5t175.5 424.5t424.5 175.5t400 -140q26 -27 52 -58q38 -38 38 -92t-38 -92t-92 -38t-119 61q-100 99 -241 99t-240.5 -99.5t-99.5 -240.5t99.5 -240.5t240.5 -99.5
t241 100q65 60 119 60zM585 1301l-55 -56q-33 -33 -79 -33t-79 33t-33 79t33 79l133 134q33 33 79 33h2q46 0 78 -33l134 -134q33 -33 33 -79t-33 -79q-32 -33 -78.5 -33t-79.5 33z" />
    <glyph glyph-name="ccaron" unicode="&#x10d;" horiz-adv-x="890" 
d="M490 -10q-187 0 -318.5 131.5t-131.5 318.5t131.5 318.5t318.5 131.5t293.5 -106.5t31.5 -183.5t-158.5 -18.5t-166.5 58.5t-141.5 -58.5t-58.5 -141.5t58.5 -141.5t141.5 -58.5t166.5 58.5t158.5 -18.5t-31.5 -183.5t-293.5 -106.5zM498 1265q33 33 79.5 33t78.5 -33
q33 -32 33 -78.5t-33 -79.5l-134 -134q-32 -33 -78 -33h-2q-46 0 -79 33l-133 134q-33 33 -33 79.5t33 78.5q33 33 79 33t79 -33l55 -55z" />
    <glyph glyph-name="Ccaron" unicode="&#x10c;" horiz-adv-x="1180" 
d="M1000 410q54 0 92 -38t38 -92t-38 -92q-26 -31 -52 -57q-151 -141 -400 -141t-424.5 175.5t-175.5 424.5t175.5 424.5t424.5 175.5t400 -140q26 -27 52 -58q38 -38 38 -92t-38 -92t-92 -38t-119 61q-100 99 -241 99t-240.5 -99.5t-99.5 -240.5t99.5 -240.5t240.5 -99.5
t241 100q65 60 119 60zM640 1537q33 33 79.5 33t78.5 -33q33 -32 33 -78.5t-33 -79.5l-134 -134q-32 -33 -78 -33h-2q-46 0 -79 33l-133 134q-33 33 -33 79.5t33 78.5q33 33 79 33t79 -33l55 -55z" />
    <glyph glyph-name="ccedilla" unicode="&#xe7;" horiz-adv-x="890" 
d="M350 11q-99 31 -178 111q-132 131 -132 318t131.5 318.5t318.5 131.5t293.5 -106.5t31.5 -183.5t-158.5 -18.5t-166.5 58.5t-141.5 -58.5t-58.5 -141.5t58.5 -141.5t141.5 -58.5t166.5 58.5t158.5 -18.5t-31 -183q-104 -104 -285 -107l-9 -26q58 1 111 -33
q74 -53 74 -140q0 -96 -71.5 -150t-169.5 -54q-105 0 -164.5 42.5t-59.5 95.5q0 42 22 64.5t55 22.5q29 0 63 -36t99 -35t70 51q-1 39 -40 49t-78 4q-79 -6 -96 34q-8 39 21 86z" />
    <glyph glyph-name="Ccedilla" unicode="&#xc7;" horiz-adv-x="1180" 
d="M491 7q-155 38 -275 159q-176 175 -176 424t175.5 424.5t424.5 175.5t400 -140q26 -27 52 -58q38 -38 38 -92t-38 -92t-92 -38t-119 61q-100 99 -241 99t-240.5 -99.5t-99.5 -240.5t99.5 -240.5t240.5 -99.5t241 100q65 60 119 60t92 -38t38 -92t-38 -92q-26 -31 -52 -57
q-150 -140 -398 -141l-9 -26q58 1 111 -33q74 -53 74 -140q0 -96 -71.5 -150t-169.5 -54q-105 0 -164.5 42.5t-59.5 95.5q0 42 22 64.5t55 22.5q29 0 63 -36t99 -35t70 51q-1 39 -40 49t-78 4q-79 -6 -96 34q-8 39 21 86z" />
    <glyph glyph-name="afii61248" unicode="&#x2105;" horiz-adv-x="1380" 
d="M303 6q-34 23 -42.5 63.5t14.5 75.5l663 1000q23 35 63.5 43t75.5 -14q34 -23 42.5 -63.5t-14.5 -75.5l-663 -1000q-23 -35 -63.5 -43t-75.5 14zM1040 -10q-124 0 -212 88t-88 212t88 212t212 88t212 -88t88 -212t-88 -212t-212 -88zM1122.5 207.5q34.5 34.5 34.5 82.5
t-34.5 82.5t-82.5 34.5t-82.5 -34.5t-34.5 -82.5t34.5 -82.5t82.5 -34.5t82.5 34.5zM340 590q-124 0 -212 88t-88 212t88 212t212 88t187 -63t16.5 -121t-101 -28.5t-102.5 29.5t-82.5 -34.5t-34.5 -82.5t34.5 -82.5t82.5 -34.5t102.5 29.5t101 -28.5t-16.5 -121t-187 -63z
" />
    <glyph glyph-name="d" unicode="d" horiz-adv-x="990" 
d="M631.5 298.5q58.5 58.5 58.5 141.5t-58.5 141.5t-141.5 58.5t-141.5 -58.5t-58.5 -141.5t58.5 -141.5t141.5 -58.5t141.5 58.5zM710 46q-98 -56 -220 -56q-187 0 -318.5 131.5t-131.5 318.5t131.5 318.5t318.5 131.5q110 0 200 -45v230q0 52 36.5 88.5t88.5 36.5
t88.5 -36.5t36.5 -88.5v-960q0 -52 -36.5 -88.5t-88.5 -36.5t-88 37q-10 9 -17 19z" />
    <glyph glyph-name="D" unicode="D" horiz-adv-x="1100" 
d="M180 1180h290q249 0 419.5 -170.5t170.5 -419.5t-170.5 -419.5t-419.5 -170.5h-290q-54 0 -92 38t-38 92v920q0 54 38 92t92 38zM470 920h-160v-660h160q141 0 235.5 94.5t94.5 235.5t-94.5 235.5t-235.5 94.5z" />
    <glyph glyph-name="dcaron" unicode="&#x10f;" horiz-adv-x="1204" 
d="M631.5 298.5q58.5 58.5 58.5 141.5t-58.5 141.5t-141.5 58.5t-141.5 -58.5t-58.5 -141.5t58.5 -141.5t141.5 -58.5t141.5 58.5zM710 46q-98 -56 -220 -56q-187 0 -318.5 131.5t-131.5 318.5t131.5 318.5t318.5 131.5q110 0 200 -45v230q0 52 36.5 88.5t88.5 36.5
t88.5 -36.5t36.5 -88.5v-960q0 -52 -36.5 -88.5t-88.5 -36.5t-88 37q-10 9 -17 19zM1091 921q-69 15 -90 82t11 121q30 54 90.5 70.5t114.5 -14.5q54 -32 70.5 -92.5t-15.5 -114.5l-102 -172q-14 -24 -40.5 -31t-50.5 7t-31.5 41t6.5 51z" />
    <glyph glyph-name="Dcaron" unicode="&#x10e;" horiz-adv-x="1100" 
d="M180 1180h290q249 0 419.5 -170.5t170.5 -419.5t-170.5 -419.5t-419.5 -170.5h-290q-54 0 -92 38t-38 92v920q0 54 38 92t92 38zM470 920h-160v-660h160q141 0 235.5 94.5t94.5 235.5t-94.5 235.5t-235.5 94.5zM610 1537q33 33 79.5 33t78.5 -33q33 -32 33 -78.5
t-33 -79.5l-134 -134q-32 -33 -78 -33h-2q-46 0 -79 33l-133 134q-33 33 -33 79.5t33 78.5q33 33 79 33t79 -33l55 -55z" />
    <glyph glyph-name="dcroat" unicode="&#x111;" horiz-adv-x="990" 
d="M690 440q0 83 -58.5 141.5t-141.5 58.5t-141.5 -58.5t-58.5 -141.5t58.5 -141.5t141.5 -58.5t141.5 58.5t58.5 141.5zM940 920v-805q0 -52 -36.5 -88.5t-88.5 -36.5t-88 37q-10 9 -17 19q-98 -56 -220 -56q-187 0 -318.5 131.5t-131.5 318.5t131.5 318.5t318.5 131.5
q110 0 200 -45v75h-100q-43 0 -71.5 28.5t-28.5 71.5t28.5 71.5t71.5 28.5h100v5q0 52 36.5 88.5t88.5 36.5t88.5 -36.5t36.5 -88.5v-5h50q43 0 71.5 -28.5t28.5 -71.5t-28.5 -71.5t-71.5 -28.5h-50z" />
    <glyph glyph-name="Dcroat" unicode="&#x110;" horiz-adv-x="1230" 
d="M440 460v-200h160q141 0 235.5 94.5t94.5 235.5t-94.5 235.5t-235.5 94.5h-160v-200h160q54 0 92 -38t38 -92t-38 -92t-92 -38h-160zM180 720v330q0 54 38 92t92 38h290q249 0 419.5 -170.5t170.5 -419.5t-170.5 -419.5t-419.5 -170.5h-290q-54 0 -92 38t-38 92v330h-20
q-54 0 -92 38t-38 92t38 92t92 38h20z" />
    <glyph glyph-name="eth" unicode="&#xf0;" horiz-adv-x="960" 
d="M480 250q79 0 129.5 50.5t50.5 119.5t-50.5 119.5t-129.5 50.5t-129.5 -50.5t-50.5 -119.5t50.5 -119.5t129.5 -50.5zM592 979l218 -262q110 -131 110 -297q0 -167 -126.5 -298.5t-313.5 -131.5t-313.5 131.5t-126.5 298.5t131 299q99 98 223 97l-44 51l-89 -42
q-39 -18 -77 -4.5t-56 52.5t-4 77t52 56l48 23q-8 24 -5 53q4 53 45 88q42 34 95.5 29.5t87.5 -45.5l13 -16l79 37q39 18 77 4.5t56 -52.5t4 -77t-52 -56z" />
    <glyph glyph-name="Eth" unicode="&#xd0;" horiz-adv-x="1230" 
d="M440 460v-200h160q141 0 235.5 94.5t94.5 235.5t-94.5 235.5t-235.5 94.5h-160v-200h160q54 0 92 -38t38 -92t-38 -92t-92 -38h-160zM180 720v330q0 54 38 92t92 38h290q249 0 419.5 -170.5t170.5 -419.5t-170.5 -419.5t-419.5 -170.5h-290q-54 0 -92 38t-38 92v330h-20
q-54 0 -92 38t-38 92t38 92t92 38h20z" />
    <glyph glyph-name="e" unicode="e" horiz-adv-x="910" 
d="M384 270q47 -30 106 -30q83 0 166.5 58.5t158.5 -18.5t-31.5 -183.5t-293.5 -106.5t-318.5 131.5t-131.5 318.5t131.5 318.5t318.5 131.5t294 -106q75 -76 79 -171q-2 -69 -58 -100zM588 620q-49 20 -98 20q-83 0 -141 -58q-56 -56 -59 -135z" />
    <glyph glyph-name="E" unicode="E" horiz-adv-x="890" 
d="M180 1180h540q54 0 92 -38t38 -92t-38 -92t-92 -38h-410v-200h310q54 0 92 -38t38 -92t-38 -92t-92 -38h-310v-200h410q54 0 92 -38t38 -92t-38 -92t-92 -38h-540q-54 0 -92 38t-38 92v920q0 54 38 92t92 38z" />
    <glyph glyph-name="estimated" unicode="&#x212e;" horiz-adv-x="1280" 
d="M325 720h630q-24 60 -74 111q-100 99 -241 99t-240 -99q-51 -51 -75 -111zM40 590q0 249 175.5 424.5t424.5 175.5t424.5 -175.5t175.5 -424.5q0 -54 -38 -92t-92 -38h-785q24 -60 75 -110q99 -100 240 -100t241 100q65 60 119 60t92 -38t38 -92t-38 -92q-26 -31 -52 -57
q-151 -141 -400 -141t-424.5 175.5t-175.5 424.5z" />
    <glyph glyph-name="eacute" unicode="&#xe9;" horiz-adv-x="910" 
d="M384 270q47 -30 106 -30q83 0 166.5 58.5t158.5 -18.5t-31.5 -183.5t-293.5 -106.5t-318.5 131.5t-131.5 318.5t131.5 318.5t318.5 131.5t294 -106q75 -76 79 -171q-2 -69 -58 -100zM588 620q-49 20 -98 20q-83 0 -141 -58q-56 -56 -59 -135zM468.5 1224q37.5 38 91.5 38
t92 -38t38 -92t-38 -92t-132.5 -54t-121.5 -16t-46 19t-19 46t49 89t86.5 100z" />
    <glyph glyph-name="Eacute" unicode="&#xc9;" horiz-adv-x="890" 
d="M180 1180h540q54 0 92 -38t38 -92t-38 -92t-92 -38h-410v-200h310q54 0 92 -38t38 -92t-38 -92t-92 -38h-310v-200h410q54 0 92 -38t38 -92t-38 -92t-92 -38h-540q-54 0 -92 38t-38 92v920q0 54 38 92t92 38zM466.5 1496q37.5 38 91.5 38t92 -38t38 -92t-38 -92
t-132.5 -54t-121.5 -16t-46 19t-19 46t49 89t86.5 100z" />
    <glyph glyph-name="egrave" unicode="&#xe8;" horiz-adv-x="910" 
d="M384 270q47 -30 106 -30q83 0 166.5 58.5t158.5 -18.5t-31.5 -183.5t-293.5 -106.5t-318.5 131.5t-131.5 318.5t131.5 318.5t318.5 131.5t294 -106q75 -76 79 -171q-2 -69 -58 -100zM588 620q-49 20 -98 20q-83 0 -141 -58q-56 -56 -59 -135zM571 1035q0 -27 -19.5 -46
t-45.5 -19q-27 0 -121.5 16t-132.5 54t-38 92t38 92t92 38q53 0 91 -38t87 -100t49 -89z" />
    <glyph glyph-name="Egrave" unicode="&#xc8;" horiz-adv-x="890" 
d="M180 1180h540q54 0 92 -38t38 -92t-38 -92t-92 -38h-410v-200h310q54 0 92 -38t38 -92t-38 -92t-92 -38h-310v-200h410q54 0 92 -38t38 -92t-38 -92t-92 -38h-540q-54 0 -92 38t-38 92v920q0 54 38 92t92 38zM569 1307q0 -27 -19.5 -46t-45.5 -19q-27 0 -121.5 16
t-132.5 54t-38 92t38 92t92 38q53 0 91 -38t87 -100t49 -89z" />
    <glyph glyph-name="edotaccent" unicode="&#x117;" horiz-adv-x="910" 
d="M384 270q47 -30 106 -30q83 0 166.5 58.5t158.5 -18.5t-31.5 -183.5t-293.5 -106.5t-318.5 131.5t-131.5 318.5t131.5 318.5t318.5 131.5t294 -106q75 -76 79 -171q-2 -69 -58 -100zM588 620q-49 20 -98 20q-83 0 -141 -58q-56 -56 -59 -135zM544 1212q38 -38 38 -92
t-38 -92t-92 -38t-92 38t-38 92t38 92t92 38t92 -38z" />
    <glyph glyph-name="Edotaccent" unicode="&#x116;" horiz-adv-x="890" 
d="M180 1180h540q54 0 92 -38t38 -92t-38 -92t-92 -38h-410v-200h310q54 0 92 -38t38 -92t-38 -92t-92 -38h-310v-200h410q54 0 92 -38t38 -92t-38 -92t-92 -38h-540q-54 0 -92 38t-38 92v920q0 54 38 92t92 38zM542 1484q38 -38 38 -92t-38 -92t-92 -38t-92 38t-38 92
t38 92t92 38t92 -38z" />
    <glyph glyph-name="ecircumflex" unicode="&#xea;" horiz-adv-x="910" 
d="M384 270q47 -30 106 -30q83 0 166.5 58.5t158.5 -18.5t-31.5 -183.5t-293.5 -106.5t-318.5 131.5t-131.5 318.5t131.5 318.5t318.5 131.5t294 -106q75 -76 79 -171q-2 -69 -58 -100zM588 620q-49 20 -98 20q-83 0 -141 -58q-56 -56 -59 -135zM452 1029l-55 -56
q-33 -33 -79 -33t-79 33t-33 79t33 79l133 134q33 33 79 33h2q46 0 78 -33l134 -134q33 -33 33 -79t-33 -79q-32 -33 -78.5 -33t-79.5 33z" />
    <glyph glyph-name="Ecircumflex" unicode="&#xca;" horiz-adv-x="890" 
d="M180 1180h540q54 0 92 -38t38 -92t-38 -92t-92 -38h-410v-200h310q54 0 92 -38t38 -92t-38 -92t-92 -38h-310v-200h410q54 0 92 -38t38 -92t-38 -92t-92 -38h-540q-54 0 -92 38t-38 92v920q0 54 38 92t92 38zM450 1301l-55 -56q-33 -33 -79 -33t-79 33t-33 79t33 79
l133 134q33 33 79 33h2q46 0 78 -33l134 -134q33 -33 33 -79t-33 -79q-32 -33 -78.5 -33t-79.5 33z" />
    <glyph glyph-name="edieresis" unicode="&#xeb;" horiz-adv-x="910" 
d="M384 270q47 -30 106 -30q83 0 166.5 58.5t158.5 -18.5t-31.5 -183.5t-293.5 -106.5t-318.5 131.5t-131.5 318.5t131.5 318.5t318.5 131.5t294 -106q75 -76 79 -171q-2 -69 -58 -100zM588 620q-49 20 -98 20q-83 0 -141 -58q-56 -56 -59 -135zM394 1212q38 -38 38 -92
t-38 -92t-92 -38t-92 38t-38 92t38 92t92 38t92 -38zM694 1212q38 -38 38 -92t-38 -92t-92 -38t-92 38t-38 92t38 92t92 38t92 -38z" />
    <glyph glyph-name="Edieresis" unicode="&#xcb;" horiz-adv-x="890" 
d="M180 1180h540q54 0 92 -38t38 -92t-38 -92t-92 -38h-410v-200h310q54 0 92 -38t38 -92t-38 -92t-92 -38h-310v-200h410q54 0 92 -38t38 -92t-38 -92t-92 -38h-540q-54 0 -92 38t-38 92v920q0 54 38 92t92 38zM392 1484q38 -38 38 -92t-38 -92t-92 -38t-92 38t-38 92
t38 92t92 38t92 -38zM692 1484q38 -38 38 -92t-38 -92t-92 -38t-92 38t-38 92t38 92t92 38t92 -38z" />
    <glyph glyph-name="ecaron" unicode="&#x11b;" horiz-adv-x="910" 
d="M384 270q47 -30 106 -30q83 0 166.5 58.5t158.5 -18.5t-31.5 -183.5t-293.5 -106.5t-318.5 131.5t-131.5 318.5t131.5 318.5t318.5 131.5t294 -106q75 -76 79 -171q-2 -69 -58 -100zM588 620q-49 20 -98 20q-83 0 -141 -58q-56 -56 -59 -135zM507 1265q33 33 79.5 33
t78.5 -33q33 -32 33 -78.5t-33 -79.5l-134 -134q-32 -33 -78 -33h-2q-46 0 -79 33l-133 134q-33 33 -33 79.5t33 78.5q33 33 79 33t79 -33l55 -55z" />
    <glyph glyph-name="Ecaron" unicode="&#x11a;" horiz-adv-x="890" 
d="M180 1180h540q54 0 92 -38t38 -92t-38 -92t-92 -38h-410v-200h310q54 0 92 -38t38 -92t-38 -92t-92 -38h-310v-200h410q54 0 92 -38t38 -92t-38 -92t-92 -38h-540q-54 0 -92 38t-38 92v920q0 54 38 92t92 38zM505 1537q33 33 79.5 33t78.5 -33q33 -32 33 -78.5t-33 -79.5
l-134 -134q-32 -33 -78 -33h-2q-46 0 -79 33l-133 134q-33 33 -33 79.5t33 78.5q33 33 79 33t79 -33l55 -55z" />
    <glyph glyph-name="ebreve" unicode="&#x115;" horiz-adv-x="910" 
d="M384 270q47 -30 106 -30q83 0 166.5 58.5t158.5 -18.5t-31.5 -183.5t-293.5 -106.5t-318.5 131.5t-131.5 318.5t131.5 318.5t318.5 131.5t294 -106q75 -76 79 -171q-2 -69 -58 -100zM588 620q-49 20 -98 20q-83 0 -141 -58q-56 -56 -59 -135zM452 1171q57 0 91 41
q10 16 32.5 47t82.5 31q61 0 88 -35.5t27 -74.5q0 -68 -80.5 -148.5t-240.5 -80.5t-240.5 80.5t-80.5 148.5q0 39 27 74.5t88 35.5t83 -31t31 -47q36 -41 92 -41z" />
    <glyph glyph-name="Ebreve" unicode="&#x114;" horiz-adv-x="890" 
d="M180 1180h540q54 0 92 -38t38 -92t-38 -92t-92 -38h-410v-200h310q54 0 92 -38t38 -92t-38 -92t-92 -38h-310v-200h410q54 0 92 -38t38 -92t-38 -92t-92 -38h-540q-54 0 -92 38t-38 92v920q0 54 38 92t92 38zM450 1443q57 0 91 41q10 16 32.5 47t82.5 31q61 0 88 -35.5
t27 -74.5q0 -68 -80.5 -148.5t-240.5 -80.5t-240.5 80.5t-80.5 148.5q0 39 27 74.5t88 35.5t83 -31t31 -47q36 -41 92 -41z" />
    <glyph glyph-name="emacron" unicode="&#x113;" horiz-adv-x="910" 
d="M384 270q47 -30 106 -30q83 0 166.5 58.5t158.5 -18.5t-31.5 -183.5t-293.5 -106.5t-318.5 131.5t-131.5 318.5t131.5 318.5t318.5 131.5t294 -106q75 -76 79 -171q-2 -69 -58 -100zM588 620q-49 20 -98 20q-83 0 -141 -58q-56 -56 -59 -135zM752 1120q0 -43 -28.5 -71.5
t-71.5 -28.5h-400q-43 0 -71.5 28.5t-28.5 71.5t28.5 71.5t71.5 28.5h400q43 0 71.5 -28.5t28.5 -71.5z" />
    <glyph glyph-name="Emacron" unicode="&#x112;" horiz-adv-x="890" 
d="M180 1180h540q54 0 92 -38t38 -92t-38 -92t-92 -38h-410v-200h310q54 0 92 -38t38 -92t-38 -92t-92 -38h-310v-200h410q54 0 92 -38t38 -92t-38 -92t-92 -38h-540q-54 0 -92 38t-38 92v920q0 54 38 92t92 38zM750 1392q0 -43 -28.5 -71.5t-71.5 -28.5h-400
q-43 0 -71.5 28.5t-28.5 71.5t28.5 71.5t71.5 28.5h400q43 0 71.5 -28.5t28.5 -71.5z" />
    <glyph glyph-name="eogonek" unicode="&#x119;" horiz-adv-x="910" 
d="M588 620q-49 20 -98 20q-83 0 -141 -58q-56 -56 -59 -135zM417 -5q-141 22 -245 127q-132 131 -132 318t131.5 318.5t318.5 131.5t294 -106q75 -76 79 -171q-2 -69 -58 -100l-421 -243q47 -30 106 -30q83 0 166.5 58.5t158.5 -18.5t-31 -183q-74 -74 -187 -97
q-111 -62 -115 -119t37 -65.5t76.5 9.5t77.5 18q46 0 75.5 -29.5t29.5 -75.5t-68 -97t-192 -51q-106 0 -172 49t-66 161q10 120 137 195z" />
    <glyph glyph-name="Eogonek" unicode="&#x118;" horiz-adv-x="890" 
d="M547 0h-367q-54 0 -92 38t-38 92v920q0 54 38 92t92 38h540q54 0 92 -38t38 -92t-38 -92t-92 -38h-410v-200h310q54 0 92 -38t38 -92t-38 -92t-92 -38h-310v-200h410q54 0 92 -38t38 -92t-38 -92t-92 -38q-112 -62 -116 -119t37 -65.5t76.5 9.5t77.5 18q46 0 75.5 -29.5
t29.5 -75.5t-68 -97t-192 -51q-106 0 -172 49t-66 161q10 124 145 200z" />
    <glyph glyph-name="f" unicode="f" horiz-adv-x="670" 
d="M460 880h55q52 0 88.5 -36.5t36.5 -88.5t-36.5 -88.5t-88.5 -36.5h-55v-515q0 -52 -36.5 -88.5t-88.5 -36.5t-88.5 36.5t-36.5 88.5v515h-55q-52 0 -88.5 36.5t-36.5 88.5t36.5 88.5t88.5 36.5h55v115q0 102 71.5 173.5t194.5 71.5q132 0 201 -54t69 -116t-34 -96
t-86 -34t-78 21t-57 22t-31 -53v-50z" />
    <glyph glyph-name="F" unicode="F" horiz-adv-x="890" 
d="M180 1180h540q54 0 92 -38t38 -92t-38 -92t-92 -38h-410v-200h310q54 0 92 -38t38 -92t-38 -92t-92 -38h-310v-340q0 -54 -38 -92t-92 -38t-92 38t-38 92v930q0 54 38 92t92 38z" />
    <glyph glyph-name="florin" unicode="&#x192;" horiz-adv-x="800" 
d="M270 870v170q0 147 101.5 248.5t248.5 101.5q54 0 92 -38t38 -92t-38 -92t-92 -38q-39 0 -64.5 -25.5t-25.5 -64.5v-170h90q54 0 92 -38t38 -92t-38 -92t-92 -38h-90v-470q0 -147 -101.5 -248.5t-248.5 -101.5q-54 0 -92 38t-38 92t38 92t92 38q39 0 64.5 25.5t25.5 64.5
v470h-90q-54 0 -92 38t-38 92t38 92t92 38h90z" />
    <glyph glyph-name="g" unicode="g" horiz-adv-x="1000" 
d="M641.5 298.5q58.5 58.5 58.5 141.5t-58.5 141.5t-141.5 58.5t-141.5 -58.5t-58.5 -141.5t58.5 -141.5t141.5 -58.5t141.5 58.5zM697 33q-90 -43 -197 -43q-187 0 -318.5 131.5t-131.5 318.5t131.5 318.5t318.5 131.5q122 0 220 -56q7 10 17 20q36 36 88 36t88.5 -36.5
t36.5 -88.5v-693q0 -187 -131.5 -318.5t-338.5 -131.5t-323.5 96.5t-51.5 193.5t168.5 28.5t206.5 -68.5t162 59q44 44 55 102z" />
    <glyph glyph-name="G" unicode="G" horiz-adv-x="1190" 
d="M1121 232q-9 -24 -29 -44q-26 -31 -52 -57q-151 -141 -400 -141t-424.5 175.5t-175.5 424.5t175.5 424.5t424.5 175.5t400 -140q26 -27 52 -58q38 -38 38 -92t-38 -92t-92 -38t-119 61q-100 99 -241 99t-240.5 -99.5t-99.5 -240.5t99.5 -240.5t240.5 -99.5q140 0 240 99
v61h-210q-54 0 -92 38t-38 92t38 92t92 38h340q54 0 92 -38t38 -92v-240q0 -38 -19 -68z" />
    <glyph glyph-name="gdotaccent" unicode="&#x121;" horiz-adv-x="1000" 
d="M641.5 298.5q58.5 58.5 58.5 141.5t-58.5 141.5t-141.5 58.5t-141.5 -58.5t-58.5 -141.5t58.5 -141.5t141.5 -58.5t141.5 58.5zM697 33q-90 -43 -197 -43q-187 0 -318.5 131.5t-131.5 318.5t131.5 318.5t318.5 131.5q122 0 220 -56q7 10 17 20q36 36 88 36t88.5 -36.5
t36.5 -88.5v-693q0 -187 -131.5 -318.5t-338.5 -131.5t-323.5 96.5t-51.5 193.5t168.5 28.5t206.5 -68.5t162 59q44 44 55 102zM592 1212q38 -38 38 -92t-38 -92t-92 -38t-92 38t-38 92t38 92t92 38t92 -38z" />
    <glyph glyph-name="Gdotaccent" unicode="&#x120;" horiz-adv-x="1190" 
d="M1121 232q-9 -24 -29 -44q-26 -31 -52 -57q-151 -141 -400 -141t-424.5 175.5t-175.5 424.5t175.5 424.5t424.5 175.5t400 -140q26 -27 52 -58q38 -38 38 -92t-38 -92t-92 -38t-119 61q-100 99 -241 99t-240.5 -99.5t-99.5 -240.5t99.5 -240.5t240.5 -99.5q140 0 240 99
v61h-210q-54 0 -92 38t-38 92t38 92t92 38h340q54 0 92 -38t38 -92v-240q0 -38 -19 -68zM682 1484q38 -38 38 -92t-38 -92t-92 -38t-92 38t-38 92t38 92t92 38t92 -38z" />
    <glyph glyph-name="gcircumflex" unicode="&#x11d;" horiz-adv-x="1000" 
d="M641.5 298.5q58.5 58.5 58.5 141.5t-58.5 141.5t-141.5 58.5t-141.5 -58.5t-58.5 -141.5t58.5 -141.5t141.5 -58.5t141.5 58.5zM697 33q-90 -43 -197 -43q-187 0 -318.5 131.5t-131.5 318.5t131.5 318.5t318.5 131.5q122 0 220 -56q7 10 17 20q36 36 88 36t88.5 -36.5
t36.5 -88.5v-693q0 -187 -131.5 -318.5t-338.5 -131.5t-323.5 96.5t-51.5 193.5t168.5 28.5t206.5 -68.5t162 59q44 44 55 102zM500 1029l-55 -56q-33 -33 -79 -33t-79 33t-33 79t33 79l133 134q33 33 79 33h2q46 0 78 -33l134 -134q33 -33 33 -79t-33 -79
q-32 -33 -78.5 -33t-79.5 33z" />
    <glyph glyph-name="Gcircumflex" unicode="&#x11c;" horiz-adv-x="1190" 
d="M1121 232q-9 -24 -29 -44q-26 -31 -52 -57q-151 -141 -400 -141t-424.5 175.5t-175.5 424.5t175.5 424.5t424.5 175.5t400 -140q26 -27 52 -58q38 -38 38 -92t-38 -92t-92 -38t-119 61q-100 99 -241 99t-240.5 -99.5t-99.5 -240.5t99.5 -240.5t240.5 -99.5q140 0 240 99
v61h-210q-54 0 -92 38t-38 92t38 92t92 38h340q54 0 92 -38t38 -92v-240q0 -38 -19 -68zM590 1301l-55 -56q-33 -33 -79 -33t-79 33t-33 79t33 79l133 134q33 33 79 33h2q46 0 78 -33l134 -134q33 -33 33 -79t-33 -79q-32 -33 -78.5 -33t-79.5 33z" />
    <glyph glyph-name="gcaron" unicode="&#x1e7;" horiz-adv-x="1000" 
d="M641.5 298.5q58.5 58.5 58.5 141.5t-58.5 141.5t-141.5 58.5t-141.5 -58.5t-58.5 -141.5t58.5 -141.5t141.5 -58.5t141.5 58.5zM697 33q-90 -43 -197 -43q-187 0 -318.5 131.5t-131.5 318.5t131.5 318.5t318.5 131.5q122 0 220 -56q7 10 17 20q36 36 88 36t88.5 -36.5
t36.5 -88.5v-693q0 -187 -131.5 -318.5t-338.5 -131.5t-323.5 96.5t-51.5 193.5t168.5 28.5t206.5 -68.5t162 59q44 44 55 102zM555 1265q33 33 79.5 33t78.5 -33q33 -32 33 -78.5t-33 -79.5l-134 -134q-32 -33 -78 -33h-2q-46 0 -79 33l-133 134q-33 33 -33 79.5t33 78.5
q33 33 79 33t79 -33l55 -55z" />
    <glyph glyph-name="Gcaron" unicode="&#x1e6;" horiz-adv-x="1190" 
d="M1121 232q-9 -24 -29 -44q-26 -31 -52 -57q-151 -141 -400 -141t-424.5 175.5t-175.5 424.5t175.5 424.5t424.5 175.5t400 -140q26 -27 52 -58q38 -38 38 -92t-38 -92t-92 -38t-119 61q-100 99 -241 99t-240.5 -99.5t-99.5 -240.5t99.5 -240.5t240.5 -99.5q140 0 240 99
v61h-210q-54 0 -92 38t-38 92t38 92t92 38h340q54 0 92 -38t38 -92v-240q0 -38 -19 -68zM645 1537q33 33 79.5 33t78.5 -33q33 -32 33 -78.5t-33 -79.5l-134 -134q-32 -33 -78 -33h-2q-46 0 -79 33l-133 134q-33 33 -33 79.5t33 78.5q33 33 79 33t79 -33l55 -55z" />
    <glyph glyph-name="gbreve" unicode="&#x11f;" horiz-adv-x="1000" 
d="M641.5 298.5q58.5 58.5 58.5 141.5t-58.5 141.5t-141.5 58.5t-141.5 -58.5t-58.5 -141.5t58.5 -141.5t141.5 -58.5t141.5 58.5zM697 33q-90 -43 -197 -43q-187 0 -318.5 131.5t-131.5 318.5t131.5 318.5t318.5 131.5q122 0 220 -56q7 10 17 20q36 36 88 36t88.5 -36.5
t36.5 -88.5v-693q0 -187 -131.5 -318.5t-338.5 -131.5t-323.5 96.5t-51.5 193.5t168.5 28.5t206.5 -68.5t162 59q44 44 55 102zM500 1171q57 0 91 41q10 16 32.5 47t82.5 31q61 0 88 -35.5t27 -74.5q0 -68 -80.5 -148.5t-240.5 -80.5t-240.5 80.5t-80.5 148.5q0 39 27 74.5
t88 35.5t83 -31t31 -47q36 -41 92 -41z" />
    <glyph glyph-name="Gbreve" unicode="&#x11e;" horiz-adv-x="1190" 
d="M1121 232q-9 -24 -29 -44q-26 -31 -52 -57q-151 -141 -400 -141t-424.5 175.5t-175.5 424.5t175.5 424.5t424.5 175.5t400 -140q26 -27 52 -58q38 -38 38 -92t-38 -92t-92 -38t-119 61q-100 99 -241 99t-240.5 -99.5t-99.5 -240.5t99.5 -240.5t240.5 -99.5q140 0 240 99
v61h-210q-54 0 -92 38t-38 92t38 92t92 38h340q54 0 92 -38t38 -92v-240q0 -38 -19 -68zM590 1443q57 0 91 41q10 16 32.5 47t82.5 31q61 0 88 -35.5t27 -74.5q0 -68 -80.5 -148.5t-240.5 -80.5t-240.5 80.5t-80.5 148.5q0 39 27 74.5t88 35.5t83 -31t31 -47q36 -41 92 -41z
" />
    <glyph glyph-name="gcommaaccent" unicode="&#x123;" horiz-adv-x="1000" 
d="M641.5 298.5q58.5 58.5 58.5 141.5t-58.5 141.5t-141.5 58.5t-141.5 -58.5t-58.5 -141.5t58.5 -141.5t141.5 -58.5t141.5 58.5zM697 33q-90 -43 -197 -43q-187 0 -318.5 131.5t-131.5 318.5t131.5 318.5t318.5 131.5q122 0 220 -56q7 10 17 20q36 36 88 36t88.5 -36.5
t36.5 -88.5v-693q0 -187 -131.5 -318.5t-338.5 -131.5t-323.5 96.5t-51.5 193.5t168.5 28.5t206.5 -68.5t162 59q44 44 55 102zM552 1212q69 -15 90 -82t-11 -121q-30 -54 -90.5 -70.5t-114.5 14.5q-54 32 -70.5 92.5t15.5 114.5l102 172q14 24 40.5 31t50.5 -7t31.5 -41
t-6.5 -51z" />
    <glyph glyph-name="Gcommaaccent" unicode="&#x122;" horiz-adv-x="1190" 
d="M1121 232q-9 -24 -29 -44q-26 -31 -52 -57q-151 -141 -400 -141t-424.5 175.5t-175.5 424.5t175.5 424.5t424.5 175.5t400 -140q26 -27 52 -58q38 -38 38 -92t-38 -92t-92 -38t-119 61q-100 99 -241 99t-240.5 -99.5t-99.5 -240.5t99.5 -240.5t240.5 -99.5q140 0 240 99
v61h-210q-54 0 -92 38t-38 92t38 92t92 38h340q54 0 92 -38t38 -92v-240q0 -38 -19 -68zM545 -292q-60 13 -78 71t10 105q26 46 78.5 60.5t98.5 -12.5q47 -28 61.5 -80.5t-13.5 -98.5l-88 -149q-12 -21 -35 -27t-44 6t-27.5 35.5t5.5 44.5z" />
    <glyph glyph-name="h" unicode="h" horiz-adv-x="900" 
d="M300 490v-375q0 -52 -36.5 -88.5t-88.5 -36.5t-88.5 36.5t-36.5 88.5v960q0 52 36.5 88.5t88.5 36.5t88.5 -36.5t36.5 -88.5v-212q69 27 150 27q167 0 283.5 -116.5t116.5 -283.5v-375q0 -52 -36.5 -88.5t-88.5 -36.5t-88.5 36.5t-36.5 88.5v375q0 63 -43.5 106.5
t-106.5 43.5t-106.5 -43.5t-43.5 -106.5z" />
    <glyph glyph-name="H" unicode="H" horiz-adv-x="1060" 
d="M310 460v-340q0 -54 -38 -92t-92 -38t-92 38t-38 92v940q0 54 38 92t92 38t92 -38t38 -92v-340h440v340q0 54 38 92t92 38t92 -38t38 -92v-940q0 -54 -38 -92t-92 -38t-92 38t-38 92v340h-440z" />
    <glyph glyph-name="hcircumflex" unicode="&#x125;" horiz-adv-x="900" 
d="M300 490v-375q0 -52 -36.5 -88.5t-88.5 -36.5t-88.5 36.5t-36.5 88.5v960q0 52 36.5 88.5t88.5 36.5t88.5 -36.5t36.5 -88.5v-212q69 27 150 27q167 0 283.5 -116.5t116.5 -283.5v-375q0 -52 -36.5 -88.5t-88.5 -36.5t-88.5 36.5t-36.5 88.5v375q0 63 -43.5 106.5
t-106.5 43.5t-106.5 -43.5t-43.5 -106.5zM450 1312l-55 -56q-33 -33 -79 -33t-79 33t-33 79t33 79l133 134q33 33 79 33h2q46 0 78 -33l134 -134q33 -33 33 -79t-33 -79q-32 -33 -78.5 -33t-79.5 33z" />
    <glyph glyph-name="Hcircumflex" unicode="&#x124;" horiz-adv-x="1060" 
d="M310 460v-340q0 -54 -38 -92t-92 -38t-92 38t-38 92v940q0 54 38 92t92 38t92 -38t38 -92v-340h440v340q0 54 38 92t92 38t92 -38t38 -92v-940q0 -54 -38 -92t-92 -38t-92 38t-38 92v340h-440zM530 1301l-55 -56q-33 -33 -79 -33t-79 33t-33 79t33 79l133 134
q33 33 79 33h2q46 0 78 -33l134 -134q33 -33 33 -79t-33 -79q-32 -33 -78.5 -33t-79.5 33z" />
    <glyph glyph-name="hbar" unicode="&#x127;" horiz-adv-x="900" 
d="M300 920v-57q69 27 150 27q167 0 283.5 -116.5t116.5 -283.5v-375q0 -52 -36.5 -88.5t-88.5 -36.5t-88.5 36.5t-36.5 88.5v375q0 63 -43.5 106.5t-106.5 43.5t-106.5 -43.5t-43.5 -106.5v-375q0 -52 -36.5 -88.5t-88.5 -36.5t-88.5 36.5t-36.5 88.5v805h-50
q-43 0 -71.5 28.5t-28.5 71.5t28.5 71.5t71.5 28.5h50v5q0 52 36.5 88.5t88.5 36.5t88.5 -36.5t36.5 -88.5v-5h100q43 0 71.5 -28.5t28.5 -71.5t-28.5 -71.5t-71.5 -28.5h-100z" />
    <glyph glyph-name="Hbar" unicode="&#x126;" horiz-adv-x="1060" 
d="M1010 820v-700q0 -54 -38 -92t-92 -38t-92 38t-38 92v340h-440v-340q0 -54 -38 -92t-92 -38t-92 38t-38 92v700h-40q-43 0 -71.5 28.5t-28.5 71.5t28.5 71.5t71.5 28.5h40v40q0 54 38 92t92 38t92 -38t38 -92v-40h440v40q0 54 38 92t92 38t92 -38t38 -92v-40h40
q43 0 71.5 -28.5t28.5 -71.5t-28.5 -71.5t-71.5 -28.5h-40zM310 820v-100h440v100h-440z" />
    <glyph glyph-name="i" unicode="i" horiz-adv-x="360" 
d="M272 1212q38 -38 38 -92t-38 -92t-92 -38t-92 38t-38 92t38 92t92 38t92 -38zM305 115q0 -52 -36.5 -88.5t-88.5 -36.5t-88.5 36.5t-36.5 88.5v650q0 52 36.5 88.5t88.5 36.5t88.5 -36.5t36.5 -88.5v-650z" />
    <glyph glyph-name="I" unicode="I" horiz-adv-x="380" 
d="M320 120q0 -54 -38 -92t-92 -38t-92 38t-38 92v940q0 54 38 92t92 38t92 -38t38 -92v-940z" />
    <glyph glyph-name="dotlessi" unicode="&#x131;" horiz-adv-x="350" 
d="M300 115q0 -52 -36.5 -88.5t-88.5 -36.5t-88.5 36.5t-36.5 88.5v650q0 52 36.5 88.5t88.5 36.5t88.5 -36.5t36.5 -88.5v-650z" />
    <glyph glyph-name="iacute" unicode="&#xed;" horiz-adv-x="350" 
d="M300 115q0 -52 -36.5 -88.5t-88.5 -36.5t-88.5 36.5t-36.5 88.5v650q0 52 36.5 88.5t88.5 36.5t88.5 -36.5t36.5 -88.5v-650zM191.5 1224q37.5 38 91.5 38t92 -38t38 -92t-38 -92t-132.5 -54t-121.5 -16t-46 19t-19 46t49 89t86.5 100z" />
    <glyph glyph-name="Iacute" unicode="&#xcd;" horiz-adv-x="380" 
d="M320 120q0 -54 -38 -92t-92 -38t-92 38t-38 92v940q0 54 38 92t92 38t92 -38t38 -92v-940zM206.5 1496q37.5 38 91.5 38t92 -38t38 -92t-38 -92t-132.5 -54t-121.5 -16t-46 19t-19 46t49 89t86.5 100z" />
    <glyph glyph-name="igrave" unicode="&#xec;" horiz-adv-x="350" 
d="M300 115q0 -52 -36.5 -88.5t-88.5 -36.5t-88.5 36.5t-36.5 88.5v650q0 52 36.5 88.5t88.5 36.5t88.5 -36.5t36.5 -88.5v-650zM294 1035q0 -27 -19.5 -46t-45.5 -19q-27 0 -121.5 16t-132.5 54t-38 92t38 92t92 38q53 0 91 -38t87 -100t49 -89z" />
    <glyph glyph-name="Igrave" unicode="&#xcc;" horiz-adv-x="380" 
d="M320 120q0 -54 -38 -92t-92 -38t-92 38t-38 92v940q0 54 38 92t92 38t92 -38t38 -92v-940zM309 1307q0 -27 -19.5 -46t-45.5 -19q-27 0 -121.5 16t-132.5 54t-38 92t38 92t92 38q53 0 91 -38t87 -100t49 -89z" />
    <glyph glyph-name="Idotaccent" unicode="&#x130;" horiz-adv-x="380" 
d="M320 120q0 -54 -38 -92t-92 -38t-92 38t-38 92v940q0 54 38 92t92 38t92 -38t38 -92v-940zM282 1484q38 -38 38 -92t-38 -92t-92 -38t-92 38t-38 92t38 92t92 38t92 -38z" />
    <glyph glyph-name="icircumflex" unicode="&#xee;" horiz-adv-x="350" 
d="M300 115q0 -52 -36.5 -88.5t-88.5 -36.5t-88.5 36.5t-36.5 88.5v650q0 52 36.5 88.5t88.5 36.5t88.5 -36.5t36.5 -88.5v-650zM175 1029l-55 -56q-33 -33 -79 -33t-79 33t-33 79t33 79l133 134q33 33 79 33h2q46 0 78 -33l134 -134q33 -33 33 -79t-33 -79
q-32 -33 -78.5 -33t-79.5 33z" />
    <glyph glyph-name="Icircumflex" unicode="&#xce;" horiz-adv-x="380" 
d="M320 120q0 -54 -38 -92t-92 -38t-92 38t-38 92v940q0 54 38 92t92 38t92 -38t38 -92v-940zM190 1301l-55 -56q-33 -33 -79 -33t-79 33t-33 79t33 79l133 134q33 33 79 33h2q46 0 78 -33l134 -134q33 -33 33 -79t-33 -79q-32 -33 -78.5 -33t-79.5 33z" />
    <glyph glyph-name="idieresis" unicode="&#xef;" horiz-adv-x="350" 
d="M300 115q0 -52 -36.5 -88.5t-88.5 -36.5t-88.5 36.5t-36.5 88.5v650q0 52 36.5 88.5t88.5 36.5t88.5 -36.5t36.5 -88.5v-650zM117 1212q38 -38 38 -92t-38 -92t-92 -38t-92 38t-38 92t38 92t92 38t92 -38zM417 1212q38 -38 38 -92t-38 -92t-92 -38t-92 38t-38 92t38 92
t92 38t92 -38z" />
    <glyph glyph-name="Idieresis" unicode="&#xcf;" horiz-adv-x="380" 
d="M320 120q0 -54 -38 -92t-92 -38t-92 38t-38 92v940q0 54 38 92t92 38t92 -38t38 -92v-940zM132 1484q38 -38 38 -92t-38 -92t-92 -38t-92 38t-38 92t38 92t92 38t92 -38zM432 1484q38 -38 38 -92t-38 -92t-92 -38t-92 38t-38 92t38 92t92 38t92 -38z" />
    <glyph glyph-name="uni01D0" unicode="&#x1d0;" horiz-adv-x="350" 
d="M300 115q0 -52 -36.5 -88.5t-88.5 -36.5t-88.5 36.5t-36.5 88.5v650q0 52 36.5 88.5t88.5 36.5t88.5 -36.5t36.5 -88.5v-650zM230 1265q33 33 79.5 33t78.5 -33q33 -32 33 -78.5t-33 -79.5l-134 -134q-32 -33 -78 -33h-2q-46 0 -79 33l-133 134q-33 33 -33 79.5t33 78.5
q33 33 79 33t79 -33l55 -55z" />
    <glyph glyph-name="uni01CF" unicode="&#x1cf;" horiz-adv-x="380" 
d="M320 120q0 -54 -38 -92t-92 -38t-92 38t-38 92v940q0 54 38 92t92 38t92 -38t38 -92v-940zM245 1537q33 33 79.5 33t78.5 -33q33 -32 33 -78.5t-33 -79.5l-134 -134q-32 -33 -78 -33h-2q-46 0 -79 33l-133 134q-33 33 -33 79.5t33 78.5q33 33 79 33t79 -33l55 -55z" />
    <glyph glyph-name="ibreve" unicode="&#x12d;" horiz-adv-x="350" 
d="M300 115q0 -52 -36.5 -88.5t-88.5 -36.5t-88.5 36.5t-36.5 88.5v650q0 52 36.5 88.5t88.5 36.5t88.5 -36.5t36.5 -88.5v-650zM175 1171q57 0 91 41q10 16 32.5 47t82.5 31q61 0 88 -35.5t27 -74.5q0 -68 -80.5 -148.5t-240.5 -80.5t-240.5 80.5t-80.5 148.5q0 39 27 74.5
t88 35.5t83 -31t31 -47q36 -41 92 -41z" />
    <glyph glyph-name="Ibreve" unicode="&#x12c;" horiz-adv-x="380" 
d="M320 120q0 -54 -38 -92t-92 -38t-92 38t-38 92v940q0 54 38 92t92 38t92 -38t38 -92v-940zM190 1443q57 0 91 41q10 16 32.5 47t82.5 31q61 0 88 -35.5t27 -74.5q0 -68 -80.5 -148.5t-240.5 -80.5t-240.5 80.5t-80.5 148.5q0 39 27 74.5t88 35.5t83 -31t31 -47
q36 -41 92 -41z" />
    <glyph glyph-name="imacron" unicode="&#x12b;" horiz-adv-x="350" 
d="M300 115q0 -52 -36.5 -88.5t-88.5 -36.5t-88.5 36.5t-36.5 88.5v650q0 52 36.5 88.5t88.5 36.5t88.5 -36.5t36.5 -88.5v-650zM475 1120q0 -43 -28.5 -71.5t-71.5 -28.5h-400q-43 0 -71.5 28.5t-28.5 71.5t28.5 71.5t71.5 28.5h400q43 0 71.5 -28.5t28.5 -71.5z" />
    <glyph glyph-name="Imacron" unicode="&#x12a;" horiz-adv-x="380" 
d="M320 120q0 -54 -38 -92t-92 -38t-92 38t-38 92v940q0 54 38 92t92 38t92 -38t38 -92v-940zM490 1392q0 -43 -28.5 -71.5t-71.5 -28.5h-400q-43 0 -71.5 28.5t-28.5 71.5t28.5 71.5t71.5 28.5h400q43 0 71.5 -28.5t28.5 -71.5z" />
    <glyph glyph-name="itilde" unicode="&#x129;" horiz-adv-x="350" 
d="M300 115q0 -52 -36.5 -88.5t-88.5 -36.5t-88.5 36.5t-36.5 88.5v650q0 52 36.5 88.5t88.5 36.5t88.5 -36.5t36.5 -88.5v-650zM37 1006q-37 -36 -78 -36t-72.5 31.5t-31.5 82.5t35 87.5t81.5 56.5t98.5 20q51 0 108 -37q35 -22 69 -23q34 1 66 23q37 37 78 37
q42 0 73 -31.5t31 -82.5q0 -52 -35 -88t-81.5 -56t-98.5 -20q-51 0 -108 36q-35 23 -69 24q-34 -1 -66 -24z" />
    <glyph glyph-name="Itilde" unicode="&#x128;" horiz-adv-x="380" 
d="M320 120q0 -54 -38 -92t-92 -38t-92 38t-38 92v940q0 54 38 92t92 38t92 -38t38 -92v-940zM52 1278q-37 -36 -78 -36t-72.5 31.5t-31.5 82.5t35 87.5t81.5 56.5t98.5 20q51 0 108 -37q35 -22 69 -23q34 1 66 23q37 37 78 37q42 0 73 -31.5t31 -82.5q0 -52 -35 -88
t-81.5 -56t-98.5 -20q-51 0 -108 36q-35 23 -69 24q-34 -1 -66 -24z" />
    <glyph glyph-name="iogonek" unicode="&#x12f;" horiz-adv-x="360" 
d="M272 1212q38 -38 38 -92t-38 -92t-92 -38t-92 38t-38 92t38 92t92 38t92 -38zM92 27q-37 36 -37 88v650q0 52 36.5 88.5t88.5 36.5t88.5 -36.5t36.5 -88.5v-650q0 -52 -36 -88q-18 -18 -40 -27q-111 -62 -115 -119t37 -65.5t76.5 9.5t77.5 18q46 0 75.5 -29.5t29.5 -75.5
t-68 -97t-192 -51q-106 0 -172 49t-66 161q10 124 180 227z" />
    <glyph glyph-name="Iogonek" unicode="&#x12e;" horiz-adv-x="380" 
d="M98 28q-38 38 -38 92v940q0 54 38 92t92 38t92 -38t38 -92v-940q0 -54 -38 -92q-20 -20 -45 -30q-109 -61 -113 -117q-4 -57 37 -65.5t76.5 9.5t77.5 18q46 0 75.5 -29.5t29.5 -75.5t-68 -97t-192 -51q-106 0 -172 49t-66 161q10 124 176 228z" />
    <glyph glyph-name="ij" unicode="&#x133;" horiz-adv-x="711" 
d="M272 1212q38 -38 38 -92t-38 -92t-92 -38t-92 38t-38 92t38 92t92 38t92 -38zM305 115q0 -52 -36.5 -88.5t-88.5 -36.5t-88.5 36.5t-36.5 88.5v650q0 52 36.5 88.5t88.5 36.5t88.5 -36.5t36.5 -88.5v-650zM623 1212q38 -38 38 -92t-38 -92t-92 -38t-92 38t-38 92t38 92
t92 38t92 -38zM406 -19v784q0 52 36.5 88.5t88.5 36.5t88.5 -36.5t36.5 -88.5v-860q0 -102 -71.5 -173.5t-194.5 -71.5q-132 0 -206 54t-74 116t39 101t91 39t78 -21t57 -22t31 54z" />
    <glyph glyph-name="IJ" unicode="&#x132;" horiz-adv-x="1340" 
d="M320 120q0 -54 -38 -92t-92 -38t-92 38t-38 92v940q0 54 38 92t92 38t92 -38t38 -92v-940zM1030 440v620q0 54 38 92t92 38t92 -38t38 -92v-620q0 -187 -131.5 -318.5t-318.5 -131.5t-318.5 131.5t-131.5 318.5q0 54 38 92t92 38t92 -38t38 -92q0 -79 55.5 -134.5
t134.5 -55.5t134.5 55.5t55.5 134.5z" />
    <glyph glyph-name="j" unicode="j" horiz-adv-x="360" 
d="M272 1212q38 -38 38 -92t-38 -92t-92 -38t-92 38t-38 92t38 92t92 38t92 -38zM55 -19v784q0 52 36.5 88.5t88.5 36.5t88.5 -36.5t36.5 -88.5v-860q0 -102 -71.5 -173.5t-194.5 -71.5q-132 0 -206 54t-74 116t39 101t91 39t78 -21t57 -22t31 54z" />
    <glyph glyph-name="J" unicode="J" horiz-adv-x="990" 
d="M680 440v620q0 54 38 92t92 38t92 -38t38 -92v-620q0 -187 -131.5 -318.5t-318.5 -131.5t-318.5 131.5t-131.5 318.5q0 54 38 92t92 38t92 -38t38 -92q0 -79 55.5 -134.5t134.5 -55.5t134.5 55.5t55.5 134.5z" />
    <glyph glyph-name="jcircumflex" unicode="&#x135;" horiz-adv-x="360" 
d="M55 -19v784q0 52 36.5 88.5t88.5 36.5t88.5 -36.5t36.5 -88.5v-860q0 -102 -71.5 -173.5t-194.5 -71.5q-132 0 -206 54t-74 116t39 101t91 39t78 -21t57 -22t31 54zM163 1029l-55 -56q-33 -33 -79 -33t-79 33t-33 79t33 79l133 134q33 33 79 33h2q46 0 78 -33l134 -134
q33 -33 33 -79t-33 -79q-32 -33 -78.5 -33t-79.5 33z" />
    <glyph glyph-name="Jcircumflex" unicode="&#x134;" horiz-adv-x="990" 
d="M680 440v620q0 54 38 92t92 38t92 -38t38 -92v-620q0 -187 -131.5 -318.5t-318.5 -131.5t-318.5 131.5t-131.5 318.5q0 54 38 92t92 38t92 -38t38 -92q0 -79 55.5 -134.5t134.5 -55.5t134.5 55.5t55.5 134.5zM490 1301l-55 -56q-33 -33 -79 -33t-79 33t-33 79t33 79
l133 134q33 33 79 33h2q46 0 78 -33l134 -134q33 -33 33 -79t-33 -79q-32 -33 -78.5 -33t-79.5 33z" />
    <glyph glyph-name="k" unicode="k" horiz-adv-x="830" 
d="M300 313v-198q0 -52 -36.5 -88.5t-88.5 -36.5t-88.5 36.5t-36.5 88.5v960q0 52 36.5 88.5t88.5 36.5t88.5 -36.5t36.5 -88.5v-489l268 267q37 37 88.5 37t88.5 -37q37 -36 37 -88t-38 -88l-228 -227l247 -247q38 -36 38 -88t-37 -88q-37 -37 -88.5 -37t-87.5 37z" />
    <glyph glyph-name="K" unicode="K" horiz-adv-x="985" 
d="M310 458v-338q0 -54 -38 -92t-92 -38t-92 38t-38 92v940q0 54 38 92t92 38t92 -38t38 -92v-318l411 410q38 38 91.5 38t92.5 -38q38 -38 38 -92t-39 -92l-369 -368l389 -388q39 -38 39 -92t-38 -92q-39 -38 -92.5 -38t-91.5 38z" />
    <glyph glyph-name="kgreenlandic" unicode="&#x138;" horiz-adv-x="830" 
d="M300 313v-198q0 -52 -36.5 -88.5t-88.5 -36.5t-88.5 36.5t-36.5 88.5v650q0 52 36.5 88.5t88.5 36.5t88.5 -36.5t36.5 -88.5v-179l268 267q37 37 88.5 37t88.5 -37q37 -36 37 -88t-38 -88l-228 -227l247 -247q38 -36 38 -88t-37 -88q-37 -37 -88.5 -37t-87.5 37z" />
    <glyph glyph-name="kcommaaccent" unicode="&#x137;" horiz-adv-x="830" 
d="M300 313v-198q0 -52 -36.5 -88.5t-88.5 -36.5t-88.5 36.5t-36.5 88.5v960q0 52 36.5 88.5t88.5 36.5t88.5 -36.5t36.5 -88.5v-489l268 267q37 37 88.5 37t88.5 -37q37 -36 37 -88t-38 -88l-228 -227l247 -247q38 -36 38 -88t-37 -88q-37 -37 -88.5 -37t-87.5 37z
M380 -292q-60 13 -78 71t10 105q26 46 78.5 60.5t98.5 -12.5q47 -28 61.5 -80.5t-13.5 -98.5l-88 -149q-12 -21 -35 -27t-44 6t-27.5 35.5t5.5 44.5z" />
    <glyph glyph-name="Kcommaaccent" unicode="&#x136;" horiz-adv-x="985" 
d="M310 458v-338q0 -54 -38 -92t-92 -38t-92 38t-38 92v940q0 54 38 92t92 38t92 -38t38 -92v-318l411 410q38 38 91.5 38t92.5 -38q38 -38 38 -92t-39 -92l-369 -368l389 -388q39 -38 39 -92t-38 -92q-39 -38 -92.5 -38t-91.5 38zM461 -292q-60 13 -78 71t10 105
q26 46 78.5 60.5t98.5 -12.5q47 -28 61.5 -80.5t-13.5 -98.5l-88 -149q-12 -21 -35 -27t-44 6t-27.5 35.5t5.5 44.5z" />
    <glyph glyph-name="l" unicode="l" horiz-adv-x="350" 
d="M300 115q0 -52 -36.5 -88.5t-88.5 -36.5t-88.5 36.5t-36.5 88.5v960q0 52 36.5 88.5t88.5 36.5t88.5 -36.5t36.5 -88.5v-960z" />
    <glyph glyph-name="L" unicode="L" horiz-adv-x="890" 
d="M310 260h410q54 0 92 -38t38 -92t-38 -92t-92 -38h-540q-54 0 -92 38t-38 92v930q0 54 38 92t92 38t92 -38t38 -92v-800z" />
    <glyph glyph-name="afii61289" unicode="&#x2113;" horiz-adv-x="855" 
d="M815 790q0 -167 -116.5 -283.5t-283.5 -116.5q0 -63 43.5 -106.5t106.5 -43.5q52 0 88.5 -36.5t36.5 -88.5t-36.5 -88.5t-88.5 -36.5q-167 0 -283.5 116.5t-116.5 283.5q-52 0 -88.5 36.5t-36.5 88.5t36.5 88.5t88.5 36.5v150v59q0 158 94 249.5t231 91.5t231 -91.5
t94 -249.5v-59zM415 640q63 0 106.5 43.5t43.5 106.5v57q0 46 -21 69.5t-54 23.5t-54 -23.5t-21 -69.5v-57v-150z" />
    <glyph glyph-name="lacute" unicode="&#x13a;" horiz-adv-x="350" 
d="M300 115q0 -52 -36.5 -88.5t-88.5 -36.5t-88.5 36.5t-36.5 88.5v960q0 52 36.5 88.5t88.5 36.5t88.5 -36.5t36.5 -88.5v-960zM132.5 1503q37.5 38 91.5 38t92 -38t38 -92t-38 -92t-132.5 -54t-121.5 -16t-46 19t-19 46t49 89t86.5 100z" />
    <glyph glyph-name="Lacute" unicode="&#x139;" horiz-adv-x="890" 
d="M310 260h410q54 0 92 -38t38 -92t-38 -92t-92 -38h-540q-54 0 -92 38t-38 92v930q0 54 38 92t92 38t92 -38t38 -92v-800zM466.5 1496q37.5 38 91.5 38t92 -38t38 -92t-38 -92t-132.5 -54t-121.5 -16t-46 19t-19 46t49 89t86.5 100z" />
    <glyph glyph-name="ldot" unicode="&#x140;" horiz-adv-x="650" 
d="M300 115q0 -52 -36.5 -88.5t-88.5 -36.5t-88.5 36.5t-36.5 88.5v960q0 52 36.5 88.5t88.5 36.5t88.5 -36.5t36.5 -88.5v-960zM500 445q-62 0 -106 44t-44 106t44 106t106 44t106 -44t44 -106t-44 -106t-106 -44z" />
    <glyph glyph-name="Ldot" unicode="&#x13f;" horiz-adv-x="890" 
d="M310 260h410q54 0 92 -38t38 -92t-38 -92t-92 -38h-540q-54 0 -92 38t-38 92v930q0 54 38 92t92 38t92 -38t38 -92v-800zM610 445q-62 0 -106 44t-44 106t44 106t106 44t106 -44t44 -106t-44 -106t-106 -44z" />
    <glyph glyph-name="lcaron" unicode="&#x13e;" horiz-adv-x="574" 
d="M300 115q0 -52 -36.5 -88.5t-88.5 -36.5t-88.5 36.5t-36.5 88.5v960q0 52 36.5 88.5t88.5 36.5t88.5 -36.5t36.5 -88.5v-960zM461 921q-69 15 -90 82t11 121q30 54 90.5 70.5t114.5 -14.5q54 -32 70.5 -92.5t-15.5 -114.5l-102 -172q-14 -24 -40.5 -31t-50.5 7t-31.5 41
t6.5 51z" />
    <glyph glyph-name="Lcaron" unicode="&#x13d;" horiz-adv-x="890" 
d="M310 260h410q54 0 92 -38t38 -92t-38 -92t-92 -38h-540q-54 0 -92 38t-38 92v930q0 54 38 92t92 38t92 -38t38 -92v-800zM648 921q-69 15 -90 82t11 121q30 54 90.5 70.5t114.5 -14.5q54 -32 70.5 -92.5t-15.5 -114.5l-102 -172q-14 -24 -40.5 -31t-50.5 7t-31.5 41
t6.5 51z" />
    <glyph glyph-name="lcommaaccent" unicode="&#x13c;" horiz-adv-x="350" 
d="M300 115q0 -52 -36.5 -88.5t-88.5 -36.5t-88.5 36.5t-36.5 88.5v960q0 52 36.5 88.5t88.5 36.5t88.5 -36.5t36.5 -88.5v-960zM130 -292q-60 13 -78 71t10 105q26 46 78.5 60.5t98.5 -12.5q47 -28 61.5 -80.5t-13.5 -98.5l-88 -149q-12 -21 -35 -27t-44 6t-27.5 35.5
t5.5 44.5z" />
    <glyph glyph-name="Lcommaaccent" unicode="&#x13b;" horiz-adv-x="890" 
d="M310 260h410q54 0 92 -38t38 -92t-38 -92t-92 -38h-540q-54 0 -92 38t-38 92v930q0 54 38 92t92 38t92 -38t38 -92v-800zM405 -292q-60 13 -78 71t10 105q26 46 78.5 60.5t98.5 -12.5q47 -28 61.5 -80.5t-13.5 -98.5l-88 -149q-12 -21 -35 -27t-44 6t-27.5 35.5t5.5 44.5
z" />
    <glyph glyph-name="lslash" unicode="&#x142;" horiz-adv-x="566" 
d="M408 558v-443q0 -52 -36.5 -88.5t-88.5 -36.5t-88.5 36.5t-36.5 88.5v294q-37 -22 -76 -11.5t-61 47.5q-21 37 -10.5 76t47.5 61l100 60v433q0 52 36.5 88.5t88.5 36.5t88.5 -36.5t36.5 -88.5v-284q37 22 76 11.5t61 -47.5q21 -37 10.5 -76t-47.5 -61z" />
    <glyph glyph-name="Lslash" unicode="&#x141;" horiz-adv-x="1000" 
d="M420 560v-300h410q54 0 92 -38t38 -92t-38 -92t-92 -38h-540q-54 0 -92 38t-38 92v280l-2 -1q-37 -22 -76 -11.5t-61 47.5q-21 37 -10.5 76t47.5 61l102 59v419q0 54 38 92t92 38t92 -38t38 -92v-270l158 91q37 22 76 11.5t61 -47.5q21 -37 10.5 -76t-47.5 -61z" />
    <glyph glyph-name="m" unicode="m" horiz-adv-x="1450" 
d="M300 490v-375q0 -52 -36.5 -88.5t-88.5 -36.5t-88.5 36.5t-36.5 88.5v650q0 52 36.5 88.5t88.5 36.5t89 -36l4 -6q82 42 182 42q161 0 275 -108q114 108 275 108q167 0 283.5 -116.5t116.5 -283.5v-375q0 -52 -36.5 -88.5t-88.5 -36.5t-88.5 36.5t-36.5 88.5v375
q0 63 -43.5 106.5t-106.5 43.5t-106.5 -43.5t-43.5 -106.5v-375q0 -52 -36.5 -88.5t-88.5 -36.5t-88.5 36.5t-36.5 88.5v375q0 63 -43.5 106.5t-106.5 43.5t-106.5 -43.5t-43.5 -106.5z" />
    <glyph glyph-name="M" unicode="M" horiz-adv-x="1507" 
d="M1019 1118q22 72 117 72q87 0 117 -72l217 -957q17 -51 -7 -99t-75 -65q-52 -17 -100 7t-65 75l-137 565l-207 -565q-35 -89 -125 -89q-91 0 -126 89l-207 565l-137 -565q-17 -51 -65 -75t-99 -7q-52 17 -76 65t-7 99l217 957q32 72 117 72q97 0 117 -72l266 -690z" />
    <glyph glyph-name="n" unicode="n" horiz-adv-x="900" 
d="M300 490v-375q0 -52 -36.5 -88.5t-88.5 -36.5t-88.5 36.5t-36.5 88.5v650q0 52 36.5 88.5t88.5 36.5t89 -36l4 -6q82 42 182 42q167 0 283.5 -116.5t116.5 -283.5v-375q0 -52 -36.5 -88.5t-88.5 -36.5t-88.5 36.5t-36.5 88.5v375q0 63 -43.5 106.5t-106.5 43.5
t-106.5 -43.5t-43.5 -106.5z" />
    <glyph glyph-name="uni207F" unicode="&#x207f;" horiz-adv-x="633" 
d="M257 913v-220q0 -44 -29.5 -73.5t-74.5 -29.5q-44 0 -73.5 29.5t-29.5 73.5v404q0 44 24.5 68.5t68.5 24.5q45 0 72 -28q35 28 102 28q111 0 188.5 -77.5t77.5 -189.5v-230q0 -44 -29 -73.5t-74 -29.5t-74 29.5t-29 73.5v220q0 22 -19 41t-41 19t-41 -19t-19 -41z" />
    <glyph glyph-name="N" unicode="N" horiz-adv-x="1160" 
d="M850 470v590q0 54 38 92t92 38t92 -38t38 -92v-940q0 -54 -38 -92t-92 -38t-92 38l-578 682v-590q0 -54 -38 -92t-92 -38t-92 38t-38 92v940q0 54 38 92t92 38t92 -38z" />
    <glyph glyph-name="nacute" unicode="&#x144;" horiz-adv-x="900" 
d="M300 490v-375q0 -52 -36.5 -88.5t-88.5 -36.5t-88.5 36.5t-36.5 88.5v650q0 52 36.5 88.5t88.5 36.5t89 -36l4 -6q82 42 182 42q167 0 283.5 -116.5t116.5 -283.5v-375q0 -52 -36.5 -88.5t-88.5 -36.5t-88.5 36.5t-36.5 88.5v375q0 63 -43.5 106.5t-106.5 43.5
t-106.5 -43.5t-43.5 -106.5zM466.5 1224q37.5 38 91.5 38t92 -38t38 -92t-38 -92t-132.5 -54t-121.5 -16t-46 19t-19 46t49 89t86.5 100z" />
    <glyph glyph-name="Nacute" unicode="&#x143;" horiz-adv-x="1160" 
d="M850 470v590q0 54 38 92t92 38t92 -38t38 -92v-940q0 -54 -38 -92t-92 -38t-92 38l-578 682v-590q0 -54 -38 -92t-92 -38t-92 38t-38 92v940q0 54 38 92t92 38t92 -38zM596.5 1496q37.5 38 91.5 38t92 -38t38 -92t-38 -92t-132.5 -54t-121.5 -16t-46 19t-19 46t49 89
t86.5 100z" />
    <glyph glyph-name="ncaron" unicode="&#x148;" horiz-adv-x="900" 
d="M300 490v-375q0 -52 -36.5 -88.5t-88.5 -36.5t-88.5 36.5t-36.5 88.5v650q0 52 36.5 88.5t88.5 36.5t89 -36l4 -6q82 42 182 42q167 0 283.5 -116.5t116.5 -283.5v-375q0 -52 -36.5 -88.5t-88.5 -36.5t-88.5 36.5t-36.5 88.5v375q0 63 -43.5 106.5t-106.5 43.5
t-106.5 -43.5t-43.5 -106.5zM505 1265q33 33 79.5 33t78.5 -33q33 -32 33 -78.5t-33 -79.5l-134 -134q-32 -33 -78 -33h-2q-46 0 -79 33l-133 134q-33 33 -33 79.5t33 78.5q33 33 79 33t79 -33l55 -55z" />
    <glyph glyph-name="Ncaron" unicode="&#x147;" horiz-adv-x="1160" 
d="M850 470v590q0 54 38 92t92 38t92 -38t38 -92v-940q0 -54 -38 -92t-92 -38t-92 38l-578 682v-590q0 -54 -38 -92t-92 -38t-92 38t-38 92v940q0 54 38 92t92 38t92 -38zM635 1537q33 33 79.5 33t78.5 -33q33 -32 33 -78.5t-33 -79.5l-134 -134q-32 -33 -78 -33h-2
q-46 0 -79 33l-133 134q-33 33 -33 79.5t33 78.5q33 33 79 33t79 -33l55 -55z" />
    <glyph glyph-name="ntilde" unicode="&#xf1;" horiz-adv-x="900" 
d="M300 490v-375q0 -52 -36.5 -88.5t-88.5 -36.5t-88.5 36.5t-36.5 88.5v650q0 52 36.5 88.5t88.5 36.5t89 -36l4 -6q82 42 182 42q167 0 283.5 -116.5t116.5 -283.5v-375q0 -52 -36.5 -88.5t-88.5 -36.5t-88.5 36.5t-36.5 88.5v375q0 63 -43.5 106.5t-106.5 43.5
t-106.5 -43.5t-43.5 -106.5zM312 1006q-37 -36 -78 -36t-72.5 31.5t-31.5 82.5t35 87.5t81.5 56.5t98.5 20q51 0 108 -37q35 -22 69 -23q34 1 66 23q37 37 78 37q42 0 73 -31.5t31 -82.5q0 -52 -35 -88t-81.5 -56t-98.5 -20q-51 0 -108 36q-35 23 -69 24q-34 -1 -66 -24z
" />
    <glyph glyph-name="Ntilde" unicode="&#xd1;" horiz-adv-x="1160" 
d="M850 470v590q0 54 38 92t92 38t92 -38t38 -92v-940q0 -54 -38 -92t-92 -38t-92 38l-578 682v-590q0 -54 -38 -92t-92 -38t-92 38t-38 92v940q0 54 38 92t92 38t92 -38zM442 1278q-37 -36 -78 -36t-72.5 31.5t-31.5 82.5t35 87.5t81.5 56.5t98.5 20q51 0 108 -37
q35 -22 69 -23q34 1 66 23q37 37 78 37q42 0 73 -31.5t31 -82.5q0 -52 -35 -88t-81.5 -56t-98.5 -20q-51 0 -108 36q-35 23 -69 24q-34 -1 -66 -24z" />
    <glyph glyph-name="ncommaaccent" unicode="&#x146;" horiz-adv-x="900" 
d="M300 490v-375q0 -52 -36.5 -88.5t-88.5 -36.5t-88.5 36.5t-36.5 88.5v650q0 52 36.5 88.5t88.5 36.5t89 -36l4 -6q82 42 182 42q167 0 283.5 -116.5t116.5 -283.5v-375q0 -52 -36.5 -88.5t-88.5 -36.5t-88.5 36.5t-36.5 88.5v375q0 63 -43.5 106.5t-106.5 43.5
t-106.5 -43.5t-43.5 -106.5zM405 -292q-60 13 -78 71t10 105q26 46 78.5 60.5t98.5 -12.5q47 -28 61.5 -80.5t-13.5 -98.5l-88 -149q-12 -21 -35 -27t-44 6t-27.5 35.5t5.5 44.5z" />
    <glyph glyph-name="Ncommaaccent" unicode="&#x145;" horiz-adv-x="1160" 
d="M850 470v590q0 54 38 92t92 38t92 -38t38 -92v-940q0 -54 -38 -92t-92 -38t-92 38l-578 682v-590q0 -54 -38 -92t-92 -38t-92 38t-38 92v940q0 54 38 92t92 38t92 -38zM535 -292q-60 13 -78 71t10 105q26 46 78.5 60.5t98.5 -12.5q47 -28 61.5 -80.5t-13.5 -98.5
l-88 -149q-12 -21 -35 -27t-44 6t-27.5 35.5t5.5 44.5z" />
    <glyph glyph-name="napostrophe" unicode="&#x149;" horiz-adv-x="963" 
d="M61 1011q-69 15 -90 82t11 121q30 54 90.5 70.5t114.5 -14.5q54 -32 70.5 -92.5t-15.5 -114.5l-102 -172q-14 -24 -40.5 -31t-50.5 7t-31.5 41t6.5 51zM363 490v-375q0 -52 -36.5 -88.5t-88.5 -36.5t-88.5 36.5t-36.5 88.5v650q0 52 36.5 88.5t88.5 36.5t89 -36l4 -6
q82 42 182 42q167 0 283.5 -116.5t116.5 -283.5v-375q0 -52 -36.5 -88.5t-88.5 -36.5t-88.5 36.5t-36.5 88.5v375q0 63 -43.5 106.5t-106.5 43.5t-106.5 -43.5t-43.5 -106.5z" />
    <glyph glyph-name="afii61352" unicode="&#x2116;" horiz-adv-x="1940" 
d="M850 470v590q0 54 38 92t92 38t92 -38t38 -92v-940q0 -54 -38 -92t-92 -38t-92 38l-578 682v-590q0 -54 -38 -92t-92 -38t-92 38t-38 92v940q0 54 38 92t92 38t92 -38zM1550 490q-145 0 -247.5 102.5t-102.5 247.5t102.5 247.5t247.5 102.5t247.5 -102.5t102.5 -247.5
t-102.5 -247.5t-247.5 -102.5zM1656 734q44 44 44 106t-44 106t-106 44t-106 -44t-44 -106t44 -106t106 -44t106 44zM1900 320q0 -43 -28.5 -71.5t-71.5 -28.5h-500q-43 0 -71.5 28.5t-28.5 71.5t28.5 71.5t71.5 28.5h500q43 0 71.5 -28.5t28.5 -71.5z" />
    <glyph glyph-name="eng" unicode="&#x14b;" horiz-adv-x="900" 
d="M600 490q0 63 -43.5 106.5t-106.5 43.5t-106.5 -43.5t-43.5 -106.5v-375q0 -52 -36.5 -88.5t-88.5 -36.5t-88.5 36.5t-36.5 88.5v650q0 52 36.5 88.5t88.5 36.5t89 -36l4 -6q82 42 182 42q167 0 283.5 -116.5t116.5 -283.5v-420q0 -167 -116.5 -283.5t-283.5 -116.5
q-52 0 -88.5 36.5t-36.5 88.5t36.5 88.5t88.5 36.5q63 0 106.5 43.5t43.5 106.5v420z" />
    <glyph glyph-name="Eng" unicode="&#x14a;" horiz-adv-x="1290" 
d="M310 590v-470q0 -54 -38 -92t-92 -38t-92 38t-38 92v940q0 54 38 92t92 38t92 -38q29 -29 36 -68q149 106 342 106q249 0 424.5 -175.5t175.5 -424.5t-175.5 -424.5t-424.5 -175.5q-54 0 -92 38t-38 92t38 92t92 38q141 0 240.5 99.5t99.5 240.5t-99.5 240.5t-240.5 99.5
t-240.5 -99.5t-99.5 -240.5z" />
    <glyph glyph-name="o" unicode="o" horiz-adv-x="980" 
d="M490 -10q-187 0 -318.5 131.5t-131.5 318.5t131.5 318.5t318.5 131.5t318.5 -131.5t131.5 -318.5t-131.5 -318.5t-318.5 -131.5zM631.5 298.5q58.5 58.5 58.5 141.5t-58.5 141.5t-141.5 58.5t-141.5 -58.5t-58.5 -141.5t58.5 -141.5t141.5 -58.5t141.5 58.5z" />
    <glyph glyph-name="O" unicode="O" horiz-adv-x="1280" 
d="M640 -10q-249 0 -424.5 175.5t-175.5 424.5t175.5 424.5t424.5 175.5t424.5 -175.5t175.5 -424.5t-175.5 -424.5t-424.5 -175.5zM880.5 349.5q99.5 99.5 99.5 240.5t-99.5 240.5t-240.5 99.5t-240.5 -99.5t-99.5 -240.5t99.5 -240.5t240.5 -99.5t240.5 99.5z" />
    <glyph glyph-name="ordmasculine" unicode="&#xba;" horiz-adv-x="780" 
d="M390 490q-145 0 -247.5 102.5t-102.5 247.5t102.5 247.5t247.5 102.5t247.5 -102.5t102.5 -247.5t-102.5 -247.5t-247.5 -102.5zM496 734q44 44 44 106t-44 106t-106 44t-106 -44t-44 -106t44 -106t106 -44t106 44z" />
    <glyph glyph-name="oacute" unicode="&#xf3;" horiz-adv-x="980" 
d="M490 -10q-187 0 -318.5 131.5t-131.5 318.5t131.5 318.5t318.5 131.5t318.5 -131.5t131.5 -318.5t-131.5 -318.5t-318.5 -131.5zM631.5 298.5q58.5 58.5 58.5 141.5t-58.5 141.5t-141.5 58.5t-141.5 -58.5t-58.5 -141.5t58.5 -141.5t141.5 -58.5t141.5 58.5zM506.5 1224
q37.5 38 91.5 38t92 -38t38 -92t-38 -92t-132.5 -54t-121.5 -16t-46 19t-19 46t49 89t86.5 100z" />
    <glyph glyph-name="Oacute" unicode="&#xd3;" horiz-adv-x="1280" 
d="M640 -10q-249 0 -424.5 175.5t-175.5 424.5t175.5 424.5t424.5 175.5t424.5 -175.5t175.5 -424.5t-175.5 -424.5t-424.5 -175.5zM880.5 349.5q99.5 99.5 99.5 240.5t-99.5 240.5t-240.5 99.5t-240.5 -99.5t-99.5 -240.5t99.5 -240.5t240.5 -99.5t240.5 99.5zM656.5 1496
q37.5 38 91.5 38t92 -38t38 -92t-38 -92t-132.5 -54t-121.5 -16t-46 19t-19 46t49 89t86.5 100z" />
    <glyph glyph-name="ograve" unicode="&#xf2;" horiz-adv-x="980" 
d="M490 -10q-187 0 -318.5 131.5t-131.5 318.5t131.5 318.5t318.5 131.5t318.5 -131.5t131.5 -318.5t-131.5 -318.5t-318.5 -131.5zM631.5 298.5q58.5 58.5 58.5 141.5t-58.5 141.5t-141.5 58.5t-141.5 -58.5t-58.5 -141.5t58.5 -141.5t141.5 -58.5t141.5 58.5zM609 1035
q0 -27 -19.5 -46t-45.5 -19q-27 0 -121.5 16t-132.5 54t-38 92t38 92t92 38q53 0 91 -38t87 -100t49 -89z" />
    <glyph glyph-name="Ograve" unicode="&#xd2;" horiz-adv-x="1280" 
d="M640 -10q-249 0 -424.5 175.5t-175.5 424.5t175.5 424.5t424.5 175.5t424.5 -175.5t175.5 -424.5t-175.5 -424.5t-424.5 -175.5zM880.5 349.5q99.5 99.5 99.5 240.5t-99.5 240.5t-240.5 99.5t-240.5 -99.5t-99.5 -240.5t99.5 -240.5t240.5 -99.5t240.5 99.5zM759 1307
q0 -27 -19.5 -46t-45.5 -19q-27 0 -121.5 16t-132.5 54t-38 92t38 92t92 38q53 0 91 -38t87 -100t49 -89z" />
    <glyph glyph-name="ocircumflex" unicode="&#xf4;" horiz-adv-x="980" 
d="M490 -10q-187 0 -318.5 131.5t-131.5 318.5t131.5 318.5t318.5 131.5t318.5 -131.5t131.5 -318.5t-131.5 -318.5t-318.5 -131.5zM631.5 298.5q58.5 58.5 58.5 141.5t-58.5 141.5t-141.5 58.5t-141.5 -58.5t-58.5 -141.5t58.5 -141.5t141.5 -58.5t141.5 58.5zM490 1029
l-55 -56q-33 -33 -79 -33t-79 33t-33 79t33 79l133 134q33 33 79 33h2q46 0 78 -33l134 -134q33 -33 33 -79t-33 -79q-32 -33 -78.5 -33t-79.5 33z" />
    <glyph glyph-name="Ocircumflex" unicode="&#xd4;" horiz-adv-x="1280" 
d="M640 -10q-249 0 -424.5 175.5t-175.5 424.5t175.5 424.5t424.5 175.5t424.5 -175.5t175.5 -424.5t-175.5 -424.5t-424.5 -175.5zM880.5 349.5q99.5 99.5 99.5 240.5t-99.5 240.5t-240.5 99.5t-240.5 -99.5t-99.5 -240.5t99.5 -240.5t240.5 -99.5t240.5 99.5zM640 1301
l-55 -56q-33 -33 -79 -33t-79 33t-33 79t33 79l133 134q33 33 79 33h2q46 0 78 -33l134 -134q33 -33 33 -79t-33 -79q-32 -33 -78.5 -33t-79.5 33z" />
    <glyph glyph-name="odieresis" unicode="&#xf6;" horiz-adv-x="980" 
d="M490 -10q-187 0 -318.5 131.5t-131.5 318.5t131.5 318.5t318.5 131.5t318.5 -131.5t131.5 -318.5t-131.5 -318.5t-318.5 -131.5zM631.5 298.5q58.5 58.5 58.5 141.5t-58.5 141.5t-141.5 58.5t-141.5 -58.5t-58.5 -141.5t58.5 -141.5t141.5 -58.5t141.5 58.5zM432 1212
q38 -38 38 -92t-38 -92t-92 -38t-92 38t-38 92t38 92t92 38t92 -38zM732 1212q38 -38 38 -92t-38 -92t-92 -38t-92 38t-38 92t38 92t92 38t92 -38z" />
    <glyph glyph-name="Odieresis" unicode="&#xd6;" horiz-adv-x="1280" 
d="M640 -10q-249 0 -424.5 175.5t-175.5 424.5t175.5 424.5t424.5 175.5t424.5 -175.5t175.5 -424.5t-175.5 -424.5t-424.5 -175.5zM880.5 349.5q99.5 99.5 99.5 240.5t-99.5 240.5t-240.5 99.5t-240.5 -99.5t-99.5 -240.5t99.5 -240.5t240.5 -99.5t240.5 99.5zM582 1484
q38 -38 38 -92t-38 -92t-92 -38t-92 38t-38 92t38 92t92 38t92 -38zM882 1484q38 -38 38 -92t-38 -92t-92 -38t-92 38t-38 92t38 92t92 38t92 -38z" />
    <glyph glyph-name="uni01D2" unicode="&#x1d2;" horiz-adv-x="980" 
d="M490 -10q-187 0 -318.5 131.5t-131.5 318.5t131.5 318.5t318.5 131.5t318.5 -131.5t131.5 -318.5t-131.5 -318.5t-318.5 -131.5zM631.5 298.5q58.5 58.5 58.5 141.5t-58.5 141.5t-141.5 58.5t-141.5 -58.5t-58.5 -141.5t58.5 -141.5t141.5 -58.5t141.5 58.5zM545 1265
q33 33 79.5 33t78.5 -33q33 -32 33 -78.5t-33 -79.5l-134 -134q-32 -33 -78 -33h-2q-46 0 -79 33l-133 134q-33 33 -33 79.5t33 78.5q33 33 79 33t79 -33l55 -55z" />
    <glyph glyph-name="uni01D1" unicode="&#x1d1;" horiz-adv-x="1280" 
d="M640 -10q-249 0 -424.5 175.5t-175.5 424.5t175.5 424.5t424.5 175.5t424.5 -175.5t175.5 -424.5t-175.5 -424.5t-424.5 -175.5zM880.5 349.5q99.5 99.5 99.5 240.5t-99.5 240.5t-240.5 99.5t-240.5 -99.5t-99.5 -240.5t99.5 -240.5t240.5 -99.5t240.5 99.5zM695 1537
q33 33 79.5 33t78.5 -33q33 -32 33 -78.5t-33 -79.5l-134 -134q-32 -33 -78 -33h-2q-46 0 -79 33l-133 134q-33 33 -33 79.5t33 78.5q33 33 79 33t79 -33l55 -55z" />
    <glyph glyph-name="obreve" unicode="&#x14f;" horiz-adv-x="980" 
d="M490 -10q-187 0 -318.5 131.5t-131.5 318.5t131.5 318.5t318.5 131.5t318.5 -131.5t131.5 -318.5t-131.5 -318.5t-318.5 -131.5zM631.5 298.5q58.5 58.5 58.5 141.5t-58.5 141.5t-141.5 58.5t-141.5 -58.5t-58.5 -141.5t58.5 -141.5t141.5 -58.5t141.5 58.5zM490 1171
q57 0 91 41q10 16 32.5 47t82.5 31q61 0 88 -35.5t27 -74.5q0 -68 -80.5 -148.5t-240.5 -80.5t-240.5 80.5t-80.5 148.5q0 39 27 74.5t88 35.5t83 -31t31 -47q36 -41 92 -41z" />
    <glyph glyph-name="Obreve" unicode="&#x14e;" horiz-adv-x="1280" 
d="M640 -10q-249 0 -424.5 175.5t-175.5 424.5t175.5 424.5t424.5 175.5t424.5 -175.5t175.5 -424.5t-175.5 -424.5t-424.5 -175.5zM880.5 349.5q99.5 99.5 99.5 240.5t-99.5 240.5t-240.5 99.5t-240.5 -99.5t-99.5 -240.5t99.5 -240.5t240.5 -99.5t240.5 99.5zM640 1443
q57 0 91 41q10 16 32.5 47t82.5 31q61 0 88 -35.5t27 -74.5q0 -68 -80.5 -148.5t-240.5 -80.5t-240.5 80.5t-80.5 148.5q0 39 27 74.5t88 35.5t83 -31t31 -47q36 -41 92 -41z" />
    <glyph glyph-name="omacron" unicode="&#x14d;" horiz-adv-x="980" 
d="M490 -10q-187 0 -318.5 131.5t-131.5 318.5t131.5 318.5t318.5 131.5t318.5 -131.5t131.5 -318.5t-131.5 -318.5t-318.5 -131.5zM631.5 298.5q58.5 58.5 58.5 141.5t-58.5 141.5t-141.5 58.5t-141.5 -58.5t-58.5 -141.5t58.5 -141.5t141.5 -58.5t141.5 58.5zM790 1120
q0 -43 -28.5 -71.5t-71.5 -28.5h-400q-43 0 -71.5 28.5t-28.5 71.5t28.5 71.5t71.5 28.5h400q43 0 71.5 -28.5t28.5 -71.5z" />
    <glyph glyph-name="Omacron" unicode="&#x14c;" horiz-adv-x="1280" 
d="M640 -10q-249 0 -424.5 175.5t-175.5 424.5t175.5 424.5t424.5 175.5t424.5 -175.5t175.5 -424.5t-175.5 -424.5t-424.5 -175.5zM880.5 349.5q99.5 99.5 99.5 240.5t-99.5 240.5t-240.5 99.5t-240.5 -99.5t-99.5 -240.5t99.5 -240.5t240.5 -99.5t240.5 99.5zM940 1392
q0 -43 -28.5 -71.5t-71.5 -28.5h-400q-43 0 -71.5 28.5t-28.5 71.5t28.5 71.5t71.5 28.5h400q43 0 71.5 -28.5t28.5 -71.5z" />
    <glyph glyph-name="otilde" unicode="&#xf5;" horiz-adv-x="980" 
d="M490 -10q-187 0 -318.5 131.5t-131.5 318.5t131.5 318.5t318.5 131.5t318.5 -131.5t131.5 -318.5t-131.5 -318.5t-318.5 -131.5zM631.5 298.5q58.5 58.5 58.5 141.5t-58.5 141.5t-141.5 58.5t-141.5 -58.5t-58.5 -141.5t58.5 -141.5t141.5 -58.5t141.5 58.5zM352 1006
q-37 -36 -78 -36t-72.5 31.5t-31.5 82.5t35 87.5t81.5 56.5t98.5 20q51 0 108 -37q35 -22 69 -23q34 1 66 23q37 37 78 37q42 0 73 -31.5t31 -82.5q0 -52 -35 -88t-81.5 -56t-98.5 -20q-51 0 -108 36q-35 23 -69 24q-34 -1 -66 -24z" />
    <glyph glyph-name="Otilde" unicode="&#xd5;" horiz-adv-x="1280" 
d="M640 -10q-249 0 -424.5 175.5t-175.5 424.5t175.5 424.5t424.5 175.5t424.5 -175.5t175.5 -424.5t-175.5 -424.5t-424.5 -175.5zM880.5 349.5q99.5 99.5 99.5 240.5t-99.5 240.5t-240.5 99.5t-240.5 -99.5t-99.5 -240.5t99.5 -240.5t240.5 -99.5t240.5 99.5zM502 1278
q-37 -36 -78 -36t-72.5 31.5t-31.5 82.5t35 87.5t81.5 56.5t98.5 20q51 0 108 -37q35 -22 69 -23q34 1 66 23q37 37 78 37q42 0 73 -31.5t31 -82.5q0 -52 -35 -88t-81.5 -56t-98.5 -20q-51 0 -108 36q-35 23 -69 24q-34 -1 -66 -24z" />
    <glyph glyph-name="ohungarumlaut" unicode="&#x151;" horiz-adv-x="980" 
d="M490 -10q-187 0 -318.5 131.5t-131.5 318.5t131.5 318.5t318.5 131.5t318.5 -131.5t131.5 -318.5t-131.5 -318.5t-318.5 -131.5zM631.5 298.5q58.5 58.5 58.5 141.5t-58.5 141.5t-141.5 58.5t-141.5 -58.5t-58.5 -141.5t58.5 -141.5t141.5 -58.5t141.5 58.5zM272.5 1224
q37.5 38 91.5 38t92 -38t38 -92t-38 -92t-132.5 -54t-121.5 -16t-46 19t-19 46t49 89t86.5 100zM622.5 1224q37.5 38 91.5 38t92 -38t38 -92t-38 -92t-132.5 -54t-121.5 -16t-46 19t-19 46t49 89t86.5 100z" />
    <glyph glyph-name="Ohungarumlaut" unicode="&#x150;" horiz-adv-x="1280" 
d="M640 -10q-249 0 -424.5 175.5t-175.5 424.5t175.5 424.5t424.5 175.5t424.5 -175.5t175.5 -424.5t-175.5 -424.5t-424.5 -175.5zM880.5 349.5q99.5 99.5 99.5 240.5t-99.5 240.5t-240.5 99.5t-240.5 -99.5t-99.5 -240.5t99.5 -240.5t240.5 -99.5t240.5 99.5zM422.5 1496
q37.5 38 91.5 38t92 -38t38 -92t-38 -92t-132.5 -54t-121.5 -16t-46 19t-19 46t49 89t86.5 100zM772.5 1496q37.5 38 91.5 38t92 -38t38 -92t-38 -92t-132.5 -54t-121.5 -16t-46 19t-19 46t49 89t86.5 100z" />
    <glyph glyph-name="oslash" unicode="&#xf8;" horiz-adv-x="980" 
d="M434 247q26 -7 56 -7q83 0 141.5 58.5t58.5 141.5q0 30 -7 56zM297 385l249 248q-26 7 -56 7q-83 0 -141.5 -58.5t-58.5 -141.5q0 -29 7 -55zM870 683q70 -107 70 -243q0 -187 -131.5 -318.5t-318.5 -131.5q-137 0 -244 70l-51 -51q-28 -29 -68 -29t-69 29q-28 28 -28 68
t28 69l52 51q-70 107 -70 243q0 187 131.5 318.5t318.5 131.5q137 0 244 -70l51 51q28 29 68 29t68 -29q29 -28 29 -68t-29 -69z" />
    <glyph glyph-name="Oslash" unicode="&#xd8;" horiz-adv-x="1280" 
d="M509 275q60 -25 131 -25q141 0 240.5 99.5t99.5 240.5q0 71 -25 131zM325 459l446 446q-60 25 -131 25q-141 0 -240.5 -99.5t-99.5 -240.5q0 -71 25 -131zM1147 913q93 -142 93 -323q0 -249 -175.5 -424.5t-424.5 -175.5q-181 0 -323 93l-59 -59q-38 -38 -92 -38t-92 38
q-38 39 -38 92.5t38 91.5l59 59q-93 142 -93 323q0 249 175.5 424.5t424.5 175.5q181 0 323 -93l59 59q38 38 92 38t92 -38q38 -39 38 -92.5t-38 -91.5z" />
    <glyph glyph-name="oslashacute" unicode="&#x1ff;" horiz-adv-x="980" 
d="M434 247q26 -7 56 -7q83 0 141.5 58.5t58.5 141.5q0 30 -7 56zM297 385l249 248q-26 7 -56 7q-83 0 -141.5 -58.5t-58.5 -141.5q0 -29 7 -55zM870 683q70 -107 70 -243q0 -187 -131.5 -318.5t-318.5 -131.5q-137 0 -244 70l-51 -51q-28 -29 -68 -29t-69 29q-28 28 -28 68
t28 69l52 51q-70 107 -70 243q0 187 131.5 318.5t318.5 131.5q137 0 244 -70l51 51q28 29 68 29t68 -29q29 -28 29 -68t-29 -69zM506.5 1224q37.5 38 91.5 38t92 -38t38 -92t-38 -92t-132.5 -54t-121.5 -16t-46 19t-19 46t49 89t86.5 100z" />
    <glyph glyph-name="Oslashacute" unicode="&#x1fe;" horiz-adv-x="1280" 
d="M509 275q60 -25 131 -25q141 0 240.5 99.5t99.5 240.5q0 71 -25 131zM325 459l446 446q-60 25 -131 25q-141 0 -240.5 -99.5t-99.5 -240.5q0 -71 25 -131zM1147 913q93 -142 93 -323q0 -249 -175.5 -424.5t-424.5 -175.5q-181 0 -323 93l-59 -59q-38 -38 -92 -38t-92 38
q-38 39 -38 92.5t38 91.5l59 59q-93 142 -93 323q0 249 175.5 424.5t424.5 175.5q181 0 323 -93l59 59q38 38 92 38t92 -38q38 -39 38 -92.5t-38 -91.5zM656.5 1496q37.5 38 91.5 38t92 -38t38 -92t-38 -92t-132.5 -54t-121.5 -16t-46 19t-19 46t49 89t86.5 100z" />
    <glyph glyph-name="oe" unicode="&#x153;" horiz-adv-x="1560" 
d="M631.5 298.5q58.5 58.5 58.5 141.5t-58.5 141.5t-141.5 58.5t-141.5 -58.5t-58.5 -141.5t58.5 -141.5t141.5 -58.5t141.5 58.5zM1238 620q-49 20 -98 20q-83 0 -141 -58q-56 -56 -59 -135zM815 128l-6 -6q-132 -132 -319 -132t-318.5 131.5t-131.5 318.5t131.5 318.5
t318.5 131.5t319 -131q3 -4 6 -7l7 7q131 131 318 131t294 -106q75 -76 79 -171q-2 -69 -58 -100l-421 -243q47 -30 106 -30q83 0 166.5 58.5t158.5 -18.5t-31.5 -183.5t-293.5 -106.5t-318 132q-4 3 -7 6z" />
    <glyph glyph-name="OE" unicode="&#x152;" horiz-adv-x="1820" 
d="M880.5 349.5q99.5 99.5 99.5 240.5t-99.5 240.5t-240.5 99.5t-240.5 -99.5t-99.5 -240.5t99.5 -240.5t240.5 -99.5t240.5 99.5zM984 97q-150 -107 -344 -107q-249 0 -424.5 175.5t-175.5 424.5t175.5 424.5t424.5 175.5q194 0 344 -107q8 33 34 59q38 38 92 38h540
q54 0 92 -38t38 -92t-38 -92t-92 -38h-410v-200h310q54 0 92 -38t38 -92t-38 -92t-92 -38h-310v-200h410q54 0 92 -38t38 -92t-38 -92t-92 -38h-540q-54 0 -92 38q-26 26 -34 59z" />
    <glyph glyph-name="p" unicode="p" horiz-adv-x="990" 
d="M641.5 298.5q58.5 58.5 58.5 141.5t-58.5 141.5t-141.5 58.5t-141.5 -58.5t-58.5 -141.5t58.5 -141.5t141.5 -58.5t141.5 58.5zM280 834q98 56 220 56q187 0 318.5 -131.5t131.5 -318.5t-131.5 -318.5t-318.5 -131.5q-110 0 -200 45v-230q0 -52 -36.5 -88.5t-88.5 -36.5
t-88.5 36.5t-36.5 88.5v960q0 52 36.5 88.5t88.5 36.5t89 -36q9 -10 16 -20z" />
    <glyph glyph-name="P" unicode="P" horiz-adv-x="960" 
d="M310 920v-340h180q70 0 120 50t50 120t-50 120t-120 50h-180zM310 320v-200q0 -54 -38 -92t-92 -38t-92 38t-38 92v930q0 54 38 92t92 38h310q179 0 304.5 -125.5t125.5 -304.5t-125.5 -304.5t-304.5 -125.5h-180z" />
    <glyph glyph-name="q" unicode="q" horiz-adv-x="990" 
d="M631.5 298.5q58.5 58.5 58.5 141.5t-58.5 141.5t-141.5 58.5t-141.5 -58.5t-58.5 -141.5t58.5 -141.5t141.5 -58.5t141.5 58.5zM690 35q-90 -45 -200 -45q-187 0 -318.5 131.5t-131.5 318.5t131.5 318.5t318.5 131.5q122 0 220 -56q7 10 17 20q36 36 88 36t88.5 -36.5
t36.5 -88.5v-960q0 -52 -36.5 -88.5t-88.5 -36.5t-88.5 36.5t-36.5 88.5v230z" />
    <glyph glyph-name="Q" unicode="Q" horiz-adv-x="1280" 
d="M980 590q0 141 -99.5 240.5t-240.5 99.5t-240.5 -99.5t-99.5 -240.5t99.5 -240.5t240.5 -99.5t240.5 99.5t99.5 240.5zM963 83q-142 -93 -323 -93q-249 0 -424.5 175.5t-175.5 424.5t175.5 424.5t424.5 175.5t424.5 -175.5t175.5 -424.5q0 -181 -93 -323l55 -55
q38 -38 38 -92t-38 -92t-92 -38t-92 38z" />
    <glyph glyph-name="r" unicode="r" horiz-adv-x="650" 
d="M300 620v-505q0 -52 -36.5 -88.5t-88.5 -36.5t-88.5 36.5t-36.5 88.5v650q0 52 36.5 88.5t88.5 36.5t99 -56q62 56 166 56q84 0 127 -43t43 -107t-38 -107t-102 -43t-112 38q-39 23 -58 -8z" />
    <glyph glyph-name="R" unicode="R" horiz-adv-x="955" 
d="M310 920v-320h180q70 0 120 45t50 115t-50 115t-120 45h-180zM687 384l196 -164q42 -35 46.5 -88.5t-30.5 -94.5q-34 -42 -87.5 -46.5t-95.5 30.5l-380 319h-26v-220q0 -54 -38 -92t-92 -38t-92 38t-38 92v930q0 54 38 92t92 38h310q179 0 304.5 -120.5t125.5 -299.5
t-125 -299q-50 -48 -108 -77z" />
    <glyph glyph-name="racute" unicode="&#x155;" horiz-adv-x="650" 
d="M300 620v-505q0 -52 -36.5 -88.5t-88.5 -36.5t-88.5 36.5t-36.5 88.5v650q0 52 36.5 88.5t88.5 36.5t99 -56q62 56 166 56q84 0 127 -43t43 -107t-38 -107t-102 -43t-112 38q-39 23 -58 -8zM346.5 1224q37.5 38 91.5 38t92 -38t38 -92t-38 -92t-132.5 -54t-121.5 -16
t-46 19t-19 46t49 89t86.5 100z" />
    <glyph glyph-name="Racute" unicode="&#x154;" horiz-adv-x="955" 
d="M310 920v-320h180q70 0 120 45t50 115t-50 115t-120 45h-180zM687 384l196 -164q42 -35 46.5 -88.5t-30.5 -94.5q-34 -42 -87.5 -46.5t-95.5 30.5l-380 319h-26v-220q0 -54 -38 -92t-92 -38t-92 38t-38 92v930q0 54 38 92t92 38h310q179 0 304.5 -120.5t125.5 -299.5
t-125 -299q-50 -48 -108 -77zM506.5 1496q37.5 38 91.5 38t92 -38t38 -92t-38 -92t-132.5 -54t-121.5 -16t-46 19t-19 46t49 89t86.5 100z" />
    <glyph glyph-name="rcaron" unicode="&#x159;" horiz-adv-x="650" 
d="M300 620v-505q0 -52 -36.5 -88.5t-88.5 -36.5t-88.5 36.5t-36.5 88.5v650q0 52 36.5 88.5t88.5 36.5t99 -56q62 56 166 56q84 0 127 -43t43 -107t-38 -107t-102 -43t-112 38q-39 23 -58 -8zM385 1265q33 33 79.5 33t78.5 -33q33 -32 33 -78.5t-33 -79.5l-134 -134
q-32 -33 -78 -33h-2q-46 0 -79 33l-133 134q-33 33 -33 79.5t33 78.5q33 33 79 33t79 -33l55 -55z" />
    <glyph glyph-name="Rcaron" unicode="&#x158;" horiz-adv-x="955" 
d="M310 920v-320h180q70 0 120 45t50 115t-50 115t-120 45h-180zM687 384l196 -164q42 -35 46.5 -88.5t-30.5 -94.5q-34 -42 -87.5 -46.5t-95.5 30.5l-380 319h-26v-220q0 -54 -38 -92t-92 -38t-92 38t-38 92v930q0 54 38 92t92 38h310q179 0 304.5 -120.5t125.5 -299.5
t-125 -299q-50 -48 -108 -77zM545 1537q33 33 79.5 33t78.5 -33q33 -32 33 -78.5t-33 -79.5l-134 -134q-32 -33 -78 -33h-2q-46 0 -79 33l-133 134q-33 33 -33 79.5t33 78.5q33 33 79 33t79 -33l55 -55z" />
    <glyph glyph-name="rcommaaccent" unicode="&#x157;" horiz-adv-x="650" 
d="M300 620v-505q0 -52 -36.5 -88.5t-88.5 -36.5t-88.5 36.5t-36.5 88.5v650q0 52 36.5 88.5t88.5 36.5t99 -56q62 56 166 56q84 0 127 -43t43 -107t-38 -107t-102 -43t-112 38q-39 23 -58 -8zM285 -292q-60 13 -78 71t10 105q26 46 78.5 60.5t98.5 -12.5q47 -28 61.5 -80.5
t-13.5 -98.5l-88 -149q-12 -21 -35 -27t-44 6t-27.5 35.5t5.5 44.5z" />
    <glyph glyph-name="Rcommaaccent" unicode="&#x156;" horiz-adv-x="955" 
d="M310 920v-320h180q70 0 120 45t50 115t-50 115t-120 45h-180zM687 384l196 -164q42 -35 46.5 -88.5t-30.5 -94.5q-34 -42 -87.5 -46.5t-95.5 30.5l-380 319h-26v-220q0 -54 -38 -92t-92 -38t-92 38t-38 92v930q0 54 38 92t92 38h310q179 0 304.5 -120.5t125.5 -299.5
t-125 -299q-50 -48 -108 -77zM445 -292q-60 13 -78 71t10 105q26 46 78.5 60.5t98.5 -12.5q47 -28 61.5 -80.5t-13.5 -98.5l-88 -149q-12 -21 -35 -27t-44 6t-27.5 35.5t5.5 44.5z" />
    <glyph glyph-name="prescription" unicode="&#x211e;" horiz-adv-x="1100" 
d="M310 920v-340h180q70 0 120 50t50 120t-50 120t-120 50h-180zM642 346l72 -72l124 124q38 38 92 38t92 -38t38 -92t-38 -92l-124 -124l124 -124q38 -39 38 -92.5t-38 -91.5q-39 -39 -92.5 -38.5t-91.5 38.5l-124 124l-125 -124q-38 -38 -92 -38t-92 38t-38 92t38 92
l124 124l-219 219v-189q0 -54 -38 -92t-92 -38t-92 38t-38 92v930q0 54 38 92t92 38h310q179 0 304.5 -125.5t125.5 -304.5t-125 -304q-69 -69 -153 -100z" />
    <glyph glyph-name="s" unicode="s" horiz-adv-x="774" 
d="M120 45q-80 55 -80 117t39 101t91 39q47 0 95.5 -35t121.5 -37t94 29t-92.5 64.5t-223.5 97.5t-110 178q0 115 97.5 202.5t234.5 87.5q135 0 233.5 -51.5t98.5 -113.5t-38.5 -101t-90.5 -39q-47 0 -88 31.5t-107 33.5t-87 -29t77.5 -61t223.5 -93.5t125 -185.5
q0 -115 -97.5 -202.5t-256.5 -87.5q-180 0 -260 55z" />
    <glyph glyph-name="S" unicode="S" horiz-adv-x="940" 
d="M78 148q-38 38 -38 92t38 92t92 38t92 -38q117 -82 208 -82q71 0 120.5 30.5t49.5 74.5t-49.5 69.5t-150.5 45.5q-166 36 -273 119.5t-107 238.5q5 154 121 256q113 100 279 106q239 0 382 -148q38 -38 38 -92t-38 -92t-92 -38t-92 38q-23 23 -65 47.5t-113 24.5
t-115.5 -30.5t-44.5 -74.5t44.5 -69.5t141.5 -45.5q168 -35 281 -119t113 -240q-6 -153 -125 -254q-126 -107 -305 -107q-219 0 -392 158z" />
    <glyph glyph-name="sacute" unicode="&#x15b;" horiz-adv-x="774" 
d="M120 45q-80 55 -80 117t39 101t91 39q47 0 95.5 -35t121.5 -37t94 29t-92.5 64.5t-223.5 97.5t-110 178q0 115 97.5 202.5t234.5 87.5q135 0 233.5 -51.5t98.5 -113.5t-38.5 -101t-90.5 -39q-47 0 -88 31.5t-107 33.5t-87 -29t77.5 -61t223.5 -93.5t125 -185.5
q0 -115 -97.5 -202.5t-256.5 -87.5q-180 0 -260 55zM403.5 1224q37.5 38 91.5 38t92 -38t38 -92t-38 -92t-132.5 -54t-121.5 -16t-46 19t-19 46t49 89t86.5 100z" />
    <glyph glyph-name="Sacute" unicode="&#x15a;" horiz-adv-x="940" 
d="M78 148q-38 38 -38 92t38 92t92 38t92 -38q117 -82 208 -82q71 0 120.5 30.5t49.5 74.5t-49.5 69.5t-150.5 45.5q-166 36 -273 119.5t-107 238.5q5 154 121 256q113 100 279 106q239 0 382 -148q38 -38 38 -92t-38 -92t-92 -38t-92 38q-23 23 -65 47.5t-113 24.5
t-115.5 -30.5t-44.5 -74.5t44.5 -69.5t141.5 -45.5q168 -35 281 -119t113 -240q-6 -153 -125 -254q-126 -107 -305 -107q-219 0 -392 158zM486.5 1496q37.5 38 91.5 38t92 -38t38 -92t-38 -92t-132.5 -54t-121.5 -16t-46 19t-19 46t49 89t86.5 100z" />
    <glyph glyph-name="scircumflex" unicode="&#x15d;" horiz-adv-x="774" 
d="M120 45q-80 55 -80 117t39 101t91 39q47 0 95.5 -35t121.5 -37t94 29t-92.5 64.5t-223.5 97.5t-110 178q0 115 97.5 202.5t234.5 87.5q135 0 233.5 -51.5t98.5 -113.5t-38.5 -101t-90.5 -39q-47 0 -88 31.5t-107 33.5t-87 -29t77.5 -61t223.5 -93.5t125 -185.5
q0 -115 -97.5 -202.5t-256.5 -87.5q-180 0 -260 55zM387 1029l-55 -56q-33 -33 -79 -33t-79 33t-33 79t33 79l133 134q33 33 79 33h2q46 0 78 -33l134 -134q33 -33 33 -79t-33 -79q-32 -33 -78.5 -33t-79.5 33z" />
    <glyph glyph-name="Scircumflex" unicode="&#x15c;" horiz-adv-x="940" 
d="M78 148q-38 38 -38 92t38 92t92 38t92 -38q117 -82 208 -82q71 0 120.5 30.5t49.5 74.5t-49.5 69.5t-150.5 45.5q-166 36 -273 119.5t-107 238.5q5 154 121 256q113 100 279 106q239 0 382 -148q38 -38 38 -92t-38 -92t-92 -38t-92 38q-23 23 -65 47.5t-113 24.5
t-115.5 -30.5t-44.5 -74.5t44.5 -69.5t141.5 -45.5q168 -35 281 -119t113 -240q-6 -153 -125 -254q-126 -107 -305 -107q-219 0 -392 158zM470 1301l-55 -56q-33 -33 -79 -33t-79 33t-33 79t33 79l133 134q33 33 79 33h2q46 0 78 -33l134 -134q33 -33 33 -79t-33 -79
q-32 -33 -78.5 -33t-79.5 33z" />
    <glyph glyph-name="scaron" unicode="&#x161;" horiz-adv-x="774" 
d="M120 45q-80 55 -80 117t39 101t91 39q47 0 95.5 -35t121.5 -37t94 29t-92.5 64.5t-223.5 97.5t-110 178q0 115 97.5 202.5t234.5 87.5q135 0 233.5 -51.5t98.5 -113.5t-38.5 -101t-90.5 -39q-47 0 -88 31.5t-107 33.5t-87 -29t77.5 -61t223.5 -93.5t125 -185.5
q0 -115 -97.5 -202.5t-256.5 -87.5q-180 0 -260 55zM442 1265q33 33 79.5 33t78.5 -33q33 -32 33 -78.5t-33 -79.5l-134 -134q-32 -33 -78 -33h-2q-46 0 -79 33l-133 134q-33 33 -33 79.5t33 78.5q33 33 79 33t79 -33l55 -55z" />
    <glyph glyph-name="Scaron" unicode="&#x160;" horiz-adv-x="940" 
d="M78 148q-38 38 -38 92t38 92t92 38t92 -38q117 -82 208 -82q71 0 120.5 30.5t49.5 74.5t-49.5 69.5t-150.5 45.5q-166 36 -273 119.5t-107 238.5q5 154 121 256q113 100 279 106q239 0 382 -148q38 -38 38 -92t-38 -92t-92 -38t-92 38q-23 23 -65 47.5t-113 24.5
t-115.5 -30.5t-44.5 -74.5t44.5 -69.5t141.5 -45.5q168 -35 281 -119t113 -240q-6 -153 -125 -254q-126 -107 -305 -107q-219 0 -392 158zM525 1537q33 33 79.5 33t78.5 -33q33 -32 33 -78.5t-33 -79.5l-134 -134q-32 -33 -78 -33h-2q-46 0 -79 33l-133 134q-33 33 -33 79.5
t33 78.5q33 33 79 33t79 -33l55 -55z" />
    <glyph glyph-name="scedilla" unicode="&#x15f;" horiz-adv-x="774" 
d="M287 -6q-109 11 -167 51q-80 55 -80 117t39 101t91 39q47 0 95.5 -35t121.5 -37t94 29t-92.5 64.5t-223.5 97.5t-110 178q0 115 97.5 202.5t234.5 87.5q135 0 233.5 -51.5t98.5 -113.5t-38.5 -101t-90.5 -39q-47 0 -88 31.5t-107 33.5t-87 -29t77.5 -61t223.5 -93.5
t125 -185.5q0 -115 -97 -202q-77 -69 -191 -84l-11 -30q58 1 111 -33q74 -53 74 -140q0 -96 -71.5 -150t-169.5 -54q-105 0 -164.5 42.5t-59.5 95.5q0 42 22 64.5t55 22.5q29 0 63 -36t99 -35t70 51q-1 39 -40 49t-78 4q-79 -6 -96 34q-8 39 21 86z" />
    <glyph glyph-name="Scedilla" unicode="&#x15e;" horiz-adv-x="940" 
d="M372 -2q-161 28 -294 150q-38 38 -38 92t38 92t92 38t92 -38q117 -82 208 -82q71 0 120.5 30.5t49.5 74.5t-49.5 69.5t-150.5 45.5q-166 36 -273 119.5t-107 238.5q5 154 121 256q113 100 279 106q239 0 382 -148q38 -38 38 -92t-38 -92t-92 -38t-92 38q-23 23 -65 47.5
t-113 24.5t-115.5 -30.5t-44.5 -74.5t44.5 -69.5t141.5 -45.5q168 -35 281 -119t113 -240q-6 -153 -125 -254q-105 -89 -247 -104l-10 -29q58 1 111 -33q74 -53 74 -140q0 -96 -71.5 -150t-169.5 -54q-105 0 -164.5 42.5t-59.5 95.5q0 42 22 64.5t55 22.5q29 0 63 -36
t99 -35t70 51q-1 39 -40 49t-78 4q-79 -6 -96 34q-8 39 21 86z" />
    <glyph glyph-name="germandbls" unicode="&#xdf;" horiz-adv-x="1000" 
d="M500 930q-79 0 -134.5 -55.5t-55.5 -134.5v-620q0 -54 -38 -92t-92 -38t-92 38t-38 92v620q0 187 131.5 318.5t318.5 131.5q176 -6 300 -106q115 -92 120 -246q0 -132 -83 -220q123 -91 123 -257q-6 -163 -125 -264q-126 -107 -285 -107q-54 0 -92 38t-38 92t38 92t92 38
q71 0 110.5 30.5t39.5 84.5t-29 90q-46 35 -111 35q-54 0 -87 33t-33 87t33 87t87 33q47 1 76 31q24 30 24 74t-44.5 69.5t-115.5 25.5z" />
    <glyph glyph-name="uni2120" unicode="&#x2120;" horiz-adv-x="1120" 
d="M909 1184q60 0 76 -49l83 -342q12 -32 2 -63.5t-42 -43.5q-33 -12 -59.5 2.5t-38.5 47.5l-42 189l-60 -196q-25 -49 -66 -49t-66 49l-60 196l-42 -189q-12 -33 -38.5 -47.5t-59.5 -2.5q-32 12 -42 43.5t2 63.5l83 342q16 49 76 49t77 -49l70 -209l71 209q16 49 76 49z
M85.5 711q-45.5 31 -45.5 67q0 35 22 57t52 22q26 0 53.5 -20t69 -21t53.5 16.5t-52.5 36.5t-126.5 55.5t-62 100.5q0 66 55 115.5t133 49.5q76 0 132 -29t56 -65q0 -35 -21.5 -57t-51.5 -22q-27 0 -50 18t-60.5 19t-49.5 -16.5t44 -34.5t127 -53t71 -105
q0 -66 -55.5 -115.5t-145.5 -49.5q-102 0 -147.5 31z" />
    <glyph glyph-name="longs" unicode="&#x17f;" horiz-adv-x="636" 
d="M300 115q0 -52 -36.5 -88.5t-88.5 -36.5t-88.5 36.5t-36.5 88.5v880q0 102 71.5 173.5t194.5 71.5q132 0 201 -54t69 -116t-34 -96t-86 -34t-78 21t-57 22t-31 -53v-815z" />
    <glyph glyph-name="t" unicode="t" horiz-adv-x="670" 
d="M460 630v-515q0 -52 -36.5 -88.5t-88.5 -36.5t-88.5 36.5t-36.5 88.5v515h-55q-52 0 -88.5 36.5t-36.5 88.5t36.5 88.5t88.5 36.5h55v175q0 52 36.5 88.5t88.5 36.5t88.5 -36.5t36.5 -88.5v-175h55q52 0 88.5 -36.5t36.5 -88.5t-36.5 -88.5t-88.5 -36.5h-55z" />
    <glyph glyph-name="T" unicode="T" horiz-adv-x="930" 
d="M335 920h-165q-54 0 -92 38t-38 92t38 92t92 38h590q54 0 92 -38t38 -92t-38 -92t-92 -38h-165v-800q0 -54 -38 -92t-92 -38t-92 38t-38 92v800z" />
    <glyph glyph-name="tcaron" unicode="&#x165;" horiz-adv-x="824" 
d="M460 630v-515q0 -52 -36.5 -88.5t-88.5 -36.5t-88.5 36.5t-36.5 88.5v515h-55q-52 0 -88.5 36.5t-36.5 88.5t36.5 88.5t88.5 36.5h55v175q0 52 36.5 88.5t88.5 36.5t88.5 -36.5t36.5 -88.5v-175h55q52 0 88.5 -36.5t36.5 -88.5t-36.5 -88.5t-88.5 -36.5h-55zM711 921
q-69 15 -90 82t11 121q30 54 90.5 70.5t114.5 -14.5q54 -32 70.5 -92.5t-15.5 -114.5l-102 -172q-14 -24 -40.5 -31t-50.5 7t-31.5 41t6.5 51z" />
    <glyph glyph-name="Tcaron" unicode="&#x164;" horiz-adv-x="930" 
d="M335 920h-165q-54 0 -92 38t-38 92t38 92t92 38h590q54 0 92 -38t38 -92t-38 -92t-92 -38h-165v-800q0 -54 -38 -92t-92 -38t-92 38t-38 92v800zM520 1537q33 33 79.5 33t78.5 -33q33 -32 33 -78.5t-33 -79.5l-134 -134q-32 -33 -78 -33h-2q-46 0 -79 33l-133 134
q-33 33 -33 79.5t33 78.5q33 33 79 33t79 -33l55 -55z" />
    <glyph glyph-name="tcommaaccent" unicode="&#x163;" horiz-adv-x="670" 
d="M249 24q-1 1 -2 3q-37 36 -37 88v515h-55q-52 0 -88.5 36.5t-36.5 88.5t36.5 88.5t88.5 36.5h55v175q0 52 36.5 88.5t88.5 36.5t88.5 -36.5t36.5 -88.5v-175h55q52 0 88.5 -36.5t36.5 -88.5t-36.5 -88.5t-88.5 -36.5h-55v-515q0 -52 -36 -88q-16 -16 -25 -20l-16 -43
q58 1 111 -33q74 -53 74 -140q0 -96 -71.5 -150t-169.5 -54q-105 0 -164.5 42.5t-59.5 95.5q0 42 22 64.5t55 22.5q29 0 63 -36t99 -35t70 51q-1 39 -40 49t-78 4q-79 -6 -96 34q-8 39 21 86z" />
    <glyph glyph-name="Tcommaaccent" unicode="&#x162;" horiz-adv-x="930" 
d="M379 22l-6 6q-38 38 -38 92v800h-165q-54 0 -92 38t-38 92t38 92t92 38h590q54 0 92 -38t38 -92t-38 -92t-92 -38h-165v-800q0 -54 -38 -92q-15 -15 -32 -24l-12 -40q58 1 111 -33q74 -53 74 -140q0 -96 -71.5 -150t-169.5 -54q-105 0 -164.5 42.5t-59.5 95.5
q0 42 22 64.5t55 22.5q29 0 63 -36t99 -35t70 51q-1 39 -40 49t-78 4q-79 -6 -96 34q-8 39 21 86z" />
    <glyph glyph-name="thorn" unicode="&#xfe;" horiz-adv-x="990" 
d="M641.5 298.5q58.5 58.5 58.5 141.5t-58.5 141.5t-141.5 58.5t-141.5 -58.5t-58.5 -141.5t58.5 -141.5t141.5 -58.5t141.5 58.5zM300 845q90 45 200 45q187 0 318.5 -131.5t131.5 -318.5t-131.5 -318.5t-318.5 -131.5q-110 0 -200 45v-230q0 -52 -36.5 -88.5t-88.5 -36.5
t-88.5 36.5t-36.5 88.5v1270q0 52 36.5 88.5t88.5 36.5t88.5 -36.5t36.5 -88.5v-230z" />
    <glyph glyph-name="Thorn" unicode="&#xde;" horiz-adv-x="960" 
d="M310 770v-340h180q70 0 120 50t50 120t-50 120t-120 50h-180zM310 170v-50q0 -54 -38 -92t-92 -38t-92 38t-38 92v940q0 54 38 92t92 38t92 -38t38 -92v-30h180q179 0 304.5 -125.5t125.5 -304.5t-125.5 -304.5t-304.5 -125.5h-180z" />
    <glyph glyph-name="trademark" unicode="&#x2122;" horiz-adv-x="1105" 
d="M396 1180q30 0 52 -22t22 -52t-22 -52t-52 -22h-62v-278q0 -29 -22 -51.5t-52 -22.5t-52 22.5t-22 51.5v278h-62q-30 0 -52 22t-22 52t22 52t52 22h272zM884 1184q60 0 76 -49l83 -342q12 -32 2 -63.5t-42 -43.5q-33 -12 -59.5 2.5t-38.5 47.5l-42 189l-60 -196
q-25 -49 -66 -49t-66 49l-60 196l-42 -189q-12 -33 -38.5 -47.5t-59.5 -2.5q-32 12 -42 43.5t2 63.5l83 342q16 49 76 49t77 -49l70 -209l71 209q16 49 76 49z" />
    <glyph glyph-name="tbar" unicode="&#x167;" horiz-adv-x="670" 
d="M210 535v95h-55q-52 0 -88.5 36.5t-36.5 88.5t36.5 88.5t88.5 36.5h55v175q0 52 36.5 88.5t88.5 36.5t88.5 -36.5t36.5 -88.5v-175h55q52 0 88.5 -36.5t36.5 -88.5t-36.5 -88.5t-88.5 -36.5h-55v-95h45q43 0 71.5 -28.5t28.5 -71.5t-28.5 -71.5t-71.5 -28.5h-45v-220
q0 -52 -36.5 -88.5t-88.5 -36.5t-88.5 36.5t-36.5 88.5v220h-55q-43 0 -71.5 28.5t-28.5 71.5t28.5 71.5t71.5 28.5h55z" />
    <glyph glyph-name="Tbar" unicode="&#x166;" horiz-adv-x="930" 
d="M335 685v235h-165q-54 0 -92 38t-38 92t38 92t92 38h590q54 0 92 -38t38 -92t-38 -92t-92 -38h-165v-235h120q43 0 71.5 -28.5t28.5 -71.5t-28.5 -71.5t-71.5 -28.5h-120v-365q0 -54 -38 -92t-92 -38t-92 38t-38 92v365h-120q-43 0 -71.5 28.5t-28.5 71.5t28.5 71.5
t71.5 28.5h120z" />
    <glyph glyph-name="u" unicode="u" horiz-adv-x="900" 
d="M50 390v375q0 52 36.5 88.5t88.5 36.5t88.5 -36.5t36.5 -88.5v-375q0 -63 43.5 -106.5t106.5 -43.5t106.5 43.5t43.5 106.5v375q0 52 36.5 88.5t88.5 36.5t88.5 -36.5t36.5 -88.5v-375q0 -167 -116.5 -283.5t-283.5 -116.5t-283.5 116.5t-116.5 283.5z" />
    <glyph glyph-name="U" unicode="U" horiz-adv-x="1040" 
d="M730 480v580q0 54 38 92t92 38t92 -38t38 -92v-580q0 -217 -126.5 -353.5t-343.5 -136.5t-343.5 136.5t-126.5 353.5v580q0 54 38 92t92 38t92 -38t38 -92v-580q0 -109 50.5 -169.5t159.5 -60.5t159.5 60.5t50.5 169.5z" />
    <glyph glyph-name="uacute" unicode="&#xfa;" horiz-adv-x="900" 
d="M50 390v375q0 52 36.5 88.5t88.5 36.5t88.5 -36.5t36.5 -88.5v-375q0 -63 43.5 -106.5t106.5 -43.5t106.5 43.5t43.5 106.5v375q0 52 36.5 88.5t88.5 36.5t88.5 -36.5t36.5 -88.5v-375q0 -167 -116.5 -283.5t-283.5 -116.5t-283.5 116.5t-116.5 283.5zM466.5 1224
q37.5 38 91.5 38t92 -38t38 -92t-38 -92t-132.5 -54t-121.5 -16t-46 19t-19 46t49 89t86.5 100z" />
    <glyph glyph-name="Uacute" unicode="&#xda;" horiz-adv-x="1040" 
d="M730 480v580q0 54 38 92t92 38t92 -38t38 -92v-580q0 -217 -126.5 -353.5t-343.5 -136.5t-343.5 136.5t-126.5 353.5v580q0 54 38 92t92 38t92 -38t38 -92v-580q0 -109 50.5 -169.5t159.5 -60.5t159.5 60.5t50.5 169.5zM536.5 1496q37.5 38 91.5 38t92 -38t38 -92
t-38 -92t-132.5 -54t-121.5 -16t-46 19t-19 46t49 89t86.5 100z" />
    <glyph glyph-name="ugrave" unicode="&#xf9;" horiz-adv-x="900" 
d="M50 390v375q0 52 36.5 88.5t88.5 36.5t88.5 -36.5t36.5 -88.5v-375q0 -63 43.5 -106.5t106.5 -43.5t106.5 43.5t43.5 106.5v375q0 52 36.5 88.5t88.5 36.5t88.5 -36.5t36.5 -88.5v-375q0 -167 -116.5 -283.5t-283.5 -116.5t-283.5 116.5t-116.5 283.5zM569 1035
q0 -27 -19.5 -46t-45.5 -19q-27 0 -121.5 16t-132.5 54t-38 92t38 92t92 38q53 0 91 -38t87 -100t49 -89z" />
    <glyph glyph-name="Ugrave" unicode="&#xd9;" horiz-adv-x="1040" 
d="M730 480v580q0 54 38 92t92 38t92 -38t38 -92v-580q0 -217 -126.5 -353.5t-343.5 -136.5t-343.5 136.5t-126.5 353.5v580q0 54 38 92t92 38t92 -38t38 -92v-580q0 -109 50.5 -169.5t159.5 -60.5t159.5 60.5t50.5 169.5zM639 1307q0 -27 -19.5 -46t-45.5 -19
q-27 0 -121.5 16t-132.5 54t-38 92t38 92t92 38q53 0 91 -38t87 -100t49 -89z" />
    <glyph glyph-name="ucircumflex" unicode="&#xfb;" horiz-adv-x="900" 
d="M50 390v375q0 52 36.5 88.5t88.5 36.5t88.5 -36.5t36.5 -88.5v-375q0 -63 43.5 -106.5t106.5 -43.5t106.5 43.5t43.5 106.5v375q0 52 36.5 88.5t88.5 36.5t88.5 -36.5t36.5 -88.5v-375q0 -167 -116.5 -283.5t-283.5 -116.5t-283.5 116.5t-116.5 283.5zM450 1029l-55 -56
q-33 -33 -79 -33t-79 33t-33 79t33 79l133 134q33 33 79 33h2q46 0 78 -33l134 -134q33 -33 33 -79t-33 -79q-32 -33 -78.5 -33t-79.5 33z" />
    <glyph glyph-name="Ucircumflex" unicode="&#xdb;" horiz-adv-x="1040" 
d="M730 480v580q0 54 38 92t92 38t92 -38t38 -92v-580q0 -217 -126.5 -353.5t-343.5 -136.5t-343.5 136.5t-126.5 353.5v580q0 54 38 92t92 38t92 -38t38 -92v-580q0 -109 50.5 -169.5t159.5 -60.5t159.5 60.5t50.5 169.5zM520 1301l-55 -56q-33 -33 -79 -33t-79 33t-33 79
t33 79l133 134q33 33 79 33h2q46 0 78 -33l134 -134q33 -33 33 -79t-33 -79q-32 -33 -78.5 -33t-79.5 33z" />
    <glyph glyph-name="udieresis" unicode="&#xfc;" horiz-adv-x="900" 
d="M50 390v375q0 52 36.5 88.5t88.5 36.5t88.5 -36.5t36.5 -88.5v-375q0 -63 43.5 -106.5t106.5 -43.5t106.5 43.5t43.5 106.5v375q0 52 36.5 88.5t88.5 36.5t88.5 -36.5t36.5 -88.5v-375q0 -167 -116.5 -283.5t-283.5 -116.5t-283.5 116.5t-116.5 283.5zM392 1212
q38 -38 38 -92t-38 -92t-92 -38t-92 38t-38 92t38 92t92 38t92 -38zM692 1212q38 -38 38 -92t-38 -92t-92 -38t-92 38t-38 92t38 92t92 38t92 -38z" />
    <glyph glyph-name="Udieresis" unicode="&#xdc;" horiz-adv-x="1040" 
d="M730 480v580q0 54 38 92t92 38t92 -38t38 -92v-580q0 -217 -126.5 -353.5t-343.5 -136.5t-343.5 136.5t-126.5 353.5v580q0 54 38 92t92 38t92 -38t38 -92v-580q0 -109 50.5 -169.5t159.5 -60.5t159.5 60.5t50.5 169.5zM462 1484q38 -38 38 -92t-38 -92t-92 -38t-92 38
t-38 92t38 92t92 38t92 -38zM762 1484q38 -38 38 -92t-38 -92t-92 -38t-92 38t-38 92t38 92t92 38t92 -38z" />
    <glyph glyph-name="uni01D4" unicode="&#x1d4;" horiz-adv-x="900" 
d="M50 390v375q0 52 36.5 88.5t88.5 36.5t88.5 -36.5t36.5 -88.5v-375q0 -63 43.5 -106.5t106.5 -43.5t106.5 43.5t43.5 106.5v375q0 52 36.5 88.5t88.5 36.5t88.5 -36.5t36.5 -88.5v-375q0 -167 -116.5 -283.5t-283.5 -116.5t-283.5 116.5t-116.5 283.5zM505 1265
q33 33 79.5 33t78.5 -33q33 -32 33 -78.5t-33 -79.5l-134 -134q-32 -33 -78 -33h-2q-46 0 -79 33l-133 134q-33 33 -33 79.5t33 78.5q33 33 79 33t79 -33l55 -55z" />
    <glyph glyph-name="uni01D3" unicode="&#x1d3;" horiz-adv-x="1040" 
d="M730 480v580q0 54 38 92t92 38t92 -38t38 -92v-580q0 -217 -126.5 -353.5t-343.5 -136.5t-343.5 136.5t-126.5 353.5v580q0 54 38 92t92 38t92 -38t38 -92v-580q0 -109 50.5 -169.5t159.5 -60.5t159.5 60.5t50.5 169.5zM575 1537q33 33 79.5 33t78.5 -33q33 -32 33 -78.5
t-33 -79.5l-134 -134q-32 -33 -78 -33h-2q-46 0 -79 33l-133 134q-33 33 -33 79.5t33 78.5q33 33 79 33t79 -33l55 -55z" />
    <glyph glyph-name="ubreve" unicode="&#x16d;" horiz-adv-x="900" 
d="M50 390v375q0 52 36.5 88.5t88.5 36.5t88.5 -36.5t36.5 -88.5v-375q0 -63 43.5 -106.5t106.5 -43.5t106.5 43.5t43.5 106.5v375q0 52 36.5 88.5t88.5 36.5t88.5 -36.5t36.5 -88.5v-375q0 -167 -116.5 -283.5t-283.5 -116.5t-283.5 116.5t-116.5 283.5zM450 1171
q57 0 91 41q10 16 32.5 47t82.5 31q61 0 88 -35.5t27 -74.5q0 -68 -80.5 -148.5t-240.5 -80.5t-240.5 80.5t-80.5 148.5q0 39 27 74.5t88 35.5t83 -31t31 -47q36 -41 92 -41z" />
    <glyph glyph-name="Ubreve" unicode="&#x16c;" horiz-adv-x="1040" 
d="M730 480v580q0 54 38 92t92 38t92 -38t38 -92v-580q0 -217 -126.5 -353.5t-343.5 -136.5t-343.5 136.5t-126.5 353.5v580q0 54 38 92t92 38t92 -38t38 -92v-580q0 -109 50.5 -169.5t159.5 -60.5t159.5 60.5t50.5 169.5zM520 1443q57 0 91 41q10 16 32.5 47t82.5 31
q61 0 88 -35.5t27 -74.5q0 -68 -80.5 -148.5t-240.5 -80.5t-240.5 80.5t-80.5 148.5q0 39 27 74.5t88 35.5t83 -31t31 -47q36 -41 92 -41z" />
    <glyph glyph-name="umacron" unicode="&#x16b;" horiz-adv-x="900" 
d="M50 390v375q0 52 36.5 88.5t88.5 36.5t88.5 -36.5t36.5 -88.5v-375q0 -63 43.5 -106.5t106.5 -43.5t106.5 43.5t43.5 106.5v375q0 52 36.5 88.5t88.5 36.5t88.5 -36.5t36.5 -88.5v-375q0 -167 -116.5 -283.5t-283.5 -116.5t-283.5 116.5t-116.5 283.5zM750 1120
q0 -43 -28.5 -71.5t-71.5 -28.5h-400q-43 0 -71.5 28.5t-28.5 71.5t28.5 71.5t71.5 28.5h400q43 0 71.5 -28.5t28.5 -71.5z" />
    <glyph glyph-name="Umacron" unicode="&#x16a;" horiz-adv-x="1040" 
d="M730 480v580q0 54 38 92t92 38t92 -38t38 -92v-580q0 -217 -126.5 -353.5t-343.5 -136.5t-343.5 136.5t-126.5 353.5v580q0 54 38 92t92 38t92 -38t38 -92v-580q0 -109 50.5 -169.5t159.5 -60.5t159.5 60.5t50.5 169.5zM820 1392q0 -43 -28.5 -71.5t-71.5 -28.5h-400
q-43 0 -71.5 28.5t-28.5 71.5t28.5 71.5t71.5 28.5h400q43 0 71.5 -28.5t28.5 -71.5z" />
    <glyph glyph-name="utilde" unicode="&#x169;" horiz-adv-x="900" 
d="M50 390v375q0 52 36.5 88.5t88.5 36.5t88.5 -36.5t36.5 -88.5v-375q0 -63 43.5 -106.5t106.5 -43.5t106.5 43.5t43.5 106.5v375q0 52 36.5 88.5t88.5 36.5t88.5 -36.5t36.5 -88.5v-375q0 -167 -116.5 -283.5t-283.5 -116.5t-283.5 116.5t-116.5 283.5zM312 1006
q-37 -36 -78 -36t-72.5 31.5t-31.5 82.5t35 87.5t81.5 56.5t98.5 20q51 0 108 -37q35 -22 69 -23q34 1 66 23q37 37 78 37q42 0 73 -31.5t31 -82.5q0 -52 -35 -88t-81.5 -56t-98.5 -20q-51 0 -108 36q-35 23 -69 24q-34 -1 -66 -24z" />
    <glyph glyph-name="Utilde" unicode="&#x168;" horiz-adv-x="1040" 
d="M730 480v580q0 54 38 92t92 38t92 -38t38 -92v-580q0 -217 -126.5 -353.5t-343.5 -136.5t-343.5 136.5t-126.5 353.5v580q0 54 38 92t92 38t92 -38t38 -92v-580q0 -109 50.5 -169.5t159.5 -60.5t159.5 60.5t50.5 169.5zM382 1278q-37 -36 -78 -36t-72.5 31.5t-31.5 82.5
t35 87.5t81.5 56.5t98.5 20q51 0 108 -37q35 -22 69 -23q34 1 66 23q37 37 78 37q42 0 73 -31.5t31 -82.5q0 -52 -35 -88t-81.5 -56t-98.5 -20q-51 0 -108 36q-35 23 -69 24q-34 -1 -66 -24z" />
    </font>
</defs>
</svg>
